<svg width="1086" height="313" viewBox="0 0 1086 313" fill="none" xmlns="http://www.w3.org/2000/svg">
<g clip-path="url(#clip0_15234_9136)">
<path d="M218.839 312.52C205.159 312.52 192.249 307.27 182.489 297.74C181.859 297.12 181.239 296.47 180.639 295.79C167.329 304.67 151.679 310.17 136.339 311.21C133.729 311.38 131.089 311.47 128.489 311.47C109.589 311.47 92.069 306.9 79.459 298.95C74.639 303.81 69.009 307.52 63.189 309.59C59.359 310.95 55.409 311.63 51.459 311.63C44.539 311.63 37.819 309.58 31.489 305.54C16.039 295.67 6.25899 274.55 2.40899 242.78C-0.62101 217.74 0.57899 191.17 1.56899 177.56L1.64899 176.48C2.81899 160.4 4.76899 133.49 9.60899 105.95C15.619 71.77 24.509 46.11 36.049 29.67C45.129 16.77 55.539 4.35999 70.229 1.02999C75.129 -0.0800147 80.209 -0.640015 85.339 -0.640015C93.919 -0.640015 102.759 0.929986 111.629 4.00999C141.669 14.47 160.749 34.71 163.989 59.54C166.099 75.69 160.779 94.39 148.169 115.24C161.379 115.85 174.829 120.54 186.379 128.49C187.289 127.39 188.229 126.33 189.189 125.33C184.689 121.5 181.019 116.81 178.409 111.48C172.789 99.98 171.859 85.85 175.869 72.7C180.149 58.66 189.419 47.42 201.969 41.05C210.319 36.81 219.519 34.57 228.569 34.57C234.319 34.57 239.899 35.46 245.159 37.22C256.679 41.08 269.379 52.2 274.699 63.08C278.779 71.41 279.899 80.56 278.479 89.5C281.709 88.46 285.049 87.94 288.479 87.94C294.809 87.94 301.279 89.68 308.259 93.26C315.019 96.73 320.619 101.67 324.669 107.59C327.109 105.37 329.639 103.28 332.059 101.69C342.659 94.73 352.109 91.48 361.789 91.48C367.589 91.48 373.459 92.6 380.439 95.06C382.509 93.85 384.649 92.66 387.179 92.24C393.989 89.42 401.929 87.89 409.789 87.89C416.579 87.89 423.029 89.02 428.429 91.17C437.259 94.67 442.669 99.81 446.039 105.46C450.919 99.52 456.519 94.67 463.249 91.93C471.319 88.65 480.709 86.84 489.679 86.84C500.189 86.84 509.889 89.31 517.969 94.02C525.559 89.88 534.179 87.65 542.889 87.65C553.019 87.65 562.659 90.62 570.049 96.02C573.969 98.88 577.219 102.77 579.819 106.95C587.049 99.45 596.589 91.85 608.579 89.46C612.159 88.75 615.809 88.38 619.439 88.38C635.869 88.38 651.879 95.96 661.229 108.16C662.229 109.46 663.049 110.69 663.729 111.84C681.969 100.25 702.789 93.75 722.429 93.75C732.419 93.75 741.919 95.42 750.689 98.71C751.299 98.89 752.639 99.27 754.279 99.74C754.299 99.54 754.329 99.34 754.349 99.14C759.409 58.33 763.769 23.09 792.619 9.30999C803.309 4.19999 815.639 1.49999 828.259 1.49999C841.789 1.49999 854.659 4.56999 865.459 10.37C882.499 19.53 892.899 34.28 895.519 53.02C897.129 64.53 895.459 76.84 890.539 89.8C891.899 89.66 893.279 89.59 894.639 89.59C908.539 89.59 922.879 96.83 934.209 109.3C938.539 105.05 942.989 100.89 947.399 98.52C960.029 91.72 973.679 88.27 987.979 88.27C999.949 88.27 1012.36 90.69 1024.86 95.47C1049.81 105 1068.96 125.07 1078.79 151.96C1088.44 178.36 1087.9 208.21 1077.27 236.01C1059.99 281.22 1019.33 311.6 976.089 311.6C965.209 311.6 954.589 309.64 944.489 305.79C941.699 304.72 938.949 303.51 936.279 302.17C925.849 308.08 914.239 311.18 902.339 311.18C892.079 311.18 881.959 308.92 872.259 304.45C863.809 300.56 856.949 294.55 851.539 288.19C851.079 288.9 850.599 289.6 850.119 290.29C840.489 303.91 824.819 311.42 805.999 311.42C803.059 311.42 800.019 311.24 796.949 310.88C786.749 309.68 776.759 305.87 768.829 300.15C765.719 297.91 762.989 295.44 760.649 292.76C757.099 295.25 753.429 297.52 749.689 299.53C734.759 307.57 719.139 311.65 703.259 311.65C692.349 311.65 681.659 309.68 671.479 305.79C668.119 304.51 664.799 302.99 661.559 301.26C650.379 308.06 636.199 311.77 621.099 311.77C607.309 311.77 594.349 308.73 585.539 303.44C580.109 300.17 575.349 296.09 571.379 291.33C563.339 303.05 552.629 309.7 539.389 311.17C537.429 311.39 535.449 311.5 533.499 311.5C522.329 311.5 511.999 308.02 503.499 301.41C494.799 307.49 484.269 311.03 473.439 311.34C473.039 311.35 472.639 311.36 472.219 311.36C462.679 311.36 448.629 308.07 439.499 298.91C429.039 304.91 414.079 311.35 398.019 311.35C395.589 311.35 393.159 311.2 390.809 310.91C368.199 308.12 352.159 296.61 342.889 276.62C334.949 292.31 323.549 300.68 314.579 305.08C306.099 309.25 296.639 311.45 287.239 311.45C280.519 311.45 274.009 310.35 268.379 308.26C262.909 306.23 257.939 303.64 253.519 300.53C246.869 305.73 239.029 309.44 230.739 311.25C226.789 312.11 222.769 312.55 218.809 312.55L218.839 312.52Z" fill="black"/>
<path d="M1010.98 97.69C967.378 81.03 916.368 108.5 897.048 159.04C877.728 209.59 897.428 264.07 941.028 280.73C984.628 297.39 1035.64 269.92 1054.96 219.38C1074.28 168.83 1054.58 114.35 1010.98 97.69ZM1013.9 193.7C1013.5 206.67 1008.53 219.94 1000.32 229.99C997.808 233.17 988.018 242.92 984.548 237.87C980.048 229.77 984.508 215.65 987.638 207.22C989.978 201.27 992.838 195.42 996.418 190.12C999.048 186.32 1001.99 182.56 1005.88 180.2C1007.05 179.52 1008.26 179.14 1009.04 179.18C1013.44 180 1013.97 189.78 1013.92 193.7H1013.9Z" fill="#68F9EE"/>
<path d="M967.409 290.19C957.969 290.19 948.519 288.53 939.379 285.04C917.019 276.5 899.879 258.43 891.109 234.17C882.429 210.15 883.009 182.89 892.739 157.41C902.469 131.93 920.219 111.23 942.709 99.12C965.429 86.89 990.249 84.86 1012.61 93.4C1058.51 110.94 1079.44 168.2 1059.25 221.03C1043.08 263.35 1005.37 290.19 967.409 290.19ZM984.429 97.41C971.919 97.41 959.189 100.7 947.089 107.22C926.539 118.29 910.299 137.28 901.349 160.69C892.399 184.11 891.839 209.09 899.769 231.04C907.609 252.75 922.849 268.87 942.669 276.45C983.829 292.18 1032.28 265.84 1050.66 217.75C1069.04 169.65 1050.5 117.73 1009.33 102C1001.31 98.94 992.919 97.42 984.419 97.42L984.429 97.41Z" fill="black"/>
<path d="M790.239 11.07C819.879 -3.08999 867.079 5.76001 872.389 43.63C877.279 78.53 840.239 116.3 840.239 116.3C840.239 116.3 853.839 99.21 883.379 94.92C913.339 90.58 938.059 120.14 923.739 148.79C913.549 169.18 891.069 180.51 849.139 174.36C849.139 174.36 866.479 188.04 883.159 190.06C901.499 192.28 919.389 183.47 937.719 197.68C959.079 214.23 951.199 246.54 937.719 263.22C921.909 282.78 895.999 291.88 869.709 279.77C852.539 271.87 842.469 250.68 839.249 241.05C839.249 241.05 839.659 256.12 829.529 270.45C821.159 282.29 806.789 286.94 789.999 284.96C774.989 283.19 759.199 273.76 757.069 259.29C751.089 218.7 740.399 139.78 743.099 106.61C746.859 60.55 760.599 25.22 790.239 11.06V11.07Z" fill="#A4FFC8"/>
<path d="M955.208 220.71C953.928 209.72 948.848 200.5 940.518 194.05C926.728 183.37 912.808 184.41 900.528 185.32C894.698 185.75 889.188 186.16 883.698 185.5C878.428 184.86 873.008 182.9 868.178 180.61C897.668 181.11 917.688 171.15 927.838 150.85C934.988 136.56 933.818 120.5 924.718 107.91C915.188 94.72 899.078 88 882.708 90.37C874.558 91.55 867.558 93.65 861.638 96.12C861.768 95.91 861.908 95.7 862.038 95.49C874.108 76.23 879.118 58.56 876.938 42.99C874.778 27.53 866.168 15.35 852.048 7.76002C833.588 -2.15998 807.948 -2.49998 788.258 6.91002C759.508 20.65 742.778 54.06 738.518 106.24C735.978 137.43 744.728 207.05 752.518 259.96C753.698 267.96 758.358 275.11 766.008 280.62C772.588 285.36 780.908 288.52 789.458 289.53C792.158 289.85 794.788 290.01 797.338 290.01C812.898 290.01 825.488 284.15 833.288 273.11C837.248 267.51 839.728 261.81 841.278 256.8C846.548 266.37 855.178 278.15 867.778 283.95C893.938 295.99 922.798 289 941.298 266.11C951.498 253.49 956.968 235.67 955.228 220.7L955.208 220.71ZM934.128 260.33C921.578 275.85 898.578 288.01 871.618 275.59C856.678 268.71 846.978 249.73 843.608 239.6C843.588 239.55 843.568 239.51 843.548 239.46C840.758 230.52 840.518 220.37 844.218 211.67C844.558 211.04 844.418 210.22 843.808 209.79C843.168 209.32 842.268 209.47 841.798 210.11C838.538 214.72 836.638 219.82 835.438 225.27C834.398 230.39 834.648 241.09 834.648 241.16C834.628 245.73 834.828 254.98 825.778 267.79C818.728 277.76 806.208 282.23 790.538 280.39C777.538 278.86 763.438 270.89 761.628 258.62C755.308 215.69 745.088 138.9 747.698 106.98C751.668 58.31 766.648 27.43 792.238 15.21C809.148 7.13002 831.958 7.40002 847.708 15.86C855.678 20.14 865.638 28.55 867.838 44.26C871.708 71.93 853.318 93.68 838.968 110.89C831.458 119.9 826.098 133.26 823.538 143.85C823.158 145.54 825.578 146.35 826.288 144.77C827.348 142.39 828.568 139.99 829.848 137.68C833.368 131.22 837.728 125.05 842.888 119.87C842.888 119.87 845.408 117.28 847.538 115.37C851.158 112.11 862.488 102.6 884.038 99.47C897.028 97.59 909.758 102.88 917.278 113.29C924.438 123.2 925.298 135.39 919.628 146.73C909.328 167.33 885.838 175.09 849.808 169.8C847.738 169.49 845.738 170.62 844.918 172.53C844.098 174.44 844.658 176.67 846.288 177.96C847.038 178.55 864.848 192.47 882.608 194.62C888.998 195.39 895.218 194.93 901.228 194.48C913.398 193.57 923.908 192.79 934.898 201.31C941.318 206.28 945.078 213.16 946.078 221.76C947.748 236.13 941.288 251.48 934.138 260.32L934.128 260.33Z" fill="black"/>
<path d="M1025.43 173.17C1023.33 171.71 1020.9 170.59 1018.32 170.23C1015.69 169.8 1012.94 170.12 1010.4 170.9C1007.45 171.81 1001.74 174.67 998.069 177.68C989.379 184.82 983.249 193.76 979.079 203.81C975.089 214 972.439 225.63 975.989 236.46C979.269 246.46 985.509 250.45 991.829 250.05C992.479 250.03 992.519 249.05 991.879 248.97C989.379 248.62 987.119 247.5 985.379 245.82C989.079 246.27 993.269 244.67 997.169 241.27C1011.41 228.85 1021.63 201.6 1018.06 182.97C1017.39 179.65 1015.48 175.74 1012.24 174.07C1016.19 172.15 1020.87 172.19 1024.82 174.18C1025.08 174.31 1025.41 174.23 1025.58 173.98C1025.77 173.71 1025.7 173.33 1025.43 173.14V173.17Z" fill="black"/>
<path d="M737.978 97.69C694.378 81.03 643.368 108.5 624.048 159.04C604.728 209.59 624.428 264.07 668.028 280.73C711.628 297.39 762.638 269.92 781.958 219.38C801.278 168.83 781.578 114.35 737.978 97.69ZM741.888 193.7C741.488 206.67 736.518 219.94 728.308 229.99C725.798 233.17 716.008 242.92 712.538 237.87C708.038 229.77 712.498 215.65 715.628 207.22C717.968 201.27 720.828 195.42 724.408 190.12C727.038 186.32 729.978 182.56 733.868 180.2C735.038 179.52 736.248 179.14 737.018 179.18C741.418 180 741.948 189.78 741.898 193.7H741.888Z" fill="#FE93BD"/>
<path d="M694.589 290.24C684.979 290.24 675.479 288.51 666.379 285.04C644.019 276.5 626.879 258.43 618.109 234.17C609.429 210.15 610.009 182.89 619.739 157.41C639.929 104.57 693.699 75.86 739.609 93.4C761.969 101.94 779.109 120.01 787.879 144.27C796.559 168.29 795.979 195.55 786.249 221.03C776.519 246.51 758.769 267.21 736.279 279.32C722.809 286.57 708.589 290.24 694.589 290.24ZM711.529 97.44C677.299 97.44 643.109 122.03 628.339 160.69C619.389 184.11 618.829 209.09 626.759 231.04C634.609 252.75 649.839 268.87 669.659 276.45C689.479 284.02 711.579 282.17 731.909 271.22C752.459 260.15 768.699 241.16 777.649 217.75C786.599 194.33 787.159 169.35 779.229 147.4C771.379 125.69 756.149 109.57 736.329 101.99C728.249 98.9 719.889 97.44 711.529 97.44Z" fill="black"/>
<path d="M584.399 279.52C566.689 268.87 561.339 248.49 564.399 232.18C559.739 253.64 553.479 282.54 529.109 285.25C509.249 287.46 492.709 274.01 491.379 254.93C490.039 235.61 490.149 134.34 504.559 112.87C518.459 92.15 541.699 88.65 556.469 96.8C571.239 104.95 566.729 125 566.729 125C566.729 125 576.889 99.85 604.399 94.37C641.909 86.89 658.199 110.24 657.029 142.53C655.999 170.85 636.069 187.21 637.209 220.34C642.229 199.06 663.849 202.36 670.609 215.86C678.799 232.23 665.199 263.18 648.199 275.45C628.579 289.61 597.509 287.41 584.389 279.52H584.399Z" fill="#FFE2AA"/>
<path d="M645.519 233.56C645.519 233.56 636.169 232.57 637.219 220.34Z" fill="white"/>
<path d="M674.729 213.8C670.289 204.92 660.609 199.49 651.219 200.59C648.279 200.93 645.579 201.87 643.199 203.33C645.019 194.42 648.319 186.65 651.749 178.59C656.359 167.76 661.129 156.56 661.629 142.69C662.339 123.02 656.739 107.08 645.839 97.81C635.629 89.12 620.989 86.37 603.489 89.85C587.889 92.96 577.459 101.76 571.019 109.56C569.239 102.03 565.029 96.27 558.679 92.77C542.339 83.75 516.479 86.84 500.729 110.3C484.979 133.76 485.629 238.55 486.779 255.24C487.489 265.54 492.159 274.78 499.909 281.25C507.999 288 518.549 291.04 529.599 289.81C547.399 287.83 556.519 274.3 562.079 258.86C565.499 268.45 571.899 277.37 582.009 283.45C588.919 287.61 600.189 290.35 612.409 290.35C625.549 290.35 639.789 287.18 650.879 279.17C669.189 265.95 684.079 232.51 674.709 213.79L674.729 213.8ZM664.589 245.49C660.299 256.27 652.989 266.32 645.519 271.72C627.439 284.77 598.649 282.72 586.779 275.57C570.829 265.98 566.309 247.45 568.899 233.25C568.899 233.24 568.899 233.23 568.899 233.22V233.14C568.899 233.14 568.919 233.06 568.929 233.03C568.929 233 568.929 232.97 568.929 232.95C569.039 232.12 569.629 227.77 569.629 227.77C571.599 215.45 574.549 202.87 580.529 191.84C581.249 190.73 579.689 189.59 578.849 190.59C574.119 196.55 570.689 203.18 567.559 210.05C564.679 216.54 561.139 225.76 559.909 231.27C555.229 252.21 549.679 278.34 528.619 280.68C520.079 281.63 511.989 279.33 505.839 274.2C500.029 269.35 496.529 262.4 495.989 254.62C494.539 233.73 495.079 135.29 508.399 115.44C521.099 96.52 541.499 93.79 554.269 100.84C565.789 107.2 562.339 123.32 562.269 124C561.359 132.72 562.549 141.81 566.329 149.3C567.099 150.76 569.339 149.86 568.879 148.27C567.449 141.23 568.049 133.56 570.899 126.96C570.929 126.89 570.979 126.82 571.009 126.75C571.389 125.81 580.689 103.8 605.319 98.9C620.159 95.94 631.799 97.94 639.899 104.84C648.599 112.25 653.059 125.58 652.459 142.38C652.019 154.55 647.789 164.49 643.309 175.01C637.749 188.08 631.989 201.59 632.639 220.52C632.639 220.52 632.639 220.53 632.639 220.54C632.639 220.59 632.639 220.8 632.639 220.85C633.019 228.29 637.129 234.9 645.379 235.02C646.879 235.06 647.379 232.9 645.979 232.29C644.879 231.83 643.619 231.08 642.819 230.14C640.869 228.01 640.909 225.08 641.449 222.41C641.519 222.11 641.609 221.78 641.699 221.44C641.699 221.44 641.699 221.43 641.699 221.42C643.329 214.5 647.089 210.36 652.289 209.76C657.819 209.1 663.799 212.56 666.499 217.95C669.659 224.26 668.939 234.57 664.579 245.52L664.589 245.49Z" fill="black"/>
<path d="M415.069 94.76C437.059 99.66 434.009 127.61 428.959 152.27C434.789 131.85 444.979 105.13 464.829 97.06C487.009 88.04 524.419 91.8 523.429 135.77C522.829 162.43 505.669 173.71 501.199 202.47C497.179 228.32 509.759 238.46 500.889 260.59C493.659 278.62 477.789 285.33 464.859 285.7C453.249 286.03 435.749 279.36 437.539 265.93C437.539 265.93 411.099 288.66 384.439 285.37C360.189 282.37 346.869 267.05 341.949 239.38C337.019 211.63 352.279 137.74 363.849 117.48C375.429 97.22 397.329 90.81 415.069 94.75V94.76Z" fill="#64CFF7"/>
<path d="M510.439 95.46C495.299 85.02 475.209 87.3 462.599 92.43C452.449 96.56 443.809 105.2 436.519 118.61C435.569 105.34 430.489 93.22 415.569 89.9C397.039 85.77 372.469 91.89 359.359 114.83C346.719 136.94 331.909 211.59 336.919 239.81C342.299 270.09 357.489 286.36 383.369 289.56C403.829 292.09 423.659 280.8 433.559 273.94C434.369 275.95 435.569 277.85 437.139 279.6C443.599 286.77 455.149 289.93 463.559 289.93C463.869 289.93 464.179 289.93 464.489 289.92C478.639 289.51 496.619 281.94 504.659 261.92C510.019 248.55 508.279 239.16 506.439 229.22C505.019 221.59 503.559 213.7 505.249 202.79C507.239 190.02 511.929 180.77 516.469 171.83C521.739 161.43 527.199 150.69 527.539 135.49C528.059 112.49 518.529 101.02 510.449 95.45L510.439 95.46ZM518.329 135.3C518.039 148.4 513.499 157.34 508.249 167.68C503.609 176.82 498.359 187.17 496.149 201.39C494.209 213.85 495.899 222.91 497.379 230.91C499.109 240.24 500.479 247.61 496.109 258.5C488.089 278.5 469.669 280.57 464.219 280.73C457.729 280.9 448.459 278.43 443.969 273.45C442.239 271.53 441.429 269.45 441.509 267.13C447.519 258.42 451.719 248.28 452.139 237.63C452.159 236.34 450.279 236.18 450.059 237.44C448.799 242.32 446.399 247.08 443.609 251.27C440.919 255.27 437.699 258.82 434.119 262.01C434.089 262.03 434.059 262.05 434.039 262.07C433.789 262.28 408.779 283.45 384.499 280.44C362.859 277.77 350.619 264.35 345.979 238.21C341.429 212.62 355.899 139.43 367.349 119.4C378.139 100.52 398.339 95.49 413.569 98.88C427.679 102.02 430.789 117.6 423.949 150.97C423.949 151 423.949 151.04 423.939 151.07C422.079 161.43 420.879 172.38 421.199 182.89C421.599 193.69 422.889 204.53 427.299 214.53C428.239 216.47 431.159 215.23 430.459 213.22C428.799 208.57 428.019 203.27 427.579 198.28C426.559 185.56 428.139 172.73 431.009 160.34C430.949 160.54 432.329 155.3 432.879 153.18C432.879 153.17 432.879 153.16 432.889 153.15C441.299 123.67 452.159 106.59 466.069 100.94C477.379 96.34 493.879 95.2 505.219 103.02C514.259 109.25 518.669 120.11 518.329 135.28V135.3Z" fill="black"/>
<path d="M312.518 119.37C312.518 119.37 341.718 82.21 375.798 95.78C408.198 108.69 411.738 140.69 396.148 163.47C382.668 183.15 368.748 187.96 353.968 188.92C339.678 189.85 321.838 182.93 316.358 167.58C316.358 167.58 336.478 212.56 325.178 248.69C313.888 284.82 281.088 289.2 264.778 283.15C246.038 276.2 236.298 262.05 233.188 238.13C230.268 215.67 240.108 127.66 261.578 104.8C283.278 81.69 311.348 94.76 312.508 119.37H312.518Z" fill="#FFF5A1"/>
<path d="M407.748 122.26C404.788 112.55 397.148 99.33 377.508 91.51C362.118 85.38 345.298 87.84 328.858 98.64C323.328 102.27 318.738 106.25 315.358 109.54C312.338 100.45 305.708 93.32 296.758 90.02C283.928 85.29 269.528 89.63 258.238 101.65C235.328 126.04 225.688 216 228.638 238.72C231.988 264.47 242.958 279.96 263.188 287.46C267.298 288.98 272.618 290.02 278.578 290.02C285.648 290.02 293.618 288.55 301.518 284.68C310.818 280.12 323.228 270.4 329.588 250.06C336.318 228.53 332.578 204.44 328.048 187.52C336.078 192.09 345.668 194.08 354.288 193.52C368.198 192.61 384.508 188.65 399.968 166.07C409.268 152.49 412.108 136.52 407.768 122.26H407.748ZM392.358 160.87C379.168 180.14 365.968 183.53 353.678 184.33C341.938 185.09 327.298 179.75 321.698 168.39C321.698 168.39 320.268 165.13 319.558 163.14C318.848 161.15 317.678 157.3 317.398 154.39C316.968 149.26 318.048 143.57 321.468 139.59C321.908 139.17 322.038 138.49 321.658 137.96C320.328 136.2 317.768 139.71 316.838 140.6C314.078 143.86 312.388 147.88 311.518 152.06C310.658 156.26 310.798 161.62 311.248 164.82C311.698 168.02 313.178 171.94 313.178 171.94C317.038 181.67 329.948 217.99 320.778 247.31C316.518 260.94 308.438 271.01 297.428 276.42C285.498 282.28 273.238 281.38 266.358 278.83C249.458 272.57 240.628 259.83 237.738 237.53C234.698 214.12 245.488 128.64 264.918 107.94C271.398 101.04 279.008 97.36 286.298 97.36C288.768 97.36 291.198 97.78 293.538 98.65C301.928 101.75 307.428 109.77 307.898 119.59C307.988 121.51 309.258 123.16 311.088 123.75C312.918 124.34 314.918 123.72 316.108 122.22C316.378 121.88 343.638 87.94 374.068 100.06C386.918 105.18 395.508 113.79 398.908 124.94C402.378 136.34 399.918 149.78 392.318 160.87H392.358Z" fill="black"/>
<path d="M209.659 114.2C196.789 115.84 183.159 126.8 177.079 152.24C171.179 176.96 163.219 255.62 183.999 275.9C204.409 295.83 238.749 285.86 248.269 261.16C257.789 236.46 257.749 164.5 249.969 141.86C240.459 114.19 225.189 112.22 209.659 114.19V114.2Z" fill="#F7DACA"/>
<path d="M210.139 291.13C199.119 291.13 188.769 287 180.779 279.19C157.209 256.18 167.679 171.78 172.599 151.17C180.799 116.83 200.839 110.68 209.069 109.63C225.499 107.54 243.719 109.56 254.309 140.36C262.259 163.47 262.559 236.85 252.549 262.81C247.329 276.36 234.829 286.8 219.929 290.05C216.639 290.77 213.359 291.12 210.129 291.12L210.139 291.13ZM210.239 118.76C203.899 119.57 188.419 124.55 181.549 153.31C174.959 180.9 168.939 254.77 187.209 272.61C195.279 280.49 206.499 283.57 217.979 281.07C229.889 278.47 239.849 270.21 243.969 259.51C253.239 235.45 252.969 164.77 245.609 143.36C236.769 117.63 223.279 117.1 210.229 118.76H210.239Z" fill="black"/>
<path d="M233.964 104.897C252.938 94.3578 261.105 72.8238 252.204 56.7995C243.303 40.7752 220.706 36.3286 201.732 46.8679C182.758 57.4071 174.591 78.9412 183.492 94.9655C192.393 110.99 214.99 115.436 233.964 104.897Z" fill="#F7DACA"/>
<path d="M212.448 115.21C207.838 115.21 203.298 114.5 199.038 113.07C189.908 110.01 182.678 103.83 178.688 95.68C169.548 76.99 179.638 52.88 201.178 41.94C212.598 36.14 225.538 34.95 236.668 38.68C245.798 41.74 253.028 47.92 257.018 56.07C266.158 74.76 256.068 98.87 234.528 109.81C227.488 113.38 219.868 115.21 212.458 115.21H212.448ZM223.238 45.74C217.268 45.74 211.098 47.23 205.348 50.15C188.258 58.82 180.008 77.44 186.958 91.64C189.858 97.57 195.188 102.08 201.958 104.35C210.768 107.3 221.118 106.3 230.358 101.61C247.448 92.94 255.698 74.32 248.748 60.12C245.848 54.19 240.518 49.68 233.748 47.41C230.418 46.3 226.868 45.74 223.238 45.74Z" fill="black"/>
<path d="M174.918 133.39C151.208 112.89 116.618 116.35 97.8482 133.64C97.8482 133.64 145.498 86.07 140.798 50.03C134.878 4.57002 67.1182 -12.93 39.3082 26.67C14.8582 61.5 9.66822 136.64 7.44822 167.23C5.22822 197.86 3.98821 264.8 30.6682 281.85C49.2182 293.7 65.0082 274.93 68.2182 265.3C75.7082 277.6 98.5682 287.14 126.678 285.25C148.848 283.76 179.378 269.74 192.718 236.39C206.058 203.04 204.138 158.64 174.928 133.38L174.918 133.39ZM159.018 193.7C158.618 206.67 153.648 219.94 145.438 229.99C142.928 233.17 133.138 242.92 129.668 237.87C125.168 229.77 129.628 215.65 132.758 207.22C135.098 201.27 137.958 195.42 141.538 190.12C144.168 186.32 147.108 182.56 150.998 180.2C152.168 179.52 153.378 179.14 154.148 179.18C158.548 180 159.078 189.78 159.028 193.7H159.018Z" fill="#FF7589"/>
<path d="M204.329 181.25C201.509 160.16 192.379 142.41 177.929 129.91C159.969 114.38 136.939 111.84 117.919 117.46C120.189 114.53 122.539 111.34 124.879 107.96C140.579 85.23 147.469 65.54 145.369 49.43C142.409 26.76 124.459 8.16001 99.6386 2.05001C74.0486 -4.24999 49.4886 4.17001 35.5486 24.03C10.6386 59.5 5.2386 134.01 2.9286 165.82L2.8486 166.89C1.8886 180.14 0.7086 205.98 3.6386 230.18C7.1086 258.85 15.3686 277.53 28.1786 285.72C32.8786 288.72 37.8186 290.24 42.7686 290.24C45.5786 290.24 48.3886 289.75 51.1586 288.77C58.6586 286.11 65.1386 279.92 69.1486 273.7C80.7686 284.98 103.119 291.43 126.979 289.84C150.349 288.27 182.709 273.78 196.979 238.1C204.209 220.03 206.819 199.84 204.329 181.24V181.25ZM188.439 234.69C175.759 266.4 147.069 279.27 126.369 280.66C98.9986 282.51 78.3686 273.12 72.1486 262.9C71.2186 261.37 69.4886 260.53 67.6986 260.72C65.9186 260.92 64.4186 262.14 63.8486 263.84C62.2186 268.72 56.0886 277.27 48.0886 280.1C43.0586 281.88 38.1686 281.18 33.1386 277.97C22.8986 271.43 15.8586 254.52 12.7786 229.08C9.9386 205.65 11.0886 180.48 12.0286 167.56L12.1086 166.48C14.3586 135.42 19.6286 62.7 43.0686 29.31C57.0586 9.38001 80.3286 6.77001 97.4286 10.98C118.539 16.17 133.769 31.73 136.229 50.61C140.329 82.05 100.519 123.84 95.0986 129.84C92.1986 133.06 90.2486 135.4 84.7686 145.6C80.8386 152.91 78.9886 157.56 76.8286 168.58C76.5386 170.08 78.8986 170.14 79.2786 168.69C80.5086 164.02 85.2786 154.6 89.5686 149.52C93.8586 144.45 99.7586 138.12 100.969 136.99C117.419 121.62 149.359 117.34 171.909 136.84C200.319 161.4 200.389 204.76 188.429 234.66L188.439 234.69Z" fill="black"/>
<path d="M170.549 173.17C168.449 171.71 166.019 170.59 163.439 170.23C160.809 169.8 158.059 170.12 155.519 170.9C152.569 171.81 146.859 174.67 143.189 177.68C134.499 184.82 128.369 193.76 124.199 203.81C120.209 214 117.559 225.63 121.109 236.46C124.389 246.46 130.629 250.45 136.949 250.05C137.599 250.03 137.639 249.05 136.999 248.97C134.499 248.62 132.239 247.5 130.499 245.82C134.199 246.27 138.389 244.67 142.289 241.27C156.529 228.85 166.749 201.6 163.179 182.97C162.509 179.65 160.599 175.74 157.359 174.07C161.309 172.15 165.989 172.19 169.939 174.18C170.199 174.31 170.529 174.23 170.699 173.98C170.889 173.71 170.819 173.33 170.549 173.14V173.17Z" fill="black"/>
<path d="M753.408 173.17C751.308 171.71 748.878 170.59 746.298 170.23C743.668 169.8 740.918 170.12 738.378 170.9C735.428 171.81 729.718 174.67 726.048 177.68C717.358 184.82 711.228 193.76 707.058 203.81C703.068 214 700.418 225.63 703.968 236.46C707.248 246.46 713.488 250.45 719.808 250.05C720.458 250.03 720.498 249.05 719.858 248.97C717.358 248.62 715.098 247.5 713.358 245.82C717.058 246.27 721.248 244.67 725.148 241.27C739.388 228.85 749.608 201.6 746.038 182.97C745.368 179.65 743.458 175.74 740.218 174.07C744.168 172.15 748.848 172.19 752.798 174.18C753.058 174.31 753.388 174.23 753.558 173.98C753.748 173.71 753.678 173.33 753.408 173.14V173.17Z" fill="black"/>
</g>
<defs>
<clipPath id="clip0_15234_9136">
<rect width="1085" height="313" fill="white" transform="translate(0.929688)"/>
</clipPath>
</defs>
</svg>
