<?xml version="1.0" encoding="UTF-8"?>
<svg id="_圖層_1" data-name="圖層 1" xmlns="http://www.w3.org/2000/svg" viewBox="0 0 122.26 37.41">
  <g>
    <g>
      <path d="m51.31,33.44h-.04c.03.82.08,1.85.13,2.72.03.51-.38.94-.89.94h-4.15c-.49,0-.88-.4-.88-.88V10.69c0-.49.4-.88.88-.88h4.22c.49,0,.88.4.88.88v7.27c0,.91-.08,2.52-.12,3.47h.08c.75-2.56,3.23-4.1,6.69-4.1,5.55,0,8.82,3.58,8.82,9.65,0,6.58-3.31,10.43-8.86,10.43-3.54,0-6.06-1.5-6.77-3.98Zm9.65-6.26c0-3.31-1.65-5.28-4.45-5.28-3.15,0-5.04,2.01-5.04,5.36v.91c0,2.95,1.89,4.69,5.08,4.69,2.76,0,4.41-2.09,4.41-5.67Z"/>
      <path d="m70.77,17.65h4.22c.49,0,.88.4.88.88v17.68c0,.49-.4.88-.88.88h-4.22c-.49,0-.88-.4-.88-.88v-17.68c0-.49.4-.88.88-.88Z"/>
      <path d="m80.23,17.65h4.18c.5,0,.91.42.88.92l-.2,4.63h.08c.83-3.7,2.91-5.87,6.73-5.87s6.3,2.56,6.3,7.6c0,.84-.07,2.06-.14,3.04-.03.46-.42.82-.88.82h-3.66c-.51,0-.91-.43-.88-.94.04-.62.05-1.19.05-1.58,0-2.83-1.14-3.98-3.03-3.98-2.56,0-4.33,2.09-4.33,6.42v7.5c0,.49-.4.88-.88.88h-4.22c-.49,0-.88-.4-.88-.88v-17.68c0-.49.4-.88.88-.88Z"/>
      <path d="m101.08,29.18v-10.65c0-.49.4-.88.88-.88h4.22c.49,0,.88.4.88.88v9.94c0,2.72,1.5,3.98,4.06,3.98,3.23,0,5.16-2.13,5.16-6.38v-7.54c0-.49.4-.88.88-.88h4.22c.49,0,.88.4.88.88v17.68c0,.49-.4.88-.88.88h-4.14c-.51,0-.92-.43-.88-.95.09-1.14.17-2.48.2-4.13h-.08c-.87,3.74-3.5,5.39-7.21,5.39-5.04,0-8.19-2.52-8.19-8.23Z"/>
    </g>
    <circle cx="72.85" cy="12.41" r="3.23"/>
  </g>
  <path d="m33.49,26.11c-.25-3.88-2.74-7.08-6.11-8.62,1.4-1.41,2.27-3.36,2.27-5.51,0-4.32-3.51-7.83-7.83-7.83-1.24,0-2.41.3-3.46.81C16.66,2,13.48,0,9.83,0,4.4,0,0,4.4,0,9.83c0,2.56.99,4.89,2.6,6.63v19.46c0,.65.53,1.18,1.18,1.18h19.43c5.92,0,10.67-4.99,10.28-10.99ZM9.83,3.23c2.36,0,4.55,1.28,5.73,3.34.59,1.04,1.68,1.63,2.8,1.63.48,0,.97-.11,1.43-.33.64-.32,1.33-.48,2.03-.48,2.54,0,4.6,2.06,4.6,4.6s-2.06,4.6-4.6,4.6c-1.27,0-2.46-.51-3.34-1.44-.08-.08-.16-.16-.24-.23-.85-.73-1.92-1.13-3.02-1.13-2.64,0-4.79,2.28-4.79,5.08v2.94c0,1.27-1.03,2.3-2.3,2.3s-2.3-1.03-2.3-2.3v-5.26c.02-.83-.28-1.63-.84-2.24-1.13-1.23-1.75-2.81-1.75-4.46,0-3.64,2.96-6.6,6.6-6.6Zm15.41,28.09c-.28.03-.53-.17-.53-.45v-8.3c0-.28.25-.48.53-.45,2.31.26,4.11,2.22,4.11,4.6s-1.8,4.34-4.11,4.6Z"/>
</svg>