<svg width="145" height="40" viewBox="0 0 145 40" fill="none" xmlns="http://www.w3.org/2000/svg">
<path fill-rule="evenodd" clip-rule="evenodd" d="M59.3786 27.4348C56.3126 33.8294 49.8229 38.2128 42.3112 38.2128C35.9237 38.2128 30.2516 35.0155 26.828 30.168V34.7061C26.828 34.9123 26.6747 35.0671 26.5214 35.0671L10.7826 36.4594C10.5782 36.4594 10.3738 36.4079 10.2205 36.2531L1.02251 27.0223C0.818115 26.816 0.767015 26.5581 0.869215 26.3003L8.6875 2.0112C8.7897 1.75335 8.9941 1.54708 9.3007 1.49551L25.6016 0.0515684C25.7038 0.0515684 25.7549 0.103139 25.7038 0.206278L17.2212 26.5066C17.2212 26.6097 17.2723 26.6613 17.3234 26.6613H24.8862C23.8642 24.3407 23.3021 21.7622 23.3021 19.0806C23.3021 8.56049 31.7846 0 42.2601 0C49.7718 0 56.2615 4.38338 59.3275 10.778C62.3935 4.38338 68.8832 0 76.3948 0C82.9356 0 88.7099 3.352 92.1336 8.40578V3.97083C92.1336 3.76455 92.2869 3.60984 92.4913 3.60984L126.779 4.79594C126.882 4.79594 126.933 4.89907 126.882 4.95064L124.327 12.8407C124.224 13.1501 123.969 13.3564 123.662 13.3564H115.946C115.64 13.3564 115.384 13.5627 115.282 13.8721L106.901 39.9146C106.85 40.0177 106.748 40.0177 106.697 39.9661L96.1705 29.2397C95.9661 29.0335 95.915 28.7756 96.0172 28.5178L100.872 13.5111C100.872 13.408 100.821 13.3564 100.769 13.3564H94.5864C95.1485 15.1613 95.4551 17.121 95.4551 19.1322C95.4551 29.6523 86.9725 38.2128 76.497 38.2128C68.9343 38.1612 62.4446 33.7778 59.3786 27.4348ZM128.466 14.7488L126.882 19.6479V22.9483C126.882 23.103 126.933 23.2577 127.035 23.3608C127.137 23.464 127.29 23.5156 127.444 23.5156H134.393C134.547 23.5156 134.7 23.464 134.802 23.3608C134.904 23.2577 134.955 23.103 134.955 22.9483V22.381C134.955 22.2263 134.904 22.0716 134.802 21.9685C134.7 21.8653 134.547 21.8138 134.393 21.8138H129.13V20.0089H133.678C133.831 20.0089 133.984 19.9573 134.087 19.8541C134.189 19.751 134.24 19.5963 134.24 19.4416V18.8228C134.24 18.6681 134.189 18.5133 134.087 18.4102C133.984 18.3071 133.831 18.2555 133.678 18.2555H129.13V16.4506H134.393C134.547 16.4506 134.7 16.399 134.802 16.2959C134.904 16.1927 134.955 16.038 134.955 15.8833V15.3161C134.955 15.1613 134.904 15.0066 134.802 14.9035C134.7 14.8004 134.547 14.7488 134.393 14.7488H128.466ZM135.773 23.5156C135.568 23.5156 135.466 23.4124 135.415 23.2577C135.415 23.1546 135.466 23.0514 135.517 22.9483L138.583 19.029L135.722 15.3676C135.62 15.2645 135.62 15.1613 135.62 15.0582C135.62 14.8519 135.722 14.8004 135.977 14.8004H137.306C137.715 14.8004 138.072 15.0066 138.379 15.3676L140.065 17.482L141.752 15.3676C142.058 15.0066 142.416 14.8004 142.825 14.8004H144.153C144.358 14.8004 144.511 14.9035 144.511 15.0582C144.511 15.1613 144.46 15.2645 144.358 15.3676L141.496 19.029L144.562 22.9483C144.664 23.0514 144.664 23.1546 144.664 23.2061C144.664 23.2577 144.664 23.3093 144.664 23.3608C144.613 23.464 144.511 23.5156 144.358 23.5156H143.08C142.671 23.5156 142.314 23.3093 142.007 22.9483L140.167 20.5761L138.328 22.9483C138.021 23.3093 137.664 23.5156 137.255 23.5156H135.773Z" fill="#191319"/>
</svg>
