<svg width="182" height="40" viewBox="0 0 182 40" fill="none" xmlns="http://www.w3.org/2000/svg">
<g clipPath="url(#clip0_27087_150716)">
<path d="M64.0043 8.74964L63.1885 12.5654C61.5516 11.9596 59.7975 11.7198 58.1946 11.7198C56.3183 11.7198 54.5009 12.2667 54.5009 14.1724C54.5009 15.809 55.8345 16.5957 58.8888 17.8662C62.734 19.4396 65.3382 21.013 65.3382 25.1023C65.3382 29.7636 61.3122 31.9429 56.739 31.9429C54.6187 31.9429 51.9556 31.581 49.6544 30.7607L50.5 26.886C52.5867 27.7316 54.8879 28.1271 56.5833 28.1271C59.1581 28.1271 60.58 27.2184 60.58 25.4346C60.58 23.6509 59.1874 22.8599 56.007 21.5894C52.3132 20.1043 49.7428 18.228 49.7428 14.6562C49.7428 9.81401 53.9497 7.90401 57.917 7.90401C60.1551 7.90401 62.3049 8.20692 64.0001 8.74964H64.0043Z" fill="black"/>
<path d="M85.1025 22.9189C85.1025 28.5184 81.6231 31.9387 76.3558 31.9387C71.0885 31.9387 67.5758 28.5184 67.5758 22.9189C67.5758 17.3193 70.9958 13.9579 76.3558 13.9579C81.7158 13.9579 85.1025 17.3193 85.1025 22.9189ZM80.4994 22.9189C80.4994 19.6795 79.1364 17.4413 76.3516 17.4413C73.5667 17.4413 72.2037 19.6836 72.2037 22.9189C72.2037 26.154 73.5667 28.4595 76.3516 28.4595C79.1364 28.4595 80.4994 26.2802 80.4994 22.9189Z" fill="black"/>
<path d="M88.2782 14.3492H92.8176V16.6504H92.8764C93.7557 14.8961 95.8721 13.9579 98.0848 13.9579C101.959 13.9579 104.442 16.4401 104.442 20.2221V31.5432H99.8097V21.947C99.8097 19.1326 99.1745 17.4371 96.6291 17.4371C94.8412 17.4371 92.906 18.7076 92.906 22.2205V31.5432H88.2739V14.3492H88.2782Z" fill="black"/>
<path d="M123.848 24.3113H112.044C112.317 27.2478 114.736 28.4889 117.707 28.4889C119.007 28.4889 120.584 28.2786 121.825 27.8536L122.338 31.2445C120.824 31.6694 119.191 31.9387 117.164 31.9387C111.018 31.9387 107.445 28.2744 107.445 22.9778C107.445 17.6812 110.715 13.9579 116.104 13.9579C121.097 13.9579 123.853 17.2856 123.853 22.4645V24.3113H123.848ZM116.011 17.0753C113.831 17.0753 112.317 18.7118 112.044 21.1014H119.519C119.549 18.6782 118.156 17.0753 116.007 17.0753H116.011Z" fill="black"/>
<path d="M126.878 7.68945H131.509V11.7156H126.878V7.68945ZM126.878 14.3491H131.509V31.5431H126.878V14.3491Z" fill="black"/>
<path d="M151.488 31.5474H146.949V29.2461H146.89C146.011 31.0005 143.924 31.9386 141.715 31.9386C137.841 31.9386 135.329 29.4565 135.329 25.6744V14.3533H139.961V23.9495C139.961 26.7345 140.655 28.4595 143.171 28.4595C144.988 28.4595 146.865 27.1889 146.865 23.6761V14.3533H151.496V31.5474H151.488Z" fill="black"/>
<path d="M155.421 14.3492H159.96V16.6798H160.019C160.865 14.955 162.775 13.9537 164.984 13.9537C167.407 13.9537 169.19 14.8919 170.011 16.7387H170.103C171.193 14.833 173.284 13.9537 175.429 13.9537C179.788 13.9537 181.816 16.4653 181.816 20.2179V31.539H177.184V21.9428C177.184 19.1578 176.822 17.4329 174.276 17.4329C172.703 17.4329 171.008 18.4005 171.008 21.1267V31.539H166.376V21.8502C166.376 19.0947 165.981 17.4287 163.439 17.4287C161.685 17.4287 160.049 18.6992 160.049 22.1532V31.539H155.417V14.345L155.421 14.3492Z" fill="black"/>
<path d="M22.2992 30.4241C18.7148 31.2739 14.7897 30.3021 11.9962 27.5087C8.38667 23.899 7.67988 18.5393 10.2882 14.2945C11.3652 12.5401 12.3875 11.4926 13.2752 10.6133C16.9185 6.98691 23.6118 0.377704 23.6118 0.377704C17.3644 -0.859157 10.6332 0.941443 5.78673 5.7837C-1.92891 13.4993 -1.92891 26.0025 5.78673 33.7182C8.1763 36.1078 11.0287 37.7569 14.0577 38.6656L22.2992 30.4241Z" fill="black"/>
<path d="M17.2098 9.07775C20.7941 8.22794 24.7193 9.19975 27.5127 11.9932C31.1223 15.6028 31.8291 20.9625 29.2208 25.2074C28.1438 26.9618 27.1215 28.0093 26.2338 28.8885C22.5906 32.5192 15.8972 39.1284 15.8972 39.1284C22.1446 40.3653 28.8758 38.5647 33.7222 33.7224C41.4379 26.0067 41.4379 13.5036 33.7222 5.78791C31.3327 3.39832 28.4804 1.74918 25.4513 0.840469L17.2098 9.082V9.07775Z" fill="black"/>
</g>
<defs>
<clipPath id="clip0_27087_150716">
<rect width="181.818" height="40" fill="white"/>
</clipPath>
</defs>
</svg>
