<svg viewBox="0 0 151 49" height="12" width="auto" xmlns="http://www.w3.org/2000/svg">
  <path d="M59.1366 28.9951C59.9309 28.9951 60.673 29.2946 61.2525 29.8089C61.3241 29.8805 61.3241 29.9717 61.2525 30.0433L60.7186 30.6031C60.647 30.6748 60.5754 30.6748 60.4843 30.6031C60.1132 30.2776 59.6444 30.0888 59.1822 30.0888C58.0885 30.0888 57.2291 31.0198 57.2291 32.1135C57.2291 33.1812 58.0885 34.1122 59.1822 34.1122C59.6705 34.1122 60.0416 33.9754 60.2043 33.9038V33.1617H59.5077C59.4166 33.1617 59.345 33.0901 59.345 32.9989V32.3218C59.345 32.2307 59.4166 32.1591 59.5077 32.1591H61.1809C61.272 32.1591 61.3436 32.2307 61.3436 32.3218V34.5549C61.3436 34.6265 61.298 34.672 61.272 34.6916C61.272 34.6916 60.3866 35.2515 59.1106 35.2515C57.3854 35.2515 55.9922 33.8778 55.9922 32.1331C55.9987 30.3883 57.4179 28.9951 59.1366 28.9951Z" />
  <path d="M69.0807 29.2492C69.0807 29.158 69.1523 29.0864 69.2435 29.0864H70.0573C70.1484 29.0864 70.22 29.158 70.22 29.2492V32.8103C70.22 33.5524 70.7343 34.1384 71.4765 34.1384C72.2187 34.1384 72.759 33.559 72.759 32.8363V29.2752C72.759 29.1841 72.8306 29.1125 72.9218 29.1125H73.7356C73.8267 29.1125 73.8983 29.1841 73.8983 29.2752V32.8559C73.8983 34.1839 72.8502 35.2516 71.4765 35.2516C70.1028 35.2516 69.0547 34.1839 69.0547 32.8559V29.2492H69.0807Z" />
  <path d="M81.9453 29.2492C81.9453 29.158 82.0169 29.0864 82.1081 29.0864H82.9218C83.013 29.0864 83.0846 29.158 83.0846 29.2492V34.9977C83.0846 35.0889 83.013 35.1605 82.9218 35.1605H82.1081C82.0169 35.1605 81.9453 35.0889 81.9453 34.9977V29.2492Z" />
  <path d="M91.1914 29.2492C91.1914 29.158 91.263 29.0864 91.3542 29.0864H92.1484C92.2396 29.0864 92.3112 29.158 92.3112 29.2492V34.1384H94.5246C94.6158 34.1384 94.6874 34.21 94.6874 34.3011V35.0238C94.6874 35.1149 94.6158 35.1865 94.5246 35.1865H91.3346C91.2435 35.1865 91.1719 35.1149 91.1719 35.0238V29.2492H91.1914Z" />
  <path d="M102.102 29.2492C102.102 29.158 102.173 29.0864 102.264 29.0864H104.335C106.008 29.0864 107.381 30.4601 107.381 32.1137C107.381 33.7868 106.008 35.1605 104.335 35.1605H102.264C102.173 35.1605 102.102 35.0889 102.102 34.9977V29.2492ZM104.198 34.1123C105.337 34.1123 106.151 33.253 106.151 32.1137C106.151 30.9744 105.337 30.1346 104.198 30.1346H103.195V34.1123H104.198Z" />
  <path d="M56.0481 22.4524L59.9348 13.937C59.9803 13.8654 60.0975 13.8003 60.1431 13.8003H60.2603C60.3319 13.8003 60.4491 13.8719 60.4686 13.937L64.3292 22.4524C64.4008 22.6152 64.3031 22.7779 64.1208 22.7779H63.3266C63.1638 22.7779 63.0922 22.7063 63.0271 22.5891L62.2329 20.8639H58.0924C57.8385 21.4433 57.5781 22.0032 57.3242 22.5891C57.2786 22.6803 57.1874 22.7779 57.0247 22.7779H56.2304C56.0677 22.7779 55.9765 22.6152 56.0481 22.4524ZM61.7706 19.7507L60.2147 16.2807H60.1431L58.6067 19.7507H61.7706Z" />
  <path d="M69.4228 14.2366C69.3512 14.0739 69.4423 13.9111 69.6311 13.9111H70.5426C70.6337 13.9111 70.7314 13.9827 70.7509 14.0478L73.5438 20.3107H73.6154L76.4083 14.0478C76.4343 13.9762 76.4994 13.9111 76.6166 13.9111H77.5216C77.7104 13.9111 77.8275 14.0739 77.7299 14.2366L73.8433 22.7585C73.7977 22.8302 73.7261 22.8953 73.6349 22.8953H73.5178C73.4266 22.8953 73.329 22.8237 73.3094 22.7585L69.4228 14.2366Z" />
  <path d="M88.022 13.7939C90.561 13.7939 92.5857 15.8447 92.5857 18.3576C92.5857 20.8966 90.561 22.8953 88.022 22.8953C85.483 22.8953 83.4844 20.8966 83.4844 18.3576C83.4844 15.8186 85.5091 13.7939 88.022 13.7939ZM88.022 21.6388C89.8384 21.6388 91.3032 20.174 91.3032 18.3576C91.3032 16.5673 89.8123 15.0504 88.022 15.0504C86.2317 15.0504 84.7409 16.5608 84.7409 18.3576C84.7409 20.174 86.2317 21.6388 88.022 21.6388Z" />
  <path d="M103.499 13.7939C104.781 13.7939 105.712 14.2106 106.572 14.9788C106.689 15.07 106.689 15.2327 106.598 15.3304L106.038 15.8902C105.947 16.0074 105.829 16.0074 105.712 15.8902C105.107 15.3759 104.313 15.0504 103.525 15.0504C101.709 15.0504 100.361 16.5608 100.361 18.3316C100.361 20.1024 101.735 21.6127 103.551 21.6127C104.482 21.6127 105.107 21.2417 105.738 20.7729C105.856 20.6818 105.973 20.7013 106.044 20.7469L106.624 21.3068C106.715 21.3979 106.695 21.5607 106.598 21.6583C105.738 22.4981 104.645 22.8888 103.525 22.8888C100.986 22.8888 98.9612 20.8901 98.9612 18.3511C98.9351 15.8186 100.96 13.7939 103.499 13.7939Z" />
  <path d="M112.391 22.4524L116.278 13.937C116.324 13.8654 116.441 13.8003 116.486 13.8003H116.603C116.675 13.8003 116.792 13.8719 116.812 13.937L120.672 22.4524C120.744 22.6152 120.646 22.7779 120.464 22.7779H119.676C119.514 22.7779 119.442 22.7063 119.37 22.5891L118.576 20.8639H114.436C114.182 21.4433 113.921 22.0032 113.667 22.5891C113.622 22.6803 113.531 22.7779 113.368 22.7779H112.574C112.417 22.7779 112.3 22.6152 112.391 22.4524ZM118.12 19.7507L116.558 16.2807H116.486L114.95 19.7507H118.12Z" />
  <path d="M127.117 14.165C127.117 14.0478 127.208 13.9307 127.352 13.9307H130.262C132.703 13.9307 134.708 15.9098 134.708 18.3511C134.708 20.7925 132.703 22.7976 130.262 22.7976H127.352C127.234 22.7976 127.117 22.6804 127.117 22.5632V14.165ZM130.099 21.5672C131.961 21.5672 133.308 20.1935 133.308 18.3316C133.308 16.4697 131.961 15.122 130.099 15.122H128.426V21.5672H130.099Z" />
  <path d="M145.717 13.7939C148.256 13.7939 150.281 15.8447 150.281 18.3576C150.281 20.8966 148.256 22.8953 145.717 22.8953C143.178 22.8953 141.18 20.8966 141.18 18.3576C141.18 15.8186 143.185 13.7939 145.717 13.7939ZM145.717 21.6388C147.534 21.6388 148.998 20.174 148.998 18.3576C148.998 16.5673 147.508 15.0504 145.717 15.0504C143.927 15.0504 142.436 16.5608 142.436 18.3576C142.436 20.174 143.927 21.6388 145.717 21.6388Z" />
  <path d="M8.35807 19.2627C8.26692 18.9827 8.16927 18.6833 8.07812 18.4033C8.16927 18.7093 8.26692 18.9827 8.35807 19.2627Z" />
  <path d="M8.00643 18.2143C7.93481 17.9604 7.86971 17.7 7.7981 17.4722C6.19007 18.2404 5.31119 19.0086 4.91406 19.7768C5.03125 20.1283 5.16796 20.4539 5.31119 20.7989C5.35676 20.9161 5.47394 21.196 5.6367 21.5671V21.5931C5.68227 21.6843 5.70831 21.7819 5.75388 21.8731C5.91664 22.2702 6.12497 22.7324 6.40491 23.2923C6.65881 23.8262 6.96479 24.4316 7.30983 25.0826C8.21475 26.8079 9.38009 28.8325 10.8254 30.7856C11.3136 31.4822 11.8279 32.1593 12.3357 32.8103C14.0089 33.6241 15.8708 34.1579 17.8304 34.3728C17.8043 34.3467 17.7588 34.3011 17.7392 34.2816C17.6221 34.1644 17.5309 34.0472 17.4137 33.9301C17.3877 33.904 17.3421 33.8584 17.3226 33.8389C17.1598 33.6501 16.9971 33.4874 16.8604 33.3051C16.8343 33.279 16.8148 33.2595 16.7887 33.2335C16.6716 33.0967 16.5348 32.9535 16.4177 32.7908C15.975 32.2765 15.5583 31.7687 15.1612 31.2543C15.044 31.1176 14.9529 30.9744 14.8357 30.8377C14.8096 30.8117 14.7901 30.7921 14.7641 30.7465C14.6273 30.5578 14.4646 30.3494 14.3214 30.1671C14.2953 30.1411 14.2953 30.1216 14.2758 30.0955C13.6443 29.2557 13.0454 28.3703 12.4855 27.4914L12.4594 27.4654C12.3227 27.2571 12.1795 27.0227 12.0428 26.8144C12.0428 26.7883 12.0167 26.7883 12.0167 26.7688C11.9256 26.606 11.8279 26.4693 11.7368 26.3066C11.6912 26.2154 11.6196 26.1178 11.574 26.0266C11.4829 25.8639 11.3852 25.7011 11.2941 25.5384C11.2225 25.4016 11.1313 25.2584 11.0597 25.1217C11.0337 25.0957 11.0337 25.0761 11.0142 25.0306C10.8514 24.7506 10.6886 24.4511 10.5519 24.1712C10.5259 24.1256 10.5064 24.0801 10.4803 24.0345C10.4347 23.9433 10.3631 23.8262 10.3176 23.735C10.272 23.6439 10.2264 23.5462 10.1808 23.4551C8.03898 22.4785 7.2252 21.5671 7.2252 21.1049C7.2252 21.0788 7.2252 21.0593 7.25124 21.0333C7.29681 20.8249 7.48561 20.571 7.85669 20.2911C8.04549 20.1283 8.29939 19.9916 8.59886 19.8289C8.55329 19.6661 8.48167 19.5034 8.4361 19.3666V19.3406V19.3146C8.34496 19.0346 8.24731 18.7352 8.15616 18.4552C8.052 18.3576 8.03247 18.2859 8.00643 18.2143Z" />
  <path d="M39.8487 17.2832C37.3357 16.3978 35.005 15.8379 31.8215 15.4473C31.4244 15.4017 31.0078 15.3561 30.5911 15.3106C30.3112 15.2845 30.0312 15.2389 29.7513 15.2194C29.7773 15.265 29.7968 15.3106 29.8229 15.3561C30.3828 16.2871 30.7278 16.8925 31.496 18.1034C31.5416 18.1034 31.5676 18.1034 31.6132 18.1295C31.7043 18.1555 31.8215 18.1555 31.9127 18.1751C32.6548 18.2662 33.3579 18.3834 34.009 18.5006C34.4712 18.5917 34.9139 18.6894 35.3566 18.7805C36.6391 19.0605 37.7784 19.412 38.9633 19.8287C41.7106 20.7857 43.0582 21.7817 43.4553 22.4328C43.5725 22.5955 43.6181 22.7322 43.6181 22.8494C43.6181 22.8755 43.6181 22.921 43.592 22.9406C43.4293 23.7543 41.4958 24.8285 38.0063 25.5707C37.4724 25.6879 36.8865 25.8051 36.281 25.8962C35.5584 26.0134 34.7902 26.1045 33.9764 26.1957C33.6053 26.2412 33.2343 26.2673 32.8371 26.3129C30.6041 26.5017 28.0196 26.5472 25.155 26.404C20.6369 26.2152 16.3597 25.5447 12.9809 24.516C12.8637 24.3077 12.7465 24.0994 12.6554 23.8845C11.8611 22.3481 11.0734 20.369 10.6047 18.9498C10.6047 18.9498 10.6047 18.9498 10.6047 18.9237C10.5786 18.8521 10.5591 18.787 10.533 18.7349C9.32214 14.7572 9.43933 11.6127 10.8325 9.98518C10.9237 10.0763 10.9953 10.1479 11.0864 10.2195C11.7179 10.799 12.3885 11.1505 12.9744 11.2221C13.0655 11.2221 13.1371 11.2482 13.2088 11.2221C13.8142 11.1961 14.2569 10.8706 14.4392 10.2912C14.5759 9.8745 14.5303 9.3602 14.3676 8.78078C14.3936 8.78078 14.4131 8.78078 14.4131 8.78078C17.0433 9.03468 20.7411 11.2221 23.84 14.2299C24.4715 14.4187 25.0965 14.6726 25.7019 15.0241C25.9818 15.1869 26.2618 15.3496 26.5157 15.5384C25.8647 14.8418 25.1876 14.1648 24.517 13.5398C20.6565 9.9331 16.835 7.76519 13.7621 7.43967C13.7621 7.43967 13.7621 7.43967 13.7361 7.43967C13.4822 7.02302 13.1567 6.64543 12.8051 6.31991C12.1736 5.7405 11.5031 5.38895 10.9171 5.31734C10.1945 5.24572 9.66067 5.57124 9.45234 6.2483C9.28959 6.78214 9.38073 7.47874 9.70624 8.24694C9.75182 8.33809 9.79739 8.43574 9.84296 8.52688C9.04871 9.26905 8.56044 10.3628 8.37816 11.808C8.18936 13.2273 8.33258 14.9264 8.77528 16.7884C8.82085 16.9967 8.86642 17.1855 8.93804 17.3938C8.93804 17.4199 8.96408 17.4394 8.96408 17.4654C9.03569 17.7193 9.10079 17.9798 9.17241 18.2337C9.19845 18.3053 9.21798 18.3704 9.24402 18.4224C9.33516 18.7024 9.43281 18.9823 9.52396 19.2818V19.3078V19.3339C9.82343 20.382 10.4094 21.6841 10.9692 22.8494C10.9692 22.8494 10.9692 22.8494 10.9692 22.8755C11.1059 23.1749 11.2492 23.4549 11.3859 23.7348C11.4315 23.8259 11.5031 23.9431 11.5486 24.0343C11.5747 24.0798 11.5942 24.1254 11.6203 24.171C11.783 24.4509 11.9197 24.7504 12.0825 25.0303C12.1085 25.0564 12.1085 25.0759 12.1281 25.1215C12.1997 25.2582 12.2908 25.4014 12.3624 25.5381C12.4536 25.7009 12.5512 25.8637 12.6424 26.0264C12.6879 26.1176 12.7335 26.2152 12.8051 26.3063C12.8963 26.4691 12.9939 26.6058 13.0851 26.7686C13.0851 26.7946 13.1111 26.7946 13.1111 26.8141C13.2478 27.0225 13.391 27.2568 13.5278 27.4652C13.5278 27.4912 13.5538 27.4912 13.5538 27.5107C14.1137 28.3961 14.7191 29.2555 15.3441 30.1148C15.3702 30.1409 15.3702 30.1604 15.3897 30.1865C15.5264 30.3752 15.6892 30.5836 15.8324 30.7659C15.8584 30.7919 15.878 30.8114 15.904 30.857C16.0212 30.9937 16.1123 31.1369 16.2295 31.2737C16.6462 31.8075 17.0693 32.3218 17.486 32.8101C17.6032 32.9468 17.7399 33.09 17.8571 33.2528C17.8831 33.2788 17.9026 33.2983 17.9287 33.3244C18.0914 33.5132 18.2542 33.6759 18.3909 33.8582C18.4169 33.8843 18.4625 33.9298 18.482 33.9494C18.5992 34.0666 18.6904 34.1837 18.8076 34.3009C18.8531 34.3725 18.9247 34.4181 18.9964 34.4897C19.6279 35.1407 20.2528 35.7722 20.8843 36.3777C21.0471 36.5144 21.2098 36.6772 21.3726 36.8204C23.2085 38.4935 25.0509 39.8216 26.7696 40.7786C28.5143 41.7356 30.1419 42.315 31.6132 42.4778C34.686 42.8033 36.5935 41.2669 37.0102 38.1289C37.2446 36.3582 36.9842 34.2163 36.268 31.8205C36.0141 31.8921 35.4087 32.0289 35.0832 32.1005C36.5935 37.849 35.1287 41.6184 30.9426 41.1562C28.5664 40.9023 25.6824 39.3203 22.8179 36.8985C21.9585 36.1759 21.0927 35.3621 20.2593 34.5027C21.5874 34.4572 22.9155 34.2944 24.2176 34.034C25.5196 33.7801 26.8021 33.4025 28.0586 32.9859C30.3632 32.2176 32.5246 31.6578 34.8097 31.1239C35.1808 31.0328 35.5779 30.9351 35.949 30.844C36.0206 30.8179 36.0857 30.8179 36.1378 30.7984C36.7433 30.6617 37.3487 30.4989 37.9281 30.3101C38.5075 30.1213 39.0935 29.9391 39.6273 29.7307C42.1403 28.7282 44.3277 27.1917 45.7014 24.6137C45.7925 24.4249 46.2352 23.546 46.2808 22.9601C46.3394 21.3846 45.3173 19.1256 39.8487 17.2832ZM10.6372 6.53475C10.6633 6.50871 10.7088 6.44361 10.8455 6.44361C10.8716 6.44361 10.8911 6.44361 10.9367 6.44361C11.3338 6.48918 11.9132 6.86026 12.4015 7.44618C12.701 7.7717 12.9614 8.18835 13.1697 8.63105C13.1957 8.67662 13.2153 8.72219 13.2153 8.76776C13.4496 9.37322 13.4496 9.83544 13.3064 9.9982C13.2804 10.0242 13.2348 10.1154 13.0265 10.0893C12.6554 10.0438 12.1671 9.73779 11.6984 9.24952C11.3468 8.87844 11.0213 8.4097 10.7935 7.9019V7.87586C10.4745 7.21182 10.5005 6.69751 10.6372 6.53475Z" />
  <path d="M27.5112 17.8431C26.8602 17.0749 26.092 16.4238 25.2066 15.9356C24.1584 15.3562 22.9475 14.9786 21.6715 14.9135C18.4359 14.7051 15.5063 16.3783 13.9699 18.9628C13.6704 19.4771 13.41 20.011 13.2277 20.5904C13.0194 21.2219 13.4165 21.9185 14.0415 22.1268C16.9972 23.1033 20.8122 23.6632 25.0503 23.7088C26.1701 23.7088 27.2117 23.6632 28.2599 23.5916C28.9565 23.546 29.4708 22.9406 29.3992 22.244C29.282 21.3586 29.0476 20.4993 28.6765 19.705C28.3706 19.0084 27.9734 18.3769 27.5112 17.8431Z" />
  <path d="M38.2881 31.2479C40.9443 40.8375 37.9366 47.4714 30.5409 46.6771C28.5879 46.4688 26.4655 45.7462 24.3302 44.6264C24.2846 44.3725 24.1935 44.1121 24.0763 43.8582C23.7768 43.1616 23.2625 42.465 22.6831 41.9247C22.0516 41.3453 21.381 40.9937 20.7951 40.9221C20.2352 40.8505 19.773 41.0588 19.5126 41.482C16.1598 38.8518 12.8787 35.4079 10.1118 31.4953C8.66654 29.5422 7.50771 27.5175 6.59628 25.7923C6.24473 25.1413 5.96479 24.5358 5.69136 24.002C5.43746 23.4681 5.22262 22.9799 5.04033 22.5827C4.99476 22.4916 4.96872 22.3939 4.92315 22.3028V22.2768C4.76039 21.9057 4.66925 21.6453 4.59764 21.5086C0.00791743 9.97892 2.77477 1.48305 11.0818 2.39449C16.6221 2.9739 23.3016 7.60268 28.7962 14.0739L29.8444 14.165C30.0071 14.191 30.1699 14.2106 30.3326 14.2106C30.4498 14.2366 30.567 14.2366 30.6842 14.2561C30.7558 14.2561 30.8209 14.2822 30.8925 14.2822C29.3821 12.4203 27.7285 10.6755 26.0033 9.06748C20.6454 4.11319 15.0856 1.08593 10.2941 0.57813C5.52209 0.063821 2.16932 2.13408 0.867269 6.39177C-0.415248 10.5323 0.424573 16.3069 3.21747 22.6348C6.01036 28.9693 10.4048 35.115 15.6195 39.9521C16.8499 41.0914 18.0869 42.1395 19.3433 43.0705C19.3889 43.3048 19.48 43.5587 19.5972 43.8126C19.8967 44.5092 20.411 45.2058 20.9904 45.7462C21.6219 46.3256 22.2925 46.6771 22.8784 46.7488C22.9695 46.7488 23.0411 46.7748 23.1128 46.7488C23.601 46.7227 23.9721 46.5144 24.2065 46.1173C26.6934 47.3998 29.1152 48.1875 31.3482 48.4219C36.1202 48.9362 39.473 46.8594 40.775 42.6017C41.7516 39.3922 41.4716 35.2256 40.0329 30.5903C39.473 30.8573 38.8936 31.0656 38.2881 31.2479ZM23.1844 45.5639C23.1583 45.5639 23.1583 45.5834 23.1844 45.5639C23.1388 45.6095 23.0672 45.655 22.9044 45.655C22.4422 45.6095 21.7391 45.0952 21.2053 44.3725C20.9969 44.0926 20.8081 43.7931 20.6714 43.4676C20.4175 42.8621 20.3915 42.3999 20.4826 42.1655C20.4826 42.1395 20.5087 42.12 20.5282 42.0939C20.5542 42.0679 20.5998 42.0028 20.7365 42.0028C20.7626 42.0028 20.7821 42.0028 20.8277 42.0028C21.3875 42.0744 22.2729 42.745 22.8263 43.728C22.9175 43.8647 22.9891 44.0275 23.0607 44.1902C23.3276 44.8673 23.3016 45.3751 23.1844 45.5639Z" />
  <g clipPath="url(#clip0_8541_265388)">
        <path d="M59.1366 28.9951C59.9309 28.9951 60.673 29.2946 61.2525 29.8089C61.3241 29.8805 61.3241 29.9717 61.2525 30.0433L60.7186 30.6031C60.647 30.6748 60.5754 30.6748 60.4843 30.6031C60.1132 30.2776 59.6444 30.0888 59.1822 30.0888C58.0885 30.0888 57.2291 31.0198 57.2291 32.1135C57.2291 33.1812 58.0885 34.1122 59.1822 34.1122C59.6705 34.1122 60.0416 33.9754 60.2043 33.9038V33.1617H59.5077C59.4166 33.1617 59.345 33.0901 59.345 32.9989V32.3218C59.345 32.2307 59.4166 32.1591 59.5077 32.1591H61.1809C61.272 32.1591 61.3436 32.2307 61.3436 32.3218V34.5549C61.3436 34.6265 61.298 34.672 61.272 34.6916C61.272 34.6916 60.3866 35.2515 59.1106 35.2515C57.3854 35.2515 55.9922 33.8778 55.9922 32.1331C55.9987 30.3883 57.4179 28.9951 59.1366 28.9951Z" />
        <path d="M69.0807 29.2492C69.0807 29.158 69.1523 29.0864 69.2435 29.0864H70.0573C70.1484 29.0864 70.22 29.158 70.22 29.2492V32.8103C70.22 33.5524 70.7343 34.1384 71.4765 34.1384C72.2187 34.1384 72.759 33.559 72.759 32.8363V29.2752C72.759 29.1841 72.8306 29.1125 72.9218 29.1125H73.7356C73.8267 29.1125 73.8983 29.1841 73.8983 29.2752V32.8559C73.8983 34.1839 72.8502 35.2516 71.4765 35.2516C70.1028 35.2516 69.0547 34.1839 69.0547 32.8559V29.2492H69.0807Z" />
        <path d="M81.9453 29.2492C81.9453 29.158 82.0169 29.0864 82.1081 29.0864H82.9218C83.013 29.0864 83.0846 29.158 83.0846 29.2492V34.9977C83.0846 35.0889 83.013 35.1605 82.9218 35.1605H82.1081C82.0169 35.1605 81.9453 35.0889 81.9453 34.9977V29.2492Z" />
        <path d="M91.1914 29.2492C91.1914 29.158 91.263 29.0864 91.3542 29.0864H92.1484C92.2396 29.0864 92.3112 29.158 92.3112 29.2492V34.1384H94.5246C94.6158 34.1384 94.6874 34.21 94.6874 34.3011V35.0238C94.6874 35.1149 94.6158 35.1865 94.5246 35.1865H91.3346C91.2435 35.1865 91.1719 35.1149 91.1719 35.0238V29.2492H91.1914Z" />
        <path d="M102.102 29.2492C102.102 29.158 102.173 29.0864 102.264 29.0864H104.335C106.008 29.0864 107.381 30.4601 107.381 32.1137C107.381 33.7868 106.008 35.1605 104.335 35.1605H102.264C102.173 35.1605 102.102 35.0889 102.102 34.9977V29.2492ZM104.198 34.1123C105.337 34.1123 106.151 33.253 106.151 32.1137C106.151 30.9744 105.337 30.1346 104.198 30.1346H103.195V34.1123H104.198Z" />
        <path d="M56.0481 22.4524L59.9348 13.937C59.9803 13.8654 60.0975 13.8003 60.1431 13.8003H60.2603C60.3319 13.8003 60.4491 13.8719 60.4686 13.937L64.3292 22.4524C64.4008 22.6152 64.3031 22.7779 64.1208 22.7779H63.3266C63.1638 22.7779 63.0922 22.7063 63.0271 22.5891L62.2329 20.8639H58.0924C57.8385 21.4433 57.5781 22.0032 57.3242 22.5891C57.2786 22.6803 57.1874 22.7779 57.0247 22.7779H56.2304C56.0677 22.7779 55.9765 22.6152 56.0481 22.4524ZM61.7706 19.7507L60.2147 16.2807H60.1431L58.6067 19.7507H61.7706Z" />
        <path d="M69.4228 14.2366C69.3512 14.0739 69.4423 13.9111 69.6311 13.9111H70.5426C70.6337 13.9111 70.7314 13.9827 70.7509 14.0478L73.5438 20.3107H73.6154L76.4083 14.0478C76.4343 13.9762 76.4994 13.9111 76.6166 13.9111H77.5216C77.7104 13.9111 77.8275 14.0739 77.7299 14.2366L73.8433 22.7585C73.7977 22.8302 73.7261 22.8953 73.6349 22.8953H73.5178C73.4266 22.8953 73.329 22.8237 73.3094 22.7585L69.4228 14.2366Z" />
        <path d="M88.022 13.7939C90.561 13.7939 92.5857 15.8447 92.5857 18.3576C92.5857 20.8966 90.561 22.8953 88.022 22.8953C85.483 22.8953 83.4844 20.8966 83.4844 18.3576C83.4844 15.8186 85.5091 13.7939 88.022 13.7939ZM88.022 21.6388C89.8384 21.6388 91.3032 20.174 91.3032 18.3576C91.3032 16.5673 89.8123 15.0504 88.022 15.0504C86.2317 15.0504 84.7409 16.5608 84.7409 18.3576C84.7409 20.174 86.2317 21.6388 88.022 21.6388Z" />
        <path d="M103.499 13.7939C104.781 13.7939 105.712 14.2106 106.572 14.9788C106.689 15.07 106.689 15.2327 106.598 15.3304L106.038 15.8902C105.947 16.0074 105.829 16.0074 105.712 15.8902C105.107 15.3759 104.313 15.0504 103.525 15.0504C101.709 15.0504 100.361 16.5608 100.361 18.3316C100.361 20.1024 101.735 21.6127 103.551 21.6127C104.482 21.6127 105.107 21.2417 105.738 20.7729C105.856 20.6818 105.973 20.7013 106.044 20.7469L106.624 21.3068C106.715 21.3979 106.695 21.5607 106.598 21.6583C105.738 22.4981 104.645 22.8888 103.525 22.8888C100.986 22.8888 98.9612 20.8901 98.9612 18.3511C98.9351 15.8186 100.96 13.7939 103.499 13.7939Z" />
        <path d="M112.391 22.4524L116.278 13.937C116.324 13.8654 116.441 13.8003 116.486 13.8003H116.603C116.675 13.8003 116.792 13.8719 116.812 13.937L120.672 22.4524C120.744 22.6152 120.646 22.7779 120.464 22.7779H119.676C119.514 22.7779 119.442 22.7063 119.37 22.5891L118.576 20.8639H114.436C114.182 21.4433 113.921 22.0032 113.667 22.5891C113.622 22.6803 113.531 22.7779 113.368 22.7779H112.574C112.417 22.7779 112.3 22.6152 112.391 22.4524ZM118.12 19.7507L116.558 16.2807H116.486L114.95 19.7507H118.12Z" />
        <path d="M127.117 14.165C127.117 14.0478 127.208 13.9307 127.352 13.9307H130.262C132.703 13.9307 134.708 15.9098 134.708 18.3511C134.708 20.7925 132.703 22.7976 130.262 22.7976H127.352C127.234 22.7976 127.117 22.6804 127.117 22.5632V14.165ZM130.099 21.5672C131.961 21.5672 133.308 20.1935 133.308 18.3316C133.308 16.4697 131.961 15.122 130.099 15.122H128.426V21.5672H130.099Z" />
        <path d="M145.717 13.7939C148.256 13.7939 150.281 15.8447 150.281 18.3576C150.281 20.8966 148.256 22.8953 145.717 22.8953C143.178 22.8953 141.18 20.8966 141.18 18.3576C141.18 15.8186 143.185 13.7939 145.717 13.7939ZM145.717 21.6388C147.534 21.6388 148.998 20.174 148.998 18.3576C148.998 16.5673 147.508 15.0504 145.717 15.0504C143.927 15.0504 142.436 16.5608 142.436 18.3576C142.436 20.174 143.927 21.6388 145.717 21.6388Z" />
        <path d="M8.35807 19.2627C8.26692 18.9827 8.16927 18.6833 8.07812 18.4033C8.16927 18.7093 8.26692 18.9827 8.35807 19.2627Z" />
        <path d="M8.00643 18.2143C7.93481 17.9604 7.86971 17.7 7.7981 17.4722C6.19007 18.2404 5.31119 19.0086 4.91406 19.7768C5.03125 20.1283 5.16796 20.4539 5.31119 20.7989C5.35676 20.9161 5.47394 21.196 5.6367 21.5671V21.5931C5.68227 21.6843 5.70831 21.7819 5.75388 21.8731C5.91664 22.2702 6.12497 22.7324 6.40491 23.2923C6.65881 23.8262 6.96479 24.4316 7.30983 25.0826C8.21475 26.8079 9.38009 28.8325 10.8254 30.7856C11.3136 31.4822 11.8279 32.1593 12.3357 32.8103C14.0089 33.6241 15.8708 34.1579 17.8304 34.3728C17.8043 34.3467 17.7588 34.3011 17.7392 34.2816C17.6221 34.1644 17.5309 34.0472 17.4137 33.9301C17.3877 33.904 17.3421 33.8584 17.3226 33.8389C17.1598 33.6501 16.9971 33.4874 16.8604 33.3051C16.8343 33.279 16.8148 33.2595 16.7887 33.2335C16.6716 33.0967 16.5348 32.9535 16.4177 32.7908C15.975 32.2765 15.5583 31.7687 15.1612 31.2543C15.044 31.1176 14.9529 30.9744 14.8357 30.8377C14.8096 30.8117 14.7901 30.7921 14.7641 30.7465C14.6273 30.5578 14.4646 30.3494 14.3214 30.1671C14.2953 30.1411 14.2953 30.1216 14.2758 30.0955C13.6443 29.2557 13.0454 28.3703 12.4855 27.4914L12.4594 27.4654C12.3227 27.2571 12.1795 27.0227 12.0428 26.8144C12.0428 26.7883 12.0167 26.7883 12.0167 26.7688C11.9256 26.606 11.8279 26.4693 11.7368 26.3066C11.6912 26.2154 11.6196 26.1178 11.574 26.0266C11.4829 25.8639 11.3852 25.7011 11.2941 25.5384C11.2225 25.4016 11.1313 25.2584 11.0597 25.1217C11.0337 25.0957 11.0337 25.0761 11.0142 25.0306C10.8514 24.7506 10.6886 24.4511 10.5519 24.1712C10.5259 24.1256 10.5064 24.0801 10.4803 24.0345C10.4347 23.9433 10.3631 23.8262 10.3176 23.735C10.272 23.6439 10.2264 23.5462 10.1808 23.4551C8.03898 22.4785 7.2252 21.5671 7.2252 21.1049C7.2252 21.0788 7.2252 21.0593 7.25124 21.0333C7.29681 20.8249 7.48561 20.571 7.85669 20.2911C8.04549 20.1283 8.29939 19.9916 8.59886 19.8289C8.55329 19.6661 8.48167 19.5034 8.4361 19.3666V19.3406V19.3146C8.34496 19.0346 8.24731 18.7352 8.15616 18.4552C8.052 18.3576 8.03247 18.2859 8.00643 18.2143Z" />
        <path d="M39.8487 17.2832C37.3357 16.3978 35.005 15.8379 31.8215 15.4473C31.4244 15.4017 31.0078 15.3561 30.5911 15.3106C30.3112 15.2845 30.0312 15.2389 29.7513 15.2194C29.7773 15.265 29.7968 15.3106 29.8229 15.3561C30.3828 16.2871 30.7278 16.8925 31.496 18.1034C31.5416 18.1034 31.5676 18.1034 31.6132 18.1295C31.7043 18.1555 31.8215 18.1555 31.9127 18.1751C32.6548 18.2662 33.3579 18.3834 34.009 18.5006C34.4712 18.5917 34.9139 18.6894 35.3566 18.7805C36.6391 19.0605 37.7784 19.412 38.9633 19.8287C41.7106 20.7857 43.0582 21.7817 43.4553 22.4328C43.5725 22.5955 43.6181 22.7322 43.6181 22.8494C43.6181 22.8755 43.6181 22.921 43.592 22.9406C43.4293 23.7543 41.4958 24.8285 38.0063 25.5707C37.4724 25.6879 36.8865 25.8051 36.281 25.8962C35.5584 26.0134 34.7902 26.1045 33.9764 26.1957C33.6053 26.2412 33.2343 26.2673 32.8371 26.3129C30.6041 26.5017 28.0196 26.5472 25.155 26.404C20.6369 26.2152 16.3597 25.5447 12.9809 24.516C12.8637 24.3077 12.7465 24.0994 12.6554 23.8845C11.8611 22.3481 11.0734 20.369 10.6047 18.9498C10.6047 18.9498 10.6047 18.9498 10.6047 18.9237C10.5786 18.8521 10.5591 18.787 10.533 18.7349C9.32214 14.7572 9.43933 11.6127 10.8325 9.98518C10.9237 10.0763 10.9953 10.1479 11.0864 10.2195C11.7179 10.799 12.3885 11.1505 12.9744 11.2221C13.0655 11.2221 13.1371 11.2482 13.2088 11.2221C13.8142 11.1961 14.2569 10.8706 14.4392 10.2912C14.5759 9.8745 14.5303 9.3602 14.3676 8.78078C14.3936 8.78078 14.4131 8.78078 14.4131 8.78078C17.0433 9.03468 20.7411 11.2221 23.84 14.2299C24.4715 14.4187 25.0965 14.6726 25.7019 15.0241C25.9818 15.1869 26.2618 15.3496 26.5157 15.5384C25.8647 14.8418 25.1876 14.1648 24.517 13.5398C20.6565 9.9331 16.835 7.76519 13.7621 7.43967C13.7621 7.43967 13.7621 7.43967 13.7361 7.43967C13.4822 7.02302 13.1567 6.64543 12.8051 6.31991C12.1736 5.7405 11.5031 5.38895 10.9171 5.31734C10.1945 5.24572 9.66067 5.57124 9.45234 6.2483C9.28959 6.78214 9.38073 7.47874 9.70624 8.24694C9.75182 8.33809 9.79739 8.43574 9.84296 8.52688C9.04871 9.26905 8.56044 10.3628 8.37816 11.808C8.18936 13.2273 8.33258 14.9264 8.77528 16.7884C8.82085 16.9967 8.86642 17.1855 8.93804 17.3938C8.93804 17.4199 8.96408 17.4394 8.96408 17.4654C9.03569 17.7193 9.10079 17.9798 9.17241 18.2337C9.19845 18.3053 9.21798 18.3704 9.24402 18.4224C9.33516 18.7024 9.43281 18.9823 9.52396 19.2818V19.3078V19.3339C9.82343 20.382 10.4094 21.6841 10.9692 22.8494C10.9692 22.8494 10.9692 22.8494 10.9692 22.8755C11.1059 23.1749 11.2492 23.4549 11.3859 23.7348C11.4315 23.8259 11.5031 23.9431 11.5486 24.0343C11.5747 24.0798 11.5942 24.1254 11.6203 24.171C11.783 24.4509 11.9197 24.7504 12.0825 25.0303C12.1085 25.0564 12.1085 25.0759 12.1281 25.1215C12.1997 25.2582 12.2908 25.4014 12.3624 25.5381C12.4536 25.7009 12.5512 25.8637 12.6424 26.0264C12.6879 26.1176 12.7335 26.2152 12.8051 26.3063C12.8963 26.4691 12.9939 26.6058 13.0851 26.7686C13.0851 26.7946 13.1111 26.7946 13.1111 26.8141C13.2478 27.0225 13.391 27.2568 13.5278 27.4652C13.5278 27.4912 13.5538 27.4912 13.5538 27.5107C14.1137 28.3961 14.7191 29.2555 15.3441 30.1148C15.3702 30.1409 15.3702 30.1604 15.3897 30.1865C15.5264 30.3752 15.6892 30.5836 15.8324 30.7659C15.8584 30.7919 15.878 30.8114 15.904 30.857C16.0212 30.9937 16.1123 31.1369 16.2295 31.2737C16.6462 31.8075 17.0693 32.3218 17.486 32.8101C17.6032 32.9468 17.7399 33.09 17.8571 33.2528C17.8831 33.2788 17.9026 33.2983 17.9287 33.3244C18.0914 33.5132 18.2542 33.6759 18.3909 33.8582C18.4169 33.8843 18.4625 33.9298 18.482 33.9494C18.5992 34.0666 18.6904 34.1837 18.8076 34.3009C18.8531 34.3725 18.9247 34.4181 18.9964 34.4897C19.6279 35.1407 20.2528 35.7722 20.8843 36.3777C21.0471 36.5144 21.2098 36.6772 21.3726 36.8204C23.2085 38.4935 25.0509 39.8216 26.7696 40.7786C28.5143 41.7356 30.1419 42.315 31.6132 42.4778C34.686 42.8033 36.5935 41.2669 37.0102 38.1289C37.2446 36.3582 36.9842 34.2163 36.268 31.8205C36.0141 31.8921 35.4087 32.0289 35.0832 32.1005C36.5935 37.849 35.1287 41.6184 30.9426 41.1562C28.5664 40.9023 25.6824 39.3203 22.8179 36.8985C21.9585 36.1759 21.0927 35.3621 20.2593 34.5027C21.5874 34.4572 22.9155 34.2944 24.2176 34.034C25.5196 33.7801 26.8021 33.4025 28.0586 32.9859C30.3632 32.2176 32.5246 31.6578 34.8097 31.1239C35.1808 31.0328 35.5779 30.9351 35.949 30.844C36.0206 30.8179 36.0857 30.8179 36.1378 30.7984C36.7433 30.6617 37.3487 30.4989 37.9281 30.3101C38.5075 30.1213 39.0935 29.9391 39.6273 29.7307C42.1403 28.7282 44.3277 27.1917 45.7014 24.6137C45.7925 24.4249 46.2352 23.546 46.2808 22.9601C46.3394 21.3846 45.3173 19.1256 39.8487 17.2832ZM10.6372 6.53475C10.6633 6.50871 10.7088 6.44361 10.8455 6.44361C10.8716 6.44361 10.8911 6.44361 10.9367 6.44361C11.3338 6.48918 11.9132 6.86026 12.4015 7.44618C12.701 7.7717 12.9614 8.18835 13.1697 8.63105C13.1957 8.67662 13.2153 8.72219 13.2153 8.76776C13.4496 9.37322 13.4496 9.83544 13.3064 9.9982C13.2804 10.0242 13.2348 10.1154 13.0265 10.0893C12.6554 10.0438 12.1671 9.73779 11.6984 9.24952C11.3468 8.87844 11.0213 8.4097 10.7935 7.9019V7.87586C10.4745 7.21182 10.5005 6.69751 10.6372 6.53475Z" />
        <path d="M27.5112 17.8431C26.8602 17.0749 26.092 16.4238 25.2066 15.9356C24.1584 15.3562 22.9475 14.9786 21.6715 14.9135C18.4359 14.7051 15.5063 16.3783 13.9699 18.9628C13.6704 19.4771 13.41 20.011 13.2277 20.5904C13.0194 21.2219 13.4165 21.9185 14.0415 22.1268C16.9972 23.1033 20.8122 23.6632 25.0503 23.7088C26.1701 23.7088 27.2117 23.6632 28.2599 23.5916C28.9565 23.546 29.4708 22.9406 29.3992 22.244C29.282 21.3586 29.0476 20.4993 28.6765 19.705C28.3706 19.0084 27.9734 18.3769 27.5112 17.8431Z" />
        <path d="M38.2881 31.2479C40.9443 40.8375 37.9366 47.4714 30.5409 46.6771C28.5879 46.4688 26.4655 45.7462 24.3302 44.6264C24.2846 44.3725 24.1935 44.1121 24.0763 43.8582C23.7768 43.1616 23.2625 42.465 22.6831 41.9247C22.0516 41.3453 21.381 40.9937 20.7951 40.9221C20.2352 40.8505 19.773 41.0588 19.5126 41.482C16.1598 38.8518 12.8787 35.4079 10.1118 31.4953C8.66654 29.5422 7.50771 27.5175 6.59628 25.7923C6.24473 25.1413 5.96479 24.5358 5.69136 24.002C5.43746 23.4681 5.22262 22.9799 5.04033 22.5827C4.99476 22.4916 4.96872 22.3939 4.92315 22.3028V22.2768C4.76039 21.9057 4.66925 21.6453 4.59764 21.5086C0.00791743 9.97892 2.77477 1.48305 11.0818 2.39449C16.6221 2.9739 23.3016 7.60268 28.7962 14.0739L29.8444 14.165C30.0071 14.191 30.1699 14.2106 30.3326 14.2106C30.4498 14.2366 30.567 14.2366 30.6842 14.2561C30.7558 14.2561 30.8209 14.2822 30.8925 14.2822C29.3821 12.4203 27.7285 10.6755 26.0033 9.06748C20.6454 4.11319 15.0856 1.08593 10.2941 0.57813C5.52209 0.063821 2.16932 2.13408 0.867269 6.39177C-0.415248 10.5323 0.424573 16.3069 3.21747 22.6348C6.01036 28.9693 10.4048 35.115 15.6195 39.9521C16.8499 41.0914 18.0869 42.1395 19.3433 43.0705C19.3889 43.3048 19.48 43.5587 19.5972 43.8126C19.8967 44.5092 20.411 45.2058 20.9904 45.7462C21.6219 46.3256 22.2925 46.6771 22.8784 46.7488C22.9695 46.7488 23.0411 46.7748 23.1128 46.7488C23.601 46.7227 23.9721 46.5144 24.2065 46.1173C26.6934 47.3998 29.1152 48.1875 31.3482 48.4219C36.1202 48.9362 39.473 46.8594 40.775 42.6017C41.7516 39.3922 41.4716 35.2256 40.0329 30.5903C39.473 30.8573 38.8936 31.0656 38.2881 31.2479ZM23.1844 45.5639C23.1583 45.5639 23.1583 45.5834 23.1844 45.5639C23.1388 45.6095 23.0672 45.655 22.9044 45.655C22.4422 45.6095 21.7391 45.0952 21.2053 44.3725C20.9969 44.0926 20.8081 43.7931 20.6714 43.4676C20.4175 42.8621 20.3915 42.3999 20.4826 42.1655C20.4826 42.1395 20.5087 42.12 20.5282 42.0939C20.5542 42.0679 20.5998 42.0028 20.7365 42.0028C20.7626 42.0028 20.7821 42.0028 20.8277 42.0028C21.3875 42.0744 22.2729 42.745 22.8263 43.728C22.9175 43.8647 22.9891 44.0275 23.0607 44.1902C23.3276 44.8673 23.3016 45.3751 23.1844 45.5639Z" />
      </g>
</svg>