<svg viewBox="0 0 189 41" height="10" width="auto" xmlns="http://www.w3.org/2000/svg">
  <path d="M33.111 33.7229C34.2509 33.1529 35.3909 32.3174 36.5777 31.3024C37.6786 30.2874 39.2558 28.5306 40.3489 26.9924C40.7003 26.3366 41.0048 25.7197 41.3171 25.1029C41.8402 24.0879 42.2853 23.2134 42.6366 22.4638L51.8109 4.34945C51.9437 4.08398 52.0764 3.86536 52.3341 3.64674C52.5527 3.42812 52.8182 3.20949 53.1227 3.02991C53.4272 2.85033 53.7395 2.7254 54.0909 2.59267C54.4422 2.50678 54.7467 2.45993 55.0981 2.45993C55.9335 2.45993 56.5035 2.59267 56.808 2.89718C57.1125 3.20169 57.2921 3.59989 57.2921 4.03713C57.2921 4.43534 57.2062 4.87258 56.9876 5.35667C56.769 5.79392 56.5503 6.23897 56.2849 6.62937C55.4494 8.03479 54.7077 9.44022 53.9113 10.8535C53.1227 12.2589 52.42 13.7112 51.6704 15.1634C50.9208 16.6157 50.1791 18.0211 49.3905 19.4734C48.6409 20.8788 47.8133 22.2843 46.9778 23.6975C47.0247 23.6506 47.0637 23.6506 47.1106 23.6506C47.1574 23.5648 47.1574 23.5179 47.1574 23.5179C47.6415 23.0807 48.1256 22.5966 48.6019 22.1515C49.1719 21.6206 49.8277 21.1365 50.4914 20.6602C51.1941 20.223 51.9359 19.8248 52.7323 19.5593C53.5677 19.2548 54.4422 19.122 55.4494 19.122C56.0663 19.122 56.5894 19.1689 57.1594 19.3016C57.6825 19.4344 58.1666 19.6061 58.5648 19.8326C58.963 20.098 59.3144 20.4494 59.533 20.8476C59.7984 21.2848 59.8843 21.8158 59.8843 22.4326C59.8843 23.2681 59.7516 24.0176 59.4861 24.7203C59.2207 25.423 58.9161 26.0867 58.5179 26.6957C58.1197 27.3126 57.6825 27.9294 57.2453 28.4994C56.7612 29.0693 56.3239 29.6393 55.9257 30.2171C55.4885 30.7871 55.1371 31.4039 54.8248 32.0676C54.5203 32.7234 54.3407 33.3871 54.2548 34.1367V34.3553C54.2548 34.7067 54.3876 34.9721 54.653 35.058C54.9185 35.1439 55.223 35.1908 55.6212 35.1908C56.1053 35.1908 56.6753 35.1049 57.2453 34.8862C57.8152 34.7067 58.3852 34.449 59.002 34.0976C59.6189 33.7463 60.1888 33.3949 60.7588 32.9967C60.9306 32.864 61.1102 32.7781 61.2819 32.6454C61.2819 32.5126 61.2819 32.3409 61.2819 32.2081C61.2819 31.4195 61.4537 30.5372 61.766 29.569C62.0705 28.6009 62.5546 27.6327 63.1246 26.6645C63.7414 25.6963 64.4442 24.775 65.3186 23.8536C66.1931 22.9323 67.1613 22.1359 68.2154 21.3942C69.3163 20.6914 70.4953 20.1215 71.768 19.6764C73.0407 19.2392 74.4461 19.0205 75.8906 19.0205C77.4287 19.0205 78.5687 19.3719 79.3573 20.1215C80.1069 20.871 80.4973 21.8782 80.4973 23.1978C80.4973 23.9864 80.2786 24.7828 79.8804 25.6573C79.4822 26.4927 78.7795 27.375 77.7723 28.2495C76.7651 29.1318 75.4455 30.0531 73.7356 30.9745C72.0647 31.8958 69.9644 32.825 67.419 33.7463C67.5049 34.2772 67.8172 34.7145 68.2935 35.019C68.7776 35.3235 69.4334 35.4562 70.222 35.4562C71.0575 35.4562 71.9788 35.3235 72.986 35.058C73.9933 34.7925 74.9146 34.488 75.8828 34.0898C76.8509 33.6916 77.7723 33.2544 78.6936 32.8171C79.615 32.3799 80.4036 31.9348 81.1531 31.4976C81.8558 31.0994 82.4258 30.7949 82.9099 30.4826C83.1754 29.9516 83.433 29.3817 83.6985 28.8117C84.2685 27.578 84.9712 26.1258 85.7598 24.5486C85.4943 24.3299 85.2757 24.0645 85.1039 23.7131C84.9322 23.4086 84.8385 22.9635 84.8385 22.4795C84.8385 22.0422 84.9243 21.644 85.1039 21.3395C85.2757 21.035 85.5412 20.7695 85.8535 20.5509C86.158 20.3323 86.5562 20.1995 86.9544 20.1137C87.3526 20.0278 87.8289 19.9809 88.2739 19.9809C88.758 19.9809 89.2421 20.0278 89.7262 20.1137C90.2103 20.1995 90.6476 20.3323 91.0458 20.5119C91.444 20.6914 91.7485 20.8632 91.9671 21.1287C92.2326 21.3942 92.3185 21.6596 92.3185 21.9641C92.3185 22.011 92.3184 22.0969 92.2716 22.1828C92.2248 22.2296 92.2248 22.3155 92.1857 22.4014L92.1389 22.4873C92.092 22.62 92.053 22.7059 92.0061 22.7918C91.9593 22.8777 91.9593 22.9713 91.9593 23.0104C91.9593 23.0572 91.9593 23.0572 92.0061 23.0572H92.053L92.0998 23.0104C92.8494 22.5731 93.5911 22.1749 94.3407 21.7767C95.1293 21.4254 95.8789 21.074 96.5816 20.8086C97.2843 20.5431 97.987 20.3245 98.6429 20.1527C99.2987 19.9731 99.8687 19.9341 100.4 19.9341C101.235 19.9341 101.891 20.1527 102.328 20.5509C102.765 20.9491 103.031 21.605 103.031 22.5731C103.031 22.7918 103.031 23.0104 102.984 23.229C102.984 23.4476 102.937 23.7131 102.851 23.9786C102.765 24.4627 102.5 25.0326 102.016 25.6963C101.532 26.3522 101.009 27.0159 100.392 27.7186C99.775 28.4213 99.1192 29.124 98.3774 29.8736L96.402 31.849C95.7852 32.4658 95.3089 32.9889 94.9107 33.434C94.5125 33.8712 94.2939 34.1835 94.2939 34.3553C94.2939 34.488 94.2938 34.6208 94.3407 34.6598C94.3407 34.7067 94.4266 34.7457 94.6062 34.7457C95.6134 34.3085 96.7143 33.8244 97.9402 33.2075C99.166 32.5907 100.4 31.9739 101.625 31.3571C102.851 30.7402 103.991 30.1234 105.092 29.5066C105.397 29.327 105.662 29.2021 105.928 29.0225C106.099 28.6711 106.232 28.2729 106.459 27.8357C107.294 25.9462 108.473 23.6584 110.011 20.9725C110.409 20.2698 110.847 19.7389 111.37 19.4344C111.901 19.1299 112.424 18.9971 113.041 18.9971C113.306 18.9971 113.572 19.044 113.829 19.083C114.095 19.1299 114.36 19.2626 114.618 19.3875C114.883 19.5202 115.055 19.692 115.188 19.9185C115.321 20.1371 115.406 20.3557 115.406 20.668C115.406 20.8476 115.36 21.0194 115.321 21.199C115.235 21.5035 115.016 21.9485 114.704 22.4326C114.399 22.9167 114.048 23.5335 113.65 24.1894C113.259 24.8453 112.814 25.5558 112.338 26.3444C111.901 27.0939 111.463 27.8825 111.065 28.718C110.667 29.5534 110.316 30.3889 110.058 31.2243C109.793 32.0598 109.621 32.8952 109.574 33.6838C109.574 34.0352 109.66 34.3397 109.839 34.6052C110.011 34.8706 110.324 35.0424 110.761 35.0424C111.994 35.0424 113.134 34.691 114.227 34.0274C115.328 33.3715 116.336 32.5361 117.257 31.521C118.178 30.506 119.014 29.4519 119.755 28.312C120.497 27.172 121.114 26.1101 121.645 25.1888C121.996 24.572 122.301 23.8693 122.566 23.1665C122.832 22.417 123.136 21.7611 123.441 21.1443C123.745 20.5275 124.097 20.0043 124.542 19.6061C124.979 19.2079 125.463 18.9893 126.08 18.9893C126.736 18.9893 127.267 19.2079 127.657 19.6452C128.055 20.0824 128.227 20.5665 128.227 21.1833C128.227 21.5347 128.094 21.9719 127.837 22.5497C127.571 23.1197 127.267 23.8224 126.869 24.572C126.47 25.3215 126.08 26.1101 125.643 26.9924C125.205 27.8747 124.768 28.7102 124.417 29.5847C124.019 30.467 123.714 31.3414 123.449 32.1769C123.183 33.0123 123.058 33.8009 123.058 34.5505C123.058 35.2064 123.449 35.5655 124.284 35.5655C124.854 35.5655 125.557 35.386 126.439 35.0814C127.314 34.7769 128.196 34.2928 129.117 33.676C129.289 33.5433 129.515 33.4105 129.687 33.2778C129.726 32.661 129.859 32.0051 129.992 31.3414C130.257 30.3264 130.562 29.366 130.96 28.3979C131.225 27.781 131.444 27.2579 131.616 26.8597C131.787 26.4615 131.92 26.1101 132.053 25.8056C132.186 25.5011 132.272 25.2747 132.357 25.0561C132.443 24.8374 132.529 24.6188 132.623 24.4002C132.709 24.1816 132.842 23.9161 132.974 23.6116C133.107 23.3461 133.24 22.9948 133.412 22.5966L133.497 22.417L141.618 4.3026C141.75 4.03713 141.883 3.81851 142.102 3.59989C142.32 3.38127 142.539 3.16265 142.844 2.98306C143.109 2.80348 143.413 2.67856 143.765 2.54582C144.069 2.45993 144.421 2.41309 144.772 2.41309C145.608 2.41309 146.224 2.59267 146.576 2.89718C146.927 3.20169 147.107 3.64674 147.107 4.13083C147.107 4.48219 147.021 4.91943 146.841 5.36448C146.669 5.80173 146.443 6.19993 146.224 6.59813C144.866 9.23721 143.546 11.9153 142.32 14.6481C141.095 17.3731 139.775 20.059 138.416 22.7371C139.033 22.253 139.642 21.8158 140.306 21.3707C140.962 20.9335 141.665 20.5353 142.414 20.1839C143.164 19.8326 143.905 19.5671 144.655 19.3485C145.405 19.1299 146.232 19.044 147.068 19.044C147.638 19.044 148.208 19.1767 148.824 19.3953C149.441 19.6139 149.964 19.9263 150.448 20.3635C150.933 20.8007 151.323 21.3317 151.635 21.9485C151.94 22.5653 152.072 23.3149 152.072 24.1035C152.072 24.2831 152.026 24.6735 151.901 25.2044C151.768 25.7354 151.635 26.3912 151.417 27.0939C151.198 27.7966 150.933 28.4994 150.628 29.2489C150.324 29.9985 149.972 30.6153 149.621 31.1853C149.754 31.4039 149.925 31.5366 150.105 31.5835C150.277 31.6303 150.542 31.6694 150.808 31.6694C151.643 31.6694 152.518 31.5366 153.353 31.318C153.572 31.2712 153.837 31.1853 154.056 31.0994C154.142 30.8808 154.235 30.6153 154.36 30.3967C154.712 29.6081 155.063 28.9054 155.414 28.1558C155.766 27.4063 156.117 26.7504 156.382 26.0867C156.468 25.8212 156.648 25.4699 156.867 24.9858C157.085 24.5017 157.351 23.9708 157.608 23.4476C157.921 22.8308 158.225 22.1749 158.576 21.5113C158.881 20.9803 159.232 20.629 159.677 20.4104C160.115 20.1917 160.513 20.059 160.95 20.059C161.653 20.059 162.27 20.2776 162.793 20.7617C163.316 21.2458 163.542 21.8158 163.542 22.5185C163.542 22.6981 163.495 22.8699 163.456 23.0026C163.41 23.1353 163.371 23.3539 163.277 23.4867C163.011 23.9708 162.793 24.369 162.621 24.7203C162.449 25.0717 162.316 25.3762 162.184 25.6417C162.051 25.9071 161.918 26.2116 161.786 26.4771V26.524C161.747 26.6567 161.606 26.9612 161.395 27.4453L161.309 27.6639C161.005 28.3666 160.653 29.288 160.255 30.2171L160.122 30.5216C159.467 32.1457 158.897 33.6838 158.897 33.9103C158.897 34.3943 159.029 34.7457 159.295 34.9253C159.56 35.1049 159.912 35.1439 160.349 35.1439C160.88 35.1439 161.403 35.0112 161.973 34.7925C162.543 34.5739 163.113 34.2616 163.683 33.9103C164.253 33.5589 164.823 33.1607 165.393 32.6766C165.697 32.458 165.963 32.1925 166.228 31.9739C166.275 31.7943 166.314 31.6225 166.4 31.4429C166.798 30.342 167.321 29.2411 168.024 28.1012C168.727 26.9612 169.515 25.8603 170.437 24.7594C171.358 23.6584 172.365 22.6903 173.466 21.8158C174.567 20.9335 175.707 20.2776 176.847 19.7467C177.987 19.2157 179.221 18.9581 180.446 18.9581C180.845 18.9581 181.235 19.0049 181.586 19.0908C181.938 19.1767 182.242 19.3094 182.555 19.5281C182.859 19.7467 183.039 19.9653 183.21 20.3167C183.382 20.668 183.429 21.0662 183.429 21.5035C183.429 22.0734 183.382 22.7371 183.25 23.393C183.117 24.0488 182.898 24.7594 182.594 25.3684C182.289 25.9852 181.938 26.5083 181.454 26.9065C180.97 27.3048 180.4 27.5234 179.744 27.5234C179.392 27.5234 179.127 27.4765 179.041 27.3438C178.955 27.2111 178.908 27.0393 178.908 26.7738C178.908 26.5942 178.908 26.3756 178.908 26.0243C178.908 25.6729 178.908 25.4074 178.908 25.1029C178.908 24.7516 178.861 24.4861 178.776 24.2675C178.69 24.0488 178.471 23.9161 178.073 23.9161C177.636 23.9161 177.152 24.0957 176.621 24.4002C176.09 24.7047 175.567 25.1498 175.043 25.6729C174.52 26.2038 173.989 26.7738 173.505 27.4297C173.021 28.0855 172.537 28.7492 172.147 29.4519C171.928 29.8501 171.709 30.2405 171.53 30.5919C171.491 30.7715 171.397 30.9901 171.311 31.2087C171.264 31.2946 171.225 31.4273 171.132 31.5132C170.913 32.0832 170.827 32.6141 170.827 33.0514C170.827 33.7072 171.046 34.1913 171.53 34.5895C172.014 34.9877 172.584 35.1595 173.372 35.1595C174.208 35.1595 175.082 35.0268 176.051 34.7223C177.019 34.4178 177.94 34.1055 178.861 33.6682C179.783 33.231 180.704 32.7859 181.579 32.2628C182.453 31.7318 183.242 31.2946 183.944 30.8105C184.647 30.3733 185.264 29.9751 185.748 29.6237C186.232 29.3192 186.537 29.0928 186.716 29.0069C187.021 28.8741 187.286 28.7883 187.552 28.7883C187.77 28.7883 187.942 28.8351 188.122 28.921C188.293 29.0069 188.387 29.1396 188.52 29.2723C188.653 29.4051 188.699 29.5769 188.699 29.7096C188.746 29.8892 188.746 30.0141 188.746 30.1078C188.746 30.2874 188.746 30.4592 188.699 30.7246C188.653 30.9901 188.52 31.2087 188.262 31.5132C188.176 31.646 187.864 31.9114 187.341 32.3487C186.81 32.7859 186.154 33.3637 185.365 33.9337C184.577 34.5037 183.609 35.2064 182.601 35.9091C181.594 36.6118 180.407 37.2286 179.221 37.7986C178.034 38.3686 176.761 38.8527 175.488 39.2509C174.216 39.6491 172.943 39.8209 171.717 39.8209C170.757 39.8209 169.921 39.6881 169.219 39.3836C168.516 39.0791 167.86 38.6809 167.376 38.15C166.892 37.619 166.502 37.049 166.236 36.3463C166.236 36.2995 166.197 36.2604 166.197 36.2136C165.58 36.6977 165.01 37.1349 164.354 37.5331C163.347 38.189 162.293 38.7668 161.239 39.1572C160.185 39.5554 159.131 39.774 158.077 39.774C156.585 39.774 155.399 39.3758 154.524 38.634C153.689 37.8845 153.251 36.7445 153.251 35.2454C152.986 35.3313 152.721 35.3781 152.463 35.425C151.542 35.6046 150.659 35.7295 149.699 35.7295C149.082 35.7295 148.559 35.6436 148.075 35.464C147.591 35.2844 147.153 35.0268 146.755 34.6754C145.178 36.5649 143.507 37.9704 141.711 38.8527C139.916 39.735 138.026 40.1722 135.957 40.1722C134.817 40.1722 133.849 39.9926 133.107 39.6881C132.357 39.3836 131.702 38.9386 131.218 38.3686C130.78 37.8376 130.429 37.2286 130.21 36.5181C129.726 36.8695 129.203 37.174 128.719 37.4863C127.579 38.189 126.439 38.7199 125.338 39.1572C124.245 39.5944 123.23 39.774 122.309 39.774C121.387 39.774 120.685 39.5085 120.115 39.0244C119.545 38.5404 119.279 37.6581 119.279 36.4713C119.279 35.6358 119.412 34.6208 119.716 33.4808C119.232 34.2304 118.616 34.9331 117.921 35.6827C117.218 36.4322 116.382 37.0881 115.461 37.7049C114.54 38.3217 113.486 38.8058 112.346 39.1962C111.206 39.5944 109.933 39.7662 108.575 39.7662C107.958 39.7662 107.388 39.7193 106.818 39.5866C106.248 39.4539 105.764 39.2353 105.326 38.9308C104.889 38.6262 104.538 38.1812 104.319 37.6581C104.054 37.1271 103.929 36.4713 103.929 35.6827C103.929 35.6827 103.976 35.3781 104.062 34.8472C104.108 34.6286 104.147 34.41 104.194 34.0976C103.843 34.3163 103.492 34.5349 103.14 34.7535C102.266 35.2845 101.383 35.8544 100.462 36.3385C99.5408 36.8695 98.7053 37.3067 97.8699 37.7439C97.0344 38.1812 96.2458 38.4935 95.5041 38.759C94.7545 39.0244 94.1455 39.1572 93.6146 39.1572C92.3419 39.1572 91.3737 38.8527 90.7178 38.2358C90.062 37.619 89.7496 36.8304 89.7496 35.8622C89.7496 35.7295 89.7496 35.5968 89.7965 35.5109C89.9292 34.6754 90.1478 33.8868 90.5382 33.1373C90.8896 32.3877 91.2878 31.646 91.725 30.9354C92.1623 30.2327 92.6464 29.569 93.1305 28.96C93.6146 28.3432 94.0518 27.7264 94.45 27.2032C94.8482 26.6723 95.1996 26.1492 95.4572 25.6651C95.7227 25.181 95.8554 24.7828 95.8554 24.3924C95.8554 24.3065 95.8554 24.2128 95.8086 24.1269C95.7617 24.041 95.6759 23.9942 95.5431 23.9942C95.3245 23.9942 94.9731 24.0801 94.4422 24.2597C93.9113 24.4392 93.3881 24.6579 92.8182 24.9155C92.2482 25.181 91.6782 25.5324 91.1941 25.8837C90.671 26.2351 90.3196 26.6333 90.0932 27.0237C89.7887 27.5546 89.4373 28.2105 89.086 28.9991C88.6878 29.7877 88.2974 30.6231 87.8601 31.5054C87.4229 32.3877 87.0247 33.2622 86.6343 34.0976C86.2361 34.9331 85.8847 35.6827 85.6271 36.2995C85.4084 36.8304 85.1039 37.3145 84.7526 37.7518C84.4012 38.189 84.003 38.5404 83.5658 38.8527C83.1285 39.1572 82.6913 39.3836 82.2462 39.5554C81.809 39.735 81.4108 39.8209 81.0204 39.8209C80.5831 39.8209 80.2786 39.6881 80.0132 39.4695C79.7477 39.2509 79.615 38.8995 79.615 38.3686C79.615 38.15 79.6618 37.9313 79.7008 37.619C79.7477 37.3145 79.9195 36.9632 80.099 36.604C80.2318 36.3854 80.3177 36.1667 80.4504 35.9013C80.2318 36.034 80.0132 36.1667 79.7945 36.2995C78.6936 36.9163 77.5146 37.4863 76.281 38.0172C75.0551 38.5482 73.7824 38.9854 72.416 39.3368C71.0575 39.6881 69.7379 39.8677 68.4652 39.8677C67.3643 39.8677 66.3571 39.6491 65.4826 39.2118C64.6081 38.7746 63.9054 38.1968 63.2886 37.4941C62.8904 37.01 62.539 36.44 62.2814 35.87C61.3132 36.5728 60.3528 37.2364 59.3846 37.8064C58.2837 38.4232 57.2374 38.9464 56.1834 39.2977C55.1293 39.6491 54.0752 39.8677 53.068 39.8677C51.7485 39.8677 50.6944 39.5632 49.9058 38.9464C49.1172 38.3295 48.719 37.4082 48.719 36.0887C48.719 35.1205 48.8908 34.2382 49.2031 33.4027C49.5076 32.5673 49.9526 31.7318 50.3899 30.9432C50.874 30.1546 51.3581 29.4051 51.9281 28.6555C52.4512 27.906 52.9353 27.2032 53.3335 26.5005C53.5521 26.196 53.7317 25.8837 53.8566 25.6182C53.9893 25.3528 54.0284 25.0483 54.0284 24.7359C54.0284 24.4705 53.9425 24.205 53.8098 24.0332C53.677 23.8536 53.4116 23.7678 53.107 23.7678C52.0061 23.7678 50.9989 24.0332 50.0776 24.5564C49.1562 25.0873 48.2818 25.79 47.5322 26.6255C46.7436 27.4609 46.0409 28.3822 45.3382 29.3973C44.6823 30.4123 44.0655 31.3336 43.4486 32.255C43.1832 32.6532 42.9255 33.1373 42.66 33.6604C42.3946 34.1913 42.1369 34.7145 41.8246 35.2844C41.5123 35.8544 41.2546 36.3854 40.9033 36.9553C40.5988 37.4863 40.2474 38.0094 39.896 38.4076C39.5447 38.8449 39.1933 39.1962 38.7951 39.4226C38.3969 39.6881 38.0065 39.8209 37.6083 39.8209C36.9525 39.8209 36.4684 39.6413 36.117 39.2509C35.7657 38.8527 35.5939 38.3686 35.5939 37.7986C35.5939 37.3614 35.6798 36.9163 35.8125 36.4322C35.8593 36.2995 35.8984 36.1667 35.9452 36.034C35.508 36.3854 35.0239 36.6899 34.5398 37.0022C32.9314 38.1656 31.9632 34.3006 33.111 33.7229ZM144.358 23.6975C143.304 23.6975 142.25 23.963 141.196 24.4471C140.142 24.9311 139.174 25.6339 138.346 26.4693C137.511 27.3048 136.808 28.2729 136.285 29.2802C135.754 30.3342 135.496 31.3883 135.496 32.4892C135.496 32.7937 135.543 33.106 135.582 33.4105C135.629 33.7151 135.754 33.9805 135.934 34.246C136.105 34.5115 136.371 34.7301 136.675 34.9019C136.98 35.0814 137.464 35.1673 137.995 35.1673C139.096 35.1673 140.103 34.9019 141.11 34.4178C142.117 33.8868 143.039 33.231 143.835 32.3955C144.624 31.5601 145.287 30.5919 145.764 29.5847C146.248 28.5696 146.513 27.4765 146.513 26.4225C146.513 26.157 146.466 25.8525 146.427 25.5402C146.381 25.2357 146.295 24.9233 146.123 24.6579C145.951 24.3924 145.771 24.1738 145.467 24.002C145.147 23.8302 144.842 23.6975 144.358 23.6975ZM74.6647 22.862H74.3993C73.6965 22.862 73.0407 22.9948 72.4239 23.2993C71.807 23.6038 71.237 23.9552 70.753 24.4002C70.2298 24.8374 69.7848 25.3684 69.3944 25.9384C68.9962 26.5083 68.6448 27.0783 68.3403 27.6561C68.0358 28.2261 67.7703 28.757 67.5517 29.2802C67.3331 29.8111 67.1535 30.2483 67.0676 30.5997C67.7235 30.2483 68.3872 29.897 69.0899 29.4597C69.7926 29.0225 70.4485 28.6243 71.0653 28.2261C71.6821 27.8279 72.2052 27.4765 72.6425 27.172C73.0797 26.8675 73.4311 26.6411 73.6107 26.5161C74.4461 25.9852 75.0161 25.5011 75.3206 25.0639C75.6251 24.6266 75.8047 24.2284 75.8047 23.8771C75.8047 23.6116 75.7188 23.393 75.5392 23.2212C75.3674 23.0416 75.141 22.9557 74.9224 22.9167C74.8443 22.862 74.7584 22.862 74.6647 22.862ZM165.51 11.3454C166.611 11.3454 167.353 11.564 167.751 11.9622C168.149 12.3604 168.407 12.8835 168.407 13.5472C168.407 13.8985 168.321 14.2967 168.188 14.734C168.055 15.1712 167.837 15.5694 167.571 15.9208C167.306 16.2722 166.915 16.5767 166.478 16.8421C166.041 17.1076 165.51 17.1935 164.901 17.1935C163.761 17.1935 162.926 17.0139 162.488 16.6625C162.051 16.3112 161.739 15.8271 161.7 15.2103C161.7 14.773 161.786 14.328 161.918 13.8907C162.051 13.4535 162.316 13.0084 162.621 12.6571C162.926 12.3057 163.324 12.0012 163.808 11.7357C164.284 11.4781 164.854 11.3454 165.51 11.3454Z" />
  <path d="M23.9397 40.5002C25.7824 40.5002 27.5392 40.2347 29.2491 39.6647C30.959 39.1338 32.544 38.3921 33.9416 37.4629C35.3861 36.5416 36.6588 35.5265 37.8066 34.3397C38.9465 33.1998 39.8288 32.013 40.5315 30.7793L40.7033 30.5139L41.7105 28.843C41.8823 28.5775 42.1478 27.8748 42.1087 27.6093C42.0619 27.3048 41.937 27.0784 41.7574 26.9534C41.4919 26.7739 41.1406 26.6021 40.836 26.6021C40.4847 26.6021 40.1802 26.8207 40.0474 27.0003C38.9075 28.6243 37.4162 30.3421 36.2294 31.3962C35.0426 32.4502 33.9026 33.2857 32.7158 33.8557C31.5758 34.4256 30.4359 34.8707 29.335 35.0893C28.2341 35.3079 27.2268 35.3938 26.2665 35.3938C25.7824 35.3938 25.2983 35.3938 24.861 35.347C24.4238 35.3001 23.9865 35.2611 23.5883 35.1674C22.3625 34.9878 21.2616 34.6364 20.2934 34.1992C19.3252 33.762 18.4507 33.231 17.748 32.5752C16.9985 31.9193 16.3894 31.1697 15.9053 30.3343C15.4213 29.4988 15.0309 28.5775 14.7654 27.6093C14.3281 26.0712 14.1486 24.4471 14.2813 22.6825C14.3672 20.9257 14.7185 19.208 15.3354 17.4512C15.9522 15.6944 16.7408 14.0235 17.7949 12.3917C18.8489 10.7676 20.0748 9.31534 21.5271 7.9958C22.9715 6.67626 24.5956 5.62219 26.446 4.7399C28.2887 3.8576 30.1782 3.50625 32.2864 3.28762C33.1609 3.24078 33.9573 3.28762 34.6131 3.46721C35.269 3.64679 35.8858 3.86541 36.3699 4.16992C36.854 4.47443 39.8835 2.58491 39.0012 2.06178C38.1267 1.53084 37.0258 1.14044 35.7999 0.828127C34.5741 0.562658 33.1687 0.429923 31.5837 0.523618C29.3896 0.570466 27.2424 1.00771 25.1343 1.79631C23.0262 2.58491 21.0508 3.68583 19.2549 5.09125C17.4591 6.49668 15.7882 8.12854 14.2969 9.97121C12.8056 11.8217 11.6656 13.8439 10.7443 15.9521C9.82297 18.0602 9.20614 20.3089 8.94848 22.6357C8.68301 24.9624 8.77671 27.297 9.29984 29.6238C9.78393 31.2478 10.4866 32.7469 11.3611 34.0196C12.2825 35.2923 13.3365 36.3932 14.5233 37.3146C15.7101 38.2359 16.9828 38.9386 18.3883 39.4696C19.7937 40.0005 21.1991 40.305 22.6045 40.4377C22.8232 40.4377 23.0886 40.4846 23.3073 40.4846C23.5025 40.5002 23.7211 40.5002 23.9397 40.5002Z" />
  <path
          opacity="0.5"
          d="M14.2184 7.38663L16.2563 5.14576C15.1553 4.26346 13.6718 3.15474 11.673 2.38175C9.86938 1.68685 8.57327 1.40576 6.81648 1.40576C4.84889 1.40576 0.28125 2.77215 0.28125 6.81665C0.28125 13.5159 8.72162 12.8209 8.72162 12.8209C8.72162 12.8209 3.31072 11.0173 3.31072 8.4407C3.31072 5.98901 4.62246 4.48989 6.82429 4.48989C10.3301 4.48989 13.0472 6.4731 14.2184 7.38663Z"
        />
  <path d="M38.4267 8.44063C38.4267 5.59073 37.0369 4.84898 36.2327 4.04476C37.3336 3.16247 39.0748 2.1084 39.0748 2.1084C39.0748 2.1084 43.1661 4.70844 42.5883 9.09649C42.0183 13.4924 37.0993 17.0137 30.9623 17.0137C24.8175 17.0137 21.749 13.9374 19.9922 12.3992C20.2811 11.962 21.3117 10.6425 22.1862 9.97879C23.7244 11.2983 25.6764 13.7188 31.1809 13.7188C36.6699 13.7188 38.4267 11.2983 38.4267 8.44063Z" />
  <g clipPath="url(#clip0_8541_265524)">
        <path d="M33.111 33.7229C34.2509 33.1529 35.3909 32.3174 36.5777 31.3024C37.6786 30.2874 39.2558 28.5306 40.3489 26.9924C40.7003 26.3366 41.0048 25.7197 41.3171 25.1029C41.8402 24.0879 42.2853 23.2134 42.6366 22.4638L51.8109 4.34945C51.9437 4.08398 52.0764 3.86536 52.3341 3.64674C52.5527 3.42812 52.8182 3.20949 53.1227 3.02991C53.4272 2.85033 53.7395 2.7254 54.0909 2.59267C54.4422 2.50678 54.7467 2.45993 55.0981 2.45993C55.9335 2.45993 56.5035 2.59267 56.808 2.89718C57.1125 3.20169 57.2921 3.59989 57.2921 4.03713C57.2921 4.43534 57.2062 4.87258 56.9876 5.35667C56.769 5.79392 56.5503 6.23897 56.2849 6.62937C55.4494 8.03479 54.7077 9.44022 53.9113 10.8535C53.1227 12.2589 52.42 13.7112 51.6704 15.1634C50.9208 16.6157 50.1791 18.0211 49.3905 19.4734C48.6409 20.8788 47.8133 22.2843 46.9778 23.6975C47.0247 23.6506 47.0637 23.6506 47.1106 23.6506C47.1574 23.5648 47.1574 23.5179 47.1574 23.5179C47.6415 23.0807 48.1256 22.5966 48.6019 22.1515C49.1719 21.6206 49.8277 21.1365 50.4914 20.6602C51.1941 20.223 51.9359 19.8248 52.7323 19.5593C53.5677 19.2548 54.4422 19.122 55.4494 19.122C56.0663 19.122 56.5894 19.1689 57.1594 19.3016C57.6825 19.4344 58.1666 19.6061 58.5648 19.8326C58.963 20.098 59.3144 20.4494 59.533 20.8476C59.7984 21.2848 59.8843 21.8158 59.8843 22.4326C59.8843 23.2681 59.7516 24.0176 59.4861 24.7203C59.2207 25.423 58.9161 26.0867 58.5179 26.6957C58.1197 27.3126 57.6825 27.9294 57.2453 28.4994C56.7612 29.0693 56.3239 29.6393 55.9257 30.2171C55.4885 30.7871 55.1371 31.4039 54.8248 32.0676C54.5203 32.7234 54.3407 33.3871 54.2548 34.1367V34.3553C54.2548 34.7067 54.3876 34.9721 54.653 35.058C54.9185 35.1439 55.223 35.1908 55.6212 35.1908C56.1053 35.1908 56.6753 35.1049 57.2453 34.8862C57.8152 34.7067 58.3852 34.449 59.002 34.0976C59.6189 33.7463 60.1888 33.3949 60.7588 32.9967C60.9306 32.864 61.1102 32.7781 61.2819 32.6454C61.2819 32.5126 61.2819 32.3409 61.2819 32.2081C61.2819 31.4195 61.4537 30.5372 61.766 29.569C62.0705 28.6009 62.5546 27.6327 63.1246 26.6645C63.7414 25.6963 64.4442 24.775 65.3186 23.8536C66.1931 22.9323 67.1613 22.1359 68.2154 21.3942C69.3163 20.6914 70.4953 20.1215 71.768 19.6764C73.0407 19.2392 74.4461 19.0205 75.8906 19.0205C77.4287 19.0205 78.5687 19.3719 79.3573 20.1215C80.1069 20.871 80.4973 21.8782 80.4973 23.1978C80.4973 23.9864 80.2786 24.7828 79.8804 25.6573C79.4822 26.4927 78.7795 27.375 77.7723 28.2495C76.7651 29.1318 75.4455 30.0531 73.7356 30.9745C72.0647 31.8958 69.9644 32.825 67.419 33.7463C67.5049 34.2772 67.8172 34.7145 68.2935 35.019C68.7776 35.3235 69.4334 35.4562 70.222 35.4562C71.0575 35.4562 71.9788 35.3235 72.986 35.058C73.9933 34.7925 74.9146 34.488 75.8828 34.0898C76.8509 33.6916 77.7723 33.2544 78.6936 32.8171C79.615 32.3799 80.4036 31.9348 81.1531 31.4976C81.8558 31.0994 82.4258 30.7949 82.9099 30.4826C83.1754 29.9516 83.433 29.3817 83.6985 28.8117C84.2685 27.578 84.9712 26.1258 85.7598 24.5486C85.4943 24.3299 85.2757 24.0645 85.1039 23.7131C84.9322 23.4086 84.8385 22.9635 84.8385 22.4795C84.8385 22.0422 84.9243 21.644 85.1039 21.3395C85.2757 21.035 85.5412 20.7695 85.8535 20.5509C86.158 20.3323 86.5562 20.1995 86.9544 20.1137C87.3526 20.0278 87.8289 19.9809 88.2739 19.9809C88.758 19.9809 89.2421 20.0278 89.7262 20.1137C90.2103 20.1995 90.6476 20.3323 91.0458 20.5119C91.444 20.6914 91.7485 20.8632 91.9671 21.1287C92.2326 21.3942 92.3185 21.6596 92.3185 21.9641C92.3185 22.011 92.3184 22.0969 92.2716 22.1828C92.2248 22.2296 92.2248 22.3155 92.1857 22.4014L92.1389 22.4873C92.092 22.62 92.053 22.7059 92.0061 22.7918C91.9593 22.8777 91.9593 22.9713 91.9593 23.0104C91.9593 23.0572 91.9593 23.0572 92.0061 23.0572H92.053L92.0998 23.0104C92.8494 22.5731 93.5911 22.1749 94.3407 21.7767C95.1293 21.4254 95.8789 21.074 96.5816 20.8086C97.2843 20.5431 97.987 20.3245 98.6429 20.1527C99.2987 19.9731 99.8687 19.9341 100.4 19.9341C101.235 19.9341 101.891 20.1527 102.328 20.5509C102.765 20.9491 103.031 21.605 103.031 22.5731C103.031 22.7918 103.031 23.0104 102.984 23.229C102.984 23.4476 102.937 23.7131 102.851 23.9786C102.765 24.4627 102.5 25.0326 102.016 25.6963C101.532 26.3522 101.009 27.0159 100.392 27.7186C99.775 28.4213 99.1192 29.124 98.3774 29.8736L96.402 31.849C95.7852 32.4658 95.3089 32.9889 94.9107 33.434C94.5125 33.8712 94.2939 34.1835 94.2939 34.3553C94.2939 34.488 94.2938 34.6208 94.3407 34.6598C94.3407 34.7067 94.4266 34.7457 94.6062 34.7457C95.6134 34.3085 96.7143 33.8244 97.9402 33.2075C99.166 32.5907 100.4 31.9739 101.625 31.3571C102.851 30.7402 103.991 30.1234 105.092 29.5066C105.397 29.327 105.662 29.2021 105.928 29.0225C106.099 28.6711 106.232 28.2729 106.459 27.8357C107.294 25.9462 108.473 23.6584 110.011 20.9725C110.409 20.2698 110.847 19.7389 111.37 19.4344C111.901 19.1299 112.424 18.9971 113.041 18.9971C113.306 18.9971 113.572 19.044 113.829 19.083C114.095 19.1299 114.36 19.2626 114.618 19.3875C114.883 19.5202 115.055 19.692 115.188 19.9185C115.321 20.1371 115.406 20.3557 115.406 20.668C115.406 20.8476 115.36 21.0194 115.321 21.199C115.235 21.5035 115.016 21.9485 114.704 22.4326C114.399 22.9167 114.048 23.5335 113.65 24.1894C113.259 24.8453 112.814 25.5558 112.338 26.3444C111.901 27.0939 111.463 27.8825 111.065 28.718C110.667 29.5534 110.316 30.3889 110.058 31.2243C109.793 32.0598 109.621 32.8952 109.574 33.6838C109.574 34.0352 109.66 34.3397 109.839 34.6052C110.011 34.8706 110.324 35.0424 110.761 35.0424C111.994 35.0424 113.134 34.691 114.227 34.0274C115.328 33.3715 116.336 32.5361 117.257 31.521C118.178 30.506 119.014 29.4519 119.755 28.312C120.497 27.172 121.114 26.1101 121.645 25.1888C121.996 24.572 122.301 23.8693 122.566 23.1665C122.832 22.417 123.136 21.7611 123.441 21.1443C123.745 20.5275 124.097 20.0043 124.542 19.6061C124.979 19.2079 125.463 18.9893 126.08 18.9893C126.736 18.9893 127.267 19.2079 127.657 19.6452C128.055 20.0824 128.227 20.5665 128.227 21.1833C128.227 21.5347 128.094 21.9719 127.837 22.5497C127.571 23.1197 127.267 23.8224 126.869 24.572C126.47 25.3215 126.08 26.1101 125.643 26.9924C125.205 27.8747 124.768 28.7102 124.417 29.5847C124.019 30.467 123.714 31.3414 123.449 32.1769C123.183 33.0123 123.058 33.8009 123.058 34.5505C123.058 35.2064 123.449 35.5655 124.284 35.5655C124.854 35.5655 125.557 35.386 126.439 35.0814C127.314 34.7769 128.196 34.2928 129.117 33.676C129.289 33.5433 129.515 33.4105 129.687 33.2778C129.726 32.661 129.859 32.0051 129.992 31.3414C130.257 30.3264 130.562 29.366 130.96 28.3979C131.225 27.781 131.444 27.2579 131.616 26.8597C131.787 26.4615 131.92 26.1101 132.053 25.8056C132.186 25.5011 132.272 25.2747 132.357 25.0561C132.443 24.8374 132.529 24.6188 132.623 24.4002C132.709 24.1816 132.842 23.9161 132.974 23.6116C133.107 23.3461 133.24 22.9948 133.412 22.5966L133.497 22.417L141.618 4.3026C141.75 4.03713 141.883 3.81851 142.102 3.59989C142.32 3.38127 142.539 3.16265 142.844 2.98306C143.109 2.80348 143.413 2.67856 143.765 2.54582C144.069 2.45993 144.421 2.41309 144.772 2.41309C145.608 2.41309 146.224 2.59267 146.576 2.89718C146.927 3.20169 147.107 3.64674 147.107 4.13083C147.107 4.48219 147.021 4.91943 146.841 5.36448C146.669 5.80173 146.443 6.19993 146.224 6.59813C144.866 9.23721 143.546 11.9153 142.32 14.6481C141.095 17.3731 139.775 20.059 138.416 22.7371C139.033 22.253 139.642 21.8158 140.306 21.3707C140.962 20.9335 141.665 20.5353 142.414 20.1839C143.164 19.8326 143.905 19.5671 144.655 19.3485C145.405 19.1299 146.232 19.044 147.068 19.044C147.638 19.044 148.208 19.1767 148.824 19.3953C149.441 19.6139 149.964 19.9263 150.448 20.3635C150.933 20.8007 151.323 21.3317 151.635 21.9485C151.94 22.5653 152.072 23.3149 152.072 24.1035C152.072 24.2831 152.026 24.6735 151.901 25.2044C151.768 25.7354 151.635 26.3912 151.417 27.0939C151.198 27.7966 150.933 28.4994 150.628 29.2489C150.324 29.9985 149.972 30.6153 149.621 31.1853C149.754 31.4039 149.925 31.5366 150.105 31.5835C150.277 31.6303 150.542 31.6694 150.808 31.6694C151.643 31.6694 152.518 31.5366 153.353 31.318C153.572 31.2712 153.837 31.1853 154.056 31.0994C154.142 30.8808 154.235 30.6153 154.36 30.3967C154.712 29.6081 155.063 28.9054 155.414 28.1558C155.766 27.4063 156.117 26.7504 156.382 26.0867C156.468 25.8212 156.648 25.4699 156.867 24.9858C157.085 24.5017 157.351 23.9708 157.608 23.4476C157.921 22.8308 158.225 22.1749 158.576 21.5113C158.881 20.9803 159.232 20.629 159.677 20.4104C160.115 20.1917 160.513 20.059 160.95 20.059C161.653 20.059 162.27 20.2776 162.793 20.7617C163.316 21.2458 163.542 21.8158 163.542 22.5185C163.542 22.6981 163.495 22.8699 163.456 23.0026C163.41 23.1353 163.371 23.3539 163.277 23.4867C163.011 23.9708 162.793 24.369 162.621 24.7203C162.449 25.0717 162.316 25.3762 162.184 25.6417C162.051 25.9071 161.918 26.2116 161.786 26.4771V26.524C161.747 26.6567 161.606 26.9612 161.395 27.4453L161.309 27.6639C161.005 28.3666 160.653 29.288 160.255 30.2171L160.122 30.5216C159.467 32.1457 158.897 33.6838 158.897 33.9103C158.897 34.3943 159.029 34.7457 159.295 34.9253C159.56 35.1049 159.912 35.1439 160.349 35.1439C160.88 35.1439 161.403 35.0112 161.973 34.7925C162.543 34.5739 163.113 34.2616 163.683 33.9103C164.253 33.5589 164.823 33.1607 165.393 32.6766C165.697 32.458 165.963 32.1925 166.228 31.9739C166.275 31.7943 166.314 31.6225 166.4 31.4429C166.798 30.342 167.321 29.2411 168.024 28.1012C168.727 26.9612 169.515 25.8603 170.437 24.7594C171.358 23.6584 172.365 22.6903 173.466 21.8158C174.567 20.9335 175.707 20.2776 176.847 19.7467C177.987 19.2157 179.221 18.9581 180.446 18.9581C180.845 18.9581 181.235 19.0049 181.586 19.0908C181.938 19.1767 182.242 19.3094 182.555 19.5281C182.859 19.7467 183.039 19.9653 183.21 20.3167C183.382 20.668 183.429 21.0662 183.429 21.5035C183.429 22.0734 183.382 22.7371 183.25 23.393C183.117 24.0488 182.898 24.7594 182.594 25.3684C182.289 25.9852 181.938 26.5083 181.454 26.9065C180.97 27.3048 180.4 27.5234 179.744 27.5234C179.392 27.5234 179.127 27.4765 179.041 27.3438C178.955 27.2111 178.908 27.0393 178.908 26.7738C178.908 26.5942 178.908 26.3756 178.908 26.0243C178.908 25.6729 178.908 25.4074 178.908 25.1029C178.908 24.7516 178.861 24.4861 178.776 24.2675C178.69 24.0488 178.471 23.9161 178.073 23.9161C177.636 23.9161 177.152 24.0957 176.621 24.4002C176.09 24.7047 175.567 25.1498 175.043 25.6729C174.52 26.2038 173.989 26.7738 173.505 27.4297C173.021 28.0855 172.537 28.7492 172.147 29.4519C171.928 29.8501 171.709 30.2405 171.53 30.5919C171.491 30.7715 171.397 30.9901 171.311 31.2087C171.264 31.2946 171.225 31.4273 171.132 31.5132C170.913 32.0832 170.827 32.6141 170.827 33.0514C170.827 33.7072 171.046 34.1913 171.53 34.5895C172.014 34.9877 172.584 35.1595 173.372 35.1595C174.208 35.1595 175.082 35.0268 176.051 34.7223C177.019 34.4178 177.94 34.1055 178.861 33.6682C179.783 33.231 180.704 32.7859 181.579 32.2628C182.453 31.7318 183.242 31.2946 183.944 30.8105C184.647 30.3733 185.264 29.9751 185.748 29.6237C186.232 29.3192 186.537 29.0928 186.716 29.0069C187.021 28.8741 187.286 28.7883 187.552 28.7883C187.77 28.7883 187.942 28.8351 188.122 28.921C188.293 29.0069 188.387 29.1396 188.52 29.2723C188.653 29.4051 188.699 29.5769 188.699 29.7096C188.746 29.8892 188.746 30.0141 188.746 30.1078C188.746 30.2874 188.746 30.4592 188.699 30.7246C188.653 30.9901 188.52 31.2087 188.262 31.5132C188.176 31.646 187.864 31.9114 187.341 32.3487C186.81 32.7859 186.154 33.3637 185.365 33.9337C184.577 34.5037 183.609 35.2064 182.601 35.9091C181.594 36.6118 180.407 37.2286 179.221 37.7986C178.034 38.3686 176.761 38.8527 175.488 39.2509C174.216 39.6491 172.943 39.8209 171.717 39.8209C170.757 39.8209 169.921 39.6881 169.219 39.3836C168.516 39.0791 167.86 38.6809 167.376 38.15C166.892 37.619 166.502 37.049 166.236 36.3463C166.236 36.2995 166.197 36.2604 166.197 36.2136C165.58 36.6977 165.01 37.1349 164.354 37.5331C163.347 38.189 162.293 38.7668 161.239 39.1572C160.185 39.5554 159.131 39.774 158.077 39.774C156.585 39.774 155.399 39.3758 154.524 38.634C153.689 37.8845 153.251 36.7445 153.251 35.2454C152.986 35.3313 152.721 35.3781 152.463 35.425C151.542 35.6046 150.659 35.7295 149.699 35.7295C149.082 35.7295 148.559 35.6436 148.075 35.464C147.591 35.2844 147.153 35.0268 146.755 34.6754C145.178 36.5649 143.507 37.9704 141.711 38.8527C139.916 39.735 138.026 40.1722 135.957 40.1722C134.817 40.1722 133.849 39.9926 133.107 39.6881C132.357 39.3836 131.702 38.9386 131.218 38.3686C130.78 37.8376 130.429 37.2286 130.21 36.5181C129.726 36.8695 129.203 37.174 128.719 37.4863C127.579 38.189 126.439 38.7199 125.338 39.1572C124.245 39.5944 123.23 39.774 122.309 39.774C121.387 39.774 120.685 39.5085 120.115 39.0244C119.545 38.5404 119.279 37.6581 119.279 36.4713C119.279 35.6358 119.412 34.6208 119.716 33.4808C119.232 34.2304 118.616 34.9331 117.921 35.6827C117.218 36.4322 116.382 37.0881 115.461 37.7049C114.54 38.3217 113.486 38.8058 112.346 39.1962C111.206 39.5944 109.933 39.7662 108.575 39.7662C107.958 39.7662 107.388 39.7193 106.818 39.5866C106.248 39.4539 105.764 39.2353 105.326 38.9308C104.889 38.6262 104.538 38.1812 104.319 37.6581C104.054 37.1271 103.929 36.4713 103.929 35.6827C103.929 35.6827 103.976 35.3781 104.062 34.8472C104.108 34.6286 104.147 34.41 104.194 34.0976C103.843 34.3163 103.492 34.5349 103.14 34.7535C102.266 35.2845 101.383 35.8544 100.462 36.3385C99.5408 36.8695 98.7053 37.3067 97.8699 37.7439C97.0344 38.1812 96.2458 38.4935 95.5041 38.759C94.7545 39.0244 94.1455 39.1572 93.6146 39.1572C92.3419 39.1572 91.3737 38.8527 90.7178 38.2358C90.062 37.619 89.7496 36.8304 89.7496 35.8622C89.7496 35.7295 89.7496 35.5968 89.7965 35.5109C89.9292 34.6754 90.1478 33.8868 90.5382 33.1373C90.8896 32.3877 91.2878 31.646 91.725 30.9354C92.1623 30.2327 92.6464 29.569 93.1305 28.96C93.6146 28.3432 94.0518 27.7264 94.45 27.2032C94.8482 26.6723 95.1996 26.1492 95.4572 25.6651C95.7227 25.181 95.8554 24.7828 95.8554 24.3924C95.8554 24.3065 95.8554 24.2128 95.8086 24.1269C95.7617 24.041 95.6759 23.9942 95.5431 23.9942C95.3245 23.9942 94.9731 24.0801 94.4422 24.2597C93.9113 24.4392 93.3881 24.6579 92.8182 24.9155C92.2482 25.181 91.6782 25.5324 91.1941 25.8837C90.671 26.2351 90.3196 26.6333 90.0932 27.0237C89.7887 27.5546 89.4373 28.2105 89.086 28.9991C88.6878 29.7877 88.2974 30.6231 87.8601 31.5054C87.4229 32.3877 87.0247 33.2622 86.6343 34.0976C86.2361 34.9331 85.8847 35.6827 85.6271 36.2995C85.4084 36.8304 85.1039 37.3145 84.7526 37.7518C84.4012 38.189 84.003 38.5404 83.5658 38.8527C83.1285 39.1572 82.6913 39.3836 82.2462 39.5554C81.809 39.735 81.4108 39.8209 81.0204 39.8209C80.5831 39.8209 80.2786 39.6881 80.0132 39.4695C79.7477 39.2509 79.615 38.8995 79.615 38.3686C79.615 38.15 79.6618 37.9313 79.7008 37.619C79.7477 37.3145 79.9195 36.9632 80.099 36.604C80.2318 36.3854 80.3177 36.1667 80.4504 35.9013C80.2318 36.034 80.0132 36.1667 79.7945 36.2995C78.6936 36.9163 77.5146 37.4863 76.281 38.0172C75.0551 38.5482 73.7824 38.9854 72.416 39.3368C71.0575 39.6881 69.7379 39.8677 68.4652 39.8677C67.3643 39.8677 66.3571 39.6491 65.4826 39.2118C64.6081 38.7746 63.9054 38.1968 63.2886 37.4941C62.8904 37.01 62.539 36.44 62.2814 35.87C61.3132 36.5728 60.3528 37.2364 59.3846 37.8064C58.2837 38.4232 57.2374 38.9464 56.1834 39.2977C55.1293 39.6491 54.0752 39.8677 53.068 39.8677C51.7485 39.8677 50.6944 39.5632 49.9058 38.9464C49.1172 38.3295 48.719 37.4082 48.719 36.0887C48.719 35.1205 48.8908 34.2382 49.2031 33.4027C49.5076 32.5673 49.9526 31.7318 50.3899 30.9432C50.874 30.1546 51.3581 29.4051 51.9281 28.6555C52.4512 27.906 52.9353 27.2032 53.3335 26.5005C53.5521 26.196 53.7317 25.8837 53.8566 25.6182C53.9893 25.3528 54.0284 25.0483 54.0284 24.7359C54.0284 24.4705 53.9425 24.205 53.8098 24.0332C53.677 23.8536 53.4116 23.7678 53.107 23.7678C52.0061 23.7678 50.9989 24.0332 50.0776 24.5564C49.1562 25.0873 48.2818 25.79 47.5322 26.6255C46.7436 27.4609 46.0409 28.3822 45.3382 29.3973C44.6823 30.4123 44.0655 31.3336 43.4486 32.255C43.1832 32.6532 42.9255 33.1373 42.66 33.6604C42.3946 34.1913 42.1369 34.7145 41.8246 35.2844C41.5123 35.8544 41.2546 36.3854 40.9033 36.9553C40.5988 37.4863 40.2474 38.0094 39.896 38.4076C39.5447 38.8449 39.1933 39.1962 38.7951 39.4226C38.3969 39.6881 38.0065 39.8209 37.6083 39.8209C36.9525 39.8209 36.4684 39.6413 36.117 39.2509C35.7657 38.8527 35.5939 38.3686 35.5939 37.7986C35.5939 37.3614 35.6798 36.9163 35.8125 36.4322C35.8593 36.2995 35.8984 36.1667 35.9452 36.034C35.508 36.3854 35.0239 36.6899 34.5398 37.0022C32.9314 38.1656 31.9632 34.3006 33.111 33.7229ZM144.358 23.6975C143.304 23.6975 142.25 23.963 141.196 24.4471C140.142 24.9311 139.174 25.6339 138.346 26.4693C137.511 27.3048 136.808 28.2729 136.285 29.2802C135.754 30.3342 135.496 31.3883 135.496 32.4892C135.496 32.7937 135.543 33.106 135.582 33.4105C135.629 33.7151 135.754 33.9805 135.934 34.246C136.105 34.5115 136.371 34.7301 136.675 34.9019C136.98 35.0814 137.464 35.1673 137.995 35.1673C139.096 35.1673 140.103 34.9019 141.11 34.4178C142.117 33.8868 143.039 33.231 143.835 32.3955C144.624 31.5601 145.287 30.5919 145.764 29.5847C146.248 28.5696 146.513 27.4765 146.513 26.4225C146.513 26.157 146.466 25.8525 146.427 25.5402C146.381 25.2357 146.295 24.9233 146.123 24.6579C145.951 24.3924 145.771 24.1738 145.467 24.002C145.147 23.8302 144.842 23.6975 144.358 23.6975ZM74.6647 22.862H74.3993C73.6965 22.862 73.0407 22.9948 72.4239 23.2993C71.807 23.6038 71.237 23.9552 70.753 24.4002C70.2298 24.8374 69.7848 25.3684 69.3944 25.9384C68.9962 26.5083 68.6448 27.0783 68.3403 27.6561C68.0358 28.2261 67.7703 28.757 67.5517 29.2802C67.3331 29.8111 67.1535 30.2483 67.0676 30.5997C67.7235 30.2483 68.3872 29.897 69.0899 29.4597C69.7926 29.0225 70.4485 28.6243 71.0653 28.2261C71.6821 27.8279 72.2052 27.4765 72.6425 27.172C73.0797 26.8675 73.4311 26.6411 73.6107 26.5161C74.4461 25.9852 75.0161 25.5011 75.3206 25.0639C75.6251 24.6266 75.8047 24.2284 75.8047 23.8771C75.8047 23.6116 75.7188 23.393 75.5392 23.2212C75.3674 23.0416 75.141 22.9557 74.9224 22.9167C74.8443 22.862 74.7584 22.862 74.6647 22.862ZM165.51 11.3454C166.611 11.3454 167.353 11.564 167.751 11.9622C168.149 12.3604 168.407 12.8835 168.407 13.5472C168.407 13.8985 168.321 14.2967 168.188 14.734C168.055 15.1712 167.837 15.5694 167.571 15.9208C167.306 16.2722 166.915 16.5767 166.478 16.8421C166.041 17.1076 165.51 17.1935 164.901 17.1935C163.761 17.1935 162.926 17.0139 162.488 16.6625C162.051 16.3112 161.739 15.8271 161.7 15.2103C161.7 14.773 161.786 14.328 161.918 13.8907C162.051 13.4535 162.316 13.0084 162.621 12.6571C162.926 12.3057 163.324 12.0012 163.808 11.7357C164.284 11.4781 164.854 11.3454 165.51 11.3454Z" />
        <path d="M23.9397 40.5002C25.7824 40.5002 27.5392 40.2347 29.2491 39.6647C30.959 39.1338 32.544 38.3921 33.9416 37.4629C35.3861 36.5416 36.6588 35.5265 37.8066 34.3397C38.9465 33.1998 39.8288 32.013 40.5315 30.7793L40.7033 30.5139L41.7105 28.843C41.8823 28.5775 42.1478 27.8748 42.1087 27.6093C42.0619 27.3048 41.937 27.0784 41.7574 26.9534C41.4919 26.7739 41.1406 26.6021 40.836 26.6021C40.4847 26.6021 40.1802 26.8207 40.0474 27.0003C38.9075 28.6243 37.4162 30.3421 36.2294 31.3962C35.0426 32.4502 33.9026 33.2857 32.7158 33.8557C31.5758 34.4256 30.4359 34.8707 29.335 35.0893C28.2341 35.3079 27.2268 35.3938 26.2665 35.3938C25.7824 35.3938 25.2983 35.3938 24.861 35.347C24.4238 35.3001 23.9865 35.2611 23.5883 35.1674C22.3625 34.9878 21.2616 34.6364 20.2934 34.1992C19.3252 33.762 18.4507 33.231 17.748 32.5752C16.9985 31.9193 16.3894 31.1697 15.9053 30.3343C15.4213 29.4988 15.0309 28.5775 14.7654 27.6093C14.3281 26.0712 14.1486 24.4471 14.2813 22.6825C14.3672 20.9257 14.7185 19.208 15.3354 17.4512C15.9522 15.6944 16.7408 14.0235 17.7949 12.3917C18.8489 10.7676 20.0748 9.31534 21.5271 7.9958C22.9715 6.67626 24.5956 5.62219 26.446 4.7399C28.2887 3.8576 30.1782 3.50625 32.2864 3.28762C33.1609 3.24078 33.9573 3.28762 34.6131 3.46721C35.269 3.64679 35.8858 3.86541 36.3699 4.16992C36.854 4.47443 39.8835 2.58491 39.0012 2.06178C38.1267 1.53084 37.0258 1.14044 35.7999 0.828127C34.5741 0.562658 33.1687 0.429923 31.5837 0.523618C29.3896 0.570466 27.2424 1.00771 25.1343 1.79631C23.0262 2.58491 21.0508 3.68583 19.2549 5.09125C17.4591 6.49668 15.7882 8.12854 14.2969 9.97121C12.8056 11.8217 11.6656 13.8439 10.7443 15.9521C9.82297 18.0602 9.20614 20.3089 8.94848 22.6357C8.68301 24.9624 8.77671 27.297 9.29984 29.6238C9.78393 31.2478 10.4866 32.7469 11.3611 34.0196C12.2825 35.2923 13.3365 36.3932 14.5233 37.3146C15.7101 38.2359 16.9828 38.9386 18.3883 39.4696C19.7937 40.0005 21.1991 40.305 22.6045 40.4377C22.8232 40.4377 23.0886 40.4846 23.3073 40.4846C23.5025 40.5002 23.7211 40.5002 23.9397 40.5002Z" />
        <path
          opacity="0.5"
          d="M14.2184 7.38663L16.2563 5.14576C15.1553 4.26346 13.6718 3.15474 11.673 2.38175C9.86938 1.68685 8.57327 1.40576 6.81648 1.40576C4.84889 1.40576 0.28125 2.77215 0.28125 6.81665C0.28125 13.5159 8.72162 12.8209 8.72162 12.8209C8.72162 12.8209 3.31072 11.0173 3.31072 8.4407C3.31072 5.98901 4.62246 4.48989 6.82429 4.48989C10.3301 4.48989 13.0472 6.4731 14.2184 7.38663Z"
        />
        <path d="M38.4267 8.44063C38.4267 5.59073 37.0369 4.84898 36.2327 4.04476C37.3336 3.16247 39.0748 2.1084 39.0748 2.1084C39.0748 2.1084 43.1661 4.70844 42.5883 9.09649C42.0183 13.4924 37.0993 17.0137 30.9623 17.0137C24.8175 17.0137 21.749 13.9374 19.9922 12.3992C20.2811 11.962 21.3117 10.6425 22.1862 9.97879C23.7244 11.2983 25.6764 13.7188 31.1809 13.7188C36.6699 13.7188 38.4267 11.2983 38.4267 8.44063Z" />
      </g>
</svg>