<svg viewBox="0 0 181 41" height="10" width="auto" xmlns="http://www.w3.org/2000/svg">
  <path d="M31.7519 2.14704C33.1244 2.10782 40.5362 20.0294 42.3401 23.8725C43.7126 26.8137 45.0068 29.8333 46.3401 32.7745C47.0852 34.3823 47.8695 35.951 48.5754 37.5588C49.1636 39.0098 48.5754 40.0686 47.1636 40.3823C46.144 40.6176 45.5166 40.0686 45.046 39.3235C44.4577 38.3823 43.9871 37.3627 43.5166 36.3823C41.2813 31.7549 39.046 27.1274 36.8891 22.4608C35.6734 19.7941 34.5362 17.0882 33.3205 14.4215C33.0852 13.8725 32.6146 13.0098 32.2617 12.3431L26.5362 29.7941C26.5362 29.7941 32.2224 28.147 34.3401 27.4412C35.8303 26.9706 36.497 27.0882 36.9675 28.147C37.5166 29.4019 37.2028 30.4608 35.9871 31.1274C35.7519 31.2451 35.5166 31.3627 35.2813 31.4412C31.242 32.7353 27.2028 34.0294 23.1636 35.3235C22.9675 35.4019 22.7715 35.4019 22.5754 35.4412C20.7715 35.7941 20.2617 35.2843 20.8499 33.4804C22.497 28.4608 30.3793 2.18625 31.7519 2.14704Z" />
  <path d="M100.494 2.14704C101.866 2.10782 109.278 20.0294 111.082 23.8725C112.455 26.8137 113.749 29.8333 115.082 32.7745C115.827 34.3823 116.612 35.951 117.317 37.5588C117.906 39.0098 117.317 40.0686 115.906 40.3823C114.886 40.6176 114.259 40.0686 113.788 39.3235C113.2 38.3823 112.729 37.3627 112.259 36.3823C110.063 31.7157 107.827 27.0882 105.67 22.4215C104.455 19.7549 103.317 17.049 102.102 14.3823C101.866 13.8333 101.396 12.9706 101.043 12.3039L95.3174 29.7941C95.3174 29.7941 101.004 28.147 103.121 27.4412C104.612 26.9706 105.278 27.0882 105.749 28.147C106.298 29.4019 105.984 30.4608 104.768 31.1274C104.533 31.2451 104.298 31.3627 104.063 31.4412C100.023 32.7353 95.9841 34.0294 91.9449 35.3235C91.7488 35.4019 91.5527 35.4019 91.3566 35.4412C89.5527 35.7941 89.0429 35.2843 89.6311 33.4804C91.239 28.4608 99.1213 2.18625 100.494 2.14704Z" />
  <path d="M149.399 38.1863C147.908 38.1863 146.379 38.2255 144.889 38.1863C143.085 38.147 142.497 37.5196 142.34 35.6765C141.948 31.4804 139.595 8.53921 139.163 4.22548C139.006 2.65685 139.673 1.79411 140.889 1.71568C142.065 1.63725 143.006 2.53921 143.163 3.91175C143.791 9.59803 144.497 15.2843 145.085 20.9706C145.438 24.4608 145.673 27.9902 145.948 31.4804C146.104 33.5196 146.732 34.1471 148.732 34.1863C149.595 34.1863 150.418 34.2255 151.281 34.1471C152.614 34.0294 153.163 33.5196 153.281 32.1863C153.595 29.598 153.791 27.0098 154.104 24.4216C154.889 17.5588 155.673 10.6961 156.457 3.87254C156.614 2.57842 157.32 1.99019 158.536 2.0294C159.595 2.06862 160.34 2.69607 160.379 3.91175C160.379 5.40195 160.104 6.89215 159.948 8.38234C159.752 10.2647 159.516 12.147 159.281 13.9902C158.928 17.1667 158.536 20.3431 158.222 23.4804C158.026 25.2843 157.908 27.1274 157.712 28.9314C157.477 31.2059 157.163 33.4412 156.85 35.7157C156.653 37.2843 155.83 38.0294 154.261 38.1078C152.653 38.1863 151.046 38.147 149.399 38.1863C149.399 38.147 149.399 38.147 149.399 38.1863Z" />
  <path d="M4.61106 30.7353C4.61106 30.7353 12.6111 23.9902 15.7875 21.3235C17.0424 20.2647 17.0816 19.8333 15.9836 18.6569C12.8464 15.1667 9.7091 11.6765 6.57184 8.18628C5.43459 6.93138 4.17969 5.79413 3.08165 4.53923C2.06204 3.36275 2.10126 2.46079 2.964 1.59805C3.90518 0.656872 4.964 0.578441 6.06204 1.67648C7.86596 3.4804 9.51302 5.40197 11.2385 7.28432C11.9444 8.06864 12.6111 8.85295 13.3169 9.63726C15.9444 12.5392 18.6111 15.402 21.1601 18.3431C22.6111 19.9902 22.5326 20.853 20.8464 22.2647C17.1601 25.402 13.4346 28.4608 9.74831 31.5588C8.14047 32.8922 6.61106 34.3039 5.04243 35.6765C4.25812 36.3431 3.47381 37.049 2.61106 37.6765C1.43459 38.5392 0.807138 38.2255 0.728707 36.8137C0.650276 35.3628 0.689491 33.951 0.689491 32.5C0.689491 29.2843 0.689491 26.1079 0.689491 22.8922C0.728707 19.7157 0.728707 16.5392 0.689491 13.3628C0.689491 12.0686 1.31694 11.2059 2.33655 11.1275C3.47381 11.049 4.37577 11.8726 4.41498 13.2059C4.49341 18.0294 4.61106 30.7353 4.61106 30.7353Z" />
  <path d="M73.3591 30.7353C73.3591 30.7353 81.3591 23.9902 84.5355 21.3235C85.7904 20.2647 85.8297 19.8333 84.7316 18.6569C81.5944 15.1667 78.4571 11.6765 75.3199 8.18628C74.1826 6.93138 72.9277 5.79413 71.8297 4.53923C70.8493 3.36275 70.8885 2.50001 71.7512 1.59805C72.6924 0.656872 73.7512 0.578441 74.8493 1.67648C76.6532 3.4804 78.3002 5.40197 80.0257 7.28432C80.7316 8.06864 81.3983 8.85295 82.1042 9.63726C84.7316 12.5392 87.3983 15.402 89.9473 18.3431C91.3983 19.9902 91.3199 20.853 89.6336 22.2647C85.9473 25.402 82.2218 28.4608 78.5355 31.5588C76.9277 32.8922 75.3983 34.3039 73.8297 35.6765C73.0453 36.3431 72.261 37.049 71.3983 37.6765C70.2218 38.5392 69.5944 38.2255 69.5159 36.8137C69.4375 35.3628 69.4767 33.951 69.4767 32.5C69.4767 29.2843 69.4767 26.1079 69.4767 22.8922C69.4767 19.7157 69.4375 16.5392 69.4375 13.3628C69.4375 12.0686 70.0649 11.2059 71.0846 11.1275C72.2218 11.049 73.1238 11.8726 73.163 13.2059C73.2414 18.0294 73.3591 30.7353 73.3591 30.7353Z" />
  <path d="M52.3737 18.4214C52.3737 18.4214 61.2756 17.7155 62.8443 17.7155C64.4913 17.7155 65.0403 18.6567 65.158 19.7155C65.2364 20.7743 64.609 21.9508 62.9619 22.0685C60.2168 22.2645 51.8247 22.9312 51.8247 22.9312C51.8247 22.9312 60.5305 30.8136 64.3737 34.4214C65.0011 35.0096 65.6678 35.5194 66.2952 36.0685C67.4325 37.0489 67.707 38.0685 67.0403 38.9312C66.3345 39.8724 65.0796 40.0292 63.8639 39.2841C63.5894 39.1273 63.3149 38.892 63.0796 38.6959C61.3149 37.0489 59.5502 35.4018 57.7854 33.794C55.158 31.3626 52.4913 28.9704 49.8247 26.5391C48.3345 25.1665 46.8443 23.8332 45.3541 22.4998C44.1776 21.4018 44.1776 20.8136 45.3933 19.5979C47.8639 17.0881 50.3737 14.6175 52.8051 12.1077C56.1776 8.57827 59.5502 5.00964 62.8835 1.44101C63.8247 0.460619 64.8051 0.264541 65.6286 0.891992C66.6482 1.71552 66.8443 2.89199 66.0207 3.99003C65.707 4.4214 65.3149 4.77434 64.9619 5.12729C63.0403 7.20572 60.9227 9.28415 58.8835 11.3626C56.9227 13.4018 52.3737 18.4214 52.3737 18.4214Z" />
  <path d="M127.317 34.1863C129.16 34.0687 131.356 33.8726 133.552 33.755C134.415 33.7157 134.886 33.2844 135.082 32.5C135.16 32.1079 135.16 31.7157 135.317 31.3628C135.709 30.5 136.572 30.1079 137.591 30.2648C138.572 30.4216 139.121 30.9706 139.199 31.951C139.278 32.8138 139.239 33.6373 139.239 34.5C139.199 36.8138 138.572 37.5589 136.258 37.7157C134.297 37.8726 132.376 37.951 130.415 38.0687C127.16 38.2648 123.905 38.4608 120.65 38.5785C118.729 38.6177 118.376 38.0687 118.611 36.2255C119.121 32.1471 119.552 28.0687 120.023 23.9902C120.493 19.7942 121.003 15.5981 121.474 11.402C121.748 8.93142 122.023 6.50005 122.376 4.02946C122.454 3.40201 122.65 2.73534 122.925 2.18632C123.395 1.32358 124.572 0.970635 125.474 1.32358C126.376 1.71573 126.69 2.50005 126.611 3.40201C126.219 7.00985 125.709 10.6177 125.317 14.2648C124.846 18.6569 124.415 23.0883 123.944 27.4804C123.788 29.0883 123.552 30.6961 123.317 32.304C123.121 33.7549 123.317 34.1079 124.768 34.1863C125.513 34.2255 126.258 34.1863 127.317 34.1863Z" />
  <path d="M173.356 1.32336C173.983 0.931198 174.807 1.00963 175.395 1.48022C175.669 1.6763 175.905 1.91159 176.14 2.14688C176.728 2.85277 176.493 3.71551 175.944 4.30375C174.885 5.36257 173.709 6.30375 172.611 7.32335C171.356 8.46061 170.062 9.55865 168.846 10.7351C167.63 11.9508 167.669 12.4214 168.964 13.5979C172.297 16.6175 175.591 19.6763 178.924 22.6959C179.16 22.9312 179.395 23.1273 179.63 23.3626C180.571 24.3822 180.611 25.1665 179.669 26.0685C176.885 28.6175 174.022 31.0881 171.199 33.5979C170.14 34.539 169.12 35.5979 168.062 36.5783C167.16 37.4018 166.218 38.2645 165.277 39.0096C164.258 39.8332 163.395 39.7155 162.532 38.8528C161.748 38.0292 161.748 37.0096 162.611 36.0684C163.787 34.8528 165.003 33.6371 166.258 32.4998C168.768 30.2253 171.356 28.0292 173.866 25.7939C174.65 25.0881 174.689 24.4214 173.866 23.6371C172.022 21.9116 170.101 20.2253 168.218 18.539C166.297 16.8136 164.297 15.0881 162.415 13.2841C161.434 12.343 161.473 11.7547 162.493 10.8528C165.905 7.79394 169.277 4.77434 172.728 1.75473C172.924 1.59786 173.12 1.441 173.356 1.32336Z" />
  <g clipPath="url(#clip0_8541_265529)">
        <path d="M31.7519 2.14704C33.1244 2.10782 40.5362 20.0294 42.3401 23.8725C43.7126 26.8137 45.0068 29.8333 46.3401 32.7745C47.0852 34.3823 47.8695 35.951 48.5754 37.5588C49.1636 39.0098 48.5754 40.0686 47.1636 40.3823C46.144 40.6176 45.5166 40.0686 45.046 39.3235C44.4577 38.3823 43.9871 37.3627 43.5166 36.3823C41.2813 31.7549 39.046 27.1274 36.8891 22.4608C35.6734 19.7941 34.5362 17.0882 33.3205 14.4215C33.0852 13.8725 32.6146 13.0098 32.2617 12.3431L26.5362 29.7941C26.5362 29.7941 32.2224 28.147 34.3401 27.4412C35.8303 26.9706 36.497 27.0882 36.9675 28.147C37.5166 29.4019 37.2028 30.4608 35.9871 31.1274C35.7519 31.2451 35.5166 31.3627 35.2813 31.4412C31.242 32.7353 27.2028 34.0294 23.1636 35.3235C22.9675 35.4019 22.7715 35.4019 22.5754 35.4412C20.7715 35.7941 20.2617 35.2843 20.8499 33.4804C22.497 28.4608 30.3793 2.18625 31.7519 2.14704Z" />
        <path d="M100.494 2.14704C101.866 2.10782 109.278 20.0294 111.082 23.8725C112.455 26.8137 113.749 29.8333 115.082 32.7745C115.827 34.3823 116.612 35.951 117.317 37.5588C117.906 39.0098 117.317 40.0686 115.906 40.3823C114.886 40.6176 114.259 40.0686 113.788 39.3235C113.2 38.3823 112.729 37.3627 112.259 36.3823C110.063 31.7157 107.827 27.0882 105.67 22.4215C104.455 19.7549 103.317 17.049 102.102 14.3823C101.866 13.8333 101.396 12.9706 101.043 12.3039L95.3174 29.7941C95.3174 29.7941 101.004 28.147 103.121 27.4412C104.612 26.9706 105.278 27.0882 105.749 28.147C106.298 29.4019 105.984 30.4608 104.768 31.1274C104.533 31.2451 104.298 31.3627 104.063 31.4412C100.023 32.7353 95.9841 34.0294 91.9449 35.3235C91.7488 35.4019 91.5527 35.4019 91.3566 35.4412C89.5527 35.7941 89.0429 35.2843 89.6311 33.4804C91.239 28.4608 99.1213 2.18625 100.494 2.14704Z" />
        <path d="M149.399 38.1863C147.908 38.1863 146.379 38.2255 144.889 38.1863C143.085 38.147 142.497 37.5196 142.34 35.6765C141.948 31.4804 139.595 8.53921 139.163 4.22548C139.006 2.65685 139.673 1.79411 140.889 1.71568C142.065 1.63725 143.006 2.53921 143.163 3.91175C143.791 9.59803 144.497 15.2843 145.085 20.9706C145.438 24.4608 145.673 27.9902 145.948 31.4804C146.104 33.5196 146.732 34.1471 148.732 34.1863C149.595 34.1863 150.418 34.2255 151.281 34.1471C152.614 34.0294 153.163 33.5196 153.281 32.1863C153.595 29.598 153.791 27.0098 154.104 24.4216C154.889 17.5588 155.673 10.6961 156.457 3.87254C156.614 2.57842 157.32 1.99019 158.536 2.0294C159.595 2.06862 160.34 2.69607 160.379 3.91175C160.379 5.40195 160.104 6.89215 159.948 8.38234C159.752 10.2647 159.516 12.147 159.281 13.9902C158.928 17.1667 158.536 20.3431 158.222 23.4804C158.026 25.2843 157.908 27.1274 157.712 28.9314C157.477 31.2059 157.163 33.4412 156.85 35.7157C156.653 37.2843 155.83 38.0294 154.261 38.1078C152.653 38.1863 151.046 38.147 149.399 38.1863C149.399 38.147 149.399 38.147 149.399 38.1863Z" />
        <path d="M4.61106 30.7353C4.61106 30.7353 12.6111 23.9902 15.7875 21.3235C17.0424 20.2647 17.0816 19.8333 15.9836 18.6569C12.8464 15.1667 9.7091 11.6765 6.57184 8.18628C5.43459 6.93138 4.17969 5.79413 3.08165 4.53923C2.06204 3.36275 2.10126 2.46079 2.964 1.59805C3.90518 0.656872 4.964 0.578441 6.06204 1.67648C7.86596 3.4804 9.51302 5.40197 11.2385 7.28432C11.9444 8.06864 12.6111 8.85295 13.3169 9.63726C15.9444 12.5392 18.6111 15.402 21.1601 18.3431C22.6111 19.9902 22.5326 20.853 20.8464 22.2647C17.1601 25.402 13.4346 28.4608 9.74831 31.5588C8.14047 32.8922 6.61106 34.3039 5.04243 35.6765C4.25812 36.3431 3.47381 37.049 2.61106 37.6765C1.43459 38.5392 0.807138 38.2255 0.728707 36.8137C0.650276 35.3628 0.689491 33.951 0.689491 32.5C0.689491 29.2843 0.689491 26.1079 0.689491 22.8922C0.728707 19.7157 0.728707 16.5392 0.689491 13.3628C0.689491 12.0686 1.31694 11.2059 2.33655 11.1275C3.47381 11.049 4.37577 11.8726 4.41498 13.2059C4.49341 18.0294 4.61106 30.7353 4.61106 30.7353Z" />
        <path d="M73.3591 30.7353C73.3591 30.7353 81.3591 23.9902 84.5355 21.3235C85.7904 20.2647 85.8297 19.8333 84.7316 18.6569C81.5944 15.1667 78.4571 11.6765 75.3199 8.18628C74.1826 6.93138 72.9277 5.79413 71.8297 4.53923C70.8493 3.36275 70.8885 2.50001 71.7512 1.59805C72.6924 0.656872 73.7512 0.578441 74.8493 1.67648C76.6532 3.4804 78.3002 5.40197 80.0257 7.28432C80.7316 8.06864 81.3983 8.85295 82.1042 9.63726C84.7316 12.5392 87.3983 15.402 89.9473 18.3431C91.3983 19.9902 91.3199 20.853 89.6336 22.2647C85.9473 25.402 82.2218 28.4608 78.5355 31.5588C76.9277 32.8922 75.3983 34.3039 73.8297 35.6765C73.0453 36.3431 72.261 37.049 71.3983 37.6765C70.2218 38.5392 69.5944 38.2255 69.5159 36.8137C69.4375 35.3628 69.4767 33.951 69.4767 32.5C69.4767 29.2843 69.4767 26.1079 69.4767 22.8922C69.4767 19.7157 69.4375 16.5392 69.4375 13.3628C69.4375 12.0686 70.0649 11.2059 71.0846 11.1275C72.2218 11.049 73.1238 11.8726 73.163 13.2059C73.2414 18.0294 73.3591 30.7353 73.3591 30.7353Z" />
        <path d="M52.3737 18.4214C52.3737 18.4214 61.2756 17.7155 62.8443 17.7155C64.4913 17.7155 65.0403 18.6567 65.158 19.7155C65.2364 20.7743 64.609 21.9508 62.9619 22.0685C60.2168 22.2645 51.8247 22.9312 51.8247 22.9312C51.8247 22.9312 60.5305 30.8136 64.3737 34.4214C65.0011 35.0096 65.6678 35.5194 66.2952 36.0685C67.4325 37.0489 67.707 38.0685 67.0403 38.9312C66.3345 39.8724 65.0796 40.0292 63.8639 39.2841C63.5894 39.1273 63.3149 38.892 63.0796 38.6959C61.3149 37.0489 59.5502 35.4018 57.7854 33.794C55.158 31.3626 52.4913 28.9704 49.8247 26.5391C48.3345 25.1665 46.8443 23.8332 45.3541 22.4998C44.1776 21.4018 44.1776 20.8136 45.3933 19.5979C47.8639 17.0881 50.3737 14.6175 52.8051 12.1077C56.1776 8.57827 59.5502 5.00964 62.8835 1.44101C63.8247 0.460619 64.8051 0.264541 65.6286 0.891992C66.6482 1.71552 66.8443 2.89199 66.0207 3.99003C65.707 4.4214 65.3149 4.77434 64.9619 5.12729C63.0403 7.20572 60.9227 9.28415 58.8835 11.3626C56.9227 13.4018 52.3737 18.4214 52.3737 18.4214Z" />
        <path d="M127.317 34.1863C129.16 34.0687 131.356 33.8726 133.552 33.755C134.415 33.7157 134.886 33.2844 135.082 32.5C135.16 32.1079 135.16 31.7157 135.317 31.3628C135.709 30.5 136.572 30.1079 137.591 30.2648C138.572 30.4216 139.121 30.9706 139.199 31.951C139.278 32.8138 139.239 33.6373 139.239 34.5C139.199 36.8138 138.572 37.5589 136.258 37.7157C134.297 37.8726 132.376 37.951 130.415 38.0687C127.16 38.2648 123.905 38.4608 120.65 38.5785C118.729 38.6177 118.376 38.0687 118.611 36.2255C119.121 32.1471 119.552 28.0687 120.023 23.9902C120.493 19.7942 121.003 15.5981 121.474 11.402C121.748 8.93142 122.023 6.50005 122.376 4.02946C122.454 3.40201 122.65 2.73534 122.925 2.18632C123.395 1.32358 124.572 0.970635 125.474 1.32358C126.376 1.71573 126.69 2.50005 126.611 3.40201C126.219 7.00985 125.709 10.6177 125.317 14.2648C124.846 18.6569 124.415 23.0883 123.944 27.4804C123.788 29.0883 123.552 30.6961 123.317 32.304C123.121 33.7549 123.317 34.1079 124.768 34.1863C125.513 34.2255 126.258 34.1863 127.317 34.1863Z" />
        <path d="M173.356 1.32336C173.983 0.931198 174.807 1.00963 175.395 1.48022C175.669 1.6763 175.905 1.91159 176.14 2.14688C176.728 2.85277 176.493 3.71551 175.944 4.30375C174.885 5.36257 173.709 6.30375 172.611 7.32335C171.356 8.46061 170.062 9.55865 168.846 10.7351C167.63 11.9508 167.669 12.4214 168.964 13.5979C172.297 16.6175 175.591 19.6763 178.924 22.6959C179.16 22.9312 179.395 23.1273 179.63 23.3626C180.571 24.3822 180.611 25.1665 179.669 26.0685C176.885 28.6175 174.022 31.0881 171.199 33.5979C170.14 34.539 169.12 35.5979 168.062 36.5783C167.16 37.4018 166.218 38.2645 165.277 39.0096C164.258 39.8332 163.395 39.7155 162.532 38.8528C161.748 38.0292 161.748 37.0096 162.611 36.0684C163.787 34.8528 165.003 33.6371 166.258 32.4998C168.768 30.2253 171.356 28.0292 173.866 25.7939C174.65 25.0881 174.689 24.4214 173.866 23.6371C172.022 21.9116 170.101 20.2253 168.218 18.539C166.297 16.8136 164.297 15.0881 162.415 13.2841C161.434 12.343 161.473 11.7547 162.493 10.8528C165.905 7.79394 169.277 4.77434 172.728 1.75473C172.924 1.59786 173.12 1.441 173.356 1.32336Z" />
      </g>
</svg>