<svg viewBox="0 0 164 45" height="44px" width="auto" xmlns="http://www.w3.org/2000/svg">
  <path d="M27.75 32.1544C27.75 28.481 27.75 24.8076 27.75 21.1342C27.75 19.9664 27.8137 19.9451 28.9391 19.6691C30.1494 19.3931 33.4406 19.0746 33.4406 19.0746C33.4406 19.0746 33.5255 21.1554 33.5892 21.5801C33.5892 21.5801 34.1837 20.9219 34.9906 20.4547C36.4345 19.478 37.9633 18.9472 39.7469 18.9684C41.4668 18.9896 43.1018 19.1383 44.6094 20.115C45.4799 20.6883 46.2019 21.389 46.7964 22.2383C47.1149 22.6842 47.306 22.663 47.667 22.2383C49.4718 20.115 51.7226 18.9259 54.5891 18.9684C56.4152 18.9896 58.1776 19.0109 59.7913 20.0513C62.0845 21.5376 63.4859 23.576 63.8681 26.3152C64.0168 27.3768 64.0592 28.4173 64.0592 29.479C64.0592 33.938 64.0592 38.3758 64.0592 42.8348C64.0592 44.4485 64.0592 44.4485 62.403 44.4485C61.4475 44.4485 60.492 44.4485 59.5365 44.4485C58.3899 44.4485 58.3262 44.3636 58.3262 43.2595C58.3262 40.7115 58.3262 38.1847 58.3262 35.6367C58.3262 33.6195 58.3262 31.6023 58.3262 29.6064C58.3262 28.757 58.1988 27.9077 57.9865 27.1008C57.5406 25.4871 56.3727 24.5103 54.8014 24.1918C52.9329 23.8096 51.3192 24.4042 50.1301 25.9542C49.0047 27.4193 48.8773 29.1604 48.8348 30.8804C48.7711 34.936 48.8136 39.0128 48.8136 43.0684C48.8136 44.4485 48.7924 44.4698 47.3697 44.4698C46.3718 44.4698 45.395 44.4698 44.397 44.4698C43.123 44.4698 43.0593 44.4273 43.0593 43.1745C43.0593 40.7752 43.0593 38.3758 43.0593 35.9764C43.0593 33.577 43.1018 31.1776 43.0381 28.7782C42.9956 27.0583 42.3374 25.6145 40.8086 24.6802C38.8763 23.4911 36.116 24.1069 34.7995 26.0391C33.9077 27.3768 33.5255 28.8632 33.5255 30.4557C33.5255 34.7024 33.5255 38.9278 33.5255 43.1745C33.5255 44.4273 33.483 44.4698 32.209 44.4698C31.1898 44.4698 30.1494 44.4698 29.1302 44.4698C27.8137 44.4698 27.7925 44.4485 27.7925 43.0684C27.75 39.4375 27.75 35.7853 27.75 32.1544Z" />
  <path d="M104.385 27.7168C100.053 27.9079 96.5497 26.4428 93.7044 23.5338C91.3475 21.1344 90.2009 18.1617 90.0947 14.7643C90.0098 12.2163 90.5406 9.83818 91.7509 7.65113C93.5133 4.50858 96.1462 2.34276 99.5861 1.25986C102.665 0.304352 105.786 0.198184 108.844 1.23862C113.876 2.9373 117.04 6.37712 118.144 11.6643C118.781 14.7219 118.399 17.6096 116.998 20.3912C115.214 23.9797 112.241 26.1455 108.462 27.3133C107.06 27.6955 105.638 27.7805 104.385 27.7168ZM112.369 14.3184C112.581 9.54091 108.823 5.86752 104.194 5.93122C99.7347 5.99492 96.125 9.11624 96.0825 14.2123C96.0401 19.0747 99.5011 22.5783 104.236 22.6632C108.547 22.7057 112.687 18.8836 112.369 14.3184Z" />
  <path d="M151.462 19.0323C154.265 18.7351 156.728 19.6269 158.979 21.1769C160.996 22.5571 162.312 24.5106 163.056 26.825C163.268 27.462 163.417 28.1203 163.586 28.7573C163.756 29.3306 163.586 29.6703 162.971 29.8614C160.21 30.732 157.471 31.645 154.711 32.5581C152.29 33.3437 149.891 34.1506 147.47 34.9574C146.833 35.1698 146.196 35.4033 145.538 35.5095C144.858 35.6157 145.028 35.9129 145.262 36.2739C146.281 37.8664 147.725 38.8856 149.551 39.3528C153.628 40.3932 157.025 38.9706 160.04 36.3164C160.189 36.1677 160.338 36.0191 160.508 35.8705C160.847 35.552 161.166 35.6157 161.357 36.0403C161.824 37.1445 162.27 38.2486 162.716 39.374C162.907 39.8624 162.737 40.2658 162.334 40.5843C157.768 44.3639 151.356 45.8077 145.687 43.0262C140.506 40.4994 138.064 35.3396 138.701 30.01C139.295 25.0202 142.013 21.4742 146.77 19.6269C148.298 19.0536 149.891 18.8625 151.462 19.0323ZM151.738 23.3003C150.422 23.5338 148.957 23.64 147.661 24.5318C145.708 25.912 144.561 27.7593 144.137 30.095C143.967 31.008 144.052 31.1142 144.965 30.8169C148.914 29.5429 152.864 28.2264 156.813 26.9524C157.471 26.7401 157.492 26.5065 157.131 26.0181C155.857 24.1708 153.989 23.4701 151.738 23.3003Z" />
  <path d="M14.0567 44.4911C9.95868 44.3849 6.66749 43.302 4.03454 40.669C1.84749 38.482 0.573483 35.7853 0.403615 32.6428C0.276214 30.2434 0.552249 27.929 1.67762 25.7631C3.07903 23.109 5.11745 21.1767 7.89903 19.9876C10.9991 18.6712 14.1841 18.5862 17.3267 19.478C21.0001 20.5185 23.4419 23.0028 24.6735 26.6337C24.907 27.3344 25.2043 28.0139 25.2255 28.7783C25.2468 29.3941 25.0769 29.755 24.4399 29.9461C22.3803 30.5831 20.3418 31.2626 18.3034 31.9421C14.5876 33.1524 10.8505 34.3627 7.13462 35.5518C6.62502 35.7216 6.77366 35.9552 6.94352 36.2525C7.96273 37.8875 9.47031 38.8854 11.3176 39.3738C15.2883 40.4142 18.6007 39.0128 21.5522 36.486C22.8262 35.4031 22.8899 35.3819 23.4419 36.9744C23.718 37.7601 24.0152 38.5669 24.355 39.3313C24.6098 39.8834 24.4824 40.2868 24.0365 40.6266C21.8919 42.2828 19.5774 43.578 16.8596 44.0876C15.7979 44.2575 14.7362 44.5548 14.0567 44.4911ZM14.3965 23.4487C13.6533 23.385 12.2519 23.4487 11.6998 23.5549C8.72714 24.1494 6.24282 26.8461 5.75445 30.116C5.62705 30.9229 5.81815 31.0715 6.60379 30.8167C8.09013 30.3496 9.55524 29.8612 11.0203 29.3941C13.5259 28.566 16.0315 27.7379 18.5582 26.931C19.0891 26.7611 19.1528 26.5275 18.8767 26.1029C18.7281 25.8693 18.5582 25.6357 18.3671 25.4234C17.0507 23.9371 15.1396 23.5124 14.3965 23.4487Z" />
  <path d="M79.8126 44.4485C76.7762 44.6396 74.122 43.769 71.7439 42.0916C69.3021 40.3504 67.6246 38.0572 66.9239 35.1058C65.48 29.033 67.9856 23.8096 72.5508 20.9855C75.6509 19.0745 79.0694 18.5649 82.6367 19.2656C85.2484 19.7752 87.4779 21.0492 89.3677 22.8753C90.9602 24.4253 91.9794 26.3788 92.5952 28.5021C93.6144 32.1118 93.0623 35.5304 91.0876 38.6517C89.7711 40.7539 87.8813 42.2827 85.5881 43.3019C83.6983 44.1512 81.7661 44.6184 79.8126 44.4485ZM72.296 31.942C71.935 36.401 75.9269 39.6073 79.7701 39.6285C84.2504 39.6497 87.393 35.7003 87.4142 31.9632C87.4354 27.5254 84.0593 24.1705 79.7489 24.0856C76.1392 24.0431 71.8925 27.122 72.296 31.942Z" />
  <path d="M123.811 31.5389C123.811 29.2457 123.811 27.3347 123.811 25.4237C123.811 24.4044 123.727 24.3407 122.729 24.3195C122.155 24.2983 121.603 24.2983 121.03 24.3195C120.457 24.3195 120.181 24.0435 120.223 23.4702C120.308 22.09 120.733 20.7735 120.924 19.4146C120.966 19.1385 121.221 19.0324 121.497 19.0111C121.752 18.9899 121.985 18.9899 122.24 18.9899C123.833 18.9687 123.833 18.9687 123.833 17.3337C123.833 17.1638 123.833 16.9727 123.833 16.8029C123.833 14.4247 123.833 14.4247 125.892 13.3418C126.805 12.8747 127.676 12.3438 128.589 11.8767C129.311 11.4945 129.544 11.6219 129.566 12.4288C129.587 14.1487 129.566 15.8898 129.587 17.6097C129.587 18.9474 129.587 18.9687 130.946 18.9687C132.432 18.9687 133.919 18.9899 135.405 18.9687C136.063 18.9687 136.382 19.2022 136.36 19.903C136.339 21.0071 136.36 22.09 136.36 23.1941C136.339 24.1921 136.254 24.2983 135.278 24.2983C133.791 24.3195 132.305 24.2983 130.818 24.2983C129.629 24.2983 129.587 24.3407 129.587 25.5723C129.587 28.821 129.566 32.0697 129.608 35.3184C129.629 36.4651 129.672 37.6541 130.734 38.4822C131.625 39.1829 132.581 39.4802 133.706 39.2042C134.364 39.0343 135.001 38.8644 135.638 38.6733C136.148 38.5247 136.382 38.7158 136.382 39.2254C136.382 40.4357 136.382 41.6248 136.382 42.8351C136.382 43.4509 135.999 43.7481 135.511 43.8755C132.772 44.6187 130.075 44.7886 127.485 43.3659C125.553 42.283 124.427 40.6268 124.066 38.4185C123.642 36.0192 123.939 33.5773 123.811 31.5389Z" />
</svg>