<svg viewBox="0 0 151 49" height="12" width="auto" xmlns="http://www.w3.org/2000/svg">
  <path d="M56.2422 23.4127V10.7036H62.9667C62.8953 10.9178 62.8564 11.1255 62.8564 11.2878C62.8564 11.463 62.8953 11.6513 62.9667 11.872C62.3566 11.7486 61.5452 11.6967 60.5391 11.6967C60.2535 11.6967 59.8187 11.6967 59.254 11.7097C58.6828 11.7227 58.2673 11.7227 58.0077 11.7227V16.2468H60.7858L62.5318 16.0975C62.4669 16.2468 62.4215 16.4221 62.4215 16.6233C62.4215 16.8245 62.4604 17.0452 62.5318 17.2594L60.3379 17.1101H58.0077V22.3677C58.3193 22.4067 58.7801 22.4326 59.3643 22.4326C59.9485 22.4326 60.5976 22.4067 61.3181 22.3677C62.0515 22.3288 62.6487 22.2703 63.103 22.2184C63.0381 22.4326 62.9927 22.6533 62.9927 22.8545C62.9927 23.0557 63.0316 23.231 63.103 23.3803H56.2422V23.4127Z" />
  <path d="M66.1328 10.7036C66.4963 10.7685 66.8403 10.814 67.1389 10.814C67.4375 10.814 67.7361 10.775 68.0346 10.7036L72.4095 21.2188C72.6821 20.771 73.0066 20.1349 73.3831 19.3235C73.7596 18.4992 74.1555 17.545 74.5904 16.461C75.0123 15.377 75.4018 14.358 75.7458 13.4103C76.0833 12.4626 76.3949 11.5539 76.6545 10.7166C76.8687 10.7815 77.1154 10.8269 77.388 10.8269C77.6606 10.8269 77.9008 10.788 78.1215 10.7166L72.7081 23.4127C72.6432 23.3478 72.5328 23.3024 72.3965 23.3024C72.2602 23.3024 72.1239 23.3413 71.9746 23.4127L66.1328 10.7036Z" />
  <path d="M81.7344 23.4127V10.7036H88.4394C88.3745 10.9178 88.3291 11.1255 88.3291 11.2878C88.3291 11.463 88.368 11.6513 88.4394 11.872C87.8293 11.7486 87.0179 11.6967 86.0119 11.6967C85.7263 11.6967 85.2914 11.6967 84.7267 11.7097C84.1555 11.7227 83.74 11.7227 83.4804 11.7227V16.2468H86.2585L88.0046 16.0975C87.9396 16.2468 87.8942 16.4221 87.8942 16.6233C87.8942 16.8245 87.9332 17.0452 88.0046 17.2594L85.8106 17.1101H83.4804V22.3677C83.792 22.4067 84.2528 22.4326 84.837 22.4326C85.4212 22.4326 86.0703 22.4067 86.7908 22.3677C87.5242 22.3288 88.1214 22.2703 88.5822 22.2184C88.5173 22.4326 88.4719 22.6533 88.4719 22.8545C88.4719 23.0557 88.5108 23.231 88.5822 23.3803H81.7409V23.4127H81.7344Z" />
  <path d="M92.9375 23.4128V10.5674H97.4616C98.26 10.5674 98.9221 10.7037 99.4803 10.9633C100.039 11.223 100.441 11.5864 100.714 12.0473C100.986 12.5082 101.122 13.0339 101.122 13.6311C101.122 14.3905 100.921 15.0136 100.499 15.5264C100.077 16.0392 99.5777 16.4221 99.0065 16.6753C98.4223 16.9349 97.8706 17.0842 97.3383 17.1361L102.297 23.4128C101.934 23.3479 101.564 23.3025 101.2 23.3025C100.837 23.3025 100.467 23.3414 100.103 23.4128L95.2937 17.2854H94.6835V23.4128C94.385 23.3479 94.0994 23.3025 93.8008 23.3025C93.5217 23.296 93.2231 23.3349 92.9375 23.4128ZM94.6835 16.5455C94.8458 16.5585 95.06 16.5585 95.3586 16.5585C96.5075 16.5585 97.3773 16.3702 97.9874 16.0002C98.5846 15.6368 98.961 15.2278 99.1233 14.7929C99.2856 14.3581 99.37 13.9686 99.37 13.6116C99.37 13.326 99.2856 13.0015 99.1103 12.651C98.948 12.3004 98.6365 11.9759 98.1756 11.7033C97.7148 11.4177 97.0917 11.2814 96.2933 11.2814H94.6835V16.5455Z" />
  <path d="M106.344 23.4128V10.5674H107.227L116.132 20.3491V10.5674C116.281 10.6323 116.47 10.6777 116.716 10.6777C116.963 10.6777 117.151 10.6388 117.3 10.5674V23.4128H116.567L107.512 13.3455V23.4128C107.363 23.3479 107.188 23.3025 106.98 23.3025C106.779 23.296 106.558 23.3349 106.344 23.4128Z" />
  <path d="M122.516 23.4127V10.7036H129.24C129.175 10.9178 129.13 11.1255 129.13 11.2878C129.13 11.463 129.169 11.6513 129.24 11.872C128.63 11.7486 127.819 11.6967 126.813 11.6967C126.527 11.6967 126.092 11.6967 125.527 11.7097C124.956 11.7227 124.541 11.7227 124.281 11.7227V16.2468H127.059L128.805 16.0975C128.74 16.2468 128.695 16.4221 128.695 16.6233C128.695 16.8245 128.734 17.0452 128.805 17.2594L126.611 17.1101H124.281V22.3677C124.593 22.4067 125.054 22.4326 125.638 22.4326C126.222 22.4326 126.871 22.4067 127.591 22.3677C128.325 22.3288 128.922 22.2703 129.383 22.2184C129.318 22.4326 129.273 22.6533 129.273 22.8545C129.273 23.0557 129.312 23.231 129.383 23.3803H122.529V23.4127H122.516Z" />
  <path d="M136.205 23.4129L132.109 10.7168C132.473 10.7817 132.784 10.8271 133.057 10.8271C133.33 10.8271 133.641 10.7882 134.005 10.7168L137.218 21.3683L140.866 10.7168C141.08 10.7817 141.287 10.8271 141.45 10.8271C141.625 10.8271 141.813 10.7882 142.034 10.7168L145.545 21.232L148.908 10.7168C149.122 10.7817 149.343 10.8271 149.557 10.8271C149.771 10.8271 149.992 10.7882 150.206 10.7168L145.831 23.4129C145.617 23.348 145.396 23.3026 145.182 23.3026C144.968 23.3026 144.747 23.3415 144.533 23.4129L141.164 12.8977L137.659 23.4129C137.51 23.348 137.309 23.3026 137.036 23.3026C136.776 23.2961 136.491 23.3351 136.205 23.4129Z" />
  <path d="M56.2422 35.6415C56.2422 34.7717 56.4045 33.9344 56.729 33.136C57.0535 32.3377 57.5144 31.6302 58.1116 31.02C58.7087 30.4229 59.4422 29.936 60.2925 29.5985C61.1493 29.248 62.097 29.0728 63.1095 29.0728C65.0892 29.0728 66.5497 29.3713 67.4844 29.9555L67.0495 31.416H66.9002C66.4913 31.0395 66.1018 30.7409 65.6929 30.5072C65.284 30.2736 64.8815 30.1113 64.4467 29.9945C64.0118 29.8711 63.5769 29.8192 63.1485 29.8192C62.2657 29.8192 61.4414 30.0464 60.6819 30.4943C59.9225 30.9421 59.2994 31.6042 58.8385 32.448C58.3777 33.3048 58.144 34.2914 58.144 35.4143V35.6285C58.17 36.6606 58.3193 37.5369 58.6049 38.2703C58.8905 39.0038 59.2669 39.6009 59.7408 40.0748C60.2146 40.5486 60.7598 40.8861 61.3375 41.1068C61.9347 41.321 62.5448 41.4314 63.1939 41.4314C63.9274 41.4314 64.6414 41.308 65.3489 41.0549C66.0564 40.7953 66.66 40.4577 67.1923 40.0229L67.043 41.1912C66.6081 41.4508 66.1602 41.665 65.6864 41.8403C65.2126 42.0156 64.7387 42.1519 64.2649 42.2362C63.7911 42.3206 63.3302 42.3596 62.8953 42.3596C62.0126 42.3596 61.1753 42.1973 60.3639 41.8857C59.5525 41.5742 58.832 41.1133 58.2089 40.5162C57.5858 39.919 57.099 39.1985 56.7615 38.3742C56.4045 37.5628 56.2422 36.6411 56.2422 35.6415Z" />
  <path d="M69.9297 41.9117L75.7715 28.917H76.2064L81.8989 41.9117C81.8469 41.9117 81.7366 41.9117 81.5873 41.8987C81.438 41.8858 81.2757 41.8858 81.0875 41.8728C80.8993 41.8598 80.75 41.8598 80.6266 41.8598C80.354 41.8598 80.0944 41.8858 79.8672 41.9247L77.8226 36.8164H73.2985L71.4031 41.9247C71.2668 41.8858 71.1045 41.8598 70.9293 41.8598C70.8514 41.8598 70.741 41.8598 70.5918 41.8728C70.4425 41.8858 70.3062 41.8987 70.2023 41.8987C70.079 41.9117 69.9946 41.9117 69.9297 41.9117ZM73.7268 35.9401H77.524L75.6287 31.416L73.7268 35.9401Z" />
  <path d="M85.3828 29.0664H90.0562C90.8806 29.0664 91.5621 29.1767 92.1009 29.4039C92.6396 29.6181 93.0485 29.9621 93.3082 30.3776C93.5808 30.8124 93.7041 31.3382 93.7041 31.9743C93.7041 32.0392 93.7171 32.1496 93.7171 32.2859C93.7171 33.2076 93.4445 33.954 92.8927 34.5187C92.3345 35.0899 91.6725 35.4794 90.8741 35.726C90.0757 35.9532 89.2773 36.0765 88.4919 36.0765C87.9532 36.0765 87.5053 36.0246 87.1483 35.9273V41.9183C86.8497 41.8534 86.5771 41.808 86.324 41.808C86.0644 41.808 85.7528 41.8469 85.3893 41.9183V29.0664H85.3828ZM87.1289 35.2068H88.8749C89.485 35.2068 90.0108 35.0575 90.4457 34.7719C90.8936 34.4863 91.2311 34.1098 91.4648 33.649C91.6984 33.1881 91.8153 32.7013 91.8153 32.2015C91.8153 31.5394 91.614 30.9682 91.2051 30.4944C90.7962 30.0335 90.2055 29.7869 89.4331 29.7869C89.3098 29.7869 89.2189 29.7869 89.1605 29.7999H87.1159V35.2068H87.1289Z" />
  <path d="M98.0469 29.0664C98.2611 29.1313 98.5337 29.1767 98.8453 29.1767C99.1568 29.1767 99.4294 29.1378 99.6436 29.0664V41.9118C99.4294 41.8469 99.1568 41.8015 98.8453 41.8015C98.5337 41.8015 98.2611 41.8404 98.0469 41.9118V29.0664Z" />
  <path d="M107.654 41.9116V29.9489C107.44 29.9489 107.057 29.9748 106.518 30.0138C105.98 30.0657 105.435 30.1241 104.922 30.189C104.396 30.2539 103.948 30.3253 103.578 30.3773C103.643 30.1631 103.688 29.9424 103.688 29.7282C103.688 29.514 103.65 29.2933 103.578 29.0791H113.36C113.295 29.2933 113.25 29.514 113.25 29.7282C113.25 29.9424 113.288 30.1631 113.36 30.3773C113.1 30.3383 112.626 30.2669 111.938 30.1761C111.244 30.0787 110.679 30.0138 110.244 29.9878C109.809 29.9619 109.485 29.9489 109.284 29.9489V41.9116C109.069 41.8466 108.81 41.8012 108.537 41.8012C108.226 41.8077 107.94 41.8466 107.654 41.9116Z" />
  <path d="M115.656 41.9117L121.498 28.917H121.933L127.625 41.9117C127.573 41.9117 127.463 41.9117 127.314 41.8987C127.165 41.8858 127.002 41.8858 126.814 41.8728C126.626 41.8598 126.477 41.8598 126.353 41.8598C126.081 41.8598 125.827 41.8858 125.594 41.9247L123.549 36.8164H119.025L117.13 41.9247C116.993 41.8858 116.831 41.8598 116.656 41.8598C116.578 41.8598 116.468 41.8598 116.318 41.8728C116.169 41.8858 116.033 41.8987 115.922 41.8987C115.806 41.9117 115.715 41.9117 115.656 41.9117ZM119.453 35.9401H123.251L121.355 31.416L119.453 35.9401Z" />
  <path d="M131.383 41.9118V29.0664C131.597 29.1313 131.883 29.1767 132.233 29.1767C132.584 29.1767 132.83 29.1378 132.98 29.0664V40.8993C133.291 40.9382 133.752 40.9642 134.336 40.9642C134.92 40.9642 135.569 40.9382 136.29 40.8993C137.023 40.8603 137.621 40.8019 138.081 40.75C138.042 40.8863 138.016 41.0226 138.016 41.1849C138.016 41.2368 138.029 41.3471 138.042 41.4834C138.055 41.6198 138.068 41.7106 138.068 41.782C138.068 41.834 138.081 41.8924 138.081 41.9313H131.389V41.9118H131.383Z" />
  <path d="M7.42242 25.7168L5.00781 28.1314L19.5668 42.6904L21.9814 40.2758L7.42242 25.7168Z" />
  <path d="M31.524 6.29639L29.1094 8.71099L43.6619 23.2635L46.0765 20.8489L31.524 6.29639Z" />
  <path d="M23.9364 12.6704H27.3376V0.5H23.9364L0.640625 23.7957L3.05523 26.2103L23.9364 5.32272V12.6704Z" />
  <path d="M48.2199 22.7896L27.3387 43.6772V36.3295H23.9375V48.4999H27.3387L50.6345 25.2042L48.2199 22.7896Z" />
  <path d="M31.5634 22.0044H23.2031V23.374H31.5634V22.0044Z" />
  <path d="M31.5634 25.6133H23.2031V26.9829H31.5634V25.6133Z" />
  <path d="M32.258 34.5707H18.9062V14.4165H32.2515V19.3885H23.2032V18.0254H30.8754V15.8056H20.2888V33.2076H30.8754V30.9877H23.2032V29.6051H32.258V34.5707Z" />
  <g clipPath="url(#clip0_8541_265546)">
        <path d="M56.2422 23.4127V10.7036H62.9667C62.8953 10.9178 62.8564 11.1255 62.8564 11.2878C62.8564 11.463 62.8953 11.6513 62.9667 11.872C62.3566 11.7486 61.5452 11.6967 60.5391 11.6967C60.2535 11.6967 59.8187 11.6967 59.254 11.7097C58.6828 11.7227 58.2673 11.7227 58.0077 11.7227V16.2468H60.7858L62.5318 16.0975C62.4669 16.2468 62.4215 16.4221 62.4215 16.6233C62.4215 16.8245 62.4604 17.0452 62.5318 17.2594L60.3379 17.1101H58.0077V22.3677C58.3193 22.4067 58.7801 22.4326 59.3643 22.4326C59.9485 22.4326 60.5976 22.4067 61.3181 22.3677C62.0515 22.3288 62.6487 22.2703 63.103 22.2184C63.0381 22.4326 62.9927 22.6533 62.9927 22.8545C62.9927 23.0557 63.0316 23.231 63.103 23.3803H56.2422V23.4127Z" />
        <path d="M66.1328 10.7036C66.4963 10.7685 66.8403 10.814 67.1389 10.814C67.4375 10.814 67.7361 10.775 68.0346 10.7036L72.4095 21.2188C72.6821 20.771 73.0066 20.1349 73.3831 19.3235C73.7596 18.4992 74.1555 17.545 74.5904 16.461C75.0123 15.377 75.4018 14.358 75.7458 13.4103C76.0833 12.4626 76.3949 11.5539 76.6545 10.7166C76.8687 10.7815 77.1154 10.8269 77.388 10.8269C77.6606 10.8269 77.9008 10.788 78.1215 10.7166L72.7081 23.4127C72.6432 23.3478 72.5328 23.3024 72.3965 23.3024C72.2602 23.3024 72.1239 23.3413 71.9746 23.4127L66.1328 10.7036Z" />
        <path d="M81.7344 23.4127V10.7036H88.4394C88.3745 10.9178 88.3291 11.1255 88.3291 11.2878C88.3291 11.463 88.368 11.6513 88.4394 11.872C87.8293 11.7486 87.0179 11.6967 86.0119 11.6967C85.7263 11.6967 85.2914 11.6967 84.7267 11.7097C84.1555 11.7227 83.74 11.7227 83.4804 11.7227V16.2468H86.2585L88.0046 16.0975C87.9396 16.2468 87.8942 16.4221 87.8942 16.6233C87.8942 16.8245 87.9332 17.0452 88.0046 17.2594L85.8106 17.1101H83.4804V22.3677C83.792 22.4067 84.2528 22.4326 84.837 22.4326C85.4212 22.4326 86.0703 22.4067 86.7908 22.3677C87.5242 22.3288 88.1214 22.2703 88.5822 22.2184C88.5173 22.4326 88.4719 22.6533 88.4719 22.8545C88.4719 23.0557 88.5108 23.231 88.5822 23.3803H81.7409V23.4127H81.7344Z" />
        <path d="M92.9375 23.4128V10.5674H97.4616C98.26 10.5674 98.9221 10.7037 99.4803 10.9633C100.039 11.223 100.441 11.5864 100.714 12.0473C100.986 12.5082 101.122 13.0339 101.122 13.6311C101.122 14.3905 100.921 15.0136 100.499 15.5264C100.077 16.0392 99.5777 16.4221 99.0065 16.6753C98.4223 16.9349 97.8706 17.0842 97.3383 17.1361L102.297 23.4128C101.934 23.3479 101.564 23.3025 101.2 23.3025C100.837 23.3025 100.467 23.3414 100.103 23.4128L95.2937 17.2854H94.6835V23.4128C94.385 23.3479 94.0994 23.3025 93.8008 23.3025C93.5217 23.296 93.2231 23.3349 92.9375 23.4128ZM94.6835 16.5455C94.8458 16.5585 95.06 16.5585 95.3586 16.5585C96.5075 16.5585 97.3773 16.3702 97.9874 16.0002C98.5846 15.6368 98.961 15.2278 99.1233 14.7929C99.2856 14.3581 99.37 13.9686 99.37 13.6116C99.37 13.326 99.2856 13.0015 99.1103 12.651C98.948 12.3004 98.6365 11.9759 98.1756 11.7033C97.7148 11.4177 97.0917 11.2814 96.2933 11.2814H94.6835V16.5455Z" />
        <path d="M106.344 23.4128V10.5674H107.227L116.132 20.3491V10.5674C116.281 10.6323 116.47 10.6777 116.716 10.6777C116.963 10.6777 117.151 10.6388 117.3 10.5674V23.4128H116.567L107.512 13.3455V23.4128C107.363 23.3479 107.188 23.3025 106.98 23.3025C106.779 23.296 106.558 23.3349 106.344 23.4128Z" />
        <path d="M122.516 23.4127V10.7036H129.24C129.175 10.9178 129.13 11.1255 129.13 11.2878C129.13 11.463 129.169 11.6513 129.24 11.872C128.63 11.7486 127.819 11.6967 126.813 11.6967C126.527 11.6967 126.092 11.6967 125.527 11.7097C124.956 11.7227 124.541 11.7227 124.281 11.7227V16.2468H127.059L128.805 16.0975C128.74 16.2468 128.695 16.4221 128.695 16.6233C128.695 16.8245 128.734 17.0452 128.805 17.2594L126.611 17.1101H124.281V22.3677C124.593 22.4067 125.054 22.4326 125.638 22.4326C126.222 22.4326 126.871 22.4067 127.591 22.3677C128.325 22.3288 128.922 22.2703 129.383 22.2184C129.318 22.4326 129.273 22.6533 129.273 22.8545C129.273 23.0557 129.312 23.231 129.383 23.3803H122.529V23.4127H122.516Z" />
        <path d="M136.205 23.4129L132.109 10.7168C132.473 10.7817 132.784 10.8271 133.057 10.8271C133.33 10.8271 133.641 10.7882 134.005 10.7168L137.218 21.3683L140.866 10.7168C141.08 10.7817 141.287 10.8271 141.45 10.8271C141.625 10.8271 141.813 10.7882 142.034 10.7168L145.545 21.232L148.908 10.7168C149.122 10.7817 149.343 10.8271 149.557 10.8271C149.771 10.8271 149.992 10.7882 150.206 10.7168L145.831 23.4129C145.617 23.348 145.396 23.3026 145.182 23.3026C144.968 23.3026 144.747 23.3415 144.533 23.4129L141.164 12.8977L137.659 23.4129C137.51 23.348 137.309 23.3026 137.036 23.3026C136.776 23.2961 136.491 23.3351 136.205 23.4129Z" />
        <path d="M56.2422 35.6415C56.2422 34.7717 56.4045 33.9344 56.729 33.136C57.0535 32.3377 57.5144 31.6302 58.1116 31.02C58.7087 30.4229 59.4422 29.936 60.2925 29.5985C61.1493 29.248 62.097 29.0728 63.1095 29.0728C65.0892 29.0728 66.5497 29.3713 67.4844 29.9555L67.0495 31.416H66.9002C66.4913 31.0395 66.1018 30.7409 65.6929 30.5072C65.284 30.2736 64.8815 30.1113 64.4467 29.9945C64.0118 29.8711 63.5769 29.8192 63.1485 29.8192C62.2657 29.8192 61.4414 30.0464 60.6819 30.4943C59.9225 30.9421 59.2994 31.6042 58.8385 32.448C58.3777 33.3048 58.144 34.2914 58.144 35.4143V35.6285C58.17 36.6606 58.3193 37.5369 58.6049 38.2703C58.8905 39.0038 59.2669 39.6009 59.7408 40.0748C60.2146 40.5486 60.7598 40.8861 61.3375 41.1068C61.9347 41.321 62.5448 41.4314 63.1939 41.4314C63.9274 41.4314 64.6414 41.308 65.3489 41.0549C66.0564 40.7953 66.66 40.4577 67.1923 40.0229L67.043 41.1912C66.6081 41.4508 66.1602 41.665 65.6864 41.8403C65.2126 42.0156 64.7387 42.1519 64.2649 42.2362C63.7911 42.3206 63.3302 42.3596 62.8953 42.3596C62.0126 42.3596 61.1753 42.1973 60.3639 41.8857C59.5525 41.5742 58.832 41.1133 58.2089 40.5162C57.5858 39.919 57.099 39.1985 56.7615 38.3742C56.4045 37.5628 56.2422 36.6411 56.2422 35.6415Z" />
        <path d="M69.9297 41.9117L75.7715 28.917H76.2064L81.8989 41.9117C81.8469 41.9117 81.7366 41.9117 81.5873 41.8987C81.438 41.8858 81.2757 41.8858 81.0875 41.8728C80.8993 41.8598 80.75 41.8598 80.6266 41.8598C80.354 41.8598 80.0944 41.8858 79.8672 41.9247L77.8226 36.8164H73.2985L71.4031 41.9247C71.2668 41.8858 71.1045 41.8598 70.9293 41.8598C70.8514 41.8598 70.741 41.8598 70.5918 41.8728C70.4425 41.8858 70.3062 41.8987 70.2023 41.8987C70.079 41.9117 69.9946 41.9117 69.9297 41.9117ZM73.7268 35.9401H77.524L75.6287 31.416L73.7268 35.9401Z" />
        <path d="M85.3828 29.0664H90.0562C90.8806 29.0664 91.5621 29.1767 92.1009 29.4039C92.6396 29.6181 93.0485 29.9621 93.3082 30.3776C93.5808 30.8124 93.7041 31.3382 93.7041 31.9743C93.7041 32.0392 93.7171 32.1496 93.7171 32.2859C93.7171 33.2076 93.4445 33.954 92.8927 34.5187C92.3345 35.0899 91.6725 35.4794 90.8741 35.726C90.0757 35.9532 89.2773 36.0765 88.4919 36.0765C87.9532 36.0765 87.5053 36.0246 87.1483 35.9273V41.9183C86.8497 41.8534 86.5771 41.808 86.324 41.808C86.0644 41.808 85.7528 41.8469 85.3893 41.9183V29.0664H85.3828ZM87.1289 35.2068H88.8749C89.485 35.2068 90.0108 35.0575 90.4457 34.7719C90.8936 34.4863 91.2311 34.1098 91.4648 33.649C91.6984 33.1881 91.8153 32.7013 91.8153 32.2015C91.8153 31.5394 91.614 30.9682 91.2051 30.4944C90.7962 30.0335 90.2055 29.7869 89.4331 29.7869C89.3098 29.7869 89.2189 29.7869 89.1605 29.7999H87.1159V35.2068H87.1289Z" />
        <path d="M98.0469 29.0664C98.2611 29.1313 98.5337 29.1767 98.8453 29.1767C99.1568 29.1767 99.4294 29.1378 99.6436 29.0664V41.9118C99.4294 41.8469 99.1568 41.8015 98.8453 41.8015C98.5337 41.8015 98.2611 41.8404 98.0469 41.9118V29.0664Z" />
        <path d="M107.654 41.9116V29.9489C107.44 29.9489 107.057 29.9748 106.518 30.0138C105.98 30.0657 105.435 30.1241 104.922 30.189C104.396 30.2539 103.948 30.3253 103.578 30.3773C103.643 30.1631 103.688 29.9424 103.688 29.7282C103.688 29.514 103.65 29.2933 103.578 29.0791H113.36C113.295 29.2933 113.25 29.514 113.25 29.7282C113.25 29.9424 113.288 30.1631 113.36 30.3773C113.1 30.3383 112.626 30.2669 111.938 30.1761C111.244 30.0787 110.679 30.0138 110.244 29.9878C109.809 29.9619 109.485 29.9489 109.284 29.9489V41.9116C109.069 41.8466 108.81 41.8012 108.537 41.8012C108.226 41.8077 107.94 41.8466 107.654 41.9116Z" />
        <path d="M115.656 41.9117L121.498 28.917H121.933L127.625 41.9117C127.573 41.9117 127.463 41.9117 127.314 41.8987C127.165 41.8858 127.002 41.8858 126.814 41.8728C126.626 41.8598 126.477 41.8598 126.353 41.8598C126.081 41.8598 125.827 41.8858 125.594 41.9247L123.549 36.8164H119.025L117.13 41.9247C116.993 41.8858 116.831 41.8598 116.656 41.8598C116.578 41.8598 116.468 41.8598 116.318 41.8728C116.169 41.8858 116.033 41.8987 115.922 41.8987C115.806 41.9117 115.715 41.9117 115.656 41.9117ZM119.453 35.9401H123.251L121.355 31.416L119.453 35.9401Z" />
        <path d="M131.383 41.9118V29.0664C131.597 29.1313 131.883 29.1767 132.233 29.1767C132.584 29.1767 132.83 29.1378 132.98 29.0664V40.8993C133.291 40.9382 133.752 40.9642 134.336 40.9642C134.92 40.9642 135.569 40.9382 136.29 40.8993C137.023 40.8603 137.621 40.8019 138.081 40.75C138.042 40.8863 138.016 41.0226 138.016 41.1849C138.016 41.2368 138.029 41.3471 138.042 41.4834C138.055 41.6198 138.068 41.7106 138.068 41.782C138.068 41.834 138.081 41.8924 138.081 41.9313H131.389V41.9118H131.383Z" />
        <path d="M7.42242 25.7168L5.00781 28.1314L19.5668 42.6904L21.9814 40.2758L7.42242 25.7168Z" />
        <path d="M31.524 6.29639L29.1094 8.71099L43.6619 23.2635L46.0765 20.8489L31.524 6.29639Z" />
        <path d="M23.9364 12.6704H27.3376V0.5H23.9364L0.640625 23.7957L3.05523 26.2103L23.9364 5.32272V12.6704Z" />
        <path d="M48.2199 22.7896L27.3387 43.6772V36.3295H23.9375V48.4999H27.3387L50.6345 25.2042L48.2199 22.7896Z" />
        <path d="M31.5634 22.0044H23.2031V23.374H31.5634V22.0044Z" />
        <path d="M31.5634 25.6133H23.2031V26.9829H31.5634V25.6133Z" />
        <path d="M32.258 34.5707H18.9062V14.4165H32.2515V19.3885H23.2032V18.0254H30.8754V15.8056H20.2888V33.2076H30.8754V30.9877H23.2032V29.6051H32.258V34.5707Z" />
      </g>
</svg>