<svg viewBox="0 0 117 41" height="10" width="auto" xmlns="http://www.w3.org/2000/svg">
  <path d="M60.5052 2.3704C55.7416 1.17951 51.1742 8.66112 48.6803 18.6716C46.1864 28.6821 46.7188 37.4387 51.4824 38.6226C56.246 39.8135 60.8134 32.3319 63.3073 22.3214C65.7941 12.3179 65.2687 3.5613 60.5052 2.3704ZM75.4614 20.5C74.908 31.5473 66.3055 40.5 54.985 40.5C43.6645 40.5 35.9658 31.5473 36.5192 20.5C37.0726 9.45271 45.675 0.5 56.9955 0.5C68.323 0.5 76.0218 9.45271 75.4614 20.5ZM101.787 2.3704C97.0236 1.17951 92.4561 8.66112 89.9622 18.6716C87.4684 28.6821 88.0008 37.4387 92.7573 38.6226C97.5209 39.8135 102.088 32.3319 104.582 22.3214C107.083 12.3179 106.551 3.5613 101.787 2.3704ZM116.75 20.5C116.197 31.5473 107.594 40.5 96.267 40.5C84.9465 40.5 77.2477 31.5473 77.8011 20.5C78.3615 9.45271 86.957 0.5 98.2845 0.5C109.605 0.5 117.304 9.45271 116.75 20.5ZM34.5787 26.7067C34.2705 35.5753 25.9623 40.3879 17.4018 40.3879C10.1584 40.3879 3.38432 36.507 0.210938 34.1462L3.78362 24.1988L3.99377 24.2758C9.87819 33.0744 14.8659 39.134 20.0918 38.6646C23.5454 38.3494 25.598 36.2478 25.7451 32.0657C25.9482 26.2513 21.5209 19.0499 4.85542 22.0201L4.60323 21.9291L12.1059 1.05342H37.2477L33.8712 10.4475H10.3125L8.09185 16.6331C21.4018 9.78196 34.915 17.0044 34.5787 26.7067Z" />
  <g clipPath="url(#clip0_8541_265513)">
        <path d="M60.5052 2.3704C55.7416 1.17951 51.1742 8.66112 48.6803 18.6716C46.1864 28.6821 46.7188 37.4387 51.4824 38.6226C56.246 39.8135 60.8134 32.3319 63.3073 22.3214C65.7941 12.3179 65.2687 3.5613 60.5052 2.3704ZM75.4614 20.5C74.908 31.5473 66.3055 40.5 54.985 40.5C43.6645 40.5 35.9658 31.5473 36.5192 20.5C37.0726 9.45271 45.675 0.5 56.9955 0.5C68.323 0.5 76.0218 9.45271 75.4614 20.5ZM101.787 2.3704C97.0236 1.17951 92.4561 8.66112 89.9622 18.6716C87.4684 28.6821 88.0008 37.4387 92.7573 38.6226C97.5209 39.8135 102.088 32.3319 104.582 22.3214C107.083 12.3179 106.551 3.5613 101.787 2.3704ZM116.75 20.5C116.197 31.5473 107.594 40.5 96.267 40.5C84.9465 40.5 77.2477 31.5473 77.8011 20.5C78.3615 9.45271 86.957 0.5 98.2845 0.5C109.605 0.5 117.304 9.45271 116.75 20.5ZM34.5787 26.7067C34.2705 35.5753 25.9623 40.3879 17.4018 40.3879C10.1584 40.3879 3.38432 36.507 0.210938 34.1462L3.78362 24.1988L3.99377 24.2758C9.87819 33.0744 14.8659 39.134 20.0918 38.6646C23.5454 38.3494 25.598 36.2478 25.7451 32.0657C25.9482 26.2513 21.5209 19.0499 4.85542 22.0201L4.60323 21.9291L12.1059 1.05342H37.2477L33.8712 10.4475H10.3125L8.09185 16.6331C21.4018 9.78196 34.915 17.0044 34.5787 26.7067Z" />
      </g>
</svg>