<svg viewBox="0 0 122 41" height="10" width="auto" xmlns="http://www.w3.org/2000/svg">
  <path d="M111.213 34.315C104.837 34.3584 98.7982 34.4114 97.1163 34.2571C93.709 33.9631 91.4343 31.7313 91.1741 28.4534C90.9958 26.3035 90.9958 24.52 91.1645 22.8232C91.4729 19.6321 94.1476 16.5905 97.1211 16.4459C98.1861 16.388 101.039 16.3928 106.205 16.4169L121.237 16.4459V10.2083C121.237 10.2083 109.266 10.1938 105.666 10.1794C100.832 10.1553 98.403 10.1553 96.8608 10.2083C93.4729 10.3384 90.6343 11.5435 88.4271 13.785C86.3355 15.9012 85.0922 19.2706 84.9042 22.6786C84.7982 24.5152 84.7645 26.9205 84.9042 28.3522C85.2512 32.0157 86.4367 34.8983 88.4271 36.9132C90.5524 39.0775 93.791 40.4465 96.8657 40.4899C99.391 40.5236 121.242 40.4899 121.242 40.4899V34.2571C121.232 34.2571 114.596 34.2861 111.213 34.315ZM43.3524 10.5409V16.7736H58.1813V40.3838H64.4416V16.7736H79.2753V10.5409H43.3524ZM36.8512 22.3267C36.803 18.9717 35.6223 16.094 33.3283 13.7657C30.938 11.3314 27.2849 10.3192 24.8946 10.189C22.8175 10.0733 14.6295 10.1071 12.7066 10.189C9.99819 10.3047 8.02229 11.1097 7.03434 11.852C7.0247 11.8569 7.01506 11.8569 7.01506 11.8424V0.504883H0.75V40.4947H7.00542C7.00542 40.4947 6.88494 24.1247 7.0247 22.346C7.2753 19.1742 9.6753 16.6869 12.7404 16.4169C15.1982 16.2048 22.5717 16.2627 24.8849 16.4218C28.0608 16.6387 30.4078 19.126 30.591 22.4665C30.6536 23.6957 30.5861 40.4899 30.5861 40.4899H36.8512C36.8512 40.4947 36.8705 23.7632 36.8512 22.3267Z" />
  <g clipPath="url(#clip0_8541_265581)">
        <path d="M111.213 34.315C104.837 34.3584 98.7982 34.4114 97.1163 34.2571C93.709 33.9631 91.4343 31.7313 91.1741 28.4534C90.9958 26.3035 90.9958 24.52 91.1645 22.8232C91.4729 19.6321 94.1476 16.5905 97.1211 16.4459C98.1861 16.388 101.039 16.3928 106.205 16.4169L121.237 16.4459V10.2083C121.237 10.2083 109.266 10.1938 105.666 10.1794C100.832 10.1553 98.403 10.1553 96.8608 10.2083C93.4729 10.3384 90.6343 11.5435 88.4271 13.785C86.3355 15.9012 85.0922 19.2706 84.9042 22.6786C84.7982 24.5152 84.7645 26.9205 84.9042 28.3522C85.2512 32.0157 86.4367 34.8983 88.4271 36.9132C90.5524 39.0775 93.791 40.4465 96.8657 40.4899C99.391 40.5236 121.242 40.4899 121.242 40.4899V34.2571C121.232 34.2571 114.596 34.2861 111.213 34.315ZM43.3524 10.5409V16.7736H58.1813V40.3838H64.4416V16.7736H79.2753V10.5409H43.3524ZM36.8512 22.3267C36.803 18.9717 35.6223 16.094 33.3283 13.7657C30.938 11.3314 27.2849 10.3192 24.8946 10.189C22.8175 10.0733 14.6295 10.1071 12.7066 10.189C9.99819 10.3047 8.02229 11.1097 7.03434 11.852C7.0247 11.8569 7.01506 11.8569 7.01506 11.8424V0.504883H0.75V40.4947H7.00542C7.00542 40.4947 6.88494 24.1247 7.0247 22.346C7.2753 19.1742 9.6753 16.6869 12.7404 16.4169C15.1982 16.2048 22.5717 16.2627 24.8849 16.4218C28.0608 16.6387 30.4078 19.126 30.591 22.4665C30.6536 23.6957 30.5861 40.4899 30.5861 40.4899H36.8512C36.8512 40.4947 36.8705 23.7632 36.8512 22.3267Z" />
      </g>
</svg>