<svg viewBox="0 0 284 37" height="9" width="auto" xmlns="http://www.w3.org/2000/svg">
  <path d="M149.633 9.5C148.99 9.5 148.347 9.88571 148.09 10.5286L142.304 28.1429L136.519 10.5286C136.262 9.88571 135.747 9.5 134.976 9.5H130.219L138.833 35.7286H139.604H144.619H145.39L154.262 9.5H149.633Z" />
  <path d="M185.502 16.0573C182.031 16.0573 181.517 16.9573 181.517 16.9573C181.517 16.1858 180.874 15.543 180.102 15.543H176.374C176.117 15.543 175.859 15.8001 175.859 16.0573V35.4715C175.859 36.1144 176.374 36.6287 177.017 36.6287H180.745C181.131 36.6287 181.388 36.3715 181.388 35.9858V23.1287C181.388 23.1287 182.159 20.4287 184.859 20.4287C185.888 20.4287 186.659 20.8144 187.174 21.3287C187.945 22.1001 188.331 23.1287 188.331 24.1573V35.4715C188.331 36.1144 188.845 36.6287 189.488 36.6287H193.217C193.602 36.6287 193.859 36.3715 193.859 35.9858V23.2573C193.474 17.2144 188.845 16.0573 185.502 16.0573Z" />
  <path d="M209.16 21.0714C209.546 21.0714 209.803 20.8143 209.803 20.4286V17.7286C209.803 16.5714 208.775 15.5429 207.617 15.5429H202.86V11.0429C202.86 10.1429 202.089 9.5 201.317 9.5H198.103C197.589 9.5 197.203 9.88571 197.203 10.4V30.9714C197.203 34.0571 199.775 36.5 202.86 36.5H209.032C209.546 36.5 209.932 36.1143 209.932 35.6V33.9286C209.932 32.6429 208.903 31.6143 207.617 31.6143H205.303C204.017 31.6143 202.989 30.5857 202.989 29.3V21.0714H209.16Z" />
  <path d="M224.851 16.9573V28.6573C224.851 30.3287 223.436 31.8715 221.636 31.8715C221.636 31.8715 221.636 31.8715 221.508 31.8715C221.508 31.8715 221.508 31.8715 221.379 31.8715C219.579 31.8715 218.165 30.4573 218.165 28.6573V16.9573C218.165 16.1858 217.522 15.543 216.751 15.543H213.151C212.765 15.543 212.508 15.8001 212.508 16.1858V27.7573C212.508 30.2001 213.536 32.5144 215.336 34.0573C216.751 35.2144 218.679 36.243 221.508 36.243C223.436 36.243 224.979 35.7287 226.265 35.0858C228.836 33.543 230.379 30.843 230.379 27.8858V16.443C230.379 15.9287 229.994 15.543 229.479 15.543H226.136C225.494 15.543 224.851 16.1858 224.851 16.9573Z" />
  <path d="M244.517 16.8285C243.617 16.1857 242.46 15.6714 240.66 15.6714C233.332 15.6714 233.203 22.1 233.203 22.1V34.5714C233.203 35.6 234.103 36.5 235.132 36.5H238.217C238.603 36.5 238.86 36.2428 238.86 35.8571V23.1285C238.86 21.5857 240.017 20.3 241.56 20.1714C241.689 20.1714 241.689 20.1714 241.817 20.1714C242.846 20.1714 243.617 20.4285 244.132 20.5571C244.517 20.6857 244.903 20.4285 244.903 20.0428V17.9857C245.032 17.6 244.903 17.0857 244.517 16.8285Z" />
  <path d="M164.16 15.6714C155.417 15.6714 155.031 24.5428 155.031 25.9571C155.031 27.3714 155.674 36.1142 164.031 36.1142C172.388 36.1142 173.031 29.8142 173.031 29.8142H168.531C168.531 29.8142 168.017 32.1285 164.031 32.1285C160.046 32.1285 160.174 27.7571 160.174 27.7571H173.031C173.031 27.7571 174.574 15.6714 164.16 15.6714ZM160.174 23.6428C160.303 22.4857 161.074 19.6571 164.16 19.6571C168.146 19.6571 168.274 23.6428 168.274 23.6428H160.174Z" />
  <path d="M256.863 15.6714C248.12 15.6714 247.734 24.5428 247.734 25.9571C247.734 27.3714 248.377 36.1142 256.734 36.1142C265.092 36.1142 265.734 29.8142 265.734 29.8142H261.234C261.234 29.8142 260.72 32.1285 256.734 32.1285C252.749 32.1285 252.877 27.7571 252.877 27.7571H265.992C265.992 27.7571 267.277 15.6714 256.863 15.6714ZM252.877 23.6428C253.006 22.4857 253.777 19.6571 256.863 19.6571C260.849 19.6571 260.977 23.6428 260.977 23.6428H252.877Z" />
  <path d="M282.446 16.9571V20.6856C282.446 21.1999 281.803 21.4571 281.417 21.1999C280.517 20.4285 278.975 19.6571 277.046 19.6571C272.932 19.6571 273.446 22.9999 278.589 24.4142C283.732 25.9571 283.346 29.0428 283.346 29.8142C283.346 31.0999 283.089 36.1142 275.117 36.1142C272.417 36.1142 270.617 35.5999 269.46 35.0856V31.0999C269.46 30.7142 269.846 30.4571 270.232 30.7142C271.389 31.3571 273.703 32.3856 276.146 32.3856C279.617 32.3856 278.589 30.1999 278.589 30.1999C278.589 30.1999 278.846 29.2999 273.703 27.3713C273.703 27.3713 269.203 26.2142 269.203 21.8428C269.203 17.4713 273.446 15.6713 277.432 15.6713C281.417 15.5428 282.446 16.9571 282.446 16.9571Z" />
  <path d="M45.3596 9.5V19.6571H35.2025V10.7857C35.2025 10.0143 34.5596 9.5 33.9167 9.5H30.4453V33.8C30.4453 34.5714 31.0882 35.0857 31.731 35.0857H35.2025V23.7714H45.4882V33.8C45.4882 34.5714 46.0025 35.0857 46.7739 35.0857H50.2453V10.7857C50.2453 10.0143 49.6025 9.5 48.9596 9.5H45.3596ZM65.6739 15.8V28.0143C65.6739 29.1714 65.1596 30.2 64.131 30.7143C61.431 32.2571 58.6025 30.3286 58.6025 27.7571V17.0857C58.6025 16.3143 57.9596 15.8 57.3167 15.8H53.8453V28.1429C53.8453 32.1286 57.1882 35.3429 61.1739 35.3429H63.1025C67.2168 35.3429 70.431 32.1286 70.431 28.1429V17.0857C70.431 16.3143 69.7882 15.8 69.1453 15.8H65.6739Z" />
  <path d="M118.005 35.0856H121.477V17.857C121.477 17.0856 120.834 16.5713 120.191 16.5713H116.72V33.7999C116.591 34.5713 117.234 35.0856 118.005 35.0856Z" />
  <path d="M121.477 13.1001C121.992 11.8144 121.349 10.2716 120.063 9.62871C118.649 9.11442 117.106 9.75728 116.592 11.043C116.077 12.3287 116.72 13.8716 118.006 14.5144C119.42 15.0287 120.963 14.3859 121.477 13.1001Z" />
  <path d="M82.777 15.7998C77.7627 15.7998 73.6484 19.3998 73.6484 24.2855V26.9855C73.6484 31.9998 77.7627 35.4712 82.777 35.4712C87.7913 35.4712 91.9056 31.9998 91.9056 26.9855V24.2855C91.9056 19.3998 87.7913 15.7998 82.777 15.7998ZM87.1484 27.3712C87.1484 29.6855 85.2199 31.2284 82.777 31.2284C80.3341 31.2284 78.4056 29.6855 78.4056 27.3712V24.0284C78.4056 21.7141 80.3341 20.1712 82.777 20.1712C85.2199 20.1712 87.1484 21.7141 87.1484 24.0284V27.3712Z" />
  <path d="M104.246 15.8C102.703 15.8 101.289 16.1857 99.8743 16.8286V10.7857C99.8743 10.0143 99.2315 9.5 98.5886 9.5H95.1172V26.9857C95.1172 32 99.2315 35.4714 104.246 35.4714C109.26 35.4714 113.374 32 113.374 26.9857V24.2857C113.374 19.4 109.389 15.8 104.246 15.8ZM108.617 27.3714C108.617 29.6857 106.689 31.2286 104.246 31.2286C101.931 31.2286 99.8743 29.6857 99.8743 27.3714V24.0286C99.8743 21.7143 101.803 20.1714 104.246 20.1714C106.56 20.1714 108.617 21.7143 108.617 24.0286V27.3714Z" />
  <path d="M15.7888 11.5571C15.7888 6.4142 13.2174 1.9142 11.2888 0.499916C11.2888 0.499916 11.1602 0.371345 11.1602 0.628488C11.0317 10.6571 5.88881 13.3571 3.06023 16.9571C-3.49691 25.3142 2.54595 34.5713 8.84595 36.2428C12.3174 37.1428 8.07452 34.5713 7.43166 28.9142C6.78881 22.3571 15.7888 17.2142 15.7888 11.5571Z" />
  <path d="M18.8788 15.0288H18.7502C18.6216 16.3145 17.3359 19.0145 15.6645 21.4574C10.1359 29.8145 13.2216 33.8002 15.0216 35.986C16.0502 37.2717 15.0216 35.986 17.5931 34.7002C20.8073 32.7717 22.8645 29.4288 23.2502 25.7002C23.7645 19.786 20.1645 16.0574 18.8788 15.0288Z" />
  <g clipPath="url(#clip0_8541_265584)">
        <path d="M149.633 9.5C148.99 9.5 148.347 9.88571 148.09 10.5286L142.304 28.1429L136.519 10.5286C136.262 9.88571 135.747 9.5 134.976 9.5H130.219L138.833 35.7286H139.604H144.619H145.39L154.262 9.5H149.633Z" />
        <path d="M185.502 16.0573C182.031 16.0573 181.517 16.9573 181.517 16.9573C181.517 16.1858 180.874 15.543 180.102 15.543H176.374C176.117 15.543 175.859 15.8001 175.859 16.0573V35.4715C175.859 36.1144 176.374 36.6287 177.017 36.6287H180.745C181.131 36.6287 181.388 36.3715 181.388 35.9858V23.1287C181.388 23.1287 182.159 20.4287 184.859 20.4287C185.888 20.4287 186.659 20.8144 187.174 21.3287C187.945 22.1001 188.331 23.1287 188.331 24.1573V35.4715C188.331 36.1144 188.845 36.6287 189.488 36.6287H193.217C193.602 36.6287 193.859 36.3715 193.859 35.9858V23.2573C193.474 17.2144 188.845 16.0573 185.502 16.0573Z" />
        <path d="M209.16 21.0714C209.546 21.0714 209.803 20.8143 209.803 20.4286V17.7286C209.803 16.5714 208.775 15.5429 207.617 15.5429H202.86V11.0429C202.86 10.1429 202.089 9.5 201.317 9.5H198.103C197.589 9.5 197.203 9.88571 197.203 10.4V30.9714C197.203 34.0571 199.775 36.5 202.86 36.5H209.032C209.546 36.5 209.932 36.1143 209.932 35.6V33.9286C209.932 32.6429 208.903 31.6143 207.617 31.6143H205.303C204.017 31.6143 202.989 30.5857 202.989 29.3V21.0714H209.16Z" />
        <path d="M224.851 16.9573V28.6573C224.851 30.3287 223.436 31.8715 221.636 31.8715C221.636 31.8715 221.636 31.8715 221.508 31.8715C221.508 31.8715 221.508 31.8715 221.379 31.8715C219.579 31.8715 218.165 30.4573 218.165 28.6573V16.9573C218.165 16.1858 217.522 15.543 216.751 15.543H213.151C212.765 15.543 212.508 15.8001 212.508 16.1858V27.7573C212.508 30.2001 213.536 32.5144 215.336 34.0573C216.751 35.2144 218.679 36.243 221.508 36.243C223.436 36.243 224.979 35.7287 226.265 35.0858C228.836 33.543 230.379 30.843 230.379 27.8858V16.443C230.379 15.9287 229.994 15.543 229.479 15.543H226.136C225.494 15.543 224.851 16.1858 224.851 16.9573Z" />
        <path d="M244.517 16.8285C243.617 16.1857 242.46 15.6714 240.66 15.6714C233.332 15.6714 233.203 22.1 233.203 22.1V34.5714C233.203 35.6 234.103 36.5 235.132 36.5H238.217C238.603 36.5 238.86 36.2428 238.86 35.8571V23.1285C238.86 21.5857 240.017 20.3 241.56 20.1714C241.689 20.1714 241.689 20.1714 241.817 20.1714C242.846 20.1714 243.617 20.4285 244.132 20.5571C244.517 20.6857 244.903 20.4285 244.903 20.0428V17.9857C245.032 17.6 244.903 17.0857 244.517 16.8285Z" />
        <path d="M164.16 15.6714C155.417 15.6714 155.031 24.5428 155.031 25.9571C155.031 27.3714 155.674 36.1142 164.031 36.1142C172.388 36.1142 173.031 29.8142 173.031 29.8142H168.531C168.531 29.8142 168.017 32.1285 164.031 32.1285C160.046 32.1285 160.174 27.7571 160.174 27.7571H173.031C173.031 27.7571 174.574 15.6714 164.16 15.6714ZM160.174 23.6428C160.303 22.4857 161.074 19.6571 164.16 19.6571C168.146 19.6571 168.274 23.6428 168.274 23.6428H160.174Z" />
        <path d="M256.863 15.6714C248.12 15.6714 247.734 24.5428 247.734 25.9571C247.734 27.3714 248.377 36.1142 256.734 36.1142C265.092 36.1142 265.734 29.8142 265.734 29.8142H261.234C261.234 29.8142 260.72 32.1285 256.734 32.1285C252.749 32.1285 252.877 27.7571 252.877 27.7571H265.992C265.992 27.7571 267.277 15.6714 256.863 15.6714ZM252.877 23.6428C253.006 22.4857 253.777 19.6571 256.863 19.6571C260.849 19.6571 260.977 23.6428 260.977 23.6428H252.877Z" />
        <path d="M282.446 16.9571V20.6856C282.446 21.1999 281.803 21.4571 281.417 21.1999C280.517 20.4285 278.975 19.6571 277.046 19.6571C272.932 19.6571 273.446 22.9999 278.589 24.4142C283.732 25.9571 283.346 29.0428 283.346 29.8142C283.346 31.0999 283.089 36.1142 275.117 36.1142C272.417 36.1142 270.617 35.5999 269.46 35.0856V31.0999C269.46 30.7142 269.846 30.4571 270.232 30.7142C271.389 31.3571 273.703 32.3856 276.146 32.3856C279.617 32.3856 278.589 30.1999 278.589 30.1999C278.589 30.1999 278.846 29.2999 273.703 27.3713C273.703 27.3713 269.203 26.2142 269.203 21.8428C269.203 17.4713 273.446 15.6713 277.432 15.6713C281.417 15.5428 282.446 16.9571 282.446 16.9571Z" />
        <path d="M45.3596 9.5V19.6571H35.2025V10.7857C35.2025 10.0143 34.5596 9.5 33.9167 9.5H30.4453V33.8C30.4453 34.5714 31.0882 35.0857 31.731 35.0857H35.2025V23.7714H45.4882V33.8C45.4882 34.5714 46.0025 35.0857 46.7739 35.0857H50.2453V10.7857C50.2453 10.0143 49.6025 9.5 48.9596 9.5H45.3596ZM65.6739 15.8V28.0143C65.6739 29.1714 65.1596 30.2 64.131 30.7143C61.431 32.2571 58.6025 30.3286 58.6025 27.7571V17.0857C58.6025 16.3143 57.9596 15.8 57.3167 15.8H53.8453V28.1429C53.8453 32.1286 57.1882 35.3429 61.1739 35.3429H63.1025C67.2168 35.3429 70.431 32.1286 70.431 28.1429V17.0857C70.431 16.3143 69.7882 15.8 69.1453 15.8H65.6739Z" />
        <path d="M118.005 35.0856H121.477V17.857C121.477 17.0856 120.834 16.5713 120.191 16.5713H116.72V33.7999C116.591 34.5713 117.234 35.0856 118.005 35.0856Z" />
        <path d="M121.477 13.1001C121.992 11.8144 121.349 10.2716 120.063 9.62871C118.649 9.11442 117.106 9.75728 116.592 11.043C116.077 12.3287 116.72 13.8716 118.006 14.5144C119.42 15.0287 120.963 14.3859 121.477 13.1001Z" />
        <path d="M82.777 15.7998C77.7627 15.7998 73.6484 19.3998 73.6484 24.2855V26.9855C73.6484 31.9998 77.7627 35.4712 82.777 35.4712C87.7913 35.4712 91.9056 31.9998 91.9056 26.9855V24.2855C91.9056 19.3998 87.7913 15.7998 82.777 15.7998ZM87.1484 27.3712C87.1484 29.6855 85.2199 31.2284 82.777 31.2284C80.3341 31.2284 78.4056 29.6855 78.4056 27.3712V24.0284C78.4056 21.7141 80.3341 20.1712 82.777 20.1712C85.2199 20.1712 87.1484 21.7141 87.1484 24.0284V27.3712Z" />
        <path d="M104.246 15.8C102.703 15.8 101.289 16.1857 99.8743 16.8286V10.7857C99.8743 10.0143 99.2315 9.5 98.5886 9.5H95.1172V26.9857C95.1172 32 99.2315 35.4714 104.246 35.4714C109.26 35.4714 113.374 32 113.374 26.9857V24.2857C113.374 19.4 109.389 15.8 104.246 15.8ZM108.617 27.3714C108.617 29.6857 106.689 31.2286 104.246 31.2286C101.931 31.2286 99.8743 29.6857 99.8743 27.3714V24.0286C99.8743 21.7143 101.803 20.1714 104.246 20.1714C106.56 20.1714 108.617 21.7143 108.617 24.0286V27.3714Z" />
        <path d="M15.7888 11.5571C15.7888 6.4142 13.2174 1.9142 11.2888 0.499916C11.2888 0.499916 11.1602 0.371345 11.1602 0.628488C11.0317 10.6571 5.88881 13.3571 3.06023 16.9571C-3.49691 25.3142 2.54595 34.5713 8.84595 36.2428C12.3174 37.1428 8.07452 34.5713 7.43166 28.9142C6.78881 22.3571 15.7888 17.2142 15.7888 11.5571Z" />
        <path d="M18.8788 15.0288H18.7502C18.6216 16.3145 17.3359 19.0145 15.6645 21.4574C10.1359 29.8145 13.2216 33.8002 15.0216 35.986C16.0502 37.2717 15.0216 35.986 17.5931 34.7002C20.8073 32.7717 22.8645 29.4288 23.2502 25.7002C23.7645 19.786 20.1645 16.0574 18.8788 15.0288Z" />
      </g>
</svg>