<svg viewBox="0 0 178 41" height="10" width="auto" xmlns="http://www.w3.org/2000/svg">
  <path d="M176.93 17.923L177.694 15.8011C177.339 15.5464 176.027 14.8288 173.89 15.0449C170.842 15.3458 170.232 17.3211 170.232 18.5325C170.232 19.744 171.776 21.1174 173.126 21.4106C174.499 21.7116 175.109 22.0202 175.109 22.4677C175.109 22.923 174.345 23.2239 173.28 23.2239C172.424 23.2239 171.305 22.7224 170.842 22.4677L170.078 24.744C170.533 24.9986 171.938 25.531 173.882 25.6545C176.32 25.8088 177.987 24.1421 177.987 22.4754C177.987 20.8088 177.077 20.3535 176.012 19.7517C174.947 19.1421 173.118 18.9955 173.118 18.2393C173.118 17.6298 173.728 17.4832 174.638 17.4832C175.379 17.4677 176.475 17.7764 176.93 17.923Z" />
  <path d="M94.2812 0.5H97.3291V10.5H94.2812V0.5Z" />
  <path d="M121.375 0.5H124.423V10.5H121.375V0.5Z" />
  <path d="M139.031 0.5H142.079V10.5H139.031V0.5Z" />
  <path d="M99.7656 10.5V0.5H103.415L106.764 6.71142V0.5H109.658V10.5H106.155L102.351 3.67901V10.5H99.7656Z" />
  <path d="M115.898 25.3457V15.3457H119.548L122.897 21.5571V15.3457H125.482V25.3457H122.287L118.483 18.5247V25.3457H115.898Z" />
  <path d="M126.852 10.5V0.5H130.501L133.85 6.71142V0.5H136.744V10.5H133.24L129.436 3.67901V10.5H126.852Z" />
  <path d="M112.094 10.5V0.5H119.092V2.77623H114.833V4.58951H118.791V6.71142H114.833V10.5H112.094Z" />
  <path d="M152.733 0.5H143.906V2.92284H146.946V10.8009H149.994V2.92284H152.733V0.5Z" />
  <path d="M144.507 30.1992H135.68V32.6221H138.728V40.5001H141.775V32.6221H144.515V30.1992H144.507Z" />
  <path d="M135.991 15.3457H127.164V17.7685H130.204V25.6543H133.252V17.7763H135.991V15.3457Z" />
  <path d="M156.843 0.654297H153.648L157.152 6.10954V10.5H160.346V6.10954L163.849 0.654297H160.809L158.834 4.28856L156.843 0.654297Z" />
  <path d="M117.569 30.5H114.375L117.878 35.9552V40.3457H121.073V35.9552L124.576 30.5H121.528L119.552 34.1343L117.569 30.5Z" />
  <path d="M97.1808 25.3457L93.5234 15.5H96.7179L99.0018 22.4676L101.286 15.5H104.334L100.676 25.3457H97.1808Z" />
  <path d="M106.156 25.3457V15.3457H113.309V17.6219H109.05V18.9877H113.309V21.4105H109.05V23.2315H113.772V25.3457H106.156Z" />
  <path d="M160.641 25.3457V15.3457H167.793V17.6219H163.534V18.9877H167.793V21.4105H163.534V23.2315H168.256V25.3457H160.641Z" />
  <path d="M141.011 15.3457H138.117V22.3133C138.117 23.5247 139.637 25.6466 142.685 25.6466C145.725 25.6466 147.554 23.8256 147.554 22.3133V15.3457H144.506V21.4105C144.506 22.321 143.897 23.3781 142.677 23.3781C141.458 23.3781 141.003 22.1127 141.003 21.4105V15.3457H141.011Z" />
  <path
          fillRule="evenodd"
          clipRule="evenodd"
          d="M149.992 15.3457V25.5H153.04V21.7114H153.951C154.56 22.1127 155.779 23.4398 155.779 25.5H158.673C158.572 24.1343 158.063 21.1096 156.543 20.6543C158.063 20.3534 158.372 19.2886 158.372 17.9306C158.372 15.5077 155.478 15.3534 155.478 15.3534H149.992V15.3457ZM152.878 17.1667V19.8905C154.097 19.8905 155.617 19.8905 155.617 18.5247C155.617 17.0664 154.213 17.1127 153.256 17.1513C153.117 17.159 152.994 17.1667 152.878 17.1667Z"
        />
  <path
          fillRule="evenodd"
          clipRule="evenodd"
          d="M104.938 30.1992V40.3535H107.978V36.565H108.888C109.498 36.9662 110.717 38.2934 110.717 40.3535H113.61C113.51 38.9878 113.001 35.9631 111.481 35.5079C113.001 35.2069 113.309 34.1421 113.309 32.7841C113.309 30.3613 110.416 30.2069 110.416 30.2069H104.938V30.1992ZM107.823 32.0125V34.7363C109.042 34.7363 110.563 34.7363 110.563 33.3705C110.563 31.9122 109.158 31.9585 108.201 31.9971C108.07 32.0125 107.939 32.0125 107.823 32.0125Z"
        />
  <path d="M102.35 32.6219L102.806 30.5C99.6111 29.5895 94.125 29.7438 94.125 35.3457C94.125 40.6775 99.7577 40.9552 102.806 40.0447L102.35 37.9228C100.576 38.3241 97.0185 38.3781 97.0185 35.3457C97.0262 32.321 100.221 32.0123 102.35 32.6219Z" />
  <path d="M38.1971 30.2687C35.7434 32.4524 31.4842 37.4678 23.5598 37.4678C16.3299 37.4678 11.9471 32.136 11.9471 32.136C11.9471 32.136 3.15856 23.2471 0.21875 20.2687C3.81443 16.5187 11.0212 9.27336 12.1941 8.23941C13.6678 6.94311 17.7728 3.5712 24.0691 3.5712C32.0783 3.5712 35.8052 8.82583 39.015 11.5727L32.0706 18.4477C31.3067 17.6916 29.6555 16.0866 29.1308 15.6931C28.4749 15.207 26.8854 13.386 24.4626 13.386C22.5644 13.386 20.6586 14.3505 20.1416 14.8829L14.3391 20.4693C15.4271 21.4956 17.8345 23.7872 18.7527 24.7595C19.6709 25.7317 22.0706 27.8305 24.0613 27.8305C26.4147 27.8305 28.853 26.2409 29.7789 25.4076C33.9996 21.1175 42.9657 12.0203 45.0567 9.95237C47.6725 7.35978 51.6076 3.5249 58.3746 3.5249C64.8792 3.5249 67.2481 5.93231 69.0768 7.28262L82.1015 20.4693C78.3437 24.2965 69.5397 33.4014 69.5397 33.4014C69.5397 33.4014 65.7203 37.3675 57.8808 37.3675C51.2604 37.3675 45.7126 32.1206 43.336 29.4508C45.62 27.0203 50.2342 22.2672 50.3576 22.653C50.5197 23.1391 54.1231 27.5064 58.1663 27.5064C60.8515 27.5064 63.0428 25.1298 63.0428 25.1298L67.7496 20.4693L62.6262 15.1453C62.6262 15.1453 60.9286 13.0234 57.8654 13.0234C55.2496 13.0234 53.1817 14.8058 52.4718 15.6931C48.5521 19.8289 40.1647 28.5172 38.1971 30.2687Z" />
  <path
          fillRule="evenodd"
          clipRule="evenodd"
          d="M126.094 30.3457V40.3457H128.987V37.0124C130.662 37.0124 134.165 36.7114 134.165 33.679C134.165 31.1019 132.035 30.3457 130.816 30.3457H126.094ZM131.426 33.679C131.426 32.4676 129.805 32.267 128.987 32.3133V35.0371C129.797 35.0988 131.426 34.8982 131.426 33.679Z"
        />
  <path
          fillRule="evenodd"
          clipRule="evenodd"
          d="M151.062 40.5001C154.172 40.5001 156.695 38.5943 156.695 35.5001C156.695 32.406 154.172 30.1992 151.062 30.1992C147.953 30.1992 145.43 32.406 145.43 35.5001C145.43 38.5943 147.945 40.5001 151.062 40.5001ZM151.062 38.3782C152.49 38.3782 153.647 37.2594 153.647 35.4384C153.647 33.6174 152.49 32.3211 151.062 32.3211C149.635 32.3211 148.478 33.6174 148.478 35.4384C148.47 37.2594 149.635 38.3782 151.062 38.3782Z"
        />
  <g clipPath="url(#clip0_8541_265406)">
        <path d="M176.93 17.923L177.694 15.8011C177.339 15.5464 176.027 14.8288 173.89 15.0449C170.842 15.3458 170.232 17.3211 170.232 18.5325C170.232 19.744 171.776 21.1174 173.126 21.4106C174.499 21.7116 175.109 22.0202 175.109 22.4677C175.109 22.923 174.345 23.2239 173.28 23.2239C172.424 23.2239 171.305 22.7224 170.842 22.4677L170.078 24.744C170.533 24.9986 171.938 25.531 173.882 25.6545C176.32 25.8088 177.987 24.1421 177.987 22.4754C177.987 20.8088 177.077 20.3535 176.012 19.7517C174.947 19.1421 173.118 18.9955 173.118 18.2393C173.118 17.6298 173.728 17.4832 174.638 17.4832C175.379 17.4677 176.475 17.7764 176.93 17.923Z" />
        <path d="M94.2812 0.5H97.3291V10.5H94.2812V0.5Z" />
        <path d="M121.375 0.5H124.423V10.5H121.375V0.5Z" />
        <path d="M139.031 0.5H142.079V10.5H139.031V0.5Z" />
        <path d="M99.7656 10.5V0.5H103.415L106.764 6.71142V0.5H109.658V10.5H106.155L102.351 3.67901V10.5H99.7656Z" />
        <path d="M115.898 25.3457V15.3457H119.548L122.897 21.5571V15.3457H125.482V25.3457H122.287L118.483 18.5247V25.3457H115.898Z" />
        <path d="M126.852 10.5V0.5H130.501L133.85 6.71142V0.5H136.744V10.5H133.24L129.436 3.67901V10.5H126.852Z" />
        <path d="M112.094 10.5V0.5H119.092V2.77623H114.833V4.58951H118.791V6.71142H114.833V10.5H112.094Z" />
        <path d="M152.733 0.5H143.906V2.92284H146.946V10.8009H149.994V2.92284H152.733V0.5Z" />
        <path d="M144.507 30.1992H135.68V32.6221H138.728V40.5001H141.775V32.6221H144.515V30.1992H144.507Z" />
        <path d="M135.991 15.3457H127.164V17.7685H130.204V25.6543H133.252V17.7763H135.991V15.3457Z" />
        <path d="M156.843 0.654297H153.648L157.152 6.10954V10.5H160.346V6.10954L163.849 0.654297H160.809L158.834 4.28856L156.843 0.654297Z" />
        <path d="M117.569 30.5H114.375L117.878 35.9552V40.3457H121.073V35.9552L124.576 30.5H121.528L119.552 34.1343L117.569 30.5Z" />
        <path d="M97.1808 25.3457L93.5234 15.5H96.7179L99.0018 22.4676L101.286 15.5H104.334L100.676 25.3457H97.1808Z" />
        <path d="M106.156 25.3457V15.3457H113.309V17.6219H109.05V18.9877H113.309V21.4105H109.05V23.2315H113.772V25.3457H106.156Z" />
        <path d="M160.641 25.3457V15.3457H167.793V17.6219H163.534V18.9877H167.793V21.4105H163.534V23.2315H168.256V25.3457H160.641Z" />
        <path d="M141.011 15.3457H138.117V22.3133C138.117 23.5247 139.637 25.6466 142.685 25.6466C145.725 25.6466 147.554 23.8256 147.554 22.3133V15.3457H144.506V21.4105C144.506 22.321 143.897 23.3781 142.677 23.3781C141.458 23.3781 141.003 22.1127 141.003 21.4105V15.3457H141.011Z" />
        <path
          fillRule="evenodd"
          clipRule="evenodd"
          d="M149.992 15.3457V25.5H153.04V21.7114H153.951C154.56 22.1127 155.779 23.4398 155.779 25.5H158.673C158.572 24.1343 158.063 21.1096 156.543 20.6543C158.063 20.3534 158.372 19.2886 158.372 17.9306C158.372 15.5077 155.478 15.3534 155.478 15.3534H149.992V15.3457ZM152.878 17.1667V19.8905C154.097 19.8905 155.617 19.8905 155.617 18.5247C155.617 17.0664 154.213 17.1127 153.256 17.1513C153.117 17.159 152.994 17.1667 152.878 17.1667Z"
        />
        <path
          fillRule="evenodd"
          clipRule="evenodd"
          d="M104.938 30.1992V40.3535H107.978V36.565H108.888C109.498 36.9662 110.717 38.2934 110.717 40.3535H113.61C113.51 38.9878 113.001 35.9631 111.481 35.5079C113.001 35.2069 113.309 34.1421 113.309 32.7841C113.309 30.3613 110.416 30.2069 110.416 30.2069H104.938V30.1992ZM107.823 32.0125V34.7363C109.042 34.7363 110.563 34.7363 110.563 33.3705C110.563 31.9122 109.158 31.9585 108.201 31.9971C108.07 32.0125 107.939 32.0125 107.823 32.0125Z"
        />
        <path d="M102.35 32.6219L102.806 30.5C99.6111 29.5895 94.125 29.7438 94.125 35.3457C94.125 40.6775 99.7577 40.9552 102.806 40.0447L102.35 37.9228C100.576 38.3241 97.0185 38.3781 97.0185 35.3457C97.0262 32.321 100.221 32.0123 102.35 32.6219Z" />
        <path d="M38.1971 30.2687C35.7434 32.4524 31.4842 37.4678 23.5598 37.4678C16.3299 37.4678 11.9471 32.136 11.9471 32.136C11.9471 32.136 3.15856 23.2471 0.21875 20.2687C3.81443 16.5187 11.0212 9.27336 12.1941 8.23941C13.6678 6.94311 17.7728 3.5712 24.0691 3.5712C32.0783 3.5712 35.8052 8.82583 39.015 11.5727L32.0706 18.4477C31.3067 17.6916 29.6555 16.0866 29.1308 15.6931C28.4749 15.207 26.8854 13.386 24.4626 13.386C22.5644 13.386 20.6586 14.3505 20.1416 14.8829L14.3391 20.4693C15.4271 21.4956 17.8345 23.7872 18.7527 24.7595C19.6709 25.7317 22.0706 27.8305 24.0613 27.8305C26.4147 27.8305 28.853 26.2409 29.7789 25.4076C33.9996 21.1175 42.9657 12.0203 45.0567 9.95237C47.6725 7.35978 51.6076 3.5249 58.3746 3.5249C64.8792 3.5249 67.2481 5.93231 69.0768 7.28262L82.1015 20.4693C78.3437 24.2965 69.5397 33.4014 69.5397 33.4014C69.5397 33.4014 65.7203 37.3675 57.8808 37.3675C51.2604 37.3675 45.7126 32.1206 43.336 29.4508C45.62 27.0203 50.2342 22.2672 50.3576 22.653C50.5197 23.1391 54.1231 27.5064 58.1663 27.5064C60.8515 27.5064 63.0428 25.1298 63.0428 25.1298L67.7496 20.4693L62.6262 15.1453C62.6262 15.1453 60.9286 13.0234 57.8654 13.0234C55.2496 13.0234 53.1817 14.8058 52.4718 15.6931C48.5521 19.8289 40.1647 28.5172 38.1971 30.2687Z" />
        <path
          fillRule="evenodd"
          clipRule="evenodd"
          d="M126.094 30.3457V40.3457H128.987V37.0124C130.662 37.0124 134.165 36.7114 134.165 33.679C134.165 31.1019 132.035 30.3457 130.816 30.3457H126.094ZM131.426 33.679C131.426 32.4676 129.805 32.267 128.987 32.3133V35.0371C129.797 35.0988 131.426 34.8982 131.426 33.679Z"
        />
        <path
          fillRule="evenodd"
          clipRule="evenodd"
          d="M151.062 40.5001C154.172 40.5001 156.695 38.5943 156.695 35.5001C156.695 32.406 154.172 30.1992 151.062 30.1992C147.953 30.1992 145.43 32.406 145.43 35.5001C145.43 38.5943 147.945 40.5001 151.062 40.5001ZM151.062 38.3782C152.49 38.3782 153.647 37.2594 153.647 35.4384C153.647 33.6174 152.49 32.3211 151.062 32.3211C149.635 32.3211 148.478 33.6174 148.478 35.4384C148.47 37.2594 149.635 38.3782 151.062 38.3782Z"
        />
      </g>
</svg>