<svg viewBox="0 0 232 41" height="10" width="auto" xmlns="http://www.w3.org/2000/svg">
  <path d="M0.992188 39.7935V1.18701H6.5074V18.557L22.6212 1.20664H29.5692L12.7881 19.3028L32.7881 39.7935H25.0942L6.5074 20.6963V39.7935H0.992188Z" />
  <path d="M36.0625 20.3431C36.0625 17.7719 36.5924 15.2597 37.6327 12.8455C38.6729 10.4314 40.1646 8.27243 42.1076 6.40786C44.0704 4.50403 46.3078 3.07125 48.7809 2.07027C51.2539 1.06929 53.8839 0.578613 56.6121 0.578613C59.3991 0.578613 62.0684 1.08892 64.561 2.0899C67.0733 3.09088 69.2912 4.52366 71.195 6.40786C73.1969 8.35094 74.7082 10.5295 75.7092 12.924C76.7102 15.3186 77.2205 17.9093 77.2205 20.6964C77.2205 23.3264 76.7102 25.8583 75.67 28.2724C74.6297 30.6866 73.1577 32.8259 71.2342 34.6512C69.2323 36.5747 66.9948 38.0075 64.5218 38.9888C62.0488 39.9702 59.3991 40.4609 56.5924 40.4609C53.8446 40.4609 51.2342 39.9505 48.722 38.9496C46.2097 37.9486 43.9918 36.4962 42.088 34.6512C40.1057 32.7278 38.5944 30.5492 37.5738 28.1154C36.5532 25.6817 36.0625 23.0909 36.0625 20.3431ZM41.931 20.5394C41.931 22.5021 42.3039 24.3863 43.0301 26.1723C43.7759 27.9584 44.8162 29.5286 46.2097 30.9221C47.5443 32.296 49.1341 33.3558 50.9398 34.1017C52.7455 34.8475 54.6493 35.2204 56.6121 35.2204C58.6336 35.2204 60.5375 34.8475 62.3039 34.1409C64.0704 33.4147 65.6601 32.3352 67.0537 30.9221C68.4276 29.5482 69.4874 27.9584 70.2333 26.1723C70.9791 24.3863 71.352 22.5217 71.352 20.5394C71.352 18.557 70.9791 16.7121 70.2529 14.9456C69.5071 13.1988 68.4276 11.5894 66.9948 10.137C65.6209 8.72385 64.0311 7.64436 62.245 6.89853C60.459 6.1527 58.5748 5.77979 56.5924 5.77979C54.669 5.77979 52.824 6.15271 51.038 6.91816C49.2519 7.66399 47.6229 8.74348 46.1901 10.137C44.8162 11.4716 43.7563 13.0614 43.0105 14.8475C42.3039 16.6532 41.931 18.5374 41.931 20.5394Z" />
  <path d="M84.2504 36.7905V29.5088C85.9972 31.5108 87.6655 32.9632 89.2553 33.8464C90.8451 34.7296 92.5526 35.1811 94.3387 35.1811C96.2425 35.1811 97.7538 34.7296 98.8529 33.8464C99.9521 32.9632 100.502 31.7463 100.502 30.2154C100.502 28.9593 100.129 27.8602 99.3829 26.9181C98.637 25.976 96.851 24.6021 94.0443 22.816C89.6871 20.0093 86.9589 17.8307 85.8402 16.2802C84.7214 14.7296 84.1719 12.9043 84.1719 10.765C84.1719 7.76202 85.2317 5.30864 87.3515 3.38518C89.4712 1.46173 92.219 0.5 95.5556 0.5C97.0472 0.5 98.5193 0.715898 99.9521 1.14769C101.404 1.57949 102.857 2.24681 104.329 3.14966V9.4107C102.641 8.05643 101.071 7.05545 99.638 6.44701C98.2052 5.83857 96.7725 5.52453 95.3397 5.52453C93.6125 5.52453 92.1994 5.95633 91.1002 6.80029C90.0011 7.64426 89.4516 8.763 89.4516 10.0976C89.4516 12.0211 91.7283 14.3763 96.2622 17.2223C96.6351 17.4382 96.9099 17.6148 97.0865 17.713C100.776 20.0093 103.21 22.0505 104.349 23.7973C105.487 25.5442 106.056 27.7228 106.056 30.3135C106.056 33.2576 104.996 35.6914 102.857 37.6148C100.718 39.5383 97.9893 40.5 94.6527 40.5C92.5723 40.5 90.7077 40.2056 89.0198 39.6168C87.4103 39.0083 85.8009 38.0662 84.2504 36.7905Z" />
  <path d="M115.102 39.7935V1.18701H119.91L133.787 17.4186L147.683 1.18701H152.491V39.7739H147.133V9.66591L133.787 25.2302L120.46 9.66591V39.7935H115.102Z" />
  <path d="M161.484 20.3431C161.484 17.7719 162.014 15.2597 163.055 12.8455C164.095 10.4314 165.586 8.27243 167.53 6.40786C169.492 4.50403 171.73 3.07125 174.203 2.07027C176.676 1.06929 179.306 0.578613 182.034 0.578613C184.821 0.578613 187.49 1.08892 189.983 2.0899C192.495 3.09088 194.713 4.52366 196.617 6.40786C198.619 8.35094 200.13 10.5295 201.131 12.924C202.152 15.3186 202.642 17.9093 202.642 20.6964C202.642 23.3264 202.112 25.8583 201.092 28.2724C200.052 30.6866 198.58 32.8259 196.656 34.6512C194.654 36.5747 192.417 38.0075 189.944 38.9888C187.471 39.9702 184.821 40.4609 182.014 40.4609C179.267 40.4609 176.656 39.9505 174.144 38.9496C171.632 37.9486 169.414 36.4962 167.51 34.6512C165.528 32.7278 164.016 30.5492 162.996 28.1154C161.995 25.7013 161.484 23.0909 161.484 20.3431ZM167.373 20.5394C167.373 22.5021 167.745 24.3863 168.472 26.1723C169.217 27.9584 170.258 29.5286 171.651 30.9221C172.986 32.296 174.576 33.3558 176.381 34.1017C178.187 34.8475 180.091 35.2204 182.054 35.2204C184.075 35.2204 185.979 34.8475 187.745 34.1409C189.512 33.4147 191.102 32.3352 192.495 30.9221C193.869 29.5482 194.929 27.9584 195.675 26.1723C196.421 24.3863 196.793 22.5217 196.793 20.5394C196.793 18.557 196.421 16.7121 195.694 14.9456C194.949 13.1988 193.869 11.5894 192.436 10.137C191.062 8.72385 189.473 7.64436 187.687 6.89853C185.9 6.1527 184.016 5.77979 182.034 5.77979C180.11 5.77979 178.266 6.15271 176.479 6.91816C174.693 7.66399 173.064 8.74348 171.632 10.137C170.258 11.4716 169.198 13.0614 168.452 14.8475C167.726 16.6532 167.373 18.5374 167.373 20.5394Z" />
  <path d="M209.668 36.7905V29.5088C211.415 31.5108 213.083 32.9632 214.673 33.8464C216.263 34.7296 217.971 35.1811 219.757 35.1811C221.66 35.1811 223.172 34.7296 224.29 33.8464C225.39 32.9632 225.939 31.7463 225.939 30.2154C225.939 28.9593 225.566 27.8602 224.82 26.9181C224.075 25.976 222.288 24.6021 219.482 22.816C215.125 20.0093 212.377 17.8307 211.278 16.2802C210.159 14.7296 209.609 12.9043 209.609 10.765C209.609 7.76202 210.669 5.30864 212.789 3.38518C214.909 1.46173 217.656 0.5 220.993 0.5C222.485 0.5 223.957 0.715898 225.39 1.14769C226.842 1.57949 228.294 2.24681 229.766 3.14966V9.4107C228.078 8.05643 226.508 7.05545 225.076 6.44701C223.643 5.83857 222.21 5.52453 220.777 5.52453C219.05 5.52453 217.637 5.95633 216.538 6.80029C215.439 7.64426 214.889 8.763 214.889 10.0976C214.889 12.0211 217.166 14.3763 221.7 17.2223C222.073 17.4382 222.347 17.6148 222.524 17.713C226.214 20.0093 228.648 22.0505 229.786 23.7973C230.924 25.5442 231.494 27.7228 231.494 30.3135C231.494 33.2576 230.434 35.6914 228.294 37.6148C226.155 39.5383 223.427 40.5 220.09 40.5C218.01 40.5 216.126 40.2056 214.457 39.6168C212.828 39.0083 211.219 38.0662 209.668 36.7905Z" />
  <g clipPath="url(#clip0_8541_265600)">
        <path d="M0.992188 39.7935V1.18701H6.5074V18.557L22.6212 1.20664H29.5692L12.7881 19.3028L32.7881 39.7935H25.0942L6.5074 20.6963V39.7935H0.992188Z" />
        <path d="M36.0625 20.3431C36.0625 17.7719 36.5924 15.2597 37.6327 12.8455C38.6729 10.4314 40.1646 8.27243 42.1076 6.40786C44.0704 4.50403 46.3078 3.07125 48.7809 2.07027C51.2539 1.06929 53.8839 0.578613 56.6121 0.578613C59.3991 0.578613 62.0684 1.08892 64.561 2.0899C67.0733 3.09088 69.2912 4.52366 71.195 6.40786C73.1969 8.35094 74.7082 10.5295 75.7092 12.924C76.7102 15.3186 77.2205 17.9093 77.2205 20.6964C77.2205 23.3264 76.7102 25.8583 75.67 28.2724C74.6297 30.6866 73.1577 32.8259 71.2342 34.6512C69.2323 36.5747 66.9948 38.0075 64.5218 38.9888C62.0488 39.9702 59.3991 40.4609 56.5924 40.4609C53.8446 40.4609 51.2342 39.9505 48.722 38.9496C46.2097 37.9486 43.9918 36.4962 42.088 34.6512C40.1057 32.7278 38.5944 30.5492 37.5738 28.1154C36.5532 25.6817 36.0625 23.0909 36.0625 20.3431ZM41.931 20.5394C41.931 22.5021 42.3039 24.3863 43.0301 26.1723C43.7759 27.9584 44.8162 29.5286 46.2097 30.9221C47.5443 32.296 49.1341 33.3558 50.9398 34.1017C52.7455 34.8475 54.6493 35.2204 56.6121 35.2204C58.6336 35.2204 60.5375 34.8475 62.3039 34.1409C64.0704 33.4147 65.6601 32.3352 67.0537 30.9221C68.4276 29.5482 69.4874 27.9584 70.2333 26.1723C70.9791 24.3863 71.352 22.5217 71.352 20.5394C71.352 18.557 70.9791 16.7121 70.2529 14.9456C69.5071 13.1988 68.4276 11.5894 66.9948 10.137C65.6209 8.72385 64.0311 7.64436 62.245 6.89853C60.459 6.1527 58.5748 5.77979 56.5924 5.77979C54.669 5.77979 52.824 6.15271 51.038 6.91816C49.2519 7.66399 47.6229 8.74348 46.1901 10.137C44.8162 11.4716 43.7563 13.0614 43.0105 14.8475C42.3039 16.6532 41.931 18.5374 41.931 20.5394Z" />
        <path d="M84.2504 36.7905V29.5088C85.9972 31.5108 87.6655 32.9632 89.2553 33.8464C90.8451 34.7296 92.5526 35.1811 94.3387 35.1811C96.2425 35.1811 97.7538 34.7296 98.8529 33.8464C99.9521 32.9632 100.502 31.7463 100.502 30.2154C100.502 28.9593 100.129 27.8602 99.3829 26.9181C98.637 25.976 96.851 24.6021 94.0443 22.816C89.6871 20.0093 86.9589 17.8307 85.8402 16.2802C84.7214 14.7296 84.1719 12.9043 84.1719 10.765C84.1719 7.76202 85.2317 5.30864 87.3515 3.38518C89.4712 1.46173 92.219 0.5 95.5556 0.5C97.0472 0.5 98.5193 0.715898 99.9521 1.14769C101.404 1.57949 102.857 2.24681 104.329 3.14966V9.4107C102.641 8.05643 101.071 7.05545 99.638 6.44701C98.2052 5.83857 96.7725 5.52453 95.3397 5.52453C93.6125 5.52453 92.1994 5.95633 91.1002 6.80029C90.0011 7.64426 89.4516 8.763 89.4516 10.0976C89.4516 12.0211 91.7283 14.3763 96.2622 17.2223C96.6351 17.4382 96.9099 17.6148 97.0865 17.713C100.776 20.0093 103.21 22.0505 104.349 23.7973C105.487 25.5442 106.056 27.7228 106.056 30.3135C106.056 33.2576 104.996 35.6914 102.857 37.6148C100.718 39.5383 97.9893 40.5 94.6527 40.5C92.5723 40.5 90.7077 40.2056 89.0198 39.6168C87.4103 39.0083 85.8009 38.0662 84.2504 36.7905Z" />
        <path d="M115.102 39.7935V1.18701H119.91L133.787 17.4186L147.683 1.18701H152.491V39.7739H147.133V9.66591L133.787 25.2302L120.46 9.66591V39.7935H115.102Z" />
        <path d="M161.484 20.3431C161.484 17.7719 162.014 15.2597 163.055 12.8455C164.095 10.4314 165.586 8.27243 167.53 6.40786C169.492 4.50403 171.73 3.07125 174.203 2.07027C176.676 1.06929 179.306 0.578613 182.034 0.578613C184.821 0.578613 187.49 1.08892 189.983 2.0899C192.495 3.09088 194.713 4.52366 196.617 6.40786C198.619 8.35094 200.13 10.5295 201.131 12.924C202.152 15.3186 202.642 17.9093 202.642 20.6964C202.642 23.3264 202.112 25.8583 201.092 28.2724C200.052 30.6866 198.58 32.8259 196.656 34.6512C194.654 36.5747 192.417 38.0075 189.944 38.9888C187.471 39.9702 184.821 40.4609 182.014 40.4609C179.267 40.4609 176.656 39.9505 174.144 38.9496C171.632 37.9486 169.414 36.4962 167.51 34.6512C165.528 32.7278 164.016 30.5492 162.996 28.1154C161.995 25.7013 161.484 23.0909 161.484 20.3431ZM167.373 20.5394C167.373 22.5021 167.745 24.3863 168.472 26.1723C169.217 27.9584 170.258 29.5286 171.651 30.9221C172.986 32.296 174.576 33.3558 176.381 34.1017C178.187 34.8475 180.091 35.2204 182.054 35.2204C184.075 35.2204 185.979 34.8475 187.745 34.1409C189.512 33.4147 191.102 32.3352 192.495 30.9221C193.869 29.5482 194.929 27.9584 195.675 26.1723C196.421 24.3863 196.793 22.5217 196.793 20.5394C196.793 18.557 196.421 16.7121 195.694 14.9456C194.949 13.1988 193.869 11.5894 192.436 10.137C191.062 8.72385 189.473 7.64436 187.687 6.89853C185.9 6.1527 184.016 5.77979 182.034 5.77979C180.11 5.77979 178.266 6.15271 176.479 6.91816C174.693 7.66399 173.064 8.74348 171.632 10.137C170.258 11.4716 169.198 13.0614 168.452 14.8475C167.726 16.6532 167.373 18.5374 167.373 20.5394Z" />
        <path d="M209.668 36.7905V29.5088C211.415 31.5108 213.083 32.9632 214.673 33.8464C216.263 34.7296 217.971 35.1811 219.757 35.1811C221.66 35.1811 223.172 34.7296 224.29 33.8464C225.39 32.9632 225.939 31.7463 225.939 30.2154C225.939 28.9593 225.566 27.8602 224.82 26.9181C224.075 25.976 222.288 24.6021 219.482 22.816C215.125 20.0093 212.377 17.8307 211.278 16.2802C210.159 14.7296 209.609 12.9043 209.609 10.765C209.609 7.76202 210.669 5.30864 212.789 3.38518C214.909 1.46173 217.656 0.5 220.993 0.5C222.485 0.5 223.957 0.715898 225.39 1.14769C226.842 1.57949 228.294 2.24681 229.766 3.14966V9.4107C228.078 8.05643 226.508 7.05545 225.076 6.44701C223.643 5.83857 222.21 5.52453 220.777 5.52453C219.05 5.52453 217.637 5.95633 216.538 6.80029C215.439 7.64426 214.889 8.763 214.889 10.0976C214.889 12.0211 217.166 14.3763 221.7 17.2223C222.073 17.4382 222.347 17.6148 222.524 17.713C226.214 20.0093 228.648 22.0505 229.786 23.7973C230.924 25.5442 231.494 27.7228 231.494 30.3135C231.494 33.2576 230.434 35.6914 228.294 37.6148C226.155 39.5383 223.427 40.5 220.09 40.5C218.01 40.5 216.126 40.2056 214.457 39.6168C212.828 39.0083 211.219 38.0662 209.668 36.7905Z" />
      </g>
</svg>