<svg viewBox="0 0 231 49" height="12" width="auto" xmlns="http://www.w3.org/2000/svg">
  <path d="M28.0991 30.6352C28.0245 30.6352 27.8753 30.7097 27.8753 30.7843C27.7634 30.9335 27.7261 31.0454 27.6888 31.2319C27.4277 32.3881 26.9802 33.5442 26.4207 34.5885C25.9359 35.5582 25.3392 36.4533 24.5932 37.2738C23.6608 38.2808 22.5793 38.9522 21.2739 39.3251C20.5653 39.5489 19.8193 39.6981 19.0734 39.6981C16.2016 39.7354 13.2925 39.6981 10.4207 39.6981C10.3089 39.6981 10.197 39.6608 10.0478 39.6608C10.0478 39.4743 10.0478 39.3251 10.0478 39.1759C10.0478 35.148 10.0478 31.0827 10.0478 27.0547C10.0478 21.3484 10.0478 15.6048 10.0478 9.89855C10.0478 9.78666 10.0478 9.67477 10.0478 9.56289C10.0478 9.4137 10.1224 9.33911 10.2716 9.33911C10.3835 9.33911 10.4953 9.33911 10.5699 9.33911C11.9126 9.33911 13.7774 9.33911 15.0828 9.33911V8.70508C10.5326 8.70508 5.05012 8.70508 0.5 8.70508V9.33911C2.17832 9.33911 3.78205 9.33911 5.49767 9.33911C5.49767 14.4487 5.49767 19.4836 5.49767 24.5559C5.49767 29.5909 5.49767 34.6258 5.49767 39.7354C3.81935 39.7354 2.17832 39.7354 0.537296 39.7354C0.537296 39.9592 0.537296 40.1083 0.537296 40.3321C0.723776 40.3321 0.835664 40.3321 0.984848 40.3321C9.9359 40.3321 19.3718 40.3321 28.3228 40.3321V30.8962C28.3228 30.7843 28.2855 30.6724 28.0991 30.6352Z" />
  <path d="M34.9974 0.5H33.9531V48.5H34.9974V0.5Z" />
  <path d="M60.0997 20.901C59.9878 20.528 59.9132 20.155 59.8386 19.7821C59.3538 18.0292 58.5706 16.4627 57.5263 14.9709C56.8922 14.1131 56.1836 13.3672 55.3631 12.6585C54.6172 12.0245 53.7967 11.5024 52.9762 11.0175C52.0438 10.4954 51.0741 10.0478 50.0298 9.71214C49.1347 9.41377 48.2396 9.11541 47.3445 9.00352C46.6358 8.89163 45.8899 8.77974 45.2186 8.74245C44.7337 8.70515 44.2489 8.66785 43.764 8.66785C42.9808 8.63056 42.1603 8.59326 41.3771 8.59326C40.8922 8.59326 40.3701 8.63056 39.9225 8.66785C39.475 8.70515 39.0647 8.70515 38.6172 8.74245C38.6918 9.30189 38.6918 9.33918 39.2139 9.33918C39.8107 9.33918 40.4074 9.26459 41.0041 9.26459C42.3841 9.26459 43.764 9.26459 45.144 9.48837C45.778 9.63755 46.4121 9.71214 47.0461 9.89862C47.8293 10.1224 48.5752 10.4581 49.3211 10.831C50.179 11.3159 50.9622 11.8753 51.6335 12.5466C52.6778 13.5909 53.3864 14.7844 53.9459 16.0898C54.5426 17.5443 54.8783 19.0734 55.0647 20.6026C55.0647 20.7518 55.102 21.162 55.102 21.162C55.4004 24.6679 55.1766 27.3532 55.1766 27.3532C55.1766 27.3532 55.1393 27.5769 55.1393 27.6515C55.0274 28.4721 54.9156 29.2926 54.7664 30.1131C54.5426 31.1574 54.2442 32.1271 53.7967 33.0968C53.4983 33.7308 53.1626 34.3648 52.827 34.9989C52.4167 35.7821 51.8573 36.4534 51.2605 37.0874C50.0671 38.2063 48.6498 38.9895 47.0834 39.3998C46.0391 39.6609 44.9202 39.7728 43.8759 39.8473C42.8316 39.9219 41.7874 39.8846 40.7431 39.8846C40.1463 39.8846 39.5869 39.8846 38.9529 39.8846C38.7664 40.2949 38.8037 40.3695 39.2512 40.4068C39.5496 40.4441 39.848 40.4814 40.1463 40.4814C42.0857 40.5187 44.0251 40.556 45.9645 40.4068C46.8969 40.3322 47.792 40.183 48.6871 39.9965C49.8433 39.7355 50.9995 39.2879 52.0438 38.7285C52.9016 38.2809 53.7221 37.7588 54.5426 37.1993C55.7361 36.3788 56.7431 35.3345 57.6009 34.2156C58.3095 33.2086 58.9435 32.2017 59.4284 31.0828C59.8759 30.0012 60.1743 28.8823 60.3981 27.7634C60.4354 27.5396 60.4354 27.4278 60.4354 27.4278C60.8456 24.2949 60.2862 21.1993 60.2862 21.1993C60.137 21.1247 60.0997 20.901 60.0997 20.901Z" />
  <path d="M89.4533 36.9756C83.7843 36.9756 79.1596 32.3509 79.1596 26.6819C79.1596 21.0129 83.7843 16.3882 89.4533 16.3882C92.176 16.3882 94.7121 17.4324 96.6515 19.3345L98.2179 17.7308C95.8683 15.4185 92.7354 14.1504 89.4533 14.1504C82.5536 14.1504 76.9219 19.7821 76.9219 26.6819C76.9219 33.5816 82.5536 39.2133 89.4533 39.2133C92.81 39.2133 95.9429 37.908 98.2925 35.5583L96.7261 33.9919C94.7867 35.894 92.176 36.9756 89.4533 36.9756Z" />
  <path d="M158.558 14.4858H156.32V38.5791H158.558V14.4858Z" />
  <path d="M164.305 16.5H172.957V38.5792H175.195V16.5H183.848V14.2622H164.305V16.5Z" />
  <path d="M216.332 36.3787V14.374H214.094V38.6164H230.056V36.3787H216.332Z" />
  <path d="M140.697 14.2622H130.516V15.3811V30.9708V38.5792H132.753V30.9708H140.697C145.285 30.9708 149.052 27.2412 149.052 22.6165C149.052 17.9918 145.322 14.2622 140.697 14.2622ZM140.697 28.7331H132.753V16.5H140.697C144.054 16.5 146.814 19.2599 146.814 22.6165C146.814 25.9732 144.091 28.7331 140.697 28.7331Z" />
  <path d="M111.863 14.4487L101.047 38.6912H103.508L106.418 32.1643H119.919L122.902 38.6912H125.364L114.287 14.4487H111.863ZM107.424 29.9266L113.056 17.2086L118.874 29.9266H107.424Z" />
  <path d="M194.925 14.374L184.109 38.6164H186.571L189.48 32.0896H202.981L205.965 38.6164H208.426L197.349 14.374H194.925ZM190.487 29.8892L196.156 17.1712L201.974 29.8892H190.487Z" />
  <g clipPath="url(#clip0_8541_265607)">
        <path d="M28.0991 30.6352C28.0245 30.6352 27.8753 30.7097 27.8753 30.7843C27.7634 30.9335 27.7261 31.0454 27.6888 31.2319C27.4277 32.3881 26.9802 33.5442 26.4207 34.5885C25.9359 35.5582 25.3392 36.4533 24.5932 37.2738C23.6608 38.2808 22.5793 38.9522 21.2739 39.3251C20.5653 39.5489 19.8193 39.6981 19.0734 39.6981C16.2016 39.7354 13.2925 39.6981 10.4207 39.6981C10.3089 39.6981 10.197 39.6608 10.0478 39.6608C10.0478 39.4743 10.0478 39.3251 10.0478 39.1759C10.0478 35.148 10.0478 31.0827 10.0478 27.0547C10.0478 21.3484 10.0478 15.6048 10.0478 9.89855C10.0478 9.78666 10.0478 9.67477 10.0478 9.56289C10.0478 9.4137 10.1224 9.33911 10.2716 9.33911C10.3835 9.33911 10.4953 9.33911 10.5699 9.33911C11.9126 9.33911 13.7774 9.33911 15.0828 9.33911V8.70508C10.5326 8.70508 5.05012 8.70508 0.5 8.70508V9.33911C2.17832 9.33911 3.78205 9.33911 5.49767 9.33911C5.49767 14.4487 5.49767 19.4836 5.49767 24.5559C5.49767 29.5909 5.49767 34.6258 5.49767 39.7354C3.81935 39.7354 2.17832 39.7354 0.537296 39.7354C0.537296 39.9592 0.537296 40.1083 0.537296 40.3321C0.723776 40.3321 0.835664 40.3321 0.984848 40.3321C9.9359 40.3321 19.3718 40.3321 28.3228 40.3321V30.8962C28.3228 30.7843 28.2855 30.6724 28.0991 30.6352Z" />
        <path d="M34.9974 0.5H33.9531V48.5H34.9974V0.5Z" />
        <path d="M60.0997 20.901C59.9878 20.528 59.9132 20.155 59.8386 19.7821C59.3538 18.0292 58.5706 16.4627 57.5263 14.9709C56.8922 14.1131 56.1836 13.3672 55.3631 12.6585C54.6172 12.0245 53.7967 11.5024 52.9762 11.0175C52.0438 10.4954 51.0741 10.0478 50.0298 9.71214C49.1347 9.41377 48.2396 9.11541 47.3445 9.00352C46.6358 8.89163 45.8899 8.77974 45.2186 8.74245C44.7337 8.70515 44.2489 8.66785 43.764 8.66785C42.9808 8.63056 42.1603 8.59326 41.3771 8.59326C40.8922 8.59326 40.3701 8.63056 39.9225 8.66785C39.475 8.70515 39.0647 8.70515 38.6172 8.74245C38.6918 9.30189 38.6918 9.33918 39.2139 9.33918C39.8107 9.33918 40.4074 9.26459 41.0041 9.26459C42.3841 9.26459 43.764 9.26459 45.144 9.48837C45.778 9.63755 46.4121 9.71214 47.0461 9.89862C47.8293 10.1224 48.5752 10.4581 49.3211 10.831C50.179 11.3159 50.9622 11.8753 51.6335 12.5466C52.6778 13.5909 53.3864 14.7844 53.9459 16.0898C54.5426 17.5443 54.8783 19.0734 55.0647 20.6026C55.0647 20.7518 55.102 21.162 55.102 21.162C55.4004 24.6679 55.1766 27.3532 55.1766 27.3532C55.1766 27.3532 55.1393 27.5769 55.1393 27.6515C55.0274 28.4721 54.9156 29.2926 54.7664 30.1131C54.5426 31.1574 54.2442 32.1271 53.7967 33.0968C53.4983 33.7308 53.1626 34.3648 52.827 34.9989C52.4167 35.7821 51.8573 36.4534 51.2605 37.0874C50.0671 38.2063 48.6498 38.9895 47.0834 39.3998C46.0391 39.6609 44.9202 39.7728 43.8759 39.8473C42.8316 39.9219 41.7874 39.8846 40.7431 39.8846C40.1463 39.8846 39.5869 39.8846 38.9529 39.8846C38.7664 40.2949 38.8037 40.3695 39.2512 40.4068C39.5496 40.4441 39.848 40.4814 40.1463 40.4814C42.0857 40.5187 44.0251 40.556 45.9645 40.4068C46.8969 40.3322 47.792 40.183 48.6871 39.9965C49.8433 39.7355 50.9995 39.2879 52.0438 38.7285C52.9016 38.2809 53.7221 37.7588 54.5426 37.1993C55.7361 36.3788 56.7431 35.3345 57.6009 34.2156C58.3095 33.2086 58.9435 32.2017 59.4284 31.0828C59.8759 30.0012 60.1743 28.8823 60.3981 27.7634C60.4354 27.5396 60.4354 27.4278 60.4354 27.4278C60.8456 24.2949 60.2862 21.1993 60.2862 21.1993C60.137 21.1247 60.0997 20.901 60.0997 20.901Z" />
        <path d="M89.4533 36.9756C83.7843 36.9756 79.1596 32.3509 79.1596 26.6819C79.1596 21.0129 83.7843 16.3882 89.4533 16.3882C92.176 16.3882 94.7121 17.4324 96.6515 19.3345L98.2179 17.7308C95.8683 15.4185 92.7354 14.1504 89.4533 14.1504C82.5536 14.1504 76.9219 19.7821 76.9219 26.6819C76.9219 33.5816 82.5536 39.2133 89.4533 39.2133C92.81 39.2133 95.9429 37.908 98.2925 35.5583L96.7261 33.9919C94.7867 35.894 92.176 36.9756 89.4533 36.9756Z" />
        <path d="M158.558 14.4858H156.32V38.5791H158.558V14.4858Z" />
        <path d="M164.305 16.5H172.957V38.5792H175.195V16.5H183.848V14.2622H164.305V16.5Z" />
        <path d="M216.332 36.3787V14.374H214.094V38.6164H230.056V36.3787H216.332Z" />
        <path d="M140.697 14.2622H130.516V15.3811V30.9708V38.5792H132.753V30.9708H140.697C145.285 30.9708 149.052 27.2412 149.052 22.6165C149.052 17.9918 145.322 14.2622 140.697 14.2622ZM140.697 28.7331H132.753V16.5H140.697C144.054 16.5 146.814 19.2599 146.814 22.6165C146.814 25.9732 144.091 28.7331 140.697 28.7331Z" />
        <path d="M111.863 14.4487L101.047 38.6912H103.508L106.418 32.1643H119.919L122.902 38.6912H125.364L114.287 14.4487H111.863ZM107.424 29.9266L113.056 17.2086L118.874 29.9266H107.424Z" />
        <path d="M194.925 14.374L184.109 38.6164H186.571L189.48 32.0896H202.981L205.965 38.6164H208.426L197.349 14.374H194.925ZM190.487 29.8892L196.156 17.1712L201.974 29.8892H190.487Z" />
      </g>
</svg>