<svg viewBox="0 0 154 49" height="12" width="auto" xmlns="http://www.w3.org/2000/svg">
  <path d="M98.494 22.7627V20.1444H99.5315V19.2183H96.2656V20.1444H97.3032V22.7627H98.494Z" />
  <path d="M124.581 21.8714H124.901L125.5 22.7627H126.774L126.029 21.6694C126.245 21.558 126.412 21.4118 126.523 21.2168C126.635 21.0288 126.697 20.806 126.697 20.5553C126.697 20.2837 126.635 20.0469 126.503 19.845C126.37 19.643 126.182 19.4898 125.938 19.3784C125.695 19.267 125.409 19.2183 125.082 19.2183H123.383V22.7627H124.581V21.8714ZM124.581 20.1444H125.012C125.172 20.1444 125.298 20.1792 125.374 20.2558C125.458 20.3324 125.493 20.4299 125.493 20.5622C125.493 20.6945 125.451 20.799 125.374 20.8686C125.291 20.9452 125.172 20.9801 125.012 20.9801H124.581V20.1444Z" />
  <path d="M109.57 19.2183V21.1681C109.57 21.6973 109.724 22.1082 110.023 22.4006C110.329 22.6931 110.747 22.8393 111.29 22.8393C111.833 22.8393 112.258 22.6931 112.558 22.4006C112.864 22.1082 113.01 21.6973 113.01 21.1681V19.2183H111.833V21.1332C111.833 21.3909 111.785 21.5789 111.694 21.6973C111.604 21.8157 111.464 21.8714 111.29 21.8714C111.116 21.8714 110.977 21.8157 110.886 21.6973C110.796 21.5789 110.747 21.3909 110.747 21.1332V19.2183H109.57Z" />
  <path d="M106.42 14.9705V7.28271H100.243C99.6234 7.28271 99.1011 7.49859 98.6624 7.93729C98.2237 8.36903 98.0078 8.89827 98.0078 9.51106V14.9705H99.7766V9.49713C99.7766 9.37179 99.8253 9.26037 99.9158 9.16985C100.006 9.07932 100.118 9.03057 100.243 9.03057H104.651V14.9636L106.42 14.9705Z" />
  <path d="M122.756 13.0625C122.652 13.1669 122.527 13.2227 122.38 13.2227H116.663V14.9775H122.589C123.188 14.9775 123.71 14.7546 124.149 14.309C124.574 13.8842 124.79 13.348 124.79 12.7143L124.783 10.3049H118.307V9.55284C118.307 9.44143 118.362 9.32305 118.481 9.20466C118.585 9.10021 118.711 9.0445 118.857 9.0445H124.783V7.28271H118.857C118.258 7.28271 117.736 7.50555 117.297 7.94426C116.872 8.36903 116.656 8.90523 116.656 9.53892V11.9414H122.923V12.7561C122.91 12.8605 122.854 12.958 122.756 13.0625Z" />
  <path d="M152.963 10.3397V7.28271H146.626C146.006 7.28271 145.484 7.50555 145.052 7.94426C144.613 8.38993 144.391 8.91219 144.391 9.51803V14.9705H146.145V12.5541H149.822L151.11 14.9705H152.858L151.577 12.4079C151.849 12.2965 152.099 12.1294 152.322 11.9065C152.747 11.4818 152.963 10.9595 152.963 10.3397ZM151.208 10.3397C151.208 10.479 151.166 10.5835 151.09 10.667C150.999 10.7575 150.895 10.7993 150.776 10.7993H146.152V9.52499C146.152 9.39965 146.201 9.28823 146.299 9.19074C146.389 9.09325 146.501 9.0445 146.633 9.0445H151.208V10.3397Z" />
  <path d="M130.899 14.9705V9.03754H134.082V7.28271H125.844V9.03754H129.138V14.9705H130.899Z" />
  <path d="M151.885 21.8853C151.816 21.9201 151.697 21.934 151.53 21.934C151.335 21.934 151.14 21.9061 150.931 21.8435C150.723 21.7878 150.534 21.7042 150.367 21.6067L149.984 22.4772C150.165 22.5886 150.395 22.6791 150.674 22.7418C150.952 22.8044 151.238 22.8393 151.53 22.8393C151.885 22.8393 152.185 22.7836 152.436 22.6791C152.686 22.5746 152.867 22.4284 152.993 22.2474C153.118 22.0663 153.181 21.8644 153.181 21.6415C153.181 21.3839 153.111 21.1819 152.979 21.0357C152.839 20.8895 152.679 20.778 152.498 20.7154C152.31 20.6527 152.087 20.59 151.816 20.5413C151.607 20.4995 151.454 20.4647 151.363 20.4299C151.273 20.395 151.224 20.3393 151.224 20.2697C151.224 20.1235 151.377 20.0469 151.683 20.0469C151.997 20.0469 152.324 20.1374 152.672 20.3115L153.034 19.448C152.853 19.3435 152.651 19.2669 152.415 19.2182C152.178 19.1625 151.941 19.1416 151.697 19.1416C151.342 19.1416 151.043 19.1973 150.792 19.3018C150.541 19.4062 150.36 19.5525 150.235 19.7335C150.11 19.9146 150.047 20.1165 150.047 20.3393C150.047 20.597 150.117 20.7989 150.249 20.9521C150.381 21.0984 150.541 21.2098 150.723 21.2725C150.904 21.3351 151.133 21.3978 151.405 21.4535C151.614 21.4953 151.767 21.5371 151.865 21.5719C151.955 21.6067 152.004 21.6624 152.004 21.739C151.99 21.8087 151.955 21.8574 151.885 21.8853Z" />
  <path d="M143.337 14.9705V7.28271H137.362C136.763 7.28271 136.234 7.50555 135.788 7.96515C135.356 8.39689 135.141 8.93308 135.141 9.56677V14.9705H136.895V13.0207H141.582V14.9705H143.337ZM136.895 11.2659V9.45535C136.895 9.34394 136.944 9.24645 137.035 9.15592C137.118 9.07932 137.23 9.03754 137.369 9.03754H141.582V11.2659H136.895Z" />
  <path d="M139.852 20.1234V19.2251H136.969V22.7696H139.914V21.8643H138.146V21.3977H139.643V20.5343H138.146V20.1164H139.852V20.1234Z" />
  <path d="M115.603 11.1266H113.848V13.2227H109.231V9.54588C109.231 9.41357 109.28 9.29519 109.385 9.1977C109.489 9.09325 109.6 9.03754 109.726 9.03754H115.276V7.28271H109.726C109.113 7.28271 108.584 7.50555 108.138 7.94426C107.692 8.38993 107.477 8.91916 107.477 9.53892V14.9636H115.603V11.1266Z" />
  <path d="M74.4086 14.295C74.8403 13.8633 75.0562 13.3271 75.0562 12.6934V7.28271H68.8308C68.2319 7.28271 67.7027 7.50555 67.257 7.96515C66.8252 8.39689 66.6094 8.93308 66.6094 9.56677V12.6934C66.6094 13.3271 66.8252 13.8633 67.257 14.295C67.7096 14.7477 68.2319 14.9775 68.8308 14.9775H72.8279C73.4337 14.9705 73.956 14.7477 74.4086 14.295ZM69.3739 13.2157L68.8377 13.2227C68.6985 13.2227 68.587 13.1878 68.5035 13.1043C68.4129 13.0068 68.3642 12.9093 68.3642 12.8048V9.44839C68.3642 9.34394 68.4129 9.24645 68.5035 9.14896C68.587 9.07236 68.6985 9.03058 68.8377 9.03058H69.3739V9.03754H73.3014V12.8048C73.3014 12.9093 73.2526 13.0068 73.1621 13.1043C73.0785 13.1809 72.9671 13.2227 72.8279 13.2227H72.2917V13.2157H69.3739Z" />
  <path d="M96.9579 7.28271H95.2031V14.9705H96.9579V7.28271Z" />
  <path d="M72.297 20.1234V19.2251H69.4141V22.7696H72.3597V21.8643H70.5909V21.3977H72.0881V20.5343H70.5909V20.1164H72.297V20.1234Z" />
  <path d="M56.6016 19.2183H55.3203L56.8175 22.7627H57.9943L59.4915 19.2183H58.3147L57.4512 21.2864L56.6016 19.2183Z" />
  <path d="M65.5564 14.9705V7.28271H57.6737C57.0539 7.28271 56.5316 7.49859 56.0999 7.93729C55.6612 8.36903 55.4453 8.89827 55.4453 9.51106V14.9705H57.2141V9.49713C57.2141 9.37179 57.2628 9.26037 57.3533 9.16985C57.4439 9.07932 57.5553 9.03057 57.6806 9.03057H59.6304V14.9636H61.3853V9.03057H63.7877V14.9636L65.5564 14.9705Z" />
  <path d="M83.8035 21.1541L85.1475 22.7627H86.1294V19.2183H84.9665V20.8338L83.6225 19.2252H82.6406V22.7697H83.8035V21.1541Z" />
  <path d="M94.1472 14.9705V7.28271H87.9705C87.3508 7.28271 86.8285 7.49859 86.3968 7.93729C85.9581 8.36903 85.7422 8.89827 85.7422 9.51106V14.9705H87.5109V9.49713C87.5109 9.37179 87.5597 9.26037 87.6502 9.16985C87.7407 9.07932 87.8522 9.03057 87.9775 9.03057H92.3855V14.9636L94.1472 14.9705Z" />
  <path d="M84.6816 10.3397V7.28271H78.3447C77.7249 7.28271 77.2027 7.50555 76.7709 7.94426C76.3322 8.38993 76.1094 8.91219 76.1094 9.51803V14.9705H77.8642V12.5541H81.541L82.8292 14.9705H84.5841L83.3028 12.4079C83.5743 12.2965 83.825 12.1294 84.0479 11.9065C84.4726 11.4818 84.6816 10.9595 84.6816 10.3397ZM82.9267 10.3397C82.9267 10.479 82.885 10.5835 82.8084 10.667C82.7178 10.7575 82.6134 10.7993 82.495 10.7993H77.8712V9.52499C77.8712 9.39965 77.9199 9.28823 78.0174 9.19074C78.1079 9.09325 78.2193 9.0445 78.3517 9.0445H82.9267V10.3397Z" />
  <path d="M31.0357 19.3504L0.0546875 48.5L29.2043 17.519C30.7362 15.8895 30.792 13.3757 29.3366 11.6835L19.7338 0.5L31.0496 10.2142C32.6861 11.6208 35.1024 11.6208 36.7389 10.2142L48.0547 0.5L38.3405 11.8158C36.9338 13.4523 36.9338 15.8686 38.3405 17.5051L48.0547 28.8209L36.8712 19.2181C35.179 17.7627 32.6582 17.8184 31.0357 19.3504Z" />
  <g clipPath="url(#clip0_8541_265630)">
        <path d="M98.494 22.7627V20.1444H99.5315V19.2183H96.2656V20.1444H97.3032V22.7627H98.494Z" />
        <path d="M124.581 21.8714H124.901L125.5 22.7627H126.774L126.029 21.6694C126.245 21.558 126.412 21.4118 126.523 21.2168C126.635 21.0288 126.697 20.806 126.697 20.5553C126.697 20.2837 126.635 20.0469 126.503 19.845C126.37 19.643 126.182 19.4898 125.938 19.3784C125.695 19.267 125.409 19.2183 125.082 19.2183H123.383V22.7627H124.581V21.8714ZM124.581 20.1444H125.012C125.172 20.1444 125.298 20.1792 125.374 20.2558C125.458 20.3324 125.493 20.4299 125.493 20.5622C125.493 20.6945 125.451 20.799 125.374 20.8686C125.291 20.9452 125.172 20.9801 125.012 20.9801H124.581V20.1444Z" />
        <path d="M109.57 19.2183V21.1681C109.57 21.6973 109.724 22.1082 110.023 22.4006C110.329 22.6931 110.747 22.8393 111.29 22.8393C111.833 22.8393 112.258 22.6931 112.558 22.4006C112.864 22.1082 113.01 21.6973 113.01 21.1681V19.2183H111.833V21.1332C111.833 21.3909 111.785 21.5789 111.694 21.6973C111.604 21.8157 111.464 21.8714 111.29 21.8714C111.116 21.8714 110.977 21.8157 110.886 21.6973C110.796 21.5789 110.747 21.3909 110.747 21.1332V19.2183H109.57Z" />
        <path d="M106.42 14.9705V7.28271H100.243C99.6234 7.28271 99.1011 7.49859 98.6624 7.93729C98.2237 8.36903 98.0078 8.89827 98.0078 9.51106V14.9705H99.7766V9.49713C99.7766 9.37179 99.8253 9.26037 99.9158 9.16985C100.006 9.07932 100.118 9.03057 100.243 9.03057H104.651V14.9636L106.42 14.9705Z" />
        <path d="M122.756 13.0625C122.652 13.1669 122.527 13.2227 122.38 13.2227H116.663V14.9775H122.589C123.188 14.9775 123.71 14.7546 124.149 14.309C124.574 13.8842 124.79 13.348 124.79 12.7143L124.783 10.3049H118.307V9.55284C118.307 9.44143 118.362 9.32305 118.481 9.20466C118.585 9.10021 118.711 9.0445 118.857 9.0445H124.783V7.28271H118.857C118.258 7.28271 117.736 7.50555 117.297 7.94426C116.872 8.36903 116.656 8.90523 116.656 9.53892V11.9414H122.923V12.7561C122.91 12.8605 122.854 12.958 122.756 13.0625Z" />
        <path d="M152.963 10.3397V7.28271H146.626C146.006 7.28271 145.484 7.50555 145.052 7.94426C144.613 8.38993 144.391 8.91219 144.391 9.51803V14.9705H146.145V12.5541H149.822L151.11 14.9705H152.858L151.577 12.4079C151.849 12.2965 152.099 12.1294 152.322 11.9065C152.747 11.4818 152.963 10.9595 152.963 10.3397ZM151.208 10.3397C151.208 10.479 151.166 10.5835 151.09 10.667C150.999 10.7575 150.895 10.7993 150.776 10.7993H146.152V9.52499C146.152 9.39965 146.201 9.28823 146.299 9.19074C146.389 9.09325 146.501 9.0445 146.633 9.0445H151.208V10.3397Z" />
        <path d="M130.899 14.9705V9.03754H134.082V7.28271H125.844V9.03754H129.138V14.9705H130.899Z" />
        <path d="M151.885 21.8853C151.816 21.9201 151.697 21.934 151.53 21.934C151.335 21.934 151.14 21.9061 150.931 21.8435C150.723 21.7878 150.534 21.7042 150.367 21.6067L149.984 22.4772C150.165 22.5886 150.395 22.6791 150.674 22.7418C150.952 22.8044 151.238 22.8393 151.53 22.8393C151.885 22.8393 152.185 22.7836 152.436 22.6791C152.686 22.5746 152.867 22.4284 152.993 22.2474C153.118 22.0663 153.181 21.8644 153.181 21.6415C153.181 21.3839 153.111 21.1819 152.979 21.0357C152.839 20.8895 152.679 20.778 152.498 20.7154C152.31 20.6527 152.087 20.59 151.816 20.5413C151.607 20.4995 151.454 20.4647 151.363 20.4299C151.273 20.395 151.224 20.3393 151.224 20.2697C151.224 20.1235 151.377 20.0469 151.683 20.0469C151.997 20.0469 152.324 20.1374 152.672 20.3115L153.034 19.448C152.853 19.3435 152.651 19.2669 152.415 19.2182C152.178 19.1625 151.941 19.1416 151.697 19.1416C151.342 19.1416 151.043 19.1973 150.792 19.3018C150.541 19.4062 150.36 19.5525 150.235 19.7335C150.11 19.9146 150.047 20.1165 150.047 20.3393C150.047 20.597 150.117 20.7989 150.249 20.9521C150.381 21.0984 150.541 21.2098 150.723 21.2725C150.904 21.3351 151.133 21.3978 151.405 21.4535C151.614 21.4953 151.767 21.5371 151.865 21.5719C151.955 21.6067 152.004 21.6624 152.004 21.739C151.99 21.8087 151.955 21.8574 151.885 21.8853Z" />
        <path d="M143.337 14.9705V7.28271H137.362C136.763 7.28271 136.234 7.50555 135.788 7.96515C135.356 8.39689 135.141 8.93308 135.141 9.56677V14.9705H136.895V13.0207H141.582V14.9705H143.337ZM136.895 11.2659V9.45535C136.895 9.34394 136.944 9.24645 137.035 9.15592C137.118 9.07932 137.23 9.03754 137.369 9.03754H141.582V11.2659H136.895Z" />
        <path d="M139.852 20.1234V19.2251H136.969V22.7696H139.914V21.8643H138.146V21.3977H139.643V20.5343H138.146V20.1164H139.852V20.1234Z" />
        <path d="M115.603 11.1266H113.848V13.2227H109.231V9.54588C109.231 9.41357 109.28 9.29519 109.385 9.1977C109.489 9.09325 109.6 9.03754 109.726 9.03754H115.276V7.28271H109.726C109.113 7.28271 108.584 7.50555 108.138 7.94426C107.692 8.38993 107.477 8.91916 107.477 9.53892V14.9636H115.603V11.1266Z" />
        <path d="M74.4086 14.295C74.8403 13.8633 75.0562 13.3271 75.0562 12.6934V7.28271H68.8308C68.2319 7.28271 67.7027 7.50555 67.257 7.96515C66.8252 8.39689 66.6094 8.93308 66.6094 9.56677V12.6934C66.6094 13.3271 66.8252 13.8633 67.257 14.295C67.7096 14.7477 68.2319 14.9775 68.8308 14.9775H72.8279C73.4337 14.9705 73.956 14.7477 74.4086 14.295ZM69.3739 13.2157L68.8377 13.2227C68.6985 13.2227 68.587 13.1878 68.5035 13.1043C68.4129 13.0068 68.3642 12.9093 68.3642 12.8048V9.44839C68.3642 9.34394 68.4129 9.24645 68.5035 9.14896C68.587 9.07236 68.6985 9.03058 68.8377 9.03058H69.3739V9.03754H73.3014V12.8048C73.3014 12.9093 73.2526 13.0068 73.1621 13.1043C73.0785 13.1809 72.9671 13.2227 72.8279 13.2227H72.2917V13.2157H69.3739Z" />
        <path d="M96.9579 7.28271H95.2031V14.9705H96.9579V7.28271Z" />
        <path d="M72.297 20.1234V19.2251H69.4141V22.7696H72.3597V21.8643H70.5909V21.3977H72.0881V20.5343H70.5909V20.1164H72.297V20.1234Z" />
        <path d="M56.6016 19.2183H55.3203L56.8175 22.7627H57.9943L59.4915 19.2183H58.3147L57.4512 21.2864L56.6016 19.2183Z" />
        <path d="M65.5564 14.9705V7.28271H57.6737C57.0539 7.28271 56.5316 7.49859 56.0999 7.93729C55.6612 8.36903 55.4453 8.89827 55.4453 9.51106V14.9705H57.2141V9.49713C57.2141 9.37179 57.2628 9.26037 57.3533 9.16985C57.4439 9.07932 57.5553 9.03057 57.6806 9.03057H59.6304V14.9636H61.3853V9.03057H63.7877V14.9636L65.5564 14.9705Z" />
        <path d="M83.8035 21.1541L85.1475 22.7627H86.1294V19.2183H84.9665V20.8338L83.6225 19.2252H82.6406V22.7697H83.8035V21.1541Z" />
        <path d="M94.1472 14.9705V7.28271H87.9705C87.3508 7.28271 86.8285 7.49859 86.3968 7.93729C85.9581 8.36903 85.7422 8.89827 85.7422 9.51106V14.9705H87.5109V9.49713C87.5109 9.37179 87.5597 9.26037 87.6502 9.16985C87.7407 9.07932 87.8522 9.03057 87.9775 9.03057H92.3855V14.9636L94.1472 14.9705Z" />
        <path d="M84.6816 10.3397V7.28271H78.3447C77.7249 7.28271 77.2027 7.50555 76.7709 7.94426C76.3322 8.38993 76.1094 8.91219 76.1094 9.51803V14.9705H77.8642V12.5541H81.541L82.8292 14.9705H84.5841L83.3028 12.4079C83.5743 12.2965 83.825 12.1294 84.0479 11.9065C84.4726 11.4818 84.6816 10.9595 84.6816 10.3397ZM82.9267 10.3397C82.9267 10.479 82.885 10.5835 82.8084 10.667C82.7178 10.7575 82.6134 10.7993 82.495 10.7993H77.8712V9.52499C77.8712 9.39965 77.9199 9.28823 78.0174 9.19074C78.1079 9.09325 78.2193 9.0445 78.3517 9.0445H82.9267V10.3397Z" />
        <path d="M31.0357 19.3504L0.0546875 48.5L29.2043 17.519C30.7362 15.8895 30.792 13.3757 29.3366 11.6835L19.7338 0.5L31.0496 10.2142C32.6861 11.6208 35.1024 11.6208 36.7389 10.2142L48.0547 0.5L38.3405 11.8158C36.9338 13.4523 36.9338 15.8686 38.3405 17.5051L48.0547 28.8209L36.8712 19.2181C35.179 17.7627 32.6582 17.8184 31.0357 19.3504Z" />
      </g>
</svg>