<svg viewBox="0 0 273 31" height="30px" width="auto" xmlns="http://www.w3.org/2000/svg">
  <path d="M4.83696 3.21028L0.164062 0.5V25.0794L4.83696 27.7897L9.50986 30.5V5.92056L4.83696 3.21028Z" />
  <path d="M18.8526 3.21028L14.1797 0.5V25.0794L18.8526 27.7897L23.5255 30.5V5.92056L18.8526 3.21028Z" />
  <path d="M32.7823 3.21028L28.1094 0.5V25.0794L32.7823 27.7897L37.4552 30.5V5.92056L32.7823 3.21028Z" />
  <path d="M63.718 4.89258H69.419V28.5374H63.718L54.1853 13.6776V28.5374H48.4844V4.89258H54.1853L63.718 19.7524V4.89258Z" />
  <path d="M76.8951 25.2663C74.5587 23.0233 73.3438 20.1261 73.3438 16.6682C73.3438 13.2102 74.5587 10.313 76.8951 8.07005C79.2316 5.82706 82.1288 4.70557 85.4933 4.70557C88.1101 4.70557 90.4466 5.35977 92.5026 6.76164C94.5587 8.16351 95.9606 10.0327 96.8017 12.556H89.8858C88.9512 10.7803 87.5494 9.84575 85.5867 9.84575C83.6241 9.84575 82.0353 10.5 80.9138 11.7149C79.7923 12.9299 79.2316 14.6121 79.2316 16.6682C79.2316 18.7243 79.7923 20.4065 80.9138 21.6215C82.0353 22.8364 83.5307 23.4906 85.4933 23.4906C86.8952 23.4906 88.0166 23.1168 88.8578 22.4626C89.6989 21.8084 90.2596 20.8738 90.54 19.7523H83.9045V15.3598H96.7082V19.7523C96.2409 21.9018 95.1194 23.8644 93.1568 25.7336C92.2222 26.6682 91.1008 27.3224 89.7923 27.8831C88.4839 28.4439 86.9886 28.7243 85.4933 28.7243C82.1288 28.7243 79.2316 27.6028 76.8951 25.2663Z" />
  <path d="M104.184 25.2663C101.848 23.0233 100.633 20.1261 100.633 16.6682C100.633 13.2102 101.848 10.313 104.184 8.07005C106.521 5.82706 109.418 4.70557 112.782 4.70557C115.399 4.70557 117.736 5.35977 119.792 6.76164C121.848 8.16351 123.25 10.0327 124.091 12.556H117.268C116.334 10.8738 114.932 9.93921 112.969 9.93921C111.007 9.93921 109.418 10.5934 108.296 11.8084C107.175 13.0233 106.614 14.7056 106.614 16.7616C106.614 18.8177 107.175 20.5 108.296 21.7149C109.418 22.9299 111.007 23.5841 112.969 23.5841C114.932 23.5841 116.334 22.743 117.268 20.9672H124.091C123.25 23.3972 121.848 25.3598 119.792 26.7616C117.736 28.1635 115.399 28.8177 112.782 28.8177C109.324 28.7243 106.521 27.6028 104.184 25.2663Z" />
  <path d="M137.643 28.3506L128.297 4.6123H130.82L138.764 25.6403L146.708 4.6123H149.231L139.886 28.3506H137.643Z" />
  <path d="M159.511 28.7244C156.8 28.7244 154.651 27.7898 152.969 26.0141C151.286 24.2384 150.445 21.902 150.445 18.9113C150.445 16.0141 151.286 13.6777 152.969 11.902C154.651 10.1263 156.894 9.28516 159.604 9.28516C162.314 9.28516 164.464 10.1263 166.053 11.8085C167.642 13.4908 168.483 15.5468 168.483 18.0702C168.483 18.7244 168.483 19.3786 168.389 19.9394H152.969C153.062 22.0889 153.716 23.7711 154.931 24.9861C156.146 26.201 157.642 26.8553 159.511 26.8553C160.913 26.8553 162.221 26.4814 163.156 25.8272C164.184 25.173 164.838 24.3319 165.305 23.2104H167.922C167.268 24.7992 166.333 26.1076 164.931 27.1356C163.436 28.1637 161.66 28.7244 159.511 28.7244ZM166.053 17.9767C166.053 15.9207 165.399 14.2384 164.184 13.0235C162.969 11.8085 161.38 11.1543 159.511 11.1543C157.642 11.1543 156.146 11.7151 154.931 12.93C153.716 14.145 153.062 15.8272 152.969 17.8833H166.053V17.9767Z" />
  <path d="M174.836 9.65899V12.6496C176.051 10.4067 178.201 9.28516 181.098 9.28516C183.154 9.28516 184.93 9.93936 186.331 11.3412C187.733 12.7431 188.388 14.7057 188.388 17.2291V28.3506H186.051V17.6964C186.051 15.6403 185.584 14.0515 184.556 13.0235C183.528 11.902 182.219 11.4347 180.444 11.4347C178.668 11.4347 177.36 11.9954 176.331 13.0235C175.303 14.145 174.836 15.6403 174.836 17.6964V28.444H172.406V9.65899H174.836Z" />
  <path d="M201.758 11.5284H196.617V23.9583C196.617 24.8929 196.804 25.5471 197.178 25.9209C197.552 26.2947 198.206 26.4817 199.141 26.4817H201.851V28.3508H198.673C195.776 28.3508 194.281 26.8555 194.281 23.9583V11.5284H191.664V9.65923H194.281V4.98633H196.711V9.65923H201.851V11.5284H201.758Z" />
  <path d="M218.387 9.65918H220.817V28.4442H218.387V25.3601C217.172 27.6031 215.023 28.7246 212.126 28.7246C210.07 28.7246 208.294 28.0704 206.892 26.6685C205.49 25.2667 204.836 23.304 204.836 20.7807V9.65918H207.172V20.4068C207.172 22.4629 207.64 24.0517 208.668 25.0797C209.696 26.2012 211.004 26.6685 212.78 26.6685C214.462 26.6685 215.864 26.1078 216.892 25.0797C217.92 23.9582 218.387 22.4629 218.387 20.4068V9.65918Z" />
  <path d="M228.297 9.65899V12.7431C229.325 10.5001 231.288 9.28516 234.091 9.28516V11.8085H233.437C231.755 11.8085 230.54 12.2758 229.606 13.1169C228.764 14.0515 228.297 15.5468 228.297 17.6964V28.3506H225.867V9.65899H228.297Z" />
  <path d="M245.87 28.7244C243.16 28.7244 241.01 27.7898 239.328 26.0141C237.646 24.2384 236.805 21.902 236.805 18.9113C236.805 16.0141 237.646 13.6777 239.328 11.902C241.01 10.1263 243.253 9.28516 245.964 9.28516C248.674 9.28516 250.823 10.1263 252.412 11.8085C254.001 13.4908 254.842 15.5468 254.842 18.0702C254.842 18.7244 254.842 19.3786 254.749 19.9394H239.328C239.422 22.0889 240.076 23.7711 241.291 24.9861C242.506 26.201 244.001 26.8553 245.87 26.8553C247.272 26.8553 248.58 26.4814 249.515 25.8272C250.543 25.173 251.197 24.3319 251.665 23.2104H254.281C253.627 24.7992 252.693 26.1076 251.291 27.1356C249.889 28.1637 248.02 28.7244 245.87 28.7244ZM252.412 17.9767C252.412 15.9207 251.758 14.2384 250.543 13.0235C249.328 11.8085 247.739 11.1543 245.87 11.1543C244.001 11.1543 242.506 11.7151 241.291 12.93C240.076 14.145 239.422 15.8272 239.328 17.8833H252.412V17.9767Z" />
  <path d="M258.297 14.7992C258.297 13.2104 258.951 11.902 260.259 10.8739C261.568 9.8459 263.157 9.28516 265.213 9.28516C267.175 9.28516 268.764 9.8459 269.886 10.8739C271.007 11.902 271.568 13.3973 271.755 15.173H269.325C269.325 14.0515 268.858 13.1169 268.203 12.3693C267.456 11.6216 266.428 11.2478 265.119 11.2478C263.811 11.2478 262.783 11.5281 262.035 12.1824C261.288 12.8366 260.914 13.5842 260.914 14.5188C260.914 15.4534 261.194 16.1076 261.755 16.6683C262.316 17.2291 262.97 17.5095 263.811 17.6964C264.652 17.8833 265.587 18.0702 266.521 18.3506C267.456 18.631 268.39 18.9113 269.231 19.1917C270.073 19.4721 270.727 20.0328 271.288 20.7805C271.848 21.5281 272.129 22.4627 272.129 23.6777C272.129 25.173 271.474 26.388 270.259 27.416C269.045 28.3506 267.362 28.8179 265.306 28.8179C263.25 28.8179 261.661 28.2571 260.446 27.2291C259.231 26.201 258.577 24.7057 258.484 22.93H260.914C260.914 24.0515 261.381 25.0795 262.129 25.7338C262.876 26.4814 263.998 26.8552 265.306 26.8552C266.708 26.8552 267.736 26.5749 268.484 26.0141C269.231 25.4534 269.605 24.7057 269.605 23.7711C269.605 22.8366 269.325 22.0889 268.764 21.6216C268.203 21.0609 267.549 20.7805 266.708 20.5001C265.867 20.3132 264.932 20.1263 263.998 19.8459C263.063 19.5655 262.129 19.2852 261.288 19.0982C260.446 18.8179 259.792 18.3506 259.231 17.6029C258.577 16.7618 258.297 15.9207 258.297 14.7992Z" />
</svg>