<svg viewBox="0 0 134 45" height="44px" width="auto" xmlns="http://www.w3.org/2000/svg">
  <path
        fillRule="evenodd"
        clipRule="evenodd"
        d="M30.4297 0.5H43.148C43.687 0.5 44.125 0.937979 44.125 1.47703V14.1953C44.125 14.7343 43.687 15.1723 43.148 15.1723H30.4297C29.8907 15.1723 29.4527 14.7343 29.4527 14.1953V1.47703C29.4527 0.937979 29.8907 0.5 30.4297 0.5ZM13.8203 0.5H1.10203C0.562979 0.5 0.125 0.937979 0.125 1.47703V14.1953C0.125 14.7343 0.562979 15.1723 1.10203 15.1723H13.8203C14.3593 15.1723 14.7973 14.7343 14.7973 14.1953V1.47703C14.7973 0.937979 14.3593 0.5 13.8203 0.5ZM28.4925 15.1723H15.7743C15.2353 15.1723 14.7973 15.6103 14.7973 16.1493V28.8675C14.7973 29.4066 15.2353 29.8446 15.7743 29.8446H28.4925C29.0316 29.8446 29.4696 29.4066 29.4696 28.8675V16.1493C29.4696 15.6103 29.0316 15.1723 28.4925 15.1723ZM13.8203 29.8277H1.10203C0.562979 29.8277 0.125 30.2657 0.125 30.8047V43.523C0.125 44.062 0.562979 44.5 1.10203 44.5H13.8203C14.3593 44.5 14.7973 44.062 14.7973 43.523V30.8047C14.7973 30.2657 14.3593 29.8277 13.8203 29.8277ZM30.4297 29.8277H43.148C43.687 29.8277 44.125 30.2657 44.125 30.8047V43.523C44.125 44.062 43.687 44.5 43.148 44.5H30.4297C29.8907 44.5 29.4527 44.062 29.4527 43.523V30.8047C29.4527 30.2657 29.8907 29.8277 30.4297 29.8277Z"
      />
  <path d="M57.2266 13.0161C57.2266 20.3606 62.0275 25.5322 68.7319 25.5322C75.4027 25.5322 80.2036 20.3606 80.2036 13.0161C80.2036 5.67152 75.4027 0.5 68.7319 0.5C62.0275 0.5 57.2266 5.67152 57.2266 13.0161ZM75.2005 13.0161C75.2005 17.9855 72.5221 21.1692 68.7319 21.1692C64.908 21.1692 62.2296 17.9855 62.2296 13.0161C62.2296 8.04671 64.908 4.86294 68.7319 4.86294C72.5221 4.86294 75.2005 8.04671 75.2005 13.0161Z" />
  <path d="M91.6256 1.20751C91.6256 1.02221 91.474 0.870605 91.2887 0.870605H86.9932C86.8079 0.870605 86.6562 1.02221 86.6562 1.20751V24.8415C86.6562 25.0268 86.8079 25.1784 86.9932 25.1784H91.2887C91.474 25.1784 91.6256 25.0268 91.6256 24.8415V18.2044L94.4388 15.0207L101.48 25.0268C101.548 25.111 101.649 25.1616 101.75 25.1616H106.753C107.022 25.1616 107.191 24.8584 107.022 24.6394L97.7068 11.2642L106.315 1.4265C106.5 1.20751 106.348 0.870605 106.062 0.870605H101.143C101.042 0.870605 100.958 0.921141 100.891 0.988523L91.6088 11.9043V1.20751H91.6256Z" />
  <path d="M132.344 1.39281C132.496 1.17382 132.327 0.870605 132.058 0.870605H127.425C127.307 0.870605 127.206 0.921141 127.139 1.02221L121.749 9.05744L116.409 1.02221C116.341 0.921141 116.24 0.870605 116.122 0.870605H111.321C111.052 0.870605 110.883 1.17382 111.035 1.39281L118.801 12.8139L110.732 24.6394C110.58 24.8584 110.732 25.1616 111.018 25.1616H115.651C115.768 25.1616 115.87 25.111 115.937 25.01L121.664 16.4862L127.358 24.9931C127.425 25.0942 127.526 25.1447 127.644 25.1447H132.412C132.681 25.1447 132.85 24.8415 132.698 24.6225L124.663 12.7971L132.344 1.39281Z" />
  <path d="M63.1288 44.3147C63.1962 44.3147 63.2636 44.2642 63.2805 44.1968L66.9359 34.2244C66.9696 34.1064 66.9022 34.0054 66.7843 34.0054H64.9818C64.9144 34.0054 64.8471 34.0559 64.8302 34.1233L62.1855 41.6363L59.5576 34.1233C59.5408 34.0559 59.4734 34.0054 59.406 34.0054H57.5025C57.3846 34.0054 57.3004 34.1233 57.3509 34.2244L61.0232 44.1968C61.04 44.2642 61.1074 44.3147 61.1748 44.3147H63.1288Z" />
  <path d="M68.4185 34.0054C68.3174 34.0054 68.25 34.0728 68.25 34.1738V44.1463C68.25 44.2473 68.3174 44.3147 68.4185 44.3147H75.1903C75.2913 44.3147 75.3587 44.2473 75.3587 44.1463V42.6639C75.3587 42.5628 75.2913 42.4954 75.1903 42.4954H70.322V39.9349H74.3649C74.4659 39.9349 74.5333 39.8675 74.5333 39.7665V38.3009C74.5333 38.1999 74.4659 38.1325 74.3649 38.1325H70.322V35.8415H75.1903C75.2913 35.8415 75.3587 35.7741 75.3587 35.6731V34.1907C75.3587 34.0896 75.2913 34.0222 75.1903 34.0222H68.4185V34.0054Z" />
  <path d="M85.7144 34.1738C85.7144 34.0728 85.647 34.0054 85.546 34.0054H83.8614C83.7603 34.0054 83.693 34.0728 83.693 34.1738V40.7603L79.229 34.0728C79.1953 34.0222 79.1447 34.0054 79.0942 34.0054H77.2075C77.1064 34.0054 77.0391 34.0728 77.0391 34.1738V44.1463C77.0391 44.2473 77.1064 44.3147 77.2075 44.3147H78.892C78.9931 44.3147 79.0605 44.2473 79.0605 44.1463V37.206L83.8277 44.2305C83.8614 44.281 83.912 44.2979 83.9625 44.2979H85.546C85.647 44.2979 85.7144 44.2305 85.7144 44.1294V34.1738Z" />
  <path d="M95.4695 35.8413C95.5706 35.8413 95.638 35.7739 95.638 35.6728V34.1904C95.638 34.0894 95.5706 34.022 95.4695 34.022H87.2153C87.1143 34.022 87.0469 34.0894 87.0469 34.1904V35.6728C87.0469 35.7739 87.1143 35.8413 87.2153 35.8413H90.2812V44.146C90.2812 44.2471 90.3486 44.3145 90.4496 44.3145H92.2184C92.3195 44.3145 92.3868 44.2471 92.3868 44.146V35.8413H95.4695Z" />
  <path d="M101.042 44.4495C103.586 44.4495 105.287 43.0345 105.287 40.1876V34.1738C105.287 34.0728 105.22 34.0054 105.118 34.0054H103.35C103.249 34.0054 103.181 34.0728 103.181 34.1738V40.1202C103.181 41.8553 102.339 42.5965 101.042 42.5965C99.7616 42.5965 98.9194 41.8553 98.9194 40.1202V34.1738C98.9194 34.0728 98.852 34.0054 98.7509 34.0054H96.9653C96.8643 34.0054 96.7969 34.0728 96.7969 34.1738V40.1876C96.7969 43.0345 98.5151 44.4495 101.042 44.4495Z" />
  <path d="M109.279 40.4908H110.711L113.035 44.2473C113.069 44.2979 113.119 44.3316 113.187 44.3316H115.191C115.326 44.3316 115.41 44.18 115.326 44.0789L112.917 40.3055C114.366 39.8844 115.208 38.84 115.208 37.2734C115.208 35.1509 113.726 34.0391 111.368 34.0391H107.325C107.24 34.0391 107.156 34.1064 107.156 34.2075V44.1799C107.156 44.281 107.24 44.3484 107.325 44.3484H109.11C109.211 44.3484 109.279 44.281 109.279 44.1799V40.4908ZM109.279 38.7221V35.8078H111.267C112.496 35.8078 113.136 36.3469 113.136 37.2734C113.136 38.1999 112.513 38.7221 111.267 38.7221H109.279Z" />
  <path d="M117.028 34.0054C116.927 34.0054 116.859 34.0728 116.859 34.1738V44.1463C116.859 44.2473 116.927 44.3147 117.028 44.3147H123.8C123.901 44.3147 123.968 44.2473 123.968 44.1463V42.6639C123.968 42.5628 123.901 42.4954 123.8 42.4954H118.931V39.9349H122.974C123.075 39.9349 123.143 39.8675 123.143 39.7665V38.3009C123.143 38.1999 123.075 38.1325 122.974 38.1325H118.931V35.8415H123.8C123.901 35.8415 123.968 35.7741 123.968 35.6731V34.1907C123.968 34.0896 123.901 34.0222 123.8 34.0222H117.028V34.0054Z" />
  <path d="M124.727 42.3436C124.677 42.3941 124.66 42.4952 124.71 42.5625C125.569 43.7417 127.321 44.4829 129.006 44.4829C131.196 44.4829 133.032 43.2364 133.032 41.1475C133.032 38.8903 131.027 38.486 129.393 38.1154C128.046 37.8122 127.304 37.6606 127.304 36.852C127.304 36.1108 127.995 35.6223 128.989 35.6223C130.067 35.6223 130.842 36.1276 131.431 36.8857C131.499 36.9699 131.617 36.9867 131.684 36.9025L132.83 35.7739C132.88 35.7233 132.897 35.6223 132.847 35.5549C132.105 34.5779 130.758 33.8535 129.039 33.8535C126.9 33.8535 125.216 35.0832 125.216 37.0541C125.216 39.0924 126.883 39.5809 128.416 39.9347C129.966 40.2716 130.943 40.4063 130.943 41.3497C130.943 42.2256 130.151 42.6973 129.073 42.6973C127.995 42.6973 126.951 42.1583 126.193 41.1812C126.125 41.097 126.007 41.0802 125.94 41.1644L124.727 42.3436Z" />
</svg>