<svg viewBox="0 0 79 49" height="12" width="auto" xmlns="http://www.w3.org/2000/svg">
  <path d="M0.03125 33.0056C0.03125 32.6805 0.182943 32.5288 0.507999 32.5288H3.17346C3.56353 32.5288 3.91026 32.5938 4.21364 32.7238C4.5387 32.8539 4.79874 33.0272 5.03712 33.2656C5.27549 33.504 5.44886 33.7857 5.57888 34.1108C5.7089 34.4358 5.77391 34.8042 5.77391 35.1943C5.77391 35.5843 5.7089 35.9527 5.57888 36.2778C5.44886 36.6029 5.27549 36.8846 5.03712 37.1229C4.79874 37.3613 4.5387 37.5347 4.21364 37.6647C3.88859 37.7947 3.54186 37.8597 3.17346 37.8597H1.50484V40.1785C1.50484 40.5035 1.35315 40.6552 1.02809 40.6552H0.507999C0.204613 40.6552 0.03125 40.5035 0.03125 40.1785V33.0056ZM2.89175 36.5812C3.32516 36.5812 3.67188 36.4512 3.91026 36.1911C4.14863 35.9311 4.25698 35.606 4.25698 35.1726C4.25698 34.7609 4.14863 34.4141 3.91026 34.1758C3.67188 33.9374 3.34683 33.8074 2.91342 33.8074H1.50484V36.6029L2.89175 36.5812Z" />
  <path d="M10.6059 32.9189C10.6926 32.6588 10.866 32.5288 11.1477 32.5288H11.8845C12.1662 32.5288 12.3396 32.6588 12.4263 32.9189L14.9834 40.1135C15.0484 40.2868 15.0484 40.4168 14.9617 40.5252C14.8967 40.6335 14.7667 40.6769 14.5933 40.6769H14.0732C13.7915 40.6769 13.6181 40.5469 13.5315 40.2868L12.968 38.5965H10.0859L9.52242 40.2868C9.43574 40.5469 9.26238 40.6986 8.98066 40.6986H8.46057C8.28721 40.6986 8.15719 40.6552 8.09217 40.5469C8.02716 40.4385 8.00549 40.3085 8.0705 40.1351L10.6059 32.9189ZM12.5563 37.383L11.8412 35.1943C11.7978 35.0859 11.7545 34.9559 11.7328 34.8042C11.7111 34.6525 11.6678 34.5225 11.6245 34.3925C11.5811 34.2408 11.5594 34.0891 11.5161 33.9374H11.4944C11.4511 34.0891 11.4078 34.2408 11.3861 34.3925C11.3427 34.5225 11.3211 34.6525 11.2777 34.8042C11.2344 34.9559 11.2127 35.0859 11.1694 35.1943L10.4326 37.383H12.5563Z" />
  <path d="M18.3889 33.0056C18.3889 32.6805 18.5406 32.5288 18.8656 32.5288H19.3857C19.6891 32.5288 19.8624 32.6805 19.8624 33.0056V39.3983H22.8963C23.2214 39.3983 23.3731 39.55 23.3731 39.8534V40.1785C23.3731 40.5035 23.2214 40.6552 22.8963 40.6552H18.8439C18.5406 40.6552 18.3672 40.5035 18.3672 40.1785V33.0056H18.3889Z" />
  <path d="M26.9664 32.9839C27.0098 32.6805 27.1614 32.5288 27.4648 32.5288H28.18C28.44 32.5288 28.635 32.6588 28.7217 32.9189L30.1736 36.5595C30.217 36.6895 30.2603 36.8196 30.3253 36.9496C30.3687 37.0796 30.412 37.2096 30.4553 37.3396L30.5854 37.7514H30.607C30.6504 37.6214 30.6937 37.4697 30.7371 37.3396C30.7804 37.2096 30.8237 37.0796 30.8671 36.9496C30.9104 36.8196 30.9754 36.6895 31.0188 36.5595L32.4707 32.9189C32.5574 32.6588 32.7524 32.5288 33.0125 32.5288H33.7276C34.031 32.5288 34.2043 32.6805 34.226 32.9839L34.8111 40.1785C34.8328 40.5035 34.6811 40.6769 34.356 40.6769H33.8359C33.5326 40.6769 33.3592 40.5252 33.3375 40.2218L33.0341 36.1261C33.0125 35.9961 33.0125 35.8661 33.0125 35.7144C33.0125 35.5627 33.0125 35.4326 33.0125 35.3026C33.0125 35.1509 33.0125 35.0209 33.0125 34.8692H32.9908C32.9475 35.0209 32.8824 35.1726 32.8391 35.3243C32.7958 35.4543 32.7524 35.5843 32.6874 35.736C32.6224 35.8877 32.5791 36.0177 32.5357 36.1261L31.3438 38.8999C31.2572 39.16 31.0838 39.29 30.8021 39.29H30.3253C30.0436 39.29 29.8702 39.16 29.7836 38.8999L28.6134 36.1261C28.57 36.0177 28.5267 35.8877 28.4617 35.736C28.3967 35.5843 28.3533 35.4543 28.31 35.3243C28.2666 35.1726 28.2016 35.0209 28.1583 34.8692H28.1366C28.1366 35.0209 28.1366 35.1509 28.1366 35.3026C28.1366 35.4326 28.1366 35.5627 28.1366 35.7144C28.1366 35.8661 28.1366 35.9961 28.1149 36.1261L27.8116 40.2218C27.7899 40.5252 27.6165 40.6769 27.3131 40.6769H26.793C26.468 40.6769 26.3163 40.5035 26.338 40.1785L26.9664 32.9839Z" />
  <path d="M38.9062 32.8974C38.9062 32.7024 38.9929 32.6157 39.188 32.6157H41.5067C42.1351 32.6157 42.6769 32.7024 43.197 32.8974C43.6954 33.0925 44.1288 33.3525 44.4756 33.6992C44.8223 34.046 45.104 34.4794 45.2774 34.9778C45.4724 35.4762 45.5591 36.018 45.5591 36.6464C45.5591 37.2749 45.4724 37.8383 45.2774 38.3367C45.0823 38.8351 44.8223 39.2469 44.4756 39.5936C44.1288 39.9403 43.6954 40.2004 43.197 40.3954C42.6986 40.5904 42.1351 40.6771 41.5067 40.6771H39.188C38.9929 40.6771 38.9062 40.5904 38.9062 40.3954V32.8974ZM41.42 39.962C41.9401 39.962 42.3952 39.8753 42.8069 39.7453C43.2187 39.5936 43.5654 39.3769 43.8471 39.0952C44.1288 38.8135 44.3455 38.4667 44.4972 38.055C44.6489 37.6433 44.7139 37.1665 44.7139 36.6464C44.7139 36.1263 44.6272 35.6713 44.4756 35.2595C44.3239 34.8478 44.1072 34.5011 43.8254 34.2193C43.5437 33.9376 43.197 33.7209 42.7853 33.5692C42.3735 33.4175 41.9184 33.3308 41.3983 33.3308H39.6647V39.962H41.42Z" />
  <path d="M49.5685 32.8974C49.5685 32.7024 49.6552 32.6157 49.8503 32.6157H52.0173C52.364 32.6157 52.6457 32.6374 52.8841 32.6591C53.1225 32.6807 53.3175 32.7457 53.4909 32.8324C53.881 33.0275 54.1627 33.2875 54.3794 33.6342C54.5961 33.981 54.6828 34.3927 54.6828 34.8478C54.6828 35.3895 54.5527 35.8663 54.271 36.278C53.9893 36.6898 53.6209 36.9498 53.1658 37.0798V37.1015C53.1875 37.1232 53.2092 37.1665 53.2308 37.2315C53.2742 37.2965 53.3175 37.3615 53.3609 37.4266L54.9211 40.3304C54.9645 40.4387 54.9862 40.5254 54.9428 40.5688C54.8995 40.6338 54.8345 40.6555 54.7261 40.6555H54.4227C54.271 40.6555 54.1627 40.5904 54.0977 40.4604L52.3857 37.2532H50.3487V40.3521C50.3487 40.5471 50.262 40.6338 50.067 40.6338H49.8286C49.6336 40.6338 49.5469 40.5471 49.5469 40.3521L49.5685 32.8974ZM52.2774 36.5597C52.7541 36.5597 53.1442 36.408 53.4259 36.1047C53.7076 35.8013 53.8593 35.3895 53.8593 34.8694C53.8593 34.5444 53.7943 34.2627 53.6426 34.0243C53.4909 33.7859 53.2959 33.5909 53.0141 33.4609C52.8841 33.4175 52.7541 33.3742 52.5807 33.3525C52.429 33.3308 52.2123 33.3092 51.9523 33.3092H50.3487V36.5597H52.2774Z" />
  <path d="M58.8438 32.8974C58.8438 32.7024 58.9304 32.6157 59.1255 32.6157H59.3638C59.5372 32.6157 59.6456 32.7024 59.6456 32.8974V40.3737C59.6456 40.5688 59.5589 40.6555 59.3638 40.6555H59.1255C58.9304 40.6555 58.8438 40.5688 58.8438 40.3737V32.8974Z" />
  <path d="M63.2672 32.9408C63.1805 32.7241 63.2672 32.6157 63.5056 32.6157H63.7657C63.939 32.6157 64.0474 32.7024 64.0907 32.8541L66.2361 38.7485C66.2794 38.9001 66.3444 39.0735 66.4094 39.2902C66.4745 39.4852 66.5178 39.6586 66.5611 39.7886H66.5828C66.6261 39.6586 66.6695 39.4852 66.7345 39.2902C66.7995 39.0952 66.8429 38.9001 66.9079 38.7485L69.0749 32.8541C69.1182 32.7024 69.2266 32.6157 69.3783 32.6157H69.66C69.8767 32.6157 69.9417 32.7241 69.8984 32.9408L67.1029 40.4387C67.0596 40.5904 66.9512 40.6771 66.7778 40.6771H66.3878C66.2144 40.6771 66.1061 40.5904 66.0844 40.4387L63.2672 32.9408Z" />
  <path d="M73.4688 32.8974C73.4688 32.7024 73.5554 32.6157 73.7505 32.6157H77.7378C77.9329 32.6157 78.0195 32.7024 78.0195 32.8974V33.0275C78.0195 33.2225 77.9329 33.3092 77.7378 33.3092H74.2706V36.2564H77.0444C77.2394 36.2564 77.3261 36.343 77.3261 36.5381V36.6898C77.3261 36.8848 77.2394 36.9715 77.0444 36.9715H74.2706V39.962H77.9329C78.1279 39.962 78.2146 40.0487 78.2146 40.2437V40.3737C78.2146 40.5688 78.1279 40.6555 77.9329 40.6555H73.7505C73.5554 40.6555 73.4688 40.5688 73.4688 40.3737V32.8974Z" />
  <path d="M22.0665 44.4043C22.9117 44.4043 23.6268 44.816 23.9302 45.6178H23.15C22.9333 45.1844 22.5649 44.9894 22.0665 44.9894C21.2647 44.9894 20.7013 45.5528 20.7013 46.463C20.7013 47.3731 21.2864 47.9366 22.0665 47.9366C22.5433 47.9366 22.9333 47.7415 23.15 47.3081H23.9302C23.6268 48.0883 22.9117 48.5 22.0665 48.5C20.9396 48.5 20.0078 47.6549 20.0078 46.4413C20.0078 45.2494 20.9396 44.4043 22.0665 44.4043Z" />
  <path d="M29.3061 47.6548H27.6158L27.3341 48.4783H26.6406L28.0709 44.4692H28.8293L30.2596 48.4783H29.5661L29.3061 47.6548ZM28.4826 45.2494L27.8325 47.113H29.1327L28.4826 45.2494Z" />
  <path d="M34.4807 46.853H33.7439V48.4783H33.0938V44.4692H34.4807C35.4342 44.4692 35.8892 45.011 35.8892 45.6611C35.9109 46.2245 35.5425 46.853 34.4807 46.853ZM34.4807 46.3112C35.0007 46.3112 35.2174 46.0729 35.2174 45.6611C35.2174 45.2494 34.9791 45.011 34.4807 45.011H33.7439V46.3329L34.4807 46.3112Z" />
  <path d="M38.7344 44.4692H39.3845V48.4783H38.7344V44.4692Z" />
  <path d="M42.2422 44.4692H45.0377V45.011H43.9758V48.4783H43.3257V45.011H42.2422V44.4692Z" />
  <path d="M50.3217 47.6548H48.6314L48.3497 48.4783H47.6562L49.0865 44.4692H49.845L51.2752 48.4783H50.5818L50.3217 47.6548ZM49.4766 45.2494L48.8265 47.113H50.1267L49.4766 45.2494Z" />
  <path d="M54.7673 44.4692V47.9582H56.1325V48.4783H54.1172V44.4692H54.7673Z" />
  <path d="M40.5533 27.9131H30.5849V22.3221H40.3583C42.5253 22.3221 44.5623 21.477 46.101 19.9384C47.6396 18.3998 48.4847 16.3628 48.4847 14.1957C48.4847 9.7316 44.8441 6.09097 40.3583 6.09097H29.003V6.11264H26.8359V3.92393H40.3583C46.0359 3.92393 50.6517 8.53973 50.6517 14.1957C50.6517 16.9479 49.5899 19.5266 47.6395 21.477C45.6892 23.4273 43.1104 24.4892 40.3583 24.4892H32.752V25.746H40.5533C46.9244 25.746 52.082 20.5668 52.082 14.2174C52.082 11.1402 50.8901 8.23634 48.7014 6.0693C46.5127 3.85892 43.6305 2.66704 40.5533 2.66704H27.0093V0.5H40.5533C44.2156 0.5 47.6612 1.93025 50.24 4.50903C52.8188 7.08781 54.249 10.5334 54.249 14.1957C54.249 21.7587 48.0946 27.9131 40.5533 27.9131Z" />
  <path d="M29.003 27.7398H26.8359V18.8333H39.4481C42.0052 18.8333 44.0856 16.7529 44.0856 14.1958C44.0856 12.9606 43.6089 11.7904 42.7204 10.9236C41.8535 10.0568 40.6833 9.55834 39.4481 9.55834H26.8359V7.36963H29.003V7.3913H39.4481C41.2684 7.3913 42.9804 8.10642 44.259 9.38498C45.5375 10.6635 46.2526 12.3755 46.2526 14.1958C46.2526 17.9448 43.1971 21.0003 39.4481 21.0003H29.003V27.7398Z" />
  <g clipPath="url(#clip0_8541_265651)">
        <path d="M0.03125 33.0056C0.03125 32.6805 0.182943 32.5288 0.507999 32.5288H3.17346C3.56353 32.5288 3.91026 32.5938 4.21364 32.7238C4.5387 32.8539 4.79874 33.0272 5.03712 33.2656C5.27549 33.504 5.44886 33.7857 5.57888 34.1108C5.7089 34.4358 5.77391 34.8042 5.77391 35.1943C5.77391 35.5843 5.7089 35.9527 5.57888 36.2778C5.44886 36.6029 5.27549 36.8846 5.03712 37.1229C4.79874 37.3613 4.5387 37.5347 4.21364 37.6647C3.88859 37.7947 3.54186 37.8597 3.17346 37.8597H1.50484V40.1785C1.50484 40.5035 1.35315 40.6552 1.02809 40.6552H0.507999C0.204613 40.6552 0.03125 40.5035 0.03125 40.1785V33.0056ZM2.89175 36.5812C3.32516 36.5812 3.67188 36.4512 3.91026 36.1911C4.14863 35.9311 4.25698 35.606 4.25698 35.1726C4.25698 34.7609 4.14863 34.4141 3.91026 34.1758C3.67188 33.9374 3.34683 33.8074 2.91342 33.8074H1.50484V36.6029L2.89175 36.5812Z" />
        <path d="M10.6059 32.9189C10.6926 32.6588 10.866 32.5288 11.1477 32.5288H11.8845C12.1662 32.5288 12.3396 32.6588 12.4263 32.9189L14.9834 40.1135C15.0484 40.2868 15.0484 40.4168 14.9617 40.5252C14.8967 40.6335 14.7667 40.6769 14.5933 40.6769H14.0732C13.7915 40.6769 13.6181 40.5469 13.5315 40.2868L12.968 38.5965H10.0859L9.52242 40.2868C9.43574 40.5469 9.26238 40.6986 8.98066 40.6986H8.46057C8.28721 40.6986 8.15719 40.6552 8.09217 40.5469C8.02716 40.4385 8.00549 40.3085 8.0705 40.1351L10.6059 32.9189ZM12.5563 37.383L11.8412 35.1943C11.7978 35.0859 11.7545 34.9559 11.7328 34.8042C11.7111 34.6525 11.6678 34.5225 11.6245 34.3925C11.5811 34.2408 11.5594 34.0891 11.5161 33.9374H11.4944C11.4511 34.0891 11.4078 34.2408 11.3861 34.3925C11.3427 34.5225 11.3211 34.6525 11.2777 34.8042C11.2344 34.9559 11.2127 35.0859 11.1694 35.1943L10.4326 37.383H12.5563Z" />
        <path d="M18.3889 33.0056C18.3889 32.6805 18.5406 32.5288 18.8656 32.5288H19.3857C19.6891 32.5288 19.8624 32.6805 19.8624 33.0056V39.3983H22.8963C23.2214 39.3983 23.3731 39.55 23.3731 39.8534V40.1785C23.3731 40.5035 23.2214 40.6552 22.8963 40.6552H18.8439C18.5406 40.6552 18.3672 40.5035 18.3672 40.1785V33.0056H18.3889Z" />
        <path d="M26.9664 32.9839C27.0098 32.6805 27.1614 32.5288 27.4648 32.5288H28.18C28.44 32.5288 28.635 32.6588 28.7217 32.9189L30.1736 36.5595C30.217 36.6895 30.2603 36.8196 30.3253 36.9496C30.3687 37.0796 30.412 37.2096 30.4553 37.3396L30.5854 37.7514H30.607C30.6504 37.6214 30.6937 37.4697 30.7371 37.3396C30.7804 37.2096 30.8237 37.0796 30.8671 36.9496C30.9104 36.8196 30.9754 36.6895 31.0188 36.5595L32.4707 32.9189C32.5574 32.6588 32.7524 32.5288 33.0125 32.5288H33.7276C34.031 32.5288 34.2043 32.6805 34.226 32.9839L34.8111 40.1785C34.8328 40.5035 34.6811 40.6769 34.356 40.6769H33.8359C33.5326 40.6769 33.3592 40.5252 33.3375 40.2218L33.0341 36.1261C33.0125 35.9961 33.0125 35.8661 33.0125 35.7144C33.0125 35.5627 33.0125 35.4326 33.0125 35.3026C33.0125 35.1509 33.0125 35.0209 33.0125 34.8692H32.9908C32.9475 35.0209 32.8824 35.1726 32.8391 35.3243C32.7958 35.4543 32.7524 35.5843 32.6874 35.736C32.6224 35.8877 32.5791 36.0177 32.5357 36.1261L31.3438 38.8999C31.2572 39.16 31.0838 39.29 30.8021 39.29H30.3253C30.0436 39.29 29.8702 39.16 29.7836 38.8999L28.6134 36.1261C28.57 36.0177 28.5267 35.8877 28.4617 35.736C28.3967 35.5843 28.3533 35.4543 28.31 35.3243C28.2666 35.1726 28.2016 35.0209 28.1583 34.8692H28.1366C28.1366 35.0209 28.1366 35.1509 28.1366 35.3026C28.1366 35.4326 28.1366 35.5627 28.1366 35.7144C28.1366 35.8661 28.1366 35.9961 28.1149 36.1261L27.8116 40.2218C27.7899 40.5252 27.6165 40.6769 27.3131 40.6769H26.793C26.468 40.6769 26.3163 40.5035 26.338 40.1785L26.9664 32.9839Z" />
        <path d="M38.9062 32.8974C38.9062 32.7024 38.9929 32.6157 39.188 32.6157H41.5067C42.1351 32.6157 42.6769 32.7024 43.197 32.8974C43.6954 33.0925 44.1288 33.3525 44.4756 33.6992C44.8223 34.046 45.104 34.4794 45.2774 34.9778C45.4724 35.4762 45.5591 36.018 45.5591 36.6464C45.5591 37.2749 45.4724 37.8383 45.2774 38.3367C45.0823 38.8351 44.8223 39.2469 44.4756 39.5936C44.1288 39.9403 43.6954 40.2004 43.197 40.3954C42.6986 40.5904 42.1351 40.6771 41.5067 40.6771H39.188C38.9929 40.6771 38.9062 40.5904 38.9062 40.3954V32.8974ZM41.42 39.962C41.9401 39.962 42.3952 39.8753 42.8069 39.7453C43.2187 39.5936 43.5654 39.3769 43.8471 39.0952C44.1288 38.8135 44.3455 38.4667 44.4972 38.055C44.6489 37.6433 44.7139 37.1665 44.7139 36.6464C44.7139 36.1263 44.6272 35.6713 44.4756 35.2595C44.3239 34.8478 44.1072 34.5011 43.8254 34.2193C43.5437 33.9376 43.197 33.7209 42.7853 33.5692C42.3735 33.4175 41.9184 33.3308 41.3983 33.3308H39.6647V39.962H41.42Z" />
        <path d="M49.5685 32.8974C49.5685 32.7024 49.6552 32.6157 49.8503 32.6157H52.0173C52.364 32.6157 52.6457 32.6374 52.8841 32.6591C53.1225 32.6807 53.3175 32.7457 53.4909 32.8324C53.881 33.0275 54.1627 33.2875 54.3794 33.6342C54.5961 33.981 54.6828 34.3927 54.6828 34.8478C54.6828 35.3895 54.5527 35.8663 54.271 36.278C53.9893 36.6898 53.6209 36.9498 53.1658 37.0798V37.1015C53.1875 37.1232 53.2092 37.1665 53.2308 37.2315C53.2742 37.2965 53.3175 37.3615 53.3609 37.4266L54.9211 40.3304C54.9645 40.4387 54.9862 40.5254 54.9428 40.5688C54.8995 40.6338 54.8345 40.6555 54.7261 40.6555H54.4227C54.271 40.6555 54.1627 40.5904 54.0977 40.4604L52.3857 37.2532H50.3487V40.3521C50.3487 40.5471 50.262 40.6338 50.067 40.6338H49.8286C49.6336 40.6338 49.5469 40.5471 49.5469 40.3521L49.5685 32.8974ZM52.2774 36.5597C52.7541 36.5597 53.1442 36.408 53.4259 36.1047C53.7076 35.8013 53.8593 35.3895 53.8593 34.8694C53.8593 34.5444 53.7943 34.2627 53.6426 34.0243C53.4909 33.7859 53.2959 33.5909 53.0141 33.4609C52.8841 33.4175 52.7541 33.3742 52.5807 33.3525C52.429 33.3308 52.2123 33.3092 51.9523 33.3092H50.3487V36.5597H52.2774Z" />
        <path d="M58.8438 32.8974C58.8438 32.7024 58.9304 32.6157 59.1255 32.6157H59.3638C59.5372 32.6157 59.6456 32.7024 59.6456 32.8974V40.3737C59.6456 40.5688 59.5589 40.6555 59.3638 40.6555H59.1255C58.9304 40.6555 58.8438 40.5688 58.8438 40.3737V32.8974Z" />
        <path d="M63.2672 32.9408C63.1805 32.7241 63.2672 32.6157 63.5056 32.6157H63.7657C63.939 32.6157 64.0474 32.7024 64.0907 32.8541L66.2361 38.7485C66.2794 38.9001 66.3444 39.0735 66.4094 39.2902C66.4745 39.4852 66.5178 39.6586 66.5611 39.7886H66.5828C66.6261 39.6586 66.6695 39.4852 66.7345 39.2902C66.7995 39.0952 66.8429 38.9001 66.9079 38.7485L69.0749 32.8541C69.1182 32.7024 69.2266 32.6157 69.3783 32.6157H69.66C69.8767 32.6157 69.9417 32.7241 69.8984 32.9408L67.1029 40.4387C67.0596 40.5904 66.9512 40.6771 66.7778 40.6771H66.3878C66.2144 40.6771 66.1061 40.5904 66.0844 40.4387L63.2672 32.9408Z" />
        <path d="M73.4688 32.8974C73.4688 32.7024 73.5554 32.6157 73.7505 32.6157H77.7378C77.9329 32.6157 78.0195 32.7024 78.0195 32.8974V33.0275C78.0195 33.2225 77.9329 33.3092 77.7378 33.3092H74.2706V36.2564H77.0444C77.2394 36.2564 77.3261 36.343 77.3261 36.5381V36.6898C77.3261 36.8848 77.2394 36.9715 77.0444 36.9715H74.2706V39.962H77.9329C78.1279 39.962 78.2146 40.0487 78.2146 40.2437V40.3737C78.2146 40.5688 78.1279 40.6555 77.9329 40.6555H73.7505C73.5554 40.6555 73.4688 40.5688 73.4688 40.3737V32.8974Z" />
        <path d="M22.0665 44.4043C22.9117 44.4043 23.6268 44.816 23.9302 45.6178H23.15C22.9333 45.1844 22.5649 44.9894 22.0665 44.9894C21.2647 44.9894 20.7013 45.5528 20.7013 46.463C20.7013 47.3731 21.2864 47.9366 22.0665 47.9366C22.5433 47.9366 22.9333 47.7415 23.15 47.3081H23.9302C23.6268 48.0883 22.9117 48.5 22.0665 48.5C20.9396 48.5 20.0078 47.6549 20.0078 46.4413C20.0078 45.2494 20.9396 44.4043 22.0665 44.4043Z" />
        <path d="M29.3061 47.6548H27.6158L27.3341 48.4783H26.6406L28.0709 44.4692H28.8293L30.2596 48.4783H29.5661L29.3061 47.6548ZM28.4826 45.2494L27.8325 47.113H29.1327L28.4826 45.2494Z" />
        <path d="M34.4807 46.853H33.7439V48.4783H33.0938V44.4692H34.4807C35.4342 44.4692 35.8892 45.011 35.8892 45.6611C35.9109 46.2245 35.5425 46.853 34.4807 46.853ZM34.4807 46.3112C35.0007 46.3112 35.2174 46.0729 35.2174 45.6611C35.2174 45.2494 34.9791 45.011 34.4807 45.011H33.7439V46.3329L34.4807 46.3112Z" />
        <path d="M38.7344 44.4692H39.3845V48.4783H38.7344V44.4692Z" />
        <path d="M42.2422 44.4692H45.0377V45.011H43.9758V48.4783H43.3257V45.011H42.2422V44.4692Z" />
        <path d="M50.3217 47.6548H48.6314L48.3497 48.4783H47.6562L49.0865 44.4692H49.845L51.2752 48.4783H50.5818L50.3217 47.6548ZM49.4766 45.2494L48.8265 47.113H50.1267L49.4766 45.2494Z" />
        <path d="M54.7673 44.4692V47.9582H56.1325V48.4783H54.1172V44.4692H54.7673Z" />
        <path d="M40.5533 27.9131H30.5849V22.3221H40.3583C42.5253 22.3221 44.5623 21.477 46.101 19.9384C47.6396 18.3998 48.4847 16.3628 48.4847 14.1957C48.4847 9.7316 44.8441 6.09097 40.3583 6.09097H29.003V6.11264H26.8359V3.92393H40.3583C46.0359 3.92393 50.6517 8.53973 50.6517 14.1957C50.6517 16.9479 49.5899 19.5266 47.6395 21.477C45.6892 23.4273 43.1104 24.4892 40.3583 24.4892H32.752V25.746H40.5533C46.9244 25.746 52.082 20.5668 52.082 14.2174C52.082 11.1402 50.8901 8.23634 48.7014 6.0693C46.5127 3.85892 43.6305 2.66704 40.5533 2.66704H27.0093V0.5H40.5533C44.2156 0.5 47.6612 1.93025 50.24 4.50903C52.8188 7.08781 54.249 10.5334 54.249 14.1957C54.249 21.7587 48.0946 27.9131 40.5533 27.9131Z" />
        <path d="M29.003 27.7398H26.8359V18.8333H39.4481C42.0052 18.8333 44.0856 16.7529 44.0856 14.1958C44.0856 12.9606 43.6089 11.7904 42.7204 10.9236C41.8535 10.0568 40.6833 9.55834 39.4481 9.55834H26.8359V7.36963H29.003V7.3913H39.4481C41.2684 7.3913 42.9804 8.10642 44.259 9.38498C45.5375 10.6635 46.2526 12.3755 46.2526 14.1958C46.2526 17.9448 43.1971 21.0003 39.4481 21.0003H29.003V27.7398Z" />
      </g>
</svg>