<svg viewBox="0 0 195 45" height="44px" width="auto" xmlns="http://www.w3.org/2000/svg">
  <path d="M30.4938 34.0608L22.159 30.4465C22.159 30.4465 22.159 14.3116 22.159 14.2471C22.159 11.3428 19.7684 8.9548 16.8609 8.9548C13.9534 8.9548 11.5628 11.3428 11.5628 14.2471V25.8642L3.48649 22.3145C3.48649 22.3145 3.42188 14.2471 3.42188 13.9889C3.42188 6.50229 9.4953 0.435547 16.9902 0.435547C24.485 0.435547 30.5584 6.50229 30.5584 13.9889L30.4938 34.0608Z" />
  <path d="M26.685 38.5138C26.4266 38.4493 26.1681 38.3848 25.9743 38.2557L3.68355 27.413C2.84361 26.9612 2.58516 26.3158 3.10205 25.864C3.61894 25.4123 4.71732 25.3477 5.55726 25.7995L27.848 36.6422C28.688 37.0294 28.8818 37.7394 28.3649 38.1911C28.0418 38.5138 27.3311 38.6429 26.685 38.5138Z" />
  <path d="M18.2214 39.8691C17.963 39.8045 17.7045 39.74 17.5107 39.6109L0.841074 31.4789C0.00113294 31.0917 -0.1927 30.3817 0.324187 29.93C0.841074 29.4782 1.93946 29.4136 2.7794 29.8654L19.3844 37.9974C20.2243 38.3847 20.4182 39.0946 19.9013 39.5464C19.5136 39.8691 18.8675 39.9982 18.2214 39.8691Z" />
  <path d="M15.1225 43.8061C14.864 43.7416 14.6056 43.677 14.4118 43.5479L3.62174 38.3202C2.84641 37.933 2.58797 37.223 3.10485 36.7713C3.62174 36.3195 4.72012 36.2549 5.56007 36.7067L16.2855 41.9344C17.1254 42.3217 17.3192 43.0316 16.8024 43.4834C16.4147 43.8061 15.7686 43.9352 15.1225 43.8061Z" />
  <path d="M4.97469 44.3871C4.71625 44.3226 4.4578 44.2581 4.26397 44.129L0.645762 42.3864C-0.19418 41.9992 -0.388012 41.2892 0.128875 40.8374C0.645762 40.3857 1.74415 40.3211 2.58409 40.7084L6.2023 42.4509C7.04224 42.8382 7.23607 43.5481 6.71918 43.9999C6.33152 44.3871 5.68541 44.5162 4.97469 44.3871Z" />
  <path d="M72.8783 10.5039H77.1426L87.4157 34.0609H81.5361L79.5332 29.0914H70.4231L68.4847 34.0609H62.7344L72.8783 10.5039ZM74.8812 17.3451L72.0383 24.6381H77.7887L74.8812 17.3451Z" />
  <path d="M89.4844 10.439H96.527L106.606 26.8321H106.671V10.439H111.904V34.0605H105.12L94.7825 17.2802H94.7179V34.0605H89.4844V10.439Z" />
  <path d="M49.3621 20.6366V15.0216V10.5684H44.2578V34.1254H49.3621V31.0275V24.8962V20.6366Z" />
  <path d="M58.2149 10.5684C58.0857 10.5684 58.021 10.5684 57.8918 10.5684C57.698 10.5684 57.5688 10.5684 57.3749 10.5684H52.3353L51.6892 15.0216H57.9564C58.021 15.0216 58.021 15.0216 58.0857 15.0216C59.6363 15.0216 60.9285 16.2479 60.9285 17.8614C60.9285 19.4103 59.7009 20.7011 58.0857 20.7011H51.6246H50.8492L50.2031 24.9607H57.7626C57.8918 24.9607 58.021 24.9607 58.1503 24.9607C62.0915 24.9607 65.3221 21.7337 65.3221 17.7968C65.4513 13.7308 62.2207 10.5684 58.2149 10.5684Z" />
  <path d="M58.2149 10.5684C58.0857 10.5684 58.021 10.5684 57.8918 10.5684C57.698 10.5684 57.5688 10.5684 57.3749 10.5684H52.3353L51.6892 15.0216H57.9564C58.021 15.0216 58.021 15.0216 58.0857 15.0216C59.6363 15.0216 60.9285 16.2479 60.9285 17.8614C60.9285 19.4103 59.7009 20.7011 58.0857 20.7011H51.6246H50.8492L50.2031 24.9607H57.7626C57.8918 24.9607 58.021 24.9607 58.1503 24.9607C62.0915 24.9607 65.3221 21.7337 65.3221 17.7968C65.4513 13.7308 62.2207 10.5684 58.2149 10.5684Z" />
  <path d="M115.977 22.3791C115.977 20.4429 116.3 18.6358 116.946 17.0868C117.592 15.4733 118.496 14.1825 119.659 13.0208C120.822 11.9236 122.244 11.0846 123.794 10.4392C125.41 9.85834 127.154 9.53564 129.093 9.53564C130.966 9.53564 132.775 9.85834 134.391 10.4392C136.006 11.0201 137.363 11.8591 138.526 13.0208C139.689 14.118 140.593 15.4733 141.239 17.0868C141.886 18.7003 142.209 20.4429 142.209 22.3791C142.209 24.3153 141.886 26.1224 141.239 27.6713C140.593 29.2848 139.689 30.5756 138.526 31.7373C137.363 32.8345 135.941 33.6735 134.391 34.3189C132.775 34.8998 131.031 35.2225 129.093 35.2225C127.154 35.2225 125.41 34.8998 123.794 34.3189C122.179 33.7381 120.822 32.899 119.659 31.7373C118.496 30.6402 117.592 29.2848 116.946 27.6713C116.3 26.1224 115.977 24.3153 115.977 22.3791ZM121.598 22.3791C121.598 23.5408 121.792 24.5734 122.115 25.5415C122.502 26.5096 122.955 27.3486 123.665 27.994C124.311 28.704 125.151 29.2203 126.056 29.6075C126.96 29.9948 127.994 30.1884 129.157 30.1884C130.32 30.1884 131.354 29.9948 132.258 29.6075C133.163 29.2203 134.003 28.704 134.649 27.994C135.295 27.2841 135.812 26.4451 136.2 25.5415C136.587 24.5734 136.717 23.5408 136.717 22.3791C136.717 21.2819 136.523 20.1847 136.2 19.2166C135.812 18.2485 135.36 17.4095 134.649 16.6996C134.003 15.9896 133.163 15.4733 132.258 15.0861C131.354 14.6988 130.32 14.5052 129.157 14.5052C127.994 14.5052 126.96 14.6988 126.056 15.0861C125.151 15.4733 124.311 15.9896 123.665 16.6996C123.019 17.4095 122.502 18.2485 122.115 19.2166C121.727 20.1847 121.598 21.2819 121.598 22.3791Z" />
  <path d="M145.955 10.1812H153.256L163.594 27.0906H163.659V10.1812H169.021V34.5127H161.979L151.318 17.1514H151.253V34.5127H145.891V10.1812H145.955Z" />
  <path d="M180.003 24.1863L170.828 10.1812H177.483L182.652 19.2813L188.144 10.1812H194.54L185.366 24.1217V34.5127H180.003V24.1863Z" />
  <g clipPath="url(#clip0_8541_265693)">
        <path d="M30.4938 34.0608L22.159 30.4465C22.159 30.4465 22.159 14.3116 22.159 14.2471C22.159 11.3428 19.7684 8.9548 16.8609 8.9548C13.9534 8.9548 11.5628 11.3428 11.5628 14.2471V25.8642L3.48649 22.3145C3.48649 22.3145 3.42188 14.2471 3.42188 13.9889C3.42188 6.50229 9.4953 0.435547 16.9902 0.435547C24.485 0.435547 30.5584 6.50229 30.5584 13.9889L30.4938 34.0608Z" />
        <path d="M26.685 38.5138C26.4266 38.4493 26.1681 38.3848 25.9743 38.2557L3.68355 27.413C2.84361 26.9612 2.58516 26.3158 3.10205 25.864C3.61894 25.4123 4.71732 25.3477 5.55726 25.7995L27.848 36.6422C28.688 37.0294 28.8818 37.7394 28.3649 38.1911C28.0418 38.5138 27.3311 38.6429 26.685 38.5138Z" />
        <path d="M18.2214 39.8691C17.963 39.8045 17.7045 39.74 17.5107 39.6109L0.841074 31.4789C0.00113294 31.0917 -0.1927 30.3817 0.324187 29.93C0.841074 29.4782 1.93946 29.4136 2.7794 29.8654L19.3844 37.9974C20.2243 38.3847 20.4182 39.0946 19.9013 39.5464C19.5136 39.8691 18.8675 39.9982 18.2214 39.8691Z" />
        <path d="M15.1225 43.8061C14.864 43.7416 14.6056 43.677 14.4118 43.5479L3.62174 38.3202C2.84641 37.933 2.58797 37.223 3.10485 36.7713C3.62174 36.3195 4.72012 36.2549 5.56007 36.7067L16.2855 41.9344C17.1254 42.3217 17.3192 43.0316 16.8024 43.4834C16.4147 43.8061 15.7686 43.9352 15.1225 43.8061Z" />
        <path d="M4.97469 44.3871C4.71625 44.3226 4.4578 44.2581 4.26397 44.129L0.645762 42.3864C-0.19418 41.9992 -0.388012 41.2892 0.128875 40.8374C0.645762 40.3857 1.74415 40.3211 2.58409 40.7084L6.2023 42.4509C7.04224 42.8382 7.23607 43.5481 6.71918 43.9999C6.33152 44.3871 5.68541 44.5162 4.97469 44.3871Z" />
        <path d="M72.8783 10.5039H77.1426L87.4157 34.0609H81.5361L79.5332 29.0914H70.4231L68.4847 34.0609H62.7344L72.8783 10.5039ZM74.8812 17.3451L72.0383 24.6381H77.7887L74.8812 17.3451Z" />
        <path d="M89.4844 10.439H96.527L106.606 26.8321H106.671V10.439H111.904V34.0605H105.12L94.7825 17.2802H94.7179V34.0605H89.4844V10.439Z" />
        <path d="M49.3621 20.6366V15.0216V10.5684H44.2578V34.1254H49.3621V31.0275V24.8962V20.6366Z" />
        <path d="M58.2149 10.5684C58.0857 10.5684 58.021 10.5684 57.8918 10.5684C57.698 10.5684 57.5688 10.5684 57.3749 10.5684H52.3353L51.6892 15.0216H57.9564C58.021 15.0216 58.021 15.0216 58.0857 15.0216C59.6363 15.0216 60.9285 16.2479 60.9285 17.8614C60.9285 19.4103 59.7009 20.7011 58.0857 20.7011H51.6246H50.8492L50.2031 24.9607H57.7626C57.8918 24.9607 58.021 24.9607 58.1503 24.9607C62.0915 24.9607 65.3221 21.7337 65.3221 17.7968C65.4513 13.7308 62.2207 10.5684 58.2149 10.5684Z" />
        <path d="M58.2149 10.5684C58.0857 10.5684 58.021 10.5684 57.8918 10.5684C57.698 10.5684 57.5688 10.5684 57.3749 10.5684H52.3353L51.6892 15.0216H57.9564C58.021 15.0216 58.021 15.0216 58.0857 15.0216C59.6363 15.0216 60.9285 16.2479 60.9285 17.8614C60.9285 19.4103 59.7009 20.7011 58.0857 20.7011H51.6246H50.8492L50.2031 24.9607H57.7626C57.8918 24.9607 58.021 24.9607 58.1503 24.9607C62.0915 24.9607 65.3221 21.7337 65.3221 17.7968C65.4513 13.7308 62.2207 10.5684 58.2149 10.5684Z" />
        <path d="M115.977 22.3791C115.977 20.4429 116.3 18.6358 116.946 17.0868C117.592 15.4733 118.496 14.1825 119.659 13.0208C120.822 11.9236 122.244 11.0846 123.794 10.4392C125.41 9.85834 127.154 9.53564 129.093 9.53564C130.966 9.53564 132.775 9.85834 134.391 10.4392C136.006 11.0201 137.363 11.8591 138.526 13.0208C139.689 14.118 140.593 15.4733 141.239 17.0868C141.886 18.7003 142.209 20.4429 142.209 22.3791C142.209 24.3153 141.886 26.1224 141.239 27.6713C140.593 29.2848 139.689 30.5756 138.526 31.7373C137.363 32.8345 135.941 33.6735 134.391 34.3189C132.775 34.8998 131.031 35.2225 129.093 35.2225C127.154 35.2225 125.41 34.8998 123.794 34.3189C122.179 33.7381 120.822 32.899 119.659 31.7373C118.496 30.6402 117.592 29.2848 116.946 27.6713C116.3 26.1224 115.977 24.3153 115.977 22.3791ZM121.598 22.3791C121.598 23.5408 121.792 24.5734 122.115 25.5415C122.502 26.5096 122.955 27.3486 123.665 27.994C124.311 28.704 125.151 29.2203 126.056 29.6075C126.96 29.9948 127.994 30.1884 129.157 30.1884C130.32 30.1884 131.354 29.9948 132.258 29.6075C133.163 29.2203 134.003 28.704 134.649 27.994C135.295 27.2841 135.812 26.4451 136.2 25.5415C136.587 24.5734 136.717 23.5408 136.717 22.3791C136.717 21.2819 136.523 20.1847 136.2 19.2166C135.812 18.2485 135.36 17.4095 134.649 16.6996C134.003 15.9896 133.163 15.4733 132.258 15.0861C131.354 14.6988 130.32 14.5052 129.157 14.5052C127.994 14.5052 126.96 14.6988 126.056 15.0861C125.151 15.4733 124.311 15.9896 123.665 16.6996C123.019 17.4095 122.502 18.2485 122.115 19.2166C121.727 20.1847 121.598 21.2819 121.598 22.3791Z" />
        <path d="M145.955 10.1812H153.256L163.594 27.0906H163.659V10.1812H169.021V34.5127H161.979L151.318 17.1514H151.253V34.5127H145.891V10.1812H145.955Z" />
        <path d="M180.003 24.1863L170.828 10.1812H177.483L182.652 19.2813L188.144 10.1812H194.54L185.366 24.1217V34.5127H180.003V24.1863Z" />
      </g>
</svg>