<svg viewBox="0 0 238 45" height="44px" width="auto" xmlns="http://www.w3.org/2000/svg">
  <path d="M26.165 44.4998H12.7969V43.9395C12.7969 30.1178 24.0304 18.8843 37.8521 18.8843H38.4124V32.2524H37.8521C31.4215 32.2524 26.165 37.4822 26.165 43.9395V44.4998ZM13.9442 43.3524H25.071C25.3645 36.7351 30.7011 31.3985 37.2917 31.1317V20.005C24.5373 20.2985 14.2377 30.6247 13.9442 43.3524Z" />
  <path d="M13.915 44.5H13.3546C6.28369 44.5 0.546875 38.7632 0.546875 31.6922V13.3078C0.546875 6.23681 6.28369 0.5 13.3546 0.5H25.6021C32.673 0.5 38.4098 6.23681 38.4098 13.3078V20.0052H13.915V44.5ZM13.3546 1.62068C6.92407 1.62068 1.66755 6.8772 1.66755 13.3078V31.6656C1.66755 37.9093 6.60388 43.0324 12.7676 43.326V18.8578H37.2625V13.3078C37.2625 6.8772 32.0326 1.62068 25.5754 1.62068H13.3546Z" />
  <path d="M45.7448 44.5H29.9219V43.9396C29.9219 39.5903 33.4707 36.0415 37.82 36.0415C42.1693 36.0415 45.7181 39.5903 45.7181 43.9396V44.5H45.7448ZM31.0959 43.3526H44.5974C44.3039 39.8838 41.3955 37.1355 37.8467 37.1355C34.2979 37.1355 31.3894 39.8838 31.0959 43.3526Z" />
  <path d="M62.7478 20.3255C62.7478 23.9277 60.1596 26.0623 55.8636 26.0623H50.9807V31.6657H49.7266V14.562H55.8636C60.1596 14.562 62.7478 16.7233 62.7478 20.3255ZM61.4937 20.3255C61.4937 17.3637 59.5458 15.6827 55.8903 15.6827H50.9807V24.9416H55.8636C59.5192 24.9416 61.4937 23.2606 61.4937 20.3255Z" />
  <path d="M77.2657 25.582H66.299C66.4325 28.5971 68.6471 30.6517 71.689 30.6517C73.29 30.6517 74.7842 30.0647 75.7715 28.8639L76.4919 29.6644C75.3712 31.0253 73.6101 31.7457 71.689 31.7457C67.82 31.7457 65.125 29.0507 65.125 25.2618C65.125 21.4728 67.7399 18.7778 71.2354 18.7778C74.7308 18.7778 77.3191 21.4194 77.3191 25.2084C77.2924 25.3418 77.2657 25.4752 77.2657 25.582ZM66.3257 24.6214H76.0916C75.9316 21.873 73.9303 19.8718 71.2087 19.8718C68.487 19.8985 66.5125 21.8464 66.3257 24.6214Z" />
  <path d="M87.4005 30.8652C86.7601 31.4789 85.7462 31.7724 84.7856 31.7724C82.5443 31.7724 81.3168 30.4649 81.3168 28.3036V19.9786H78.9688V18.9112H81.3168V16.1362H82.5442V18.9112H86.6V19.9786H82.5442V28.1702C82.5442 29.7978 83.3447 30.7051 84.919 30.7051C85.6661 30.7051 86.3866 30.4649 86.8936 29.9846L87.4005 30.8652Z" />
  <path d="M103.038 31.6657L98.9554 25.9556C98.4218 26.0356 97.8881 26.089 97.3011 26.089H92.4182V31.6924H91.1641V14.562H97.3011C101.597 14.562 104.185 16.7233 104.185 20.3255C104.185 23.0472 102.718 24.915 100.183 25.6621L104.452 31.639H103.038V31.6657ZM97.3011 24.9683C100.957 24.9683 102.905 23.2606 102.905 20.3255C102.905 17.3637 100.957 15.6827 97.3011 15.6827H92.4182V24.9683H97.3011Z" />
  <path d="M106.984 25.2881C106.984 21.4992 109.706 18.8042 113.362 18.8042C117.017 18.8042 119.739 21.4992 119.739 25.2881C119.739 29.0771 117.017 31.7721 113.362 31.7721C109.679 31.7721 106.984 29.0771 106.984 25.2881ZM118.485 25.2881C118.485 22.0862 116.297 19.9249 113.362 19.9249C110.426 19.9249 108.238 22.0862 108.238 25.2881C108.238 28.4901 110.426 30.6514 113.362 30.6514C116.27 30.6514 118.485 28.4901 118.485 25.2881Z" />
  <path d="M122.117 25.2881C122.117 21.4725 124.839 18.8042 128.574 18.8042C130.602 18.8042 132.363 19.578 133.404 21.1523L132.497 21.8194C131.563 20.5119 130.149 19.9249 128.574 19.9249C125.559 19.9249 123.371 22.0862 123.371 25.2881C123.371 28.4901 125.559 30.6514 128.574 30.6514C130.149 30.6514 131.59 30.0377 132.497 28.7569L133.404 29.424C132.363 30.9716 130.602 31.7721 128.574 31.7721C124.839 31.7721 122.117 29.0771 122.117 25.2881Z" />
  <path d="M141.38 24.8614L138.071 27.8765V31.6655H136.844V13.5479H138.071V26.3556L146.209 18.9111H147.784L142.287 24.0609L148.317 31.6655H146.796L141.38 24.8614Z" />
  <path d="M156.242 23.127C156.242 18.1373 160.031 14.4551 165.101 14.4551C167.529 14.4551 169.69 15.2289 171.185 16.8299L170.411 17.6303C168.943 16.1895 167.155 15.6024 165.154 15.6024C160.778 15.6024 157.496 18.8311 157.496 23.127C157.496 27.4229 160.805 30.6516 165.154 30.6516C167.155 30.6516 168.943 30.0379 170.411 28.597L171.185 29.3975C169.69 30.9718 167.529 31.7989 165.101 31.7989C160.031 31.7989 156.242 28.09 156.242 23.127Z" />
  <path d="M183.943 23.5806V31.6655H182.796V29.3975C181.996 30.865 180.421 31.7722 178.207 31.7722C175.352 31.7722 173.617 30.3047 173.617 28.1434C173.617 26.2222 174.845 24.5679 178.367 24.5679H182.743V23.5539C182.743 21.1791 181.435 19.9251 178.954 19.9251C177.193 19.9251 175.618 20.5921 174.551 21.526L173.937 20.6455C175.218 19.5248 177.059 18.8311 179.034 18.8311C182.209 18.8311 183.943 20.432 183.943 23.5806ZM182.743 27.9032V25.5018H178.393C175.752 25.5018 174.818 26.5958 174.818 28.0633C174.818 29.7177 176.125 30.7583 178.367 30.7583C180.501 30.7583 181.996 29.7443 182.743 27.9032Z" />
  <path d="M201.685 25.2883C201.685 29.1306 198.964 31.7722 195.388 31.7722C193.147 31.7722 191.226 30.6782 190.212 28.7571V36.3884H188.984V18.9111H190.158V21.9263C191.172 19.9784 193.094 18.8311 195.388 18.8311C198.964 18.8311 201.685 21.4727 201.685 25.2883ZM200.458 25.2883C200.458 22.0864 198.243 19.9251 195.308 19.9251C192.373 19.9251 190.185 22.0864 190.185 25.2883C190.185 28.4902 192.373 30.6516 195.308 30.6516C198.243 30.6516 200.458 28.4902 200.458 25.2883Z" />
  <path d="M205.07 14.8284C205.07 14.2947 205.497 13.8145 206.084 13.8145C206.671 13.8145 207.098 14.2414 207.098 14.8017C207.098 15.3621 206.671 15.8157 206.084 15.8157C205.497 15.8157 205.07 15.3887 205.07 14.8284ZM205.471 18.9109H206.698V31.6653H205.471V18.9109Z" />
  <path d="M218.174 30.8652C217.534 31.4789 216.52 31.7724 215.559 31.7724C213.318 31.7724 212.09 30.4649 212.09 28.3036V19.9786H209.742V18.9112H212.09V16.1362H213.318V18.9112H217.373V19.9786H213.318V28.1702C213.318 29.7978 214.118 30.7051 215.692 30.7051C216.44 30.7051 217.16 30.4649 217.667 29.9846L218.174 30.8652Z" />
  <path d="M230.767 23.5806V31.6655H229.593V29.3975C228.792 30.865 227.218 31.7722 225.004 31.7722C222.148 31.7722 220.414 30.3047 220.414 28.1434C220.414 26.2222 221.641 24.5679 225.164 24.5679H229.54V23.5539C229.54 21.1791 228.232 19.9251 225.751 19.9251C223.99 19.9251 222.415 20.5921 221.348 21.526L220.734 20.6455C222.015 19.5248 223.856 18.8311 225.831 18.8311C229.006 18.8311 230.767 20.432 230.767 23.5806ZM229.54 27.9032V25.5018H225.19C222.549 25.5018 221.615 26.5958 221.615 28.0633C221.615 29.7177 222.922 30.7583 225.164 30.7583C227.325 30.7583 228.819 29.7443 229.54 27.9032Z" />
  <path d="M235.789 13.5479H237.016V31.6655H235.789V13.5479Z" />
  <g clipPath="url(#clip0_8541_265721)">
        <path d="M26.165 44.4998H12.7969V43.9395C12.7969 30.1178 24.0304 18.8843 37.8521 18.8843H38.4124V32.2524H37.8521C31.4215 32.2524 26.165 37.4822 26.165 43.9395V44.4998ZM13.9442 43.3524H25.071C25.3645 36.7351 30.7011 31.3985 37.2917 31.1317V20.005C24.5373 20.2985 14.2377 30.6247 13.9442 43.3524Z" />
        <path d="M13.915 44.5H13.3546C6.28369 44.5 0.546875 38.7632 0.546875 31.6922V13.3078C0.546875 6.23681 6.28369 0.5 13.3546 0.5H25.6021C32.673 0.5 38.4098 6.23681 38.4098 13.3078V20.0052H13.915V44.5ZM13.3546 1.62068C6.92407 1.62068 1.66755 6.8772 1.66755 13.3078V31.6656C1.66755 37.9093 6.60388 43.0324 12.7676 43.326V18.8578H37.2625V13.3078C37.2625 6.8772 32.0326 1.62068 25.5754 1.62068H13.3546Z" />
        <path d="M45.7448 44.5H29.9219V43.9396C29.9219 39.5903 33.4707 36.0415 37.82 36.0415C42.1693 36.0415 45.7181 39.5903 45.7181 43.9396V44.5H45.7448ZM31.0959 43.3526H44.5974C44.3039 39.8838 41.3955 37.1355 37.8467 37.1355C34.2979 37.1355 31.3894 39.8838 31.0959 43.3526Z" />
        <path d="M62.7478 20.3255C62.7478 23.9277 60.1596 26.0623 55.8636 26.0623H50.9807V31.6657H49.7266V14.562H55.8636C60.1596 14.562 62.7478 16.7233 62.7478 20.3255ZM61.4937 20.3255C61.4937 17.3637 59.5458 15.6827 55.8903 15.6827H50.9807V24.9416H55.8636C59.5192 24.9416 61.4937 23.2606 61.4937 20.3255Z" />
        <path d="M77.2657 25.582H66.299C66.4325 28.5971 68.6471 30.6517 71.689 30.6517C73.29 30.6517 74.7842 30.0647 75.7715 28.8639L76.4919 29.6644C75.3712 31.0253 73.6101 31.7457 71.689 31.7457C67.82 31.7457 65.125 29.0507 65.125 25.2618C65.125 21.4728 67.7399 18.7778 71.2354 18.7778C74.7308 18.7778 77.3191 21.4194 77.3191 25.2084C77.2924 25.3418 77.2657 25.4752 77.2657 25.582ZM66.3257 24.6214H76.0916C75.9316 21.873 73.9303 19.8718 71.2087 19.8718C68.487 19.8985 66.5125 21.8464 66.3257 24.6214Z" />
        <path d="M87.4005 30.8652C86.7601 31.4789 85.7462 31.7724 84.7856 31.7724C82.5443 31.7724 81.3168 30.4649 81.3168 28.3036V19.9786H78.9688V18.9112H81.3168V16.1362H82.5442V18.9112H86.6V19.9786H82.5442V28.1702C82.5442 29.7978 83.3447 30.7051 84.919 30.7051C85.6661 30.7051 86.3866 30.4649 86.8936 29.9846L87.4005 30.8652Z" />
        <path d="M103.038 31.6657L98.9554 25.9556C98.4218 26.0356 97.8881 26.089 97.3011 26.089H92.4182V31.6924H91.1641V14.562H97.3011C101.597 14.562 104.185 16.7233 104.185 20.3255C104.185 23.0472 102.718 24.915 100.183 25.6621L104.452 31.639H103.038V31.6657ZM97.3011 24.9683C100.957 24.9683 102.905 23.2606 102.905 20.3255C102.905 17.3637 100.957 15.6827 97.3011 15.6827H92.4182V24.9683H97.3011Z" />
        <path d="M106.984 25.2881C106.984 21.4992 109.706 18.8042 113.362 18.8042C117.017 18.8042 119.739 21.4992 119.739 25.2881C119.739 29.0771 117.017 31.7721 113.362 31.7721C109.679 31.7721 106.984 29.0771 106.984 25.2881ZM118.485 25.2881C118.485 22.0862 116.297 19.9249 113.362 19.9249C110.426 19.9249 108.238 22.0862 108.238 25.2881C108.238 28.4901 110.426 30.6514 113.362 30.6514C116.27 30.6514 118.485 28.4901 118.485 25.2881Z" />
        <path d="M122.117 25.2881C122.117 21.4725 124.839 18.8042 128.574 18.8042C130.602 18.8042 132.363 19.578 133.404 21.1523L132.497 21.8194C131.563 20.5119 130.149 19.9249 128.574 19.9249C125.559 19.9249 123.371 22.0862 123.371 25.2881C123.371 28.4901 125.559 30.6514 128.574 30.6514C130.149 30.6514 131.59 30.0377 132.497 28.7569L133.404 29.424C132.363 30.9716 130.602 31.7721 128.574 31.7721C124.839 31.7721 122.117 29.0771 122.117 25.2881Z" />
        <path d="M141.38 24.8614L138.071 27.8765V31.6655H136.844V13.5479H138.071V26.3556L146.209 18.9111H147.784L142.287 24.0609L148.317 31.6655H146.796L141.38 24.8614Z" />
        <path d="M156.242 23.127C156.242 18.1373 160.031 14.4551 165.101 14.4551C167.529 14.4551 169.69 15.2289 171.185 16.8299L170.411 17.6303C168.943 16.1895 167.155 15.6024 165.154 15.6024C160.778 15.6024 157.496 18.8311 157.496 23.127C157.496 27.4229 160.805 30.6516 165.154 30.6516C167.155 30.6516 168.943 30.0379 170.411 28.597L171.185 29.3975C169.69 30.9718 167.529 31.7989 165.101 31.7989C160.031 31.7989 156.242 28.09 156.242 23.127Z" />
        <path d="M183.943 23.5806V31.6655H182.796V29.3975C181.996 30.865 180.421 31.7722 178.207 31.7722C175.352 31.7722 173.617 30.3047 173.617 28.1434C173.617 26.2222 174.845 24.5679 178.367 24.5679H182.743V23.5539C182.743 21.1791 181.435 19.9251 178.954 19.9251C177.193 19.9251 175.618 20.5921 174.551 21.526L173.937 20.6455C175.218 19.5248 177.059 18.8311 179.034 18.8311C182.209 18.8311 183.943 20.432 183.943 23.5806ZM182.743 27.9032V25.5018H178.393C175.752 25.5018 174.818 26.5958 174.818 28.0633C174.818 29.7177 176.125 30.7583 178.367 30.7583C180.501 30.7583 181.996 29.7443 182.743 27.9032Z" />
        <path d="M201.685 25.2883C201.685 29.1306 198.964 31.7722 195.388 31.7722C193.147 31.7722 191.226 30.6782 190.212 28.7571V36.3884H188.984V18.9111H190.158V21.9263C191.172 19.9784 193.094 18.8311 195.388 18.8311C198.964 18.8311 201.685 21.4727 201.685 25.2883ZM200.458 25.2883C200.458 22.0864 198.243 19.9251 195.308 19.9251C192.373 19.9251 190.185 22.0864 190.185 25.2883C190.185 28.4902 192.373 30.6516 195.308 30.6516C198.243 30.6516 200.458 28.4902 200.458 25.2883Z" />
        <path d="M205.07 14.8284C205.07 14.2947 205.497 13.8145 206.084 13.8145C206.671 13.8145 207.098 14.2414 207.098 14.8017C207.098 15.3621 206.671 15.8157 206.084 15.8157C205.497 15.8157 205.07 15.3887 205.07 14.8284ZM205.471 18.9109H206.698V31.6653H205.471V18.9109Z" />
        <path d="M218.174 30.8652C217.534 31.4789 216.52 31.7724 215.559 31.7724C213.318 31.7724 212.09 30.4649 212.09 28.3036V19.9786H209.742V18.9112H212.09V16.1362H213.318V18.9112H217.373V19.9786H213.318V28.1702C213.318 29.7978 214.118 30.7051 215.692 30.7051C216.44 30.7051 217.16 30.4649 217.667 29.9846L218.174 30.8652Z" />
        <path d="M230.767 23.5806V31.6655H229.593V29.3975C228.792 30.865 227.218 31.7722 225.004 31.7722C222.148 31.7722 220.414 30.3047 220.414 28.1434C220.414 26.2222 221.641 24.5679 225.164 24.5679H229.54V23.5539C229.54 21.1791 228.232 19.9251 225.751 19.9251C223.99 19.9251 222.415 20.5921 221.348 21.526L220.734 20.6455C222.015 19.5248 223.856 18.8311 225.831 18.8311C229.006 18.8311 230.767 20.432 230.767 23.5806ZM229.54 27.9032V25.5018H225.19C222.549 25.5018 221.615 26.5958 221.615 28.0633C221.615 29.7177 222.922 30.7583 225.164 30.7583C227.325 30.7583 228.819 29.7443 229.54 27.9032Z" />
        <path d="M235.789 13.5479H237.016V31.6655H235.789V13.5479Z" />
      </g>
</svg>