<svg viewBox="0 0 183 41" height="10" width="auto" xmlns="http://www.w3.org/2000/svg">
  <path d="M71.3763 13.2235C72.4927 13.8965 73.4428 14.8308 74.0446 16.0976C74.7334 17.3644 75.0818 18.8846 75.0818 20.579C75.0818 22.2734 74.7413 23.7065 73.9654 24.9733C73.2766 26.2401 72.2394 27.1744 70.9488 27.7603C69.6582 28.4333 68.1063 28.7738 66.4753 28.7738C65.5252 28.7738 64.6701 28.6075 63.807 28.267C62.944 28.0137 62.1681 27.5069 61.5664 26.9131V35.7096H56.5703V12.5505H60.8775L61.3051 14.4111C63.1974 12.891 65.2639 12.1309 67.4175 12.1309C68.8743 12.1309 70.252 12.4634 71.3763 13.2235ZM68.621 23.7144C69.484 22.9543 69.9116 21.9408 69.9116 20.674C69.9116 19.4072 69.484 18.3937 68.7081 17.5465C67.9321 16.6993 66.9029 16.3589 65.7785 16.3589C64.8284 16.3589 63.9733 16.5252 63.2845 16.9527C62.5956 17.2932 62.081 17.8791 61.6455 18.6471V22.4555C61.9068 23.2156 62.4215 23.8094 63.0232 24.229C63.712 24.6487 64.488 24.902 65.4302 24.902C66.7287 24.8941 67.758 24.4745 68.621 23.7144Z" />
  <path d="M78.007 16.1851C78.7829 14.9975 79.8122 13.984 81.1899 13.311C82.5676 12.638 84.1194 12.2104 85.8376 12.2104C87.5636 12.2104 89.1076 12.5509 90.4852 13.311C91.7758 13.984 92.813 15.0054 93.581 16.2722C94.357 17.539 94.6974 18.893 94.6974 20.5002C94.6974 22.1075 94.3491 23.4614 93.581 24.7283C92.8051 25.9951 91.855 27.0085 90.4852 27.6895C89.1947 28.3625 87.5557 28.79 85.8376 28.79C84.1194 28.79 82.5676 28.4496 81.1899 27.7766C79.8122 27.1036 78.7829 26.1693 78.007 24.9025C77.3182 23.6356 76.8906 22.1946 76.8906 20.5082C76.8906 18.893 77.3182 17.4519 78.007 16.1851ZM83.0822 23.5406C83.7711 24.3878 84.7212 24.7283 85.8376 24.7283C86.954 24.7283 87.9041 24.3086 88.5929 23.5406C89.2818 22.7805 89.6301 21.68 89.6301 20.5002C89.6301 19.2334 89.2897 18.22 88.5929 17.4599C87.817 16.6127 86.954 16.193 85.7505 16.193C84.6341 16.193 83.7711 16.6127 82.9951 17.3807C82.3063 18.2279 81.9658 19.2413 81.9658 20.5082C81.9658 21.68 82.3142 22.6934 83.0822 23.5406Z" />
  <path d="M102.793 0.539551V28.3622H97.7969V0.539551H102.793Z" />
  <path d="M123.284 12.9702L113.125 35.8047H108.304L112.088 27.602L104.859 12.9702H110.544L114.677 22.0993L118.81 12.9702H123.284Z" />
  <path d="M142.4 12.9704V28.3624C142.4 29.8034 141.973 31.1494 141.109 32.337C140.246 33.5247 139.13 34.451 137.665 35.124C136.201 35.797 134.657 36.1375 132.931 36.1375C131.64 36.1375 130.524 35.9712 129.573 35.7179C128.623 35.3774 127.847 35.0449 127.246 34.7044C126.557 34.2848 125.868 33.778 125.092 33.0971L128.022 29.7163C128.71 30.3893 129.486 30.9039 130.175 31.2365C130.864 31.5769 131.814 31.8303 132.843 31.8303C134.134 31.8303 135.171 31.4898 136.026 30.9039C136.889 30.3101 137.317 29.3837 137.317 28.2832V26.0821C136.802 26.8422 136.113 27.5231 135.076 28.0298C134.047 28.5366 132.836 28.7899 131.458 28.7899C130.08 28.7899 128.703 28.4495 127.499 27.6894C126.296 27.0164 125.345 25.995 124.57 24.7282C123.881 23.4613 123.453 22.1074 123.453 20.5872C123.453 19.067 123.801 17.626 124.57 16.3592C125.345 15.0924 126.296 14.0789 127.586 13.3188C128.79 12.5587 130.08 12.2183 131.458 12.2183C132.748 12.2183 133.865 12.3845 134.902 12.725C135.931 13.0655 136.707 13.5722 137.23 14.166L137.744 12.9784H142.4V12.9704ZM137.317 22.44V18.6316C136.976 17.8715 136.454 17.2776 135.678 16.858C134.902 16.4384 134.047 16.185 133.01 16.185C131.806 16.185 130.769 16.6046 129.906 17.3727C129.043 18.1328 128.615 19.1462 128.615 20.413C128.615 21.6007 129.043 22.6933 129.906 23.5405C130.769 24.3877 131.798 24.8073 133.01 24.8073C134.997 24.7282 136.462 23.9681 137.317 22.44Z" />
  <path d="M146.53 16.1848C147.306 14.918 148.336 13.9837 149.713 13.2236C151.091 12.5506 152.643 12.123 154.361 12.123C156.079 12.123 157.631 12.4635 159.009 13.2236C160.299 13.8966 161.336 14.918 162.104 16.1848C162.793 17.4516 163.221 18.8055 163.221 20.4128C163.221 22.0201 162.872 23.374 162.104 24.6409C161.416 25.9077 160.378 26.9211 159.009 27.6021C157.718 28.2751 156.079 28.7026 154.361 28.7026C152.643 28.7026 151.091 28.3622 149.713 27.6892C148.336 27.0162 147.306 26.0819 146.53 24.8151C145.755 23.5482 145.414 22.1072 145.414 20.3337C145.414 18.8926 145.755 17.4516 146.53 16.1848ZM151.526 23.5403C152.215 24.3875 153.165 24.728 154.282 24.728C155.398 24.728 156.348 24.3083 157.037 23.5403C157.726 22.7802 158.066 21.6797 158.066 20.4999C158.066 19.2331 157.718 18.2196 157.037 17.4595C156.348 16.6995 155.398 16.2719 154.282 16.2719C153.165 16.2719 152.302 16.6915 151.526 17.4595C150.751 18.2196 150.41 19.3202 150.41 20.4999C150.489 21.6797 150.838 22.701 151.526 23.5403Z" />
  <path d="M180.882 13.4773C181.919 14.3245 182.347 15.425 182.434 16.7789V28.3625H177.359V18.6396C177.271 17.1194 176.496 16.3593 175.031 16.3593C173.914 16.3593 172.964 16.866 172.275 17.9666C171.587 19.0671 171.238 20.4211 171.238 22.0283V28.3704H166.242V12.9705H170.803L171.151 15.425C171.753 14.4116 172.529 13.6515 173.558 13.0576C174.595 12.4638 175.799 12.2104 177.176 12.2104C178.649 12.2104 179.94 12.6301 180.882 13.4773Z" />
  <path d="M35.2176 12.7169C34.3546 12.2102 33.2382 12.2102 32.2881 12.7169L25.5739 16.6045L21.0134 19.1382L14.2992 23.0257C13.4362 23.5325 12.3198 23.5325 11.3696 23.0257L6.03315 19.9854C5.17012 19.4786 4.56838 18.5443 4.56838 17.5309V11.5293C4.56838 10.5158 5.08303 9.58155 6.03315 9.07482L11.2826 6.12154C12.1456 5.61481 13.262 5.61481 14.2121 6.12154L19.4615 9.08274C20.3245 9.58947 20.9263 10.5238 20.9263 11.5372V15.4248L25.4868 12.804V8.91647C25.4868 7.90301 24.9722 6.96873 24.0221 6.462L14.2992 0.880048C13.4362 0.373318 12.3198 0.373318 11.3696 0.880048L1.47258 6.462C0.52246 6.96873 0.0078125 7.90301 0.0078125 8.91647V20.1595C0.0078125 21.173 0.52246 22.1073 1.47258 22.614L11.3696 28.196C12.2327 28.7027 13.3491 28.7027 14.2992 28.196L21.0134 24.3876L25.5739 21.7668L32.2881 17.9584C33.1511 17.4517 34.2675 17.4517 35.2176 17.9584L40.467 20.9196C41.3301 21.4264 41.9318 22.3606 41.9318 23.3741V29.3757C41.9318 30.3892 41.4172 31.3234 40.467 31.8302L35.2176 34.8785C34.3546 35.3852 33.2382 35.3852 32.2881 34.8785L27.0387 31.9173C26.1757 31.4105 25.5739 30.4762 25.5739 29.4628V25.5752L21.0134 28.196V32.0835C21.0134 33.097 21.528 34.0313 22.4781 34.538L32.3752 40.1199C33.2382 40.6267 34.3546 40.6267 35.3047 40.1199L45.2018 34.538C46.0648 34.0313 46.6666 33.097 46.6666 32.0835V20.8405C46.6666 19.827 46.1519 18.8927 45.2018 18.386L35.2176 12.7169Z" />
  <g clipPath="url(#clip0_8541_265430)">
        <path d="M71.3763 13.2235C72.4927 13.8965 73.4428 14.8308 74.0446 16.0976C74.7334 17.3644 75.0818 18.8846 75.0818 20.579C75.0818 22.2734 74.7413 23.7065 73.9654 24.9733C73.2766 26.2401 72.2394 27.1744 70.9488 27.7603C69.6582 28.4333 68.1063 28.7738 66.4753 28.7738C65.5252 28.7738 64.6701 28.6075 63.807 28.267C62.944 28.0137 62.1681 27.5069 61.5664 26.9131V35.7096H56.5703V12.5505H60.8775L61.3051 14.4111C63.1974 12.891 65.2639 12.1309 67.4175 12.1309C68.8743 12.1309 70.252 12.4634 71.3763 13.2235ZM68.621 23.7144C69.484 22.9543 69.9116 21.9408 69.9116 20.674C69.9116 19.4072 69.484 18.3937 68.7081 17.5465C67.9321 16.6993 66.9029 16.3589 65.7785 16.3589C64.8284 16.3589 63.9733 16.5252 63.2845 16.9527C62.5956 17.2932 62.081 17.8791 61.6455 18.6471V22.4555C61.9068 23.2156 62.4215 23.8094 63.0232 24.229C63.712 24.6487 64.488 24.902 65.4302 24.902C66.7287 24.8941 67.758 24.4745 68.621 23.7144Z" />
        <path d="M78.007 16.1851C78.7829 14.9975 79.8122 13.984 81.1899 13.311C82.5676 12.638 84.1194 12.2104 85.8376 12.2104C87.5636 12.2104 89.1076 12.5509 90.4852 13.311C91.7758 13.984 92.813 15.0054 93.581 16.2722C94.357 17.539 94.6974 18.893 94.6974 20.5002C94.6974 22.1075 94.3491 23.4614 93.581 24.7283C92.8051 25.9951 91.855 27.0085 90.4852 27.6895C89.1947 28.3625 87.5557 28.79 85.8376 28.79C84.1194 28.79 82.5676 28.4496 81.1899 27.7766C79.8122 27.1036 78.7829 26.1693 78.007 24.9025C77.3182 23.6356 76.8906 22.1946 76.8906 20.5082C76.8906 18.893 77.3182 17.4519 78.007 16.1851ZM83.0822 23.5406C83.7711 24.3878 84.7212 24.7283 85.8376 24.7283C86.954 24.7283 87.9041 24.3086 88.5929 23.5406C89.2818 22.7805 89.6301 21.68 89.6301 20.5002C89.6301 19.2334 89.2897 18.22 88.5929 17.4599C87.817 16.6127 86.954 16.193 85.7505 16.193C84.6341 16.193 83.7711 16.6127 82.9951 17.3807C82.3063 18.2279 81.9658 19.2413 81.9658 20.5082C81.9658 21.68 82.3142 22.6934 83.0822 23.5406Z" />
        <path d="M102.793 0.539551V28.3622H97.7969V0.539551H102.793Z" />
        <path d="M123.284 12.9702L113.125 35.8047H108.304L112.088 27.602L104.859 12.9702H110.544L114.677 22.0993L118.81 12.9702H123.284Z" />
        <path d="M142.4 12.9704V28.3624C142.4 29.8034 141.973 31.1494 141.109 32.337C140.246 33.5247 139.13 34.451 137.665 35.124C136.201 35.797 134.657 36.1375 132.931 36.1375C131.64 36.1375 130.524 35.9712 129.573 35.7179C128.623 35.3774 127.847 35.0449 127.246 34.7044C126.557 34.2848 125.868 33.778 125.092 33.0971L128.022 29.7163C128.71 30.3893 129.486 30.9039 130.175 31.2365C130.864 31.5769 131.814 31.8303 132.843 31.8303C134.134 31.8303 135.171 31.4898 136.026 30.9039C136.889 30.3101 137.317 29.3837 137.317 28.2832V26.0821C136.802 26.8422 136.113 27.5231 135.076 28.0298C134.047 28.5366 132.836 28.7899 131.458 28.7899C130.08 28.7899 128.703 28.4495 127.499 27.6894C126.296 27.0164 125.345 25.995 124.57 24.7282C123.881 23.4613 123.453 22.1074 123.453 20.5872C123.453 19.067 123.801 17.626 124.57 16.3592C125.345 15.0924 126.296 14.0789 127.586 13.3188C128.79 12.5587 130.08 12.2183 131.458 12.2183C132.748 12.2183 133.865 12.3845 134.902 12.725C135.931 13.0655 136.707 13.5722 137.23 14.166L137.744 12.9784H142.4V12.9704ZM137.317 22.44V18.6316C136.976 17.8715 136.454 17.2776 135.678 16.858C134.902 16.4384 134.047 16.185 133.01 16.185C131.806 16.185 130.769 16.6046 129.906 17.3727C129.043 18.1328 128.615 19.1462 128.615 20.413C128.615 21.6007 129.043 22.6933 129.906 23.5405C130.769 24.3877 131.798 24.8073 133.01 24.8073C134.997 24.7282 136.462 23.9681 137.317 22.44Z" />
        <path d="M146.53 16.1848C147.306 14.918 148.336 13.9837 149.713 13.2236C151.091 12.5506 152.643 12.123 154.361 12.123C156.079 12.123 157.631 12.4635 159.009 13.2236C160.299 13.8966 161.336 14.918 162.104 16.1848C162.793 17.4516 163.221 18.8055 163.221 20.4128C163.221 22.0201 162.872 23.374 162.104 24.6409C161.416 25.9077 160.378 26.9211 159.009 27.6021C157.718 28.2751 156.079 28.7026 154.361 28.7026C152.643 28.7026 151.091 28.3622 149.713 27.6892C148.336 27.0162 147.306 26.0819 146.53 24.8151C145.755 23.5482 145.414 22.1072 145.414 20.3337C145.414 18.8926 145.755 17.4516 146.53 16.1848ZM151.526 23.5403C152.215 24.3875 153.165 24.728 154.282 24.728C155.398 24.728 156.348 24.3083 157.037 23.5403C157.726 22.7802 158.066 21.6797 158.066 20.4999C158.066 19.2331 157.718 18.2196 157.037 17.4595C156.348 16.6995 155.398 16.2719 154.282 16.2719C153.165 16.2719 152.302 16.6915 151.526 17.4595C150.751 18.2196 150.41 19.3202 150.41 20.4999C150.489 21.6797 150.838 22.701 151.526 23.5403Z" />
        <path d="M180.882 13.4773C181.919 14.3245 182.347 15.425 182.434 16.7789V28.3625H177.359V18.6396C177.271 17.1194 176.496 16.3593 175.031 16.3593C173.914 16.3593 172.964 16.866 172.275 17.9666C171.587 19.0671 171.238 20.4211 171.238 22.0283V28.3704H166.242V12.9705H170.803L171.151 15.425C171.753 14.4116 172.529 13.6515 173.558 13.0576C174.595 12.4638 175.799 12.2104 177.176 12.2104C178.649 12.2104 179.94 12.6301 180.882 13.4773Z" />
        <path d="M35.2176 12.7169C34.3546 12.2102 33.2382 12.2102 32.2881 12.7169L25.5739 16.6045L21.0134 19.1382L14.2992 23.0257C13.4362 23.5325 12.3198 23.5325 11.3696 23.0257L6.03315 19.9854C5.17012 19.4786 4.56838 18.5443 4.56838 17.5309V11.5293C4.56838 10.5158 5.08303 9.58155 6.03315 9.07482L11.2826 6.12154C12.1456 5.61481 13.262 5.61481 14.2121 6.12154L19.4615 9.08274C20.3245 9.58947 20.9263 10.5238 20.9263 11.5372V15.4248L25.4868 12.804V8.91647C25.4868 7.90301 24.9722 6.96873 24.0221 6.462L14.2992 0.880048C13.4362 0.373318 12.3198 0.373318 11.3696 0.880048L1.47258 6.462C0.52246 6.96873 0.0078125 7.90301 0.0078125 8.91647V20.1595C0.0078125 21.173 0.52246 22.1073 1.47258 22.614L11.3696 28.196C12.2327 28.7027 13.3491 28.7027 14.2992 28.196L21.0134 24.3876L25.5739 21.7668L32.2881 17.9584C33.1511 17.4517 34.2675 17.4517 35.2176 17.9584L40.467 20.9196C41.3301 21.4264 41.9318 22.3606 41.9318 23.3741V29.3757C41.9318 30.3892 41.4172 31.3234 40.467 31.8302L35.2176 34.8785C34.3546 35.3852 33.2382 35.3852 32.2881 34.8785L27.0387 31.9173C26.1757 31.4105 25.5739 30.4762 25.5739 29.4628V25.5752L21.0134 28.196V32.0835C21.0134 33.097 21.528 34.0313 22.4781 34.538L32.3752 40.1199C33.2382 40.6267 34.3546 40.6267 35.3047 40.1199L45.2018 34.538C46.0648 34.0313 46.6666 33.097 46.6666 32.0835V20.8405C46.6666 19.827 46.1519 18.8927 45.2018 18.386L35.2176 12.7169Z" />
      </g>
</svg>