<svg viewBox="0 0 127 45" height="44px" width="auto" xmlns="http://www.w3.org/2000/svg">
  <path d="M55.2381 44.5002C53.4349 44.1704 52.0737 42.9917 51.5755 41.3148C51.4212 40.7955 51.4001 39.6168 51.5334 39.0414C51.779 37.9749 52.6771 36.8242 53.6664 36.298C55.8906 35.1333 58.7814 35.7507 60.0444 37.6662C60.9354 39.0064 61.0267 40.7113 60.2829 42.1848C60.0163 42.704 59.3357 43.4337 58.7744 43.7986C57.8552 44.3879 56.3257 44.6897 55.2381 44.5002ZM56.922 42.5988C57.4483 42.4234 58.0166 41.9041 58.2973 41.3218C58.613 40.6833 58.6341 39.6448 58.3394 38.9993C57.9464 38.1293 57.2238 37.6171 56.2976 37.5469C54.5786 37.4277 53.3226 38.9572 53.7015 40.7464C53.8699 41.5744 54.6277 42.4163 55.4135 42.6409C55.8345 42.7672 56.494 42.7391 56.922 42.5988Z" />
  <path d="M2.82229 44.3317C2.18379 44.1633 1.02608 43.63 0.64018 43.3283L0.429688 43.1599L0.808574 42.3951C1.01907 41.9671 1.20851 41.6093 1.24359 41.5882C1.28569 41.5602 1.44005 41.6374 1.5874 41.7566C2.02943 42.1004 3.0819 42.5565 3.72741 42.6898C4.40098 42.8301 4.86407 42.7881 5.24997 42.5565C5.4745 42.4232 5.50958 42.353 5.50958 42.0373C5.50958 41.4479 5.29207 41.3006 3.75547 40.8445C1.62248 40.22 0.955919 39.6096 0.955919 38.2905C0.955919 37.0135 1.71369 36.1926 3.23626 35.7997C3.88878 35.6313 5.24997 35.6734 6.04984 35.8909C6.51994 36.0172 7.76887 36.5575 7.76887 36.6276C7.76887 36.7048 6.99706 38.2835 6.96198 38.2835C6.93391 38.2835 6.74447 38.1923 6.52696 38.08C5.75515 37.6941 4.71672 37.4135 4.12734 37.4556C3.49586 37.4977 3.23626 37.6661 3.23626 38.0449C3.23626 38.5992 3.47482 38.7536 5.12368 39.2728C6.8848 39.8271 7.56539 40.3674 7.76887 41.3567C8.06356 42.767 7.22159 43.9598 5.62886 44.3808C5.01141 44.5492 3.58006 44.5211 2.82229 44.3317Z" />
  <path d="M9.12341 40.1289V35.7646H10.218H11.3055L11.3195 37.638L11.3476 39.5184L13.0105 37.638L14.6734 35.7646H15.9013C17.052 35.7646 17.1221 35.7717 17.0099 35.905C16.9397 35.9892 16.2381 36.775 15.4452 37.6661C14.6453 38.5572 13.9928 39.322 13.9928 39.3711C13.9928 39.4202 14.7506 40.5709 15.6697 41.9391C16.5959 43.3003 17.3467 44.4299 17.3467 44.458C17.3467 44.472 16.7643 44.4931 16.0697 44.4931H14.7857L13.7051 42.8583C13.1087 41.9602 12.5685 41.1813 12.5194 41.1392C12.4422 41.0691 12.2668 41.2164 11.8528 41.6655L11.2985 42.2899V43.3985V44.5001H10.2039H9.10938V40.1289H9.12341Z" />
  <path d="M20.7108 43.0968V41.6935L19.1461 38.7957C18.2831 37.203 17.5604 35.8629 17.5394 35.8348C17.5253 35.7927 17.9954 35.7646 18.5778 35.7646H19.6583L20.7108 37.6521C21.2791 38.6905 21.7703 39.5395 21.7913 39.5395C21.8194 39.5395 22.2965 38.6905 22.8508 37.6521L23.8612 35.7646H26.1064H28.3517L28.5131 36.2067C28.5973 36.4452 29.1024 37.8766 29.6217 39.3992C30.1409 40.9077 30.5969 42.1285 30.618 42.1005C30.646 42.0724 31.1653 40.6481 31.7617 38.9291L32.8562 35.8067L33.9718 35.7787C34.6454 35.7717 35.0804 35.7857 35.0664 35.8348C35.0594 35.8769 34.2876 37.8415 33.3614 40.199L31.6845 44.4861L30.5478 44.458L29.4252 44.444L28.0921 41.055C27.3624 39.1816 26.6046 37.2451 26.4151 36.7399C26.0994 35.919 26.0573 35.8418 25.945 35.9751C25.8889 36.0664 25.1732 37.3714 24.3663 38.8799L22.8999 41.6163V43.0617V44.5001H21.8054H20.7108V43.0968Z" />
  <path d="M35.9922 40.1289V35.7646H37.0868H38.1813V40.1289V44.4931H37.0868H35.9922V40.1289Z" />
  <path d="M41.6981 44.3173C41.0456 44.1489 39.8738 43.6017 39.523 43.307L39.3125 43.1386L39.7265 42.3177L40.1264 41.4967L40.5825 41.8125C41.5367 42.479 42.9821 42.907 43.7328 42.7386C44.1258 42.6474 44.4696 42.3247 44.4696 42.051C44.4696 41.5108 44.0346 41.2301 42.6243 40.8302C41.1578 40.4162 40.5193 40.0514 40.1194 39.3778C39.9159 39.041 39.8949 38.9007 39.8949 38.2762C39.8949 37.4553 40.0492 37.0904 40.5825 36.5852C41.7472 35.4696 44.217 35.3644 46.2096 36.3397L46.7359 36.5993L46.3079 37.4412C46.0834 37.9043 45.8658 38.2692 45.8308 38.2551C43.9083 37.3079 42.3366 37.1536 42.1542 37.9113C42.0208 38.4516 42.4839 38.8024 43.789 39.1813C45.0239 39.5392 45.5501 39.7847 46.0062 40.1987C46.5464 40.7039 46.771 41.2582 46.7218 42.0089C46.6447 43.1947 45.9009 44.0156 44.5959 44.3524C43.8802 44.5559 42.4909 44.5278 41.6981 44.3173Z" />
  <path d="M47.9914 40.1289V35.7646H49.086H50.1735V40.1289V44.4931H49.0789H47.9844V40.1289H47.9914Z" />
  <path d="M62.021 40.1289V35.7646H62.9753H63.9295L65.9502 38.466L67.971 41.1603V38.466V35.7646H69.0234H70.0759V40.1289V44.4931H69.1076H68.1394L66.1397 41.8128C65.0451 40.3323 64.126 39.1255 64.0909 39.1255C64.0488 39.1185 64.0207 40.3253 64.0207 41.8058V44.4931H63.0104H62V40.1289H62.021Z" />
  <path d="M79.1519 44.3598C77.6504 43.9598 76.4155 42.753 76.0086 41.3006C75.8051 40.5709 75.763 40.1078 75.8683 39.4904C76.0717 38.1993 76.9769 36.9224 78.1205 36.326C79.7834 35.4559 81.5866 35.5963 83.1513 36.7119C83.5372 36.9785 83.5372 37.0066 83.1513 37.4696L82.9548 37.7082L82.6181 37.4416C81.8673 36.8382 80.7517 36.5365 79.8045 36.6838C76.8716 37.1609 75.763 40.6551 77.9241 42.6478C79.159 43.7914 81.2148 43.8756 82.5549 42.8512L82.9478 42.5495L83.2355 42.8793L83.5091 43.2091L83.2355 43.4336C82.8215 43.7774 81.9164 44.2335 81.3551 44.3808C80.7517 44.5282 79.7554 44.5211 79.1519 44.3598Z" />
  <path d="M84.1226 44.3945C84.1366 44.3384 85.0207 42.3598 86.0732 40.0233L87.9887 35.7573L88.4938 35.7854L88.999 35.8135L90.9145 40.0935C91.974 42.451 92.837 44.4016 92.837 44.4437C92.837 44.4787 92.6195 44.4998 92.3459 44.4998H91.8477L91.3495 43.3631L90.8514 42.2265H88.4517H86.0521L85.568 43.3631L85.0839 44.4998H84.5787C84.2208 44.4998 84.0875 44.4717 84.1226 44.3945ZM90.3953 41.2372C90.3953 41.1951 90.0164 40.325 89.5463 39.2796C89.0832 38.2482 88.6482 37.2659 88.578 37.1045L88.4517 36.8098L87.4835 38.9849C86.9572 40.1847 86.5292 41.1951 86.5292 41.2372C86.5292 41.2722 87.3993 41.3073 88.4588 41.3073C89.5323 41.3073 90.3953 41.2722 90.3953 41.2372Z" />
  <path d="M94.2578 40.1289V35.7646H96.1312C97.1626 35.7646 98.2291 35.8067 98.5098 35.8559C99.2395 35.9892 99.8289 36.2979 100.257 36.782C100.741 37.3293 100.937 37.8766 100.923 38.7466C100.909 39.9745 100.411 40.8305 99.4429 41.3006C98.7624 41.6304 98.1168 41.7286 96.5522 41.7286H95.2682V43.1108V44.4931H94.763H94.2578V40.1289ZM98.8325 40.5639C99.6745 40.178 99.9972 39.6658 99.9972 38.6905C100.004 38.1292 99.9692 38.0099 99.7517 37.638C99.5482 37.3293 99.3728 37.1679 98.9939 36.9715C98.5098 36.7189 98.4887 36.7189 96.8749 36.6978L95.2541 36.6628V38.7396V40.8165L96.8328 40.7814C98.2502 40.7603 98.4536 40.7323 98.8325 40.5639Z" />
  <path d="M102.648 40.1289V35.7646H103.112H103.575V40.1289V44.4931H103.112H102.648V40.1289Z" />
  <path d="M107.942 40.5919V36.6908H106.518H105.094V36.2277V35.7646H108.413H111.731V36.2277V36.6908H110.307H108.883V40.5919V44.4931H108.42H107.956V40.5919H107.942Z" />
  <path d="M111.254 44.3526C111.282 44.2684 112.152 42.3109 113.197 40.0025L115.078 35.8066H115.59H116.102L118.032 40.1147C119.091 42.4793 119.954 44.4368 119.954 44.4649C119.954 44.4789 119.73 44.5 119.456 44.5H118.958L118.474 43.3633L117.976 42.2407L115.576 42.2337H113.176L112.678 43.3703L112.18 44.507H111.696C111.268 44.5 111.212 44.4789 111.254 44.3526ZM117.477 41.1602C117.344 40.7883 115.639 36.9714 115.59 36.9082C115.555 36.8731 115.337 37.2871 115.106 37.8344C114.874 38.3817 114.432 39.378 114.131 40.0656L113.583 41.3005H115.562C117.407 41.3075 117.533 41.3005 117.477 41.1602Z" />
  <path d="M121.375 40.1289V35.7646H121.88H122.385V39.6658V43.5669H124.273H126.16V44.03V44.4931H123.768H121.375V40.1289Z" />
  <path d="M67.3732 28.5868C66.433 28.3482 65.4998 27.7378 64.5737 26.7765C64.2369 26.4257 61.0865 22.1808 57.2345 16.9044L50.4847 7.64273H38.8515C30.9439 7.64273 27.113 7.67079 26.8955 7.73394C26.7201 7.77604 26.4605 7.91637 26.3271 8.04266C25.843 8.47768 25.9412 9.39683 26.5236 9.71257C26.7832 9.8529 27.2954 9.86693 35.1538 9.91605C44.1208 9.96516 44.1278 9.96516 45.917 10.4212C49.0884 11.2211 51.7126 13.1366 52.9054 15.5081C53.4597 16.6167 53.6421 17.4236 53.6842 18.8901C53.7193 19.9987 53.6982 20.3074 53.5509 20.988C53.2071 22.5386 52.2248 24.1454 50.9618 25.2259C48.8849 26.994 46.4292 27.9483 43.2016 28.2079C42.4439 28.264 37.8762 28.2921 29.2249 28.278L16.3779 28.25L19.1072 24.7067L21.8436 21.1704L32.3823 21.1353L42.921 21.1072L43.5946 21.002C45.1382 20.5249 45.7907 19.704 45.6153 18.7497C45.5381 18.3919 45.068 17.8446 44.619 17.6131C44.4436 17.5219 44.0085 17.3605 43.6507 17.2622C43.0122 17.0868 42.8649 17.0868 34.1855 17.0377C26.4324 16.9886 25.2887 16.9605 24.6572 16.8342C22.8119 16.4764 21.142 15.8169 19.8229 14.9398C18.8967 14.3153 17.732 13.1296 17.297 12.3367C16.0481 10.1055 16.0691 7.26384 17.3531 5.1098C18.4758 3.21536 20.9806 1.55949 23.703 0.913976C25.4641 0.492991 25.0993 0.500007 41.0406 0.500007H55.9505L62.1249 9.04601C65.5139 13.74 68.3275 17.585 68.3906 17.585C68.4888 17.585 74.9229 8.78641 75.835 7.38312C78.0101 4.09242 81.5885 1.8191 86.0018 0.928009C88.0717 0.507024 88.2962 0.500007 99.6137 0.500007H110.216L107.465 4.07137L104.722 7.64273H97.4597C93.0463 7.64273 89.903 7.67781 89.4399 7.72692C87.4472 7.96548 85.8475 8.66011 84.5635 9.8529C84.0934 10.2949 83.6934 10.8212 82.8234 12.1192C81.8341 13.6067 80.2484 15.7607 73.7722 24.44C71.7936 27.0923 70.7762 28.0395 69.429 28.4955C68.7905 28.692 67.9626 28.7341 67.3732 28.5868Z" />
  <path d="M88.8869 28.2008C85.6313 27.9552 82.6985 26.9799 80.1936 25.324C79.3937 24.7978 77.9133 23.5839 77.7659 23.3594C77.7449 23.3173 78.8675 21.7456 80.2708 19.8652L82.8107 16.4482L82.9651 16.8061C83.5685 18.3286 85.1542 19.7881 86.9645 20.4827C87.3083 20.616 87.9748 20.8125 88.4309 20.9107L89.2588 21.1071L99.7133 21.1492L110.175 21.1984L107.438 24.7417L104.709 28.285L97.2365 28.2779C93.1319 28.2779 89.3711 28.2429 88.8869 28.2008Z" />
  <g clipPath="url(#clip0_8541_265765)">
        <path d="M55.2381 44.5002C53.4349 44.1704 52.0737 42.9917 51.5755 41.3148C51.4212 40.7955 51.4001 39.6168 51.5334 39.0414C51.779 37.9749 52.6771 36.8242 53.6664 36.298C55.8906 35.1333 58.7814 35.7507 60.0444 37.6662C60.9354 39.0064 61.0267 40.7113 60.2829 42.1848C60.0163 42.704 59.3357 43.4337 58.7744 43.7986C57.8552 44.3879 56.3257 44.6897 55.2381 44.5002ZM56.922 42.5988C57.4483 42.4234 58.0166 41.9041 58.2973 41.3218C58.613 40.6833 58.6341 39.6448 58.3394 38.9993C57.9464 38.1293 57.2238 37.6171 56.2976 37.5469C54.5786 37.4277 53.3226 38.9572 53.7015 40.7464C53.8699 41.5744 54.6277 42.4163 55.4135 42.6409C55.8345 42.7672 56.494 42.7391 56.922 42.5988Z" />
        <path d="M2.82229 44.3317C2.18379 44.1633 1.02608 43.63 0.64018 43.3283L0.429688 43.1599L0.808574 42.3951C1.01907 41.9671 1.20851 41.6093 1.24359 41.5882C1.28569 41.5602 1.44005 41.6374 1.5874 41.7566C2.02943 42.1004 3.0819 42.5565 3.72741 42.6898C4.40098 42.8301 4.86407 42.7881 5.24997 42.5565C5.4745 42.4232 5.50958 42.353 5.50958 42.0373C5.50958 41.4479 5.29207 41.3006 3.75547 40.8445C1.62248 40.22 0.955919 39.6096 0.955919 38.2905C0.955919 37.0135 1.71369 36.1926 3.23626 35.7997C3.88878 35.6313 5.24997 35.6734 6.04984 35.8909C6.51994 36.0172 7.76887 36.5575 7.76887 36.6276C7.76887 36.7048 6.99706 38.2835 6.96198 38.2835C6.93391 38.2835 6.74447 38.1923 6.52696 38.08C5.75515 37.6941 4.71672 37.4135 4.12734 37.4556C3.49586 37.4977 3.23626 37.6661 3.23626 38.0449C3.23626 38.5992 3.47482 38.7536 5.12368 39.2728C6.8848 39.8271 7.56539 40.3674 7.76887 41.3567C8.06356 42.767 7.22159 43.9598 5.62886 44.3808C5.01141 44.5492 3.58006 44.5211 2.82229 44.3317Z" />
        <path d="M9.12341 40.1289V35.7646H10.218H11.3055L11.3195 37.638L11.3476 39.5184L13.0105 37.638L14.6734 35.7646H15.9013C17.052 35.7646 17.1221 35.7717 17.0099 35.905C16.9397 35.9892 16.2381 36.775 15.4452 37.6661C14.6453 38.5572 13.9928 39.322 13.9928 39.3711C13.9928 39.4202 14.7506 40.5709 15.6697 41.9391C16.5959 43.3003 17.3467 44.4299 17.3467 44.458C17.3467 44.472 16.7643 44.4931 16.0697 44.4931H14.7857L13.7051 42.8583C13.1087 41.9602 12.5685 41.1813 12.5194 41.1392C12.4422 41.0691 12.2668 41.2164 11.8528 41.6655L11.2985 42.2899V43.3985V44.5001H10.2039H9.10938V40.1289H9.12341Z" />
        <path d="M20.7108 43.0968V41.6935L19.1461 38.7957C18.2831 37.203 17.5604 35.8629 17.5394 35.8348C17.5253 35.7927 17.9954 35.7646 18.5778 35.7646H19.6583L20.7108 37.6521C21.2791 38.6905 21.7703 39.5395 21.7913 39.5395C21.8194 39.5395 22.2965 38.6905 22.8508 37.6521L23.8612 35.7646H26.1064H28.3517L28.5131 36.2067C28.5973 36.4452 29.1024 37.8766 29.6217 39.3992C30.1409 40.9077 30.5969 42.1285 30.618 42.1005C30.646 42.0724 31.1653 40.6481 31.7617 38.9291L32.8562 35.8067L33.9718 35.7787C34.6454 35.7717 35.0804 35.7857 35.0664 35.8348C35.0594 35.8769 34.2876 37.8415 33.3614 40.199L31.6845 44.4861L30.5478 44.458L29.4252 44.444L28.0921 41.055C27.3624 39.1816 26.6046 37.2451 26.4151 36.7399C26.0994 35.919 26.0573 35.8418 25.945 35.9751C25.8889 36.0664 25.1732 37.3714 24.3663 38.8799L22.8999 41.6163V43.0617V44.5001H21.8054H20.7108V43.0968Z" />
        <path d="M35.9922 40.1289V35.7646H37.0868H38.1813V40.1289V44.4931H37.0868H35.9922V40.1289Z" />
        <path d="M41.6981 44.3173C41.0456 44.1489 39.8738 43.6017 39.523 43.307L39.3125 43.1386L39.7265 42.3177L40.1264 41.4967L40.5825 41.8125C41.5367 42.479 42.9821 42.907 43.7328 42.7386C44.1258 42.6474 44.4696 42.3247 44.4696 42.051C44.4696 41.5108 44.0346 41.2301 42.6243 40.8302C41.1578 40.4162 40.5193 40.0514 40.1194 39.3778C39.9159 39.041 39.8949 38.9007 39.8949 38.2762C39.8949 37.4553 40.0492 37.0904 40.5825 36.5852C41.7472 35.4696 44.217 35.3644 46.2096 36.3397L46.7359 36.5993L46.3079 37.4412C46.0834 37.9043 45.8658 38.2692 45.8308 38.2551C43.9083 37.3079 42.3366 37.1536 42.1542 37.9113C42.0208 38.4516 42.4839 38.8024 43.789 39.1813C45.0239 39.5392 45.5501 39.7847 46.0062 40.1987C46.5464 40.7039 46.771 41.2582 46.7218 42.0089C46.6447 43.1947 45.9009 44.0156 44.5959 44.3524C43.8802 44.5559 42.4909 44.5278 41.6981 44.3173Z" />
        <path d="M47.9914 40.1289V35.7646H49.086H50.1735V40.1289V44.4931H49.0789H47.9844V40.1289H47.9914Z" />
        <path d="M62.021 40.1289V35.7646H62.9753H63.9295L65.9502 38.466L67.971 41.1603V38.466V35.7646H69.0234H70.0759V40.1289V44.4931H69.1076H68.1394L66.1397 41.8128C65.0451 40.3323 64.126 39.1255 64.0909 39.1255C64.0488 39.1185 64.0207 40.3253 64.0207 41.8058V44.4931H63.0104H62V40.1289H62.021Z" />
        <path d="M79.1519 44.3598C77.6504 43.9598 76.4155 42.753 76.0086 41.3006C75.8051 40.5709 75.763 40.1078 75.8683 39.4904C76.0717 38.1993 76.9769 36.9224 78.1205 36.326C79.7834 35.4559 81.5866 35.5963 83.1513 36.7119C83.5372 36.9785 83.5372 37.0066 83.1513 37.4696L82.9548 37.7082L82.6181 37.4416C81.8673 36.8382 80.7517 36.5365 79.8045 36.6838C76.8716 37.1609 75.763 40.6551 77.9241 42.6478C79.159 43.7914 81.2148 43.8756 82.5549 42.8512L82.9478 42.5495L83.2355 42.8793L83.5091 43.2091L83.2355 43.4336C82.8215 43.7774 81.9164 44.2335 81.3551 44.3808C80.7517 44.5282 79.7554 44.5211 79.1519 44.3598Z" />
        <path d="M84.1226 44.3945C84.1366 44.3384 85.0207 42.3598 86.0732 40.0233L87.9887 35.7573L88.4938 35.7854L88.999 35.8135L90.9145 40.0935C91.974 42.451 92.837 44.4016 92.837 44.4437C92.837 44.4787 92.6195 44.4998 92.3459 44.4998H91.8477L91.3495 43.3631L90.8514 42.2265H88.4517H86.0521L85.568 43.3631L85.0839 44.4998H84.5787C84.2208 44.4998 84.0875 44.4717 84.1226 44.3945ZM90.3953 41.2372C90.3953 41.1951 90.0164 40.325 89.5463 39.2796C89.0832 38.2482 88.6482 37.2659 88.578 37.1045L88.4517 36.8098L87.4835 38.9849C86.9572 40.1847 86.5292 41.1951 86.5292 41.2372C86.5292 41.2722 87.3993 41.3073 88.4588 41.3073C89.5323 41.3073 90.3953 41.2722 90.3953 41.2372Z" />
        <path d="M94.2578 40.1289V35.7646H96.1312C97.1626 35.7646 98.2291 35.8067 98.5098 35.8559C99.2395 35.9892 99.8289 36.2979 100.257 36.782C100.741 37.3293 100.937 37.8766 100.923 38.7466C100.909 39.9745 100.411 40.8305 99.4429 41.3006C98.7624 41.6304 98.1168 41.7286 96.5522 41.7286H95.2682V43.1108V44.4931H94.763H94.2578V40.1289ZM98.8325 40.5639C99.6745 40.178 99.9972 39.6658 99.9972 38.6905C100.004 38.1292 99.9692 38.0099 99.7517 37.638C99.5482 37.3293 99.3728 37.1679 98.9939 36.9715C98.5098 36.7189 98.4887 36.7189 96.8749 36.6978L95.2541 36.6628V38.7396V40.8165L96.8328 40.7814C98.2502 40.7603 98.4536 40.7323 98.8325 40.5639Z" />
        <path d="M102.648 40.1289V35.7646H103.112H103.575V40.1289V44.4931H103.112H102.648V40.1289Z" />
        <path d="M107.942 40.5919V36.6908H106.518H105.094V36.2277V35.7646H108.413H111.731V36.2277V36.6908H110.307H108.883V40.5919V44.4931H108.42H107.956V40.5919H107.942Z" />
        <path d="M111.254 44.3526C111.282 44.2684 112.152 42.3109 113.197 40.0025L115.078 35.8066H115.59H116.102L118.032 40.1147C119.091 42.4793 119.954 44.4368 119.954 44.4649C119.954 44.4789 119.73 44.5 119.456 44.5H118.958L118.474 43.3633L117.976 42.2407L115.576 42.2337H113.176L112.678 43.3703L112.18 44.507H111.696C111.268 44.5 111.212 44.4789 111.254 44.3526ZM117.477 41.1602C117.344 40.7883 115.639 36.9714 115.59 36.9082C115.555 36.8731 115.337 37.2871 115.106 37.8344C114.874 38.3817 114.432 39.378 114.131 40.0656L113.583 41.3005H115.562C117.407 41.3075 117.533 41.3005 117.477 41.1602Z" />
        <path d="M121.375 40.1289V35.7646H121.88H122.385V39.6658V43.5669H124.273H126.16V44.03V44.4931H123.768H121.375V40.1289Z" />
        <path d="M67.3732 28.5868C66.433 28.3482 65.4998 27.7378 64.5737 26.7765C64.2369 26.4257 61.0865 22.1808 57.2345 16.9044L50.4847 7.64273H38.8515C30.9439 7.64273 27.113 7.67079 26.8955 7.73394C26.7201 7.77604 26.4605 7.91637 26.3271 8.04266C25.843 8.47768 25.9412 9.39683 26.5236 9.71257C26.7832 9.8529 27.2954 9.86693 35.1538 9.91605C44.1208 9.96516 44.1278 9.96516 45.917 10.4212C49.0884 11.2211 51.7126 13.1366 52.9054 15.5081C53.4597 16.6167 53.6421 17.4236 53.6842 18.8901C53.7193 19.9987 53.6982 20.3074 53.5509 20.988C53.2071 22.5386 52.2248 24.1454 50.9618 25.2259C48.8849 26.994 46.4292 27.9483 43.2016 28.2079C42.4439 28.264 37.8762 28.2921 29.2249 28.278L16.3779 28.25L19.1072 24.7067L21.8436 21.1704L32.3823 21.1353L42.921 21.1072L43.5946 21.002C45.1382 20.5249 45.7907 19.704 45.6153 18.7497C45.5381 18.3919 45.068 17.8446 44.619 17.6131C44.4436 17.5219 44.0085 17.3605 43.6507 17.2622C43.0122 17.0868 42.8649 17.0868 34.1855 17.0377C26.4324 16.9886 25.2887 16.9605 24.6572 16.8342C22.8119 16.4764 21.142 15.8169 19.8229 14.9398C18.8967 14.3153 17.732 13.1296 17.297 12.3367C16.0481 10.1055 16.0691 7.26384 17.3531 5.1098C18.4758 3.21536 20.9806 1.55949 23.703 0.913976C25.4641 0.492991 25.0993 0.500007 41.0406 0.500007H55.9505L62.1249 9.04601C65.5139 13.74 68.3275 17.585 68.3906 17.585C68.4888 17.585 74.9229 8.78641 75.835 7.38312C78.0101 4.09242 81.5885 1.8191 86.0018 0.928009C88.0717 0.507024 88.2962 0.500007 99.6137 0.500007H110.216L107.465 4.07137L104.722 7.64273H97.4597C93.0463 7.64273 89.903 7.67781 89.4399 7.72692C87.4472 7.96548 85.8475 8.66011 84.5635 9.8529C84.0934 10.2949 83.6934 10.8212 82.8234 12.1192C81.8341 13.6067 80.2484 15.7607 73.7722 24.44C71.7936 27.0923 70.7762 28.0395 69.429 28.4955C68.7905 28.692 67.9626 28.7341 67.3732 28.5868Z" />
        <path d="M88.8869 28.2008C85.6313 27.9552 82.6985 26.9799 80.1936 25.324C79.3937 24.7978 77.9133 23.5839 77.7659 23.3594C77.7449 23.3173 78.8675 21.7456 80.2708 19.8652L82.8107 16.4482L82.9651 16.8061C83.5685 18.3286 85.1542 19.7881 86.9645 20.4827C87.3083 20.616 87.9748 20.8125 88.4309 20.9107L89.2588 21.1071L99.7133 21.1492L110.175 21.1984L107.438 24.7417L104.709 28.285L97.2365 28.2779C93.1319 28.2779 89.3711 28.2429 88.8869 28.2008Z" />
      </g>
</svg>