<svg width="2152" height="600" viewBox="0 0 2152 600" fill="none" xmlns="http://www.w3.org/2000/svg">
<path d="M279.49 203.602L110.976 8.54525C107.032 3.97911 112.319 -2.10696 117.773 0.722263L508.166 195.779C513.302 198.444 511.687 205.641 505.946 205.67L284.067 205.67C282.317 205.678 280.623 204.913 279.49 203.602Z" fill="black"/>
<path d="M517.944 241.437L288.698 593.272C285.483 598.223 277.165 594.853 278.377 589.091L333.108 328.942C333.417 327.47 334.389 326.225 335.775 325.523L510.291 233.838C515.289 231.306 520.903 236.881 517.944 241.437Z" fill="black"/>
<path d="M281.101 215.773L506.182 214.313C511.999 214.276 514.382 221.603 509.411 224.238L333.221 317.635C332.572 317.979 331.85 318.191 331.097 318.259L91.4505 339.896C85.5673 340.428 82.5851 333.051 87.5 330.125L278.256 216.55C279.099 216.048 280.083 215.779 281.101 215.773Z" fill="black"/>
<path d="M1835.74 460.459L1965.29 282.022V313.431L1839.26 139.546H1919.62L2003.93 261.994H1981.97L2066.72 139.546H2147.08L2020.61 313.431V282.022L2151.03 460.459H2070.24L1981.97 333.459H2004.37L1915.66 460.459H1835.74Z" fill="black"/>
<path d="M1580.58 460.459V139.546H1795.75V194.625H1646.01V269.732H1785.21V325.266H1646.01V405.38H1795.75V460.459H1580.58Z" fill="black"/>
<path d="M1246.94 460.459V139.546H1297.88L1466.06 361.226H1454.21V139.546H1517.88V460.459H1466.94L1299.2 238.779H1310.61V460.459H1246.94Z" fill="black"/>
<path d="M888.656 299.772C888.656 266.391 894.658 237.41 906.66 212.83C918.956 187.946 936.521 168.676 959.355 155.02C982.189 141.364 1009.27 134.536 1040.59 134.536C1071.92 134.536 1099 141.364 1121.83 155.02C1144.66 168.676 1162.23 187.946 1174.52 212.83C1187.11 237.41 1193.41 266.239 1193.41 299.317C1193.41 333.001 1187.11 362.286 1174.52 387.17C1162.23 411.75 1144.66 431.02 1121.83 444.98C1099 458.636 1071.92 465.463 1040.59 465.463C1009.27 465.463 982.189 458.636 959.355 444.98C936.813 431.02 919.395 411.599 907.099 386.715C894.804 361.831 888.656 332.85 888.656 299.772ZM960.233 299.772C960.233 332.85 966.82 358.796 979.994 377.611C993.46 396.122 1013.66 405.378 1040.59 405.378C1066.94 405.378 1086.99 396.122 1100.75 377.611C1114.51 358.796 1121.39 332.85 1121.39 299.772C1121.39 266.391 1114.51 240.597 1100.75 222.389C1087.29 203.878 1067.23 194.622 1040.59 194.622C1013.66 194.622 993.46 203.878 979.994 222.389C966.82 240.597 960.233 266.391 960.233 299.772Z" fill="black"/>
<path d="M720.82 465.463C695.936 465.463 672.663 462.277 650.999 455.904C629.336 449.532 610.893 440.731 595.67 429.503L615.87 373.969C625.823 380.949 636.362 386.866 647.486 391.722C658.611 396.577 670.321 400.37 682.616 403.102C694.912 405.529 707.793 406.743 721.259 406.743C742.337 406.743 757.267 403.405 766.049 396.729C775.125 390.053 779.662 381.556 779.662 371.238C779.662 361.831 776.588 354.699 770.441 349.844C764.586 344.685 753.754 340.285 737.946 336.643L686.129 325.718C657.733 319.649 636.508 309.331 622.456 294.765C608.404 280.199 601.379 260.777 601.379 236.5C601.379 215.864 606.648 197.96 617.187 182.787C627.726 167.614 642.51 155.779 661.538 147.282C680.86 138.785 703.401 134.536 729.163 134.536C751.119 134.536 771.612 137.722 790.64 144.095C809.669 150.468 825.331 159.572 837.626 171.407L817.427 223.299C805.424 213.285 791.958 205.85 777.028 200.995C762.39 195.836 745.996 193.256 727.846 193.256C708.817 193.256 694.18 196.746 683.934 203.726C673.98 210.706 669.003 220.265 669.003 232.403C669.003 241.507 672.077 248.942 678.225 254.708C684.373 260.17 695.204 264.57 710.72 267.908L761.658 278.378C790.64 284.447 812.157 294.613 826.209 308.876C840.261 323.139 847.287 342.105 847.287 365.776C847.287 385.804 842.018 403.253 831.479 418.123C821.233 432.993 806.595 444.676 787.566 453.173C768.831 461.367 746.582 465.463 720.82 465.463Z" fill="black"/>
</svg>
