<svg viewBox="0 0 166 49" height="12" width="auto" xmlns="http://www.w3.org/2000/svg">
  <path d="M57.1746 20.6061L55.2912 21.7259C55.0367 21.2678 54.6804 20.8606 54.2732 20.5552C53.357 20.0462 52.2371 20.148 51.3718 20.8097C50.9646 21.1151 50.7101 21.6241 50.761 22.184C50.761 22.9475 51.3209 23.5075 52.4407 23.9656L53.9678 24.5764C55.0367 24.9327 55.9529 25.5944 56.7165 26.4088C57.3273 27.1724 57.6327 28.0886 57.5818 29.0557C57.6327 30.3791 57.1237 31.6517 56.2074 32.517C55.2912 33.4332 53.9678 33.9422 52.6952 33.8913C51.4736 33.9422 50.3029 33.535 49.3867 32.7206C48.4704 31.8044 47.9105 30.6336 47.7578 29.412L50.0993 28.903C50.1502 29.5647 50.3029 30.2264 50.6592 30.7864C51.5754 31.9062 53.2552 32.1098 54.375 31.1936C54.4259 31.1427 54.4768 31.0918 54.5277 31.0409C54.9858 30.5318 55.2912 29.8701 55.2403 29.2084C55.2403 28.9539 55.1894 28.6485 55.1385 28.394C55.0367 28.1395 54.9349 27.885 54.7313 27.7323C54.5277 27.5287 54.3241 27.3251 54.0696 27.1215C53.7642 26.9178 53.4079 26.7651 53.0516 26.6124L51.6263 26.0016C49.5394 25.1363 48.4704 23.8129 48.4704 22.0822C48.4704 20.9624 48.9285 19.8935 49.7939 19.1808C50.7101 18.3664 51.8808 17.9592 53.1025 18.0101C54.7822 18.061 56.1565 18.9263 57.1746 20.6061Z" />
  <path d="M67.7633 27.4778V33.6878H65.4219V18.3665H68.0178C68.985 18.3156 69.9521 18.4174 70.9192 18.621C71.5809 18.8246 72.1918 19.13 72.6499 19.639C73.5152 20.5043 74.0242 21.6751 73.9733 22.8967C74.0242 24.1692 73.5152 25.3909 72.5481 26.2562C71.4791 27.1215 70.1048 27.5796 68.7305 27.5287L67.7633 27.4778ZM67.7633 25.34H68.6287C70.7665 25.34 71.8355 24.5256 71.8355 22.8967C71.8355 21.3188 70.7156 20.5043 68.5269 20.5043H67.7633V25.34Z" />
  <path d="M105.782 27.1722L110.516 33.6875H107.665L103.288 27.4267H102.881V33.6875H100.539V18.3662H103.237C105.273 18.3662 106.749 18.7225 107.614 19.486C108.581 20.3005 109.141 21.573 109.09 22.8455C109.09 23.8636 108.785 24.8307 108.174 25.6451C107.614 26.4086 106.749 26.9685 105.782 27.1722ZM102.881 25.3906H103.593C105.782 25.3906 106.902 24.5762 106.902 22.8964C106.902 21.3185 105.833 20.555 103.695 20.555H102.881V25.3906Z" />
  <path d="M121.975 20.5042V33.6876H119.633V20.5042H116.121L114.492 18.3154H127.116L125.487 20.5042H121.975Z" />
  <path d="M152 33.6876V17.2974L163.198 29.0047V18.3663H165.489V34.6547L154.291 22.9474V33.6876H152Z" />
  <path d="M142.432 33.6879H144.977L137.647 17.3994L130.062 33.6879H132.557L137.647 22.5914L141.414 31.3464L142.432 33.6879Z" />
  <path d="M90.8731 33.6879H93.3672L86.0883 17.3994L78.4531 33.6879H80.9473L86.0374 22.5914L89.8041 31.3464L90.8731 33.6879Z" />
  <path d="M5.35354 26.2051L2.85938 28.801L10.2401 27.6303L5.35354 26.2051Z" />
  <path d="M1.74219 19.4355L5.15258 25.7982L6.27241 21.6243L1.74219 19.4355Z" />
  <path d="M2.25102 29.4118L2.09832 29.6154L0.164062 37.0979L9.98803 28.0884L2.25102 29.4118Z" />
  <path d="M6.98551 11.8511L1.53906 18.8246L7.44362 21.6241L14.0608 22.8967L6.98551 11.8511Z" />
  <path d="M2.0488 28.9031L4.44116 26.5107L1.23438 27.1216L2.0488 28.9031Z" />
  <path d="M4.7423 8.18604L1.38281 18.2645L6.77836 11.3419L4.7423 8.18604Z" />
  <path d="M7.08744 10.9856L15.1808 0.550781L4.79688 7.88058L5.00048 7.77878L7.08744 10.9856Z" />
  <path d="M10.8062 48.4998V28.0884L0.21875 37.7087L10.8062 48.4998Z" />
  <path d="M1.17969 19.4355V26.6635L4.64098 26.0018L1.17969 19.4355Z" />
  <path d="M26.3238 26.2051L21.5391 27.6303L28.8689 28.801L26.3238 26.2051Z" />
  <path d="M26.5339 25.7982L29.9952 19.4355L25.4141 21.6243L26.5339 25.7982Z" />
  <path d="M29.6868 29.6154L29.4323 29.4118L21.6953 28.0884L31.5193 37.0979L29.6868 29.6154Z" />
  <path d="M16.9641 23.0493L24.3957 11.3929L15.8952 0.5L7.34375 11.3929L14.7244 23.0493L12.4339 29.4629L15.8952 31.3462L19.3056 29.4629L16.9641 23.0493Z" />
  <path d="M24.7003 11.8511L17.625 22.8967L24.344 21.6241L30.1467 18.8246L24.7003 11.8511Z" />
  <path d="M30.4528 27.1216L27.2969 26.5107L29.6892 28.9031L30.4528 27.1216Z" />
  <path d="M30.3525 18.2645L27.0439 8.18604L25.0078 11.3419L30.3525 18.2645Z" />
  <path d="M26.735 7.77878L26.8877 7.88058L16.5547 0.550781L24.648 10.9856L26.735 7.77878Z" />
  <path d="M20.9297 48.4998L31.4663 37.7087L20.9297 28.0884V48.4998Z" />
  <path d="M30.5513 26.6635V19.4355L27.0391 26.0018L30.5513 26.6635Z" />
  <g clipPath="url(#clip0_8541_265439)">
        <path d="M57.1746 20.6061L55.2912 21.7259C55.0367 21.2678 54.6804 20.8606 54.2732 20.5552C53.357 20.0462 52.2371 20.148 51.3718 20.8097C50.9646 21.1151 50.7101 21.6241 50.761 22.184C50.761 22.9475 51.3209 23.5075 52.4407 23.9656L53.9678 24.5764C55.0367 24.9327 55.9529 25.5944 56.7165 26.4088C57.3273 27.1724 57.6327 28.0886 57.5818 29.0557C57.6327 30.3791 57.1237 31.6517 56.2074 32.517C55.2912 33.4332 53.9678 33.9422 52.6952 33.8913C51.4736 33.9422 50.3029 33.535 49.3867 32.7206C48.4704 31.8044 47.9105 30.6336 47.7578 29.412L50.0993 28.903C50.1502 29.5647 50.3029 30.2264 50.6592 30.7864C51.5754 31.9062 53.2552 32.1098 54.375 31.1936C54.4259 31.1427 54.4768 31.0918 54.5277 31.0409C54.9858 30.5318 55.2912 29.8701 55.2403 29.2084C55.2403 28.9539 55.1894 28.6485 55.1385 28.394C55.0367 28.1395 54.9349 27.885 54.7313 27.7323C54.5277 27.5287 54.3241 27.3251 54.0696 27.1215C53.7642 26.9178 53.4079 26.7651 53.0516 26.6124L51.6263 26.0016C49.5394 25.1363 48.4704 23.8129 48.4704 22.0822C48.4704 20.9624 48.9285 19.8935 49.7939 19.1808C50.7101 18.3664 51.8808 17.9592 53.1025 18.0101C54.7822 18.061 56.1565 18.9263 57.1746 20.6061Z" />
        <path d="M67.7633 27.4778V33.6878H65.4219V18.3665H68.0178C68.985 18.3156 69.9521 18.4174 70.9192 18.621C71.5809 18.8246 72.1918 19.13 72.6499 19.639C73.5152 20.5043 74.0242 21.6751 73.9733 22.8967C74.0242 24.1692 73.5152 25.3909 72.5481 26.2562C71.4791 27.1215 70.1048 27.5796 68.7305 27.5287L67.7633 27.4778ZM67.7633 25.34H68.6287C70.7665 25.34 71.8355 24.5256 71.8355 22.8967C71.8355 21.3188 70.7156 20.5043 68.5269 20.5043H67.7633V25.34Z" />
        <path d="M105.782 27.1722L110.516 33.6875H107.665L103.288 27.4267H102.881V33.6875H100.539V18.3662H103.237C105.273 18.3662 106.749 18.7225 107.614 19.486C108.581 20.3005 109.141 21.573 109.09 22.8455C109.09 23.8636 108.785 24.8307 108.174 25.6451C107.614 26.4086 106.749 26.9685 105.782 27.1722ZM102.881 25.3906H103.593C105.782 25.3906 106.902 24.5762 106.902 22.8964C106.902 21.3185 105.833 20.555 103.695 20.555H102.881V25.3906Z" />
        <path d="M121.975 20.5042V33.6876H119.633V20.5042H116.121L114.492 18.3154H127.116L125.487 20.5042H121.975Z" />
        <path d="M152 33.6876V17.2974L163.198 29.0047V18.3663H165.489V34.6547L154.291 22.9474V33.6876H152Z" />
        <path d="M142.432 33.6879H144.977L137.647 17.3994L130.062 33.6879H132.557L137.647 22.5914L141.414 31.3464L142.432 33.6879Z" />
        <path d="M90.8731 33.6879H93.3672L86.0883 17.3994L78.4531 33.6879H80.9473L86.0374 22.5914L89.8041 31.3464L90.8731 33.6879Z" />
        <path d="M5.35354 26.2051L2.85938 28.801L10.2401 27.6303L5.35354 26.2051Z" />
        <path d="M1.74219 19.4355L5.15258 25.7982L6.27241 21.6243L1.74219 19.4355Z" />
        <path d="M2.25102 29.4118L2.09832 29.6154L0.164062 37.0979L9.98803 28.0884L2.25102 29.4118Z" />
        <path d="M6.98551 11.8511L1.53906 18.8246L7.44362 21.6241L14.0608 22.8967L6.98551 11.8511Z" />
        <path d="M2.0488 28.9031L4.44116 26.5107L1.23438 27.1216L2.0488 28.9031Z" />
        <path d="M4.7423 8.18604L1.38281 18.2645L6.77836 11.3419L4.7423 8.18604Z" />
        <path d="M7.08744 10.9856L15.1808 0.550781L4.79688 7.88058L5.00048 7.77878L7.08744 10.9856Z" />
        <path d="M10.8062 48.4998V28.0884L0.21875 37.7087L10.8062 48.4998Z" />
        <path d="M1.17969 19.4355V26.6635L4.64098 26.0018L1.17969 19.4355Z" />
        <path d="M26.3238 26.2051L21.5391 27.6303L28.8689 28.801L26.3238 26.2051Z" />
        <path d="M26.5339 25.7982L29.9952 19.4355L25.4141 21.6243L26.5339 25.7982Z" />
        <path d="M29.6868 29.6154L29.4323 29.4118L21.6953 28.0884L31.5193 37.0979L29.6868 29.6154Z" />
        <path d="M16.9641 23.0493L24.3957 11.3929L15.8952 0.5L7.34375 11.3929L14.7244 23.0493L12.4339 29.4629L15.8952 31.3462L19.3056 29.4629L16.9641 23.0493Z" />
        <path d="M24.7003 11.8511L17.625 22.8967L24.344 21.6241L30.1467 18.8246L24.7003 11.8511Z" />
        <path d="M30.4528 27.1216L27.2969 26.5107L29.6892 28.9031L30.4528 27.1216Z" />
        <path d="M30.3525 18.2645L27.0439 8.18604L25.0078 11.3419L30.3525 18.2645Z" />
        <path d="M26.735 7.77878L26.8877 7.88058L16.5547 0.550781L24.648 10.9856L26.735 7.77878Z" />
        <path d="M20.9297 48.4998L31.4663 37.7087L20.9297 28.0884V48.4998Z" />
        <path d="M30.5513 26.6635V19.4355L27.0391 26.0018L30.5513 26.6635Z" />
      </g>
</svg>