<svg viewBox="0 0 95 49" height="12" width="auto" xmlns="http://www.w3.org/2000/svg">
  <path d="M7.29791 20.8834C11.5557 20.8834 13.6255 19.3423 13.6255 16.2656C13.6255 13.8583 11.0214 11.4229 8.52968 9.07183C6.20674 6.86138 3.99066 4.89841 3.99066 3.05355C3.99066 1.51242 5.53179 0.646239 7.57351 0.646239C10.5714 0.646239 12.5569 4.93215 12.8381 7.95254V1.59679C11.8032 1.7599 9.05839 0.5 7.57913 0.5C3.18073 0.5 1.11089 1.98488 1.11089 5.11776C1.11089 7.5532 3.68694 9.70741 6.23486 11.9797C8.6703 14.1058 11.0214 16.1813 11.0214 18.3355C11.0214 19.8204 9.5646 20.7428 7.29791 20.7428C3.68694 20.7428 0.970275 15.4501 0.492188 12.4803L0.689047 18.8923C1.47086 19.5673 4.21565 20.8834 7.29791 20.8834ZM15.5491 8.76248L19.1657 21.3334C20.4538 20.3266 21.7699 20.0453 22.3324 20.0735C22.1917 20.0172 22.0511 19.9047 21.8824 19.6798L24.1491 12.1203L26.7533 21.3334C28.0132 20.3547 29.3574 20.0453 29.9761 20.0735C29.7793 20.0172 29.6387 19.8766 29.4699 19.5954C33.0809 8.11565 33.7277 7.13698 34.7626 6.49016H31.6523C32.8559 7.27197 32.1866 10.4386 29.3574 19.3985C29.1325 18.9204 29.1043 18.7292 26.3314 9.03808C26.0502 8.03129 25.9939 6.96824 26.8095 6.49016H21.5168C21.9949 6.71514 22.6923 7.1876 23.1985 8.75686L24.0647 11.811L21.7699 19.4829C21.573 19.0329 21.5449 18.9767 18.7158 9.03808C18.4345 8.03129 18.3783 6.96824 19.1939 6.49016H13.9011C14.3736 6.71514 15.1048 7.19323 15.5491 8.76248ZM40.0722 20.7428C42.2827 20.7428 43.9925 19.3985 44.5831 17.5762C42.1758 20.7147 37.693 17.7168 36.18 13.5152H44.2456C44.5269 9.98863 43.1826 6.32142 39.7347 6.32142C38.3342 6.32142 37.1587 6.94012 36.6525 7.27197C34.9145 8.36314 33.5421 10.6298 33.5421 13.3465C33.5477 17.4412 36.4894 20.7428 40.0722 20.7428ZM36.0394 13.2396C35.3926 11.2542 35.0607 8.50937 36.7087 7.39009C39.0598 5.82083 41.6358 9.32493 43.0082 12.3734L36.0394 13.2396ZM51.94 20.7428C54.1505 20.7428 55.8604 19.3985 56.4509 17.5762C54.0436 20.7147 49.5609 17.7168 48.0478 13.5152H56.1135C56.3947 9.98863 55.0504 6.32142 51.6026 6.32142C50.2021 6.32142 49.0265 6.94012 48.5203 7.27197C46.7823 8.36314 45.4099 10.6298 45.4099 13.3465C45.4156 17.4412 48.3572 20.7428 51.94 20.7428ZM47.9072 13.2396C47.2604 11.2542 46.9286 8.50937 48.5766 7.39009C50.9276 5.82083 53.5037 9.32493 54.8761 12.3734L47.9072 13.2396ZM56.9796 27.2954H62.0193C61.9068 27.2673 60.9843 26.9861 60.9843 24.4381V17.8011C62.5255 19.9554 64.6516 20.7709 66.1364 20.7147C70.1974 20.5741 71.176 15.1126 69.4099 11.136C68.2625 7.91317 65.124 5.36524 62.2161 6.9345C61.738 7.21572 61.3218 7.5532 60.9843 7.94129V6.07394C60.3994 6.82763 58.7458 7.78381 56.7547 7.78381C57.4015 8.1494 58.0427 8.64999 58.0427 11.0067V24.4494C58.0427 26.9917 57.0921 27.2673 56.9796 27.2954ZM61.4343 14.6401C60.8437 12.3172 60.5681 7.89067 62.413 7.02449C64.151 6.21455 66.2489 9.45992 67.1151 12.7953C68.0375 16.4063 67.5932 19.9891 65.9958 20.4672C64.4266 20.9397 62.3567 18.2792 61.4343 14.6401ZM77.8074 20.7428C80.0178 20.7428 81.7277 19.3985 82.3183 17.5762C79.911 20.7147 75.4282 17.7168 73.9152 13.5152H81.9808C82.2621 9.98863 80.9178 6.32142 77.4699 6.32142C76.0694 6.32142 74.8939 6.94012 74.3877 7.27197C72.6497 8.36314 71.2773 10.6298 71.2773 13.3465C71.2829 17.4412 74.2245 20.7428 77.8074 20.7428ZM73.7746 13.2396C73.1278 11.2542 72.7959 8.50937 74.4439 7.39009C76.795 5.82083 79.371 9.32493 80.7434 12.3734L73.7746 13.2396ZM82.9314 20.4672H87.9429C87.8304 20.4109 86.9079 20.1578 86.9079 17.5818V13.3802C86.9079 11.0011 88.1116 7.89067 90.1252 7.89067C90.8789 7.89067 91.8069 9.26306 90.5751 10.4386C91.0532 10.6636 91.3851 10.7479 91.8632 10.7479C94.5517 10.7479 95.0804 6.37767 91.8632 6.37767C89.259 6.37767 87.3242 9.15057 86.9079 11.7547V6.04582C86.3174 6.79951 84.6694 7.78381 82.7064 7.78381C83.3532 8.12128 83.9944 8.62187 83.9944 10.9786V17.5874C83.9944 20.1578 83.0439 20.4109 82.9314 20.4672ZM29.3349 48.1625C34.4589 48.1625 37.1756 43.7641 37.1756 37.8865C37.1756 30.6645 32.4734 28.1672 26.0052 28.1672H20.0994C20.0994 28.1672 21.3312 28.3359 21.3312 31.0245V44.186C21.3312 46.5933 20.1838 47.2963 19.5932 47.7407C20.9093 47.3188 21.8599 47.1782 23.1198 47.1782C24.9084 47.212 26.787 48.1625 29.3349 48.1625ZM24.9647 47.0432V28.3134C30.4823 28.5103 33.5309 30.7208 33.5309 38.1114C33.5309 46.0646 30.5667 47.0432 24.9647 47.0432ZM35.5782 47.6901H40.5334C41.4559 47.6901 39.3017 45.6483 40.2522 41.2781H47.896C49.409 46.0927 48.959 47.1838 48.3741 47.6901H55.0673C55.3766 47.6901 53.723 47.212 52.9975 45.0015L47.6485 27.8354C45.7137 28.3978 44.2625 28.3697 43.3626 28.3134L43.6438 28.5384C42.4402 32.7119 40.6178 38.3083 39.1329 41.8405C37.1756 46.627 35.5782 47.6901 35.5782 47.6901ZM40.286 41.1093C41.0678 37.6671 42.7495 32.1494 43.7563 28.679C44.0657 29.0728 44.2906 29.6577 47.8735 41.1093H40.286ZM63.6223 48.5C65.664 48.5 67.5988 47.8588 69.0275 46.9589C71.8847 45.2209 74.0671 41.9755 74.0671 38.0271C74.0671 36.1766 73.589 34.4442 72.7509 32.9312C70.9567 29.7365 67.5426 27.5823 63.6223 27.5823C61.1306 27.5823 59.1395 28.5047 58.2171 29.1234C55.191 30.9739 53.1774 34.2755 53.1774 38.0271C53.1774 43.7979 57.8571 48.5 63.6223 48.5ZM57.7727 41.4187C55.3654 37.2453 54.8311 31.4801 58.2789 29.2359C61.9461 26.9973 66.8733 30.1302 69.5055 34.6411C72.5034 39.8775 71.8566 44.9734 68.9431 46.852C65.6415 48.8937 60.7144 46.5427 57.7727 41.4187Z" />
  <path d="M55.224 12.3003L49.5432 13.0765L46.7422 13.5433H56.0733L55.224 12.3003Z" />
  <g clipPath="url(#clip0_8541_265757)">
        <path d="M7.29791 20.8834C11.5557 20.8834 13.6255 19.3423 13.6255 16.2656C13.6255 13.8583 11.0214 11.4229 8.52968 9.07183C6.20674 6.86138 3.99066 4.89841 3.99066 3.05355C3.99066 1.51242 5.53179 0.646239 7.57351 0.646239C10.5714 0.646239 12.5569 4.93215 12.8381 7.95254V1.59679C11.8032 1.7599 9.05839 0.5 7.57913 0.5C3.18073 0.5 1.11089 1.98488 1.11089 5.11776C1.11089 7.5532 3.68694 9.70741 6.23486 11.9797C8.6703 14.1058 11.0214 16.1813 11.0214 18.3355C11.0214 19.8204 9.5646 20.7428 7.29791 20.7428C3.68694 20.7428 0.970275 15.4501 0.492188 12.4803L0.689047 18.8923C1.47086 19.5673 4.21565 20.8834 7.29791 20.8834ZM15.5491 8.76248L19.1657 21.3334C20.4538 20.3266 21.7699 20.0453 22.3324 20.0735C22.1917 20.0172 22.0511 19.9047 21.8824 19.6798L24.1491 12.1203L26.7533 21.3334C28.0132 20.3547 29.3574 20.0453 29.9761 20.0735C29.7793 20.0172 29.6387 19.8766 29.4699 19.5954C33.0809 8.11565 33.7277 7.13698 34.7626 6.49016H31.6523C32.8559 7.27197 32.1866 10.4386 29.3574 19.3985C29.1325 18.9204 29.1043 18.7292 26.3314 9.03808C26.0502 8.03129 25.9939 6.96824 26.8095 6.49016H21.5168C21.9949 6.71514 22.6923 7.1876 23.1985 8.75686L24.0647 11.811L21.7699 19.4829C21.573 19.0329 21.5449 18.9767 18.7158 9.03808C18.4345 8.03129 18.3783 6.96824 19.1939 6.49016H13.9011C14.3736 6.71514 15.1048 7.19323 15.5491 8.76248ZM40.0722 20.7428C42.2827 20.7428 43.9925 19.3985 44.5831 17.5762C42.1758 20.7147 37.693 17.7168 36.18 13.5152H44.2456C44.5269 9.98863 43.1826 6.32142 39.7347 6.32142C38.3342 6.32142 37.1587 6.94012 36.6525 7.27197C34.9145 8.36314 33.5421 10.6298 33.5421 13.3465C33.5477 17.4412 36.4894 20.7428 40.0722 20.7428ZM36.0394 13.2396C35.3926 11.2542 35.0607 8.50937 36.7087 7.39009C39.0598 5.82083 41.6358 9.32493 43.0082 12.3734L36.0394 13.2396ZM51.94 20.7428C54.1505 20.7428 55.8604 19.3985 56.4509 17.5762C54.0436 20.7147 49.5609 17.7168 48.0478 13.5152H56.1135C56.3947 9.98863 55.0504 6.32142 51.6026 6.32142C50.2021 6.32142 49.0265 6.94012 48.5203 7.27197C46.7823 8.36314 45.4099 10.6298 45.4099 13.3465C45.4156 17.4412 48.3572 20.7428 51.94 20.7428ZM47.9072 13.2396C47.2604 11.2542 46.9286 8.50937 48.5766 7.39009C50.9276 5.82083 53.5037 9.32493 54.8761 12.3734L47.9072 13.2396ZM56.9796 27.2954H62.0193C61.9068 27.2673 60.9843 26.9861 60.9843 24.4381V17.8011C62.5255 19.9554 64.6516 20.7709 66.1364 20.7147C70.1974 20.5741 71.176 15.1126 69.4099 11.136C68.2625 7.91317 65.124 5.36524 62.2161 6.9345C61.738 7.21572 61.3218 7.5532 60.9843 7.94129V6.07394C60.3994 6.82763 58.7458 7.78381 56.7547 7.78381C57.4015 8.1494 58.0427 8.64999 58.0427 11.0067V24.4494C58.0427 26.9917 57.0921 27.2673 56.9796 27.2954ZM61.4343 14.6401C60.8437 12.3172 60.5681 7.89067 62.413 7.02449C64.151 6.21455 66.2489 9.45992 67.1151 12.7953C68.0375 16.4063 67.5932 19.9891 65.9958 20.4672C64.4266 20.9397 62.3567 18.2792 61.4343 14.6401ZM77.8074 20.7428C80.0178 20.7428 81.7277 19.3985 82.3183 17.5762C79.911 20.7147 75.4282 17.7168 73.9152 13.5152H81.9808C82.2621 9.98863 80.9178 6.32142 77.4699 6.32142C76.0694 6.32142 74.8939 6.94012 74.3877 7.27197C72.6497 8.36314 71.2773 10.6298 71.2773 13.3465C71.2829 17.4412 74.2245 20.7428 77.8074 20.7428ZM73.7746 13.2396C73.1278 11.2542 72.7959 8.50937 74.4439 7.39009C76.795 5.82083 79.371 9.32493 80.7434 12.3734L73.7746 13.2396ZM82.9314 20.4672H87.9429C87.8304 20.4109 86.9079 20.1578 86.9079 17.5818V13.3802C86.9079 11.0011 88.1116 7.89067 90.1252 7.89067C90.8789 7.89067 91.8069 9.26306 90.5751 10.4386C91.0532 10.6636 91.3851 10.7479 91.8632 10.7479C94.5517 10.7479 95.0804 6.37767 91.8632 6.37767C89.259 6.37767 87.3242 9.15057 86.9079 11.7547V6.04582C86.3174 6.79951 84.6694 7.78381 82.7064 7.78381C83.3532 8.12128 83.9944 8.62187 83.9944 10.9786V17.5874C83.9944 20.1578 83.0439 20.4109 82.9314 20.4672ZM29.3349 48.1625C34.4589 48.1625 37.1756 43.7641 37.1756 37.8865C37.1756 30.6645 32.4734 28.1672 26.0052 28.1672H20.0994C20.0994 28.1672 21.3312 28.3359 21.3312 31.0245V44.186C21.3312 46.5933 20.1838 47.2963 19.5932 47.7407C20.9093 47.3188 21.8599 47.1782 23.1198 47.1782C24.9084 47.212 26.787 48.1625 29.3349 48.1625ZM24.9647 47.0432V28.3134C30.4823 28.5103 33.5309 30.7208 33.5309 38.1114C33.5309 46.0646 30.5667 47.0432 24.9647 47.0432ZM35.5782 47.6901H40.5334C41.4559 47.6901 39.3017 45.6483 40.2522 41.2781H47.896C49.409 46.0927 48.959 47.1838 48.3741 47.6901H55.0673C55.3766 47.6901 53.723 47.212 52.9975 45.0015L47.6485 27.8354C45.7137 28.3978 44.2625 28.3697 43.3626 28.3134L43.6438 28.5384C42.4402 32.7119 40.6178 38.3083 39.1329 41.8405C37.1756 46.627 35.5782 47.6901 35.5782 47.6901ZM40.286 41.1093C41.0678 37.6671 42.7495 32.1494 43.7563 28.679C44.0657 29.0728 44.2906 29.6577 47.8735 41.1093H40.286ZM63.6223 48.5C65.664 48.5 67.5988 47.8588 69.0275 46.9589C71.8847 45.2209 74.0671 41.9755 74.0671 38.0271C74.0671 36.1766 73.589 34.4442 72.7509 32.9312C70.9567 29.7365 67.5426 27.5823 63.6223 27.5823C61.1306 27.5823 59.1395 28.5047 58.2171 29.1234C55.191 30.9739 53.1774 34.2755 53.1774 38.0271C53.1774 43.7979 57.8571 48.5 63.6223 48.5ZM57.7727 41.4187C55.3654 37.2453 54.8311 31.4801 58.2789 29.2359C61.9461 26.9973 66.8733 30.1302 69.5055 34.6411C72.5034 39.8775 71.8566 44.9734 68.9431 46.852C65.6415 48.8937 60.7144 46.5427 57.7727 41.4187Z" />
        <path d="M55.224 12.3003L49.5432 13.0765L46.7422 13.5433H56.0733L55.224 12.3003Z" />
      </g>
</svg>