<svg viewBox="0 0 312 37" height="9" width="auto" xmlns="http://www.w3.org/2000/svg">
  <path d="M30.3432 3.01246L17.6014 0.571785C17.3501 0.535892 17.1348 0.5 16.8835 0.5C16.6323 0.5 16.4169 0.535892 16.1657 0.571785L3.20857 3.01246C1.37806 3.33549 0.0859375 4.91476 0.0859375 6.70937V26.2348C0.0859375 27.6705 0.911461 28.9626 2.16769 29.6087L15.1248 36.1052C15.6632 36.3923 16.2734 36.5 16.8477 36.5C17.4578 36.5 18.068 36.3564 18.6064 36.0693L31.384 29.6087C32.6762 28.9626 33.4658 27.6705 33.4658 26.2707V6.70937C33.4658 4.87886 32.1378 3.33549 30.3432 3.01246ZM30.5585 25.5887C30.5585 26.3425 30.1278 27.0244 29.4459 27.3834L17.7809 33.2697C17.4937 33.4133 17.1707 33.485 16.8477 33.485C16.5246 33.485 16.2016 33.4133 15.9145 33.2697L4.10588 27.3834C3.42392 27.0244 2.99322 26.3425 2.99322 25.5887V7.75025C2.99322 6.78116 3.71106 5.95563 4.68016 5.77617L16.4887 3.55085C16.6323 3.51496 16.74 3.51496 16.8835 3.51496C17.0271 3.51496 17.1348 3.51496 17.2784 3.55085L28.9075 5.77617C29.8766 5.95563 30.5585 6.78116 30.5585 7.75025V25.5887Z" />
  <path d="M15.9508 8.61182V16.8312H7.875V8.61182H9.49015V15.1801H11.1053V8.61182H12.7205V15.1801H14.3356V8.61182H15.9508ZM17.5659 8.61182V10.2629H24.0265V11.9139H17.5659V13.565H24.0265V15.216H17.5659V16.867H25.6417V8.61182H17.5659ZM25.6776 20.0974V18.4463H17.5659V26.6657H25.6417V21.7484H22.4114H20.7962V23.3994H22.4114H24.0265V25.0505H19.1811V20.0974H25.6776ZM15.9508 20.0974V18.4463H7.875V26.6657H15.9508V21.7484H12.7205H11.1053V23.3994H12.7205H14.3356V25.0505H9.49015V20.0974H15.9508Z" />
  <path d="M69.7909 8.71924V26.6654H51.4141V8.71924H55.0751V23.0762H58.7361V8.71924H62.3971V23.0762H66.1299V8.71924H69.7909ZM73.4878 8.71924V12.3085H88.2037V15.8977H73.4878V19.4869H88.2037V23.0762H73.4878V26.6654H91.8647V8.71924H73.4878Z" />
  <path d="M106.145 23.0762H117.164V19.4869H113.503V15.8977H120.861V26.6654H102.484V8.71924H120.861V12.3085H106.145V23.0762ZM150.257 8.71924H146.596V26.6654H150.257V8.71924ZM139.238 8.71924V23.0762H128.219V8.71924H124.558V23.0762V26.6654H128.219H139.238H142.899V23.0762V8.71924H139.238ZM157.615 23.0762V8.71924H153.954V23.0762V26.6654H157.615H172.331V23.0762H157.615ZM208.762 12.3085H223.477V8.71924H205.101V26.6654H223.477V15.8977H216.119V19.4869H219.78V23.0762H208.762V12.3085ZM267.589 8.71924H263.928H260.267H256.606H252.945H249.284V12.3085V26.6654H252.945V12.3085H256.606V26.6654H260.267V12.3085H263.928V26.6654H267.589V8.71924ZM289.663 12.3085V8.71924H271.286V12.3085V15.8977V19.4869V23.0762V26.6654H274.947H289.663V23.0762H274.947V19.4869H289.663V15.8977H274.947V12.3085H289.663ZM311.737 12.3085V8.71924H293.324V12.3085V15.8977V19.4869H308.04V23.0762H293.324V26.6654H311.701V23.0762V19.4869V15.8977H296.985V12.3085H311.737ZM245.515 8.71924V12.3085V15.8977V19.4869V26.6654H241.854V19.4869H230.835V26.6654H227.174V19.4869V15.8977V12.3085V8.71924H230.835H241.854H245.515ZM241.854 12.3085H230.835V15.8977H241.854V12.3085ZM194.405 12.3085V23.0762L190.744 26.6654H179.725H176.064V23.0762V12.3085V8.71924H179.725H190.744L194.405 12.3085ZM190.708 12.3085H179.689V23.0762H190.708V12.3085Z" />
</svg>