<svg viewBox="0 0 107 49" height="12" width="auto" xmlns="http://www.w3.org/2000/svg">
  <path d="M55.5625 42.1082C55.5625 41.8983 55.6302 41.729 55.7724 41.58C55.9146 41.4378 56.0906 41.3701 56.2938 41.3701C56.5037 41.3701 56.673 41.4378 56.8219 41.58C56.9641 41.7222 57.0318 41.8983 57.0318 42.1082C57.0318 42.3181 56.9641 42.4873 56.8219 42.6295C56.6797 42.7717 56.5037 42.8394 56.2938 42.8394C56.0906 42.8394 55.9214 42.7717 55.7724 42.6295C55.637 42.4806 55.5625 42.3181 55.5625 42.1082ZM55.7318 43.7671H56.849V48.5H55.7318V43.7671Z" />
  <path d="M59.0459 48.4998H57.9219V43.7668H59.0188V44.4033C59.1745 44.1325 59.3777 43.9361 59.635 43.8142C59.8923 43.6924 60.1563 43.6382 60.4204 43.6382C60.7116 43.6382 60.9621 43.6924 61.1788 43.7871C61.3887 43.8819 61.5647 44.0174 61.7069 44.1934C61.8491 44.3695 61.9507 44.5658 62.0251 44.7893C62.0928 45.0195 62.1335 45.2565 62.1335 45.5205V48.5066H60.9959V45.7101C60.9959 45.419 60.9282 45.1752 60.7793 44.9653C60.6303 44.7622 60.3865 44.6606 60.0209 44.6606C59.6959 44.6606 59.4521 44.769 59.2896 44.9856C59.1204 45.2023 59.0459 45.4664 59.0459 45.7778V48.4998Z" />
  <path d="M65.5303 48.5001H64.4063L62.4766 43.7671H63.7224L64.9683 47.1526L66.1939 43.7671H67.3788L65.5303 48.5001Z" />
  <path d="M71.8705 47.1527C71.8095 47.3626 71.7147 47.559 71.5928 47.735C71.471 47.9178 71.322 48.0804 71.1324 48.209C70.9496 48.3377 70.7465 48.4528 70.5095 48.5272C70.2725 48.6085 70.0152 48.6423 69.7376 48.6423C69.4126 48.6423 69.1011 48.5882 68.8167 48.4731C68.5256 48.358 68.2683 48.1887 68.0516 47.9788C67.8349 47.7621 67.6589 47.498 67.5234 47.1798C67.388 46.8616 67.3203 46.5095 67.3203 46.11C67.3203 45.7308 67.3812 45.399 67.5167 45.0875C67.6385 44.7828 67.8146 44.5256 68.0245 44.3021C68.2344 44.0854 68.4849 43.9162 68.7625 43.801C69.0469 43.6792 69.3245 43.625 69.6225 43.625C69.9813 43.625 70.3063 43.6859 70.5975 43.801C70.8887 43.9162 71.1256 44.0854 71.3288 44.2953C71.5251 44.5052 71.6809 44.7693 71.7757 45.0672C71.8772 45.3652 71.9314 45.7105 71.9314 46.0761C71.9314 46.1641 71.9314 46.2454 71.9246 46.3131C71.9179 46.3808 71.9043 46.4214 71.9043 46.435H68.4511C68.4578 46.6178 68.4917 46.7803 68.5662 46.9293C68.6339 47.0782 68.7355 47.2137 68.8506 47.3152C68.9657 47.4303 69.1079 47.5116 69.2568 47.5725C69.4058 47.6335 69.5751 47.6605 69.7511 47.6605C70.0964 47.6605 70.3605 47.5793 70.5433 47.4236C70.7262 47.2678 70.8616 47.0715 70.9361 46.8345L71.8705 47.1527ZM70.7871 45.6157C70.7803 45.487 70.7532 45.3516 70.7058 45.223C70.6517 45.1011 70.584 44.986 70.4892 44.8912C70.3944 44.7964 70.2725 44.7151 70.1303 44.6542C69.9881 44.5933 69.8256 44.5662 69.6292 44.5662C69.4532 44.5662 69.2975 44.6 69.1553 44.661C69.0131 44.7219 68.898 44.8032 68.8032 44.9047C68.7084 44.9995 68.6271 45.1146 68.5662 45.2501C68.5052 45.3719 68.4782 45.5074 68.4714 45.6292H70.7939V45.6157H70.7871Z" />
  <path d="M73.174 46.9428C73.1943 47.1527 73.2823 47.349 73.4381 47.5048C73.5938 47.6605 73.824 47.7485 74.1355 47.7485C74.3725 47.7485 74.5485 47.6943 74.6636 47.5928C74.7855 47.4844 74.8397 47.3558 74.8397 47.2068C74.8397 47.0782 74.7923 46.9698 74.711 46.875C74.623 46.787 74.4808 46.7193 74.2912 46.6787L73.587 46.5229C73.1672 46.4349 72.849 46.2589 72.6391 46.0151C72.4292 45.7714 72.3141 45.4802 72.3141 45.1417C72.3141 44.9317 72.3615 44.7354 72.4495 44.5526C72.5375 44.3698 72.6594 44.2072 72.8151 44.0718C72.9709 43.9296 73.1469 43.8281 73.3636 43.74C73.5735 43.6588 73.8037 43.6182 74.0475 43.6182C74.3792 43.6182 74.6569 43.6656 74.8735 43.7604C75.0902 43.8552 75.2798 43.9703 75.422 44.1057C75.5642 44.2343 75.6657 44.3901 75.7402 44.539C75.8079 44.688 75.8553 44.8302 75.8756 44.9453L74.9277 45.2161C74.9074 45.1552 74.8938 45.0739 74.86 44.9995C74.8261 44.9114 74.7787 44.8437 74.711 44.7625C74.6433 44.6948 74.5553 44.6338 74.4469 44.5864C74.3386 44.5323 74.21 44.5187 74.0542 44.5187C73.8511 44.5187 73.6954 44.5729 73.5599 44.6745C73.4381 44.7828 73.3636 44.9114 73.3636 45.0604C73.3636 45.189 73.411 45.2974 73.4855 45.3786C73.5735 45.4667 73.6886 45.5208 73.8376 45.5547L74.5621 45.7036C75.0089 45.7984 75.3475 45.9745 75.5709 46.2318C75.8012 46.4891 75.9163 46.7938 75.9163 47.1391C75.9163 47.3219 75.8824 47.498 75.8012 47.674C75.7334 47.8501 75.6183 48.0193 75.4694 48.1548C75.3204 48.3037 75.1376 48.4188 74.9074 48.5069C74.6772 48.5949 74.4131 48.6355 74.1219 48.6355C73.7766 48.6355 73.4922 48.5813 73.2485 48.4866C73.0047 48.3918 72.8084 48.2699 72.6594 48.1277C72.5037 47.9787 72.3885 47.8298 72.3073 47.6605C72.226 47.4912 72.1854 47.3422 72.1719 47.2136L73.174 46.9428Z" />
  <path d="M78.1032 43.7668H79.085V44.7689H78.1032V46.9695C78.1032 47.1794 78.1574 47.3284 78.2522 47.4164C78.347 47.5112 78.4959 47.5586 78.7126 47.5586C78.7938 47.5586 78.8683 47.5518 78.9496 47.5383C79.0308 47.5315 79.0782 47.518 79.1053 47.5112V48.4456C79.0715 48.4524 78.997 48.4795 78.8954 48.5065C78.7803 48.5336 78.6246 48.5539 78.4214 48.5539C77.9813 48.5539 77.636 48.4321 77.3855 48.1815C77.1282 47.9378 77.0063 47.5925 77.0063 47.1456V44.7622H76.1328V43.76H76.3766C76.6339 43.76 76.8167 43.6923 76.9318 43.5501C77.0469 43.4079 77.1078 43.2319 77.1078 43.022V42.311H78.1303V43.7668H78.1032Z" />
  <path d="M79.8281 48.5001V43.7671H80.9115V44.363C81.0401 44.126 81.2433 43.9432 81.5209 43.8145C81.785 43.6926 82.049 43.6182 82.3199 43.6182C82.6246 43.6182 82.909 43.6859 83.1663 43.8281C83.4236 43.9703 83.6064 44.1802 83.735 44.451C83.9178 44.1463 84.1481 43.9229 84.4121 43.801C84.6762 43.6791 84.9606 43.6182 85.2721 43.6182C85.482 43.6182 85.6919 43.652 85.895 43.7265C86.0981 43.7942 86.2742 43.9025 86.4299 44.0515C86.5856 44.2005 86.7143 44.3833 86.8091 44.6135C86.9039 44.8437 86.9513 45.1078 86.9513 45.426V48.4933H85.8611V45.6089C85.8611 45.3245 85.7934 45.101 85.6445 44.9114C85.4955 44.7286 85.2653 44.6406 84.947 44.6406C84.6491 44.6406 84.4121 44.7489 84.2361 44.9453C84.06 45.1484 83.972 45.3922 83.972 45.6901V48.5069H82.8616V45.6224C82.8616 45.3516 82.7939 45.1213 82.6517 44.9385C82.5095 44.7557 82.2725 44.6541 81.9475 44.6541C81.6428 44.6541 81.4058 44.7489 81.2297 44.9521C81.0537 45.1484 80.9657 45.399 80.9657 45.7104V48.5136H79.8281V48.5001Z" />
  <path d="M92.1116 47.1527C92.0507 47.3626 91.9559 47.559 91.8272 47.735C91.7053 47.9178 91.5564 48.0804 91.3668 48.209C91.184 48.3377 90.9808 48.4528 90.7439 48.5272C90.5069 48.6085 90.2496 48.6423 89.972 48.6423C89.6469 48.6423 89.3355 48.5882 89.0511 48.4731C88.7599 48.358 88.5026 48.1887 88.286 47.9788C88.0693 47.7621 87.8932 47.498 87.7578 47.1798C87.6224 46.8616 87.5547 46.5095 87.5547 46.11C87.5547 45.7308 87.6156 45.399 87.751 45.0875C87.8729 44.7828 88.049 44.5256 88.2589 44.3021C88.4688 44.0854 88.7193 43.9162 88.9969 43.801C89.2813 43.6792 89.5589 43.625 89.8568 43.625C90.2157 43.625 90.5407 43.6859 90.8319 43.801C91.123 43.9162 91.36 44.0854 91.5632 44.2953C91.7595 44.5052 91.9152 44.7693 92.01 45.0672C92.1184 45.3652 92.1658 45.7105 92.1658 46.0761C92.1658 46.1641 92.1658 46.2454 92.159 46.3131C92.1522 46.3808 92.1387 46.4214 92.1387 46.435H88.6787C88.6855 46.6178 88.7261 46.7803 88.7938 46.9293C88.8615 47.0782 88.9631 47.2137 89.0782 47.3152C89.1933 47.4303 89.3355 47.5116 89.4844 47.5725C89.6334 47.6335 89.8027 47.6605 89.9787 47.6605C90.3241 47.6605 90.5881 47.5793 90.7709 47.4236C90.9538 47.2678 91.0892 47.0715 91.1637 46.8345L92.1116 47.1527ZM91.035 45.6157C91.0282 45.487 91.0012 45.3516 90.9538 45.223C90.8996 45.1011 90.8319 44.986 90.7371 44.8912C90.6423 44.7964 90.5204 44.7151 90.3782 44.6542C90.236 44.5933 90.0735 44.5662 89.8772 44.5662C89.7011 44.5662 89.5454 44.6 89.4032 44.661C89.261 44.7219 89.1459 44.8032 89.0511 44.9047C88.9563 44.9995 88.875 45.1146 88.8141 45.2501C88.7532 45.3719 88.7261 45.5074 88.7193 45.6292H91.0418V45.6157H91.035Z" />
  <path d="M93.9834 48.4998H92.8594V43.7668H93.9563V44.4033C94.112 44.1325 94.3152 43.9361 94.5725 43.8142C94.8298 43.6924 95.0938 43.6382 95.3579 43.6382C95.6491 43.6382 95.9063 43.6924 96.1163 43.7871C96.3262 43.8819 96.5022 44.0174 96.6444 44.1934C96.7866 44.3695 96.8882 44.5658 96.9626 44.7893C97.0303 45.0195 97.071 45.2565 97.071 45.5205V48.5066H95.9334V45.7101C95.9334 45.419 95.8657 45.1752 95.7168 44.9653C95.5678 44.7622 95.324 44.6606 94.9584 44.6606C94.6334 44.6606 94.3896 44.769 94.2271 44.9856C94.0579 45.2023 93.9834 45.4664 93.9834 45.7778V48.4998Z" />
  <path d="M99.4782 43.7668H100.46V44.7689H99.4782V46.9695C99.4782 47.1794 99.5324 47.3284 99.6272 47.4164C99.722 47.5112 99.8709 47.5586 100.088 47.5586C100.169 47.5586 100.243 47.5518 100.325 47.5383C100.406 47.5315 100.453 47.518 100.48 47.5112V48.4456C100.446 48.4524 100.372 48.4795 100.27 48.5065C100.155 48.5336 99.9996 48.5539 99.7964 48.5539C99.3563 48.5539 99.011 48.4321 98.7605 48.1815C98.5032 47.9378 98.3813 47.5925 98.3813 47.1456V44.7622H97.5078V43.76H97.7516C98.0089 43.76 98.1917 43.6923 98.3068 43.5501C98.4219 43.4079 98.4828 43.2319 98.4828 43.022V42.311H99.5053V43.7668H99.4782Z" />
  <path d="M101.767 46.9428C101.787 47.1527 101.875 47.349 102.031 47.5048C102.187 47.6605 102.417 47.7485 102.728 47.7485C102.965 47.7485 103.141 47.6943 103.256 47.5928C103.378 47.4844 103.432 47.3558 103.432 47.2068C103.432 47.0782 103.385 46.9698 103.304 46.875C103.216 46.787 103.074 46.7193 102.884 46.6787L102.18 46.5229C101.76 46.4349 101.442 46.2589 101.232 46.0151C101.022 45.7714 100.907 45.4802 100.907 45.1417C100.907 44.9317 100.954 44.7354 101.035 44.5526C101.123 44.3698 101.245 44.2072 101.408 44.0718C101.564 43.9296 101.74 43.8281 101.95 43.74C102.159 43.6588 102.39 43.6182 102.633 43.6182C102.965 43.6182 103.243 43.6656 103.459 43.7604C103.676 43.8552 103.866 43.9703 104.008 44.1057C104.15 44.2343 104.252 44.3901 104.326 44.539C104.394 44.688 104.441 44.8302 104.455 44.9453L103.507 45.2161C103.487 45.1552 103.473 45.0739 103.439 44.9995C103.405 44.9114 103.358 44.8437 103.29 44.7625C103.222 44.6948 103.134 44.6338 103.026 44.5864C102.918 44.5323 102.789 44.5187 102.633 44.5187C102.43 44.5187 102.275 44.5729 102.139 44.6745C102.017 44.7828 101.943 44.9114 101.943 45.0604C101.943 45.189 101.99 45.2974 102.065 45.3786C102.153 45.4667 102.268 45.5208 102.417 45.5547L103.141 45.7036C103.588 45.7984 103.927 45.9745 104.15 46.2318C104.38 46.4891 104.495 46.7938 104.495 47.1391C104.495 47.3219 104.462 47.498 104.38 47.674C104.313 47.8501 104.198 48.0193 104.049 48.1548C103.9 48.3037 103.717 48.4188 103.487 48.5069C103.256 48.5949 102.992 48.6355 102.701 48.6355C102.356 48.6355 102.071 48.5813 101.828 48.4866C101.584 48.3918 101.388 48.2699 101.239 48.1277C101.083 47.9787 100.968 47.8298 100.886 47.6605C100.805 47.4912 100.765 47.3422 100.758 47.2136L101.767 46.9428Z" />
  <path d="M39.659 42.6767L42.3065 36.901L33.8359 19.4385H39.1648L44.866 31.9717L50.1948 19.4385H55.1986L42.5841 47.2743C40.221 47.2743 38.6772 44.8435 39.659 42.6767Z" />
  <path d="M64.8493 18.8291C66.3525 18.8291 67.6999 19.1135 68.9593 19.6484C70.2187 20.1765 71.2818 20.9078 72.2162 21.849C73.1506 22.7834 73.8412 23.8803 74.3694 25.1465C74.8975 26.4059 75.1413 27.8278 75.1413 29.3445C75.1413 30.8477 74.8975 32.2764 74.3694 33.5426C73.8412 34.8426 73.1438 35.9463 72.2162 36.874C71.2818 37.8084 70.2187 38.5464 68.9593 39.0746C67.6999 39.6027 66.3525 39.8938 64.8493 39.8938C63.38 39.8938 62.0461 39.6095 60.7731 39.0746C59.5137 38.5464 58.4168 37.8151 57.5162 36.874C56.6225 35.9396 55.8912 34.8426 55.3969 33.5426C54.8688 32.2426 54.625 30.8613 54.625 29.3445C54.625 27.8414 54.8688 26.4127 55.3969 25.1465C55.925 23.8871 56.6225 22.7902 57.5162 21.849C58.41 20.9146 59.5137 20.1765 60.7731 19.6484C62.0461 19.0661 63.3867 18.8291 64.8493 18.8291ZM64.8493 35.6416C65.5806 35.6416 66.2712 35.5197 66.928 35.2354C67.578 34.951 68.1874 34.5379 68.7223 34.0098C69.2505 33.4817 69.6567 32.8316 69.9479 32.0123C70.2323 31.2404 70.3948 30.306 70.3948 29.2836C70.3948 28.2612 70.2255 27.3335 69.9479 26.5549C69.6635 25.783 69.2505 25.133 68.7223 24.6048C68.1942 24.0767 67.6254 23.6704 66.928 23.4266C66.278 23.1829 65.5806 23.0204 64.8493 23.0204C64.118 23.0204 63.4274 23.1423 62.7706 23.4266C62.1206 23.6704 61.5112 24.0767 61.0236 24.6048C60.5294 25.133 60.1299 25.783 59.7981 26.5549C59.4731 27.3268 59.3038 28.2273 59.3038 29.2836C59.3038 30.306 59.4731 31.2337 59.7981 32.0123C60.1231 32.7842 60.5294 33.4817 61.0236 34.0098C61.5179 34.5379 62.1206 34.9442 62.7706 35.2354C63.4274 35.4724 64.118 35.6416 64.8493 35.6416Z" />
  <path d="M78.0771 39.2644V13.6157C78.0771 11.4963 79.7834 9.79004 81.9027 9.79004H82.7965V35.5539C82.7965 37.5852 81.1241 39.2577 79.0927 39.2577H78.0703V39.2644H78.0771Z" />
  <path d="M95.991 18.8291C97.4941 18.8291 98.8416 19.1135 100.101 19.6484C101.36 20.1765 102.423 20.9078 103.358 21.849C104.292 22.7834 104.983 23.8803 105.511 25.1465C106.039 26.4059 106.283 27.8278 106.283 29.3445C106.283 30.8477 106.039 32.2764 105.511 33.5426C104.983 34.8426 104.285 35.9463 103.358 36.874C102.423 37.8084 101.36 38.5464 100.101 39.0746C98.8416 39.6027 97.5009 39.8938 95.991 39.8938C94.5216 39.8938 93.1877 39.6095 91.9215 39.0746C90.6621 38.5464 89.5652 37.8151 88.6647 36.874C87.7709 35.9396 87.0396 34.8426 86.5453 33.5426C86.0172 32.2426 85.7734 30.8613 85.7734 29.3445C85.7734 27.8414 86.0172 26.4127 86.5453 25.1465C87.0735 23.8871 87.7709 22.7902 88.6647 21.849C89.5585 20.9146 90.6621 20.1765 91.9215 19.6484C93.181 19.0661 94.5284 18.8291 95.991 18.8291ZM95.991 35.6416C96.7222 35.6416 97.4129 35.5197 98.0697 35.2354C98.7197 34.951 99.3291 34.5379 99.864 34.0098C100.392 33.4817 100.798 32.8316 101.09 32.0123C101.374 31.2404 101.536 30.306 101.536 29.2836C101.536 28.2612 101.367 27.3335 101.09 26.5549C100.805 25.783 100.392 25.133 99.864 24.6048C99.3359 24.0767 98.7671 23.6704 98.0697 23.4266C97.4196 23.1829 96.7222 23.0204 95.991 23.0204C95.2597 23.0204 94.569 23.1423 93.9122 23.4266C93.2622 23.6704 92.6528 24.0767 92.1653 24.6048C91.671 25.133 91.2715 25.783 90.9397 26.5549C90.6147 27.3268 90.4455 28.2273 90.4455 29.2836C90.4455 30.306 90.6147 31.2337 90.9397 32.0123C91.2648 32.7842 91.671 33.4817 92.1653 34.0098C92.6596 34.5379 93.2622 34.9442 93.9122 35.2354C94.5623 35.4724 95.2597 35.6416 95.991 35.6416Z" />
  <path d="M16.1474 29.4058C13.764 29.372 11.8816 27.3745 11.8816 24.9979V16.2023C11.8816 15.5522 11.5092 14.9564 10.9337 14.6517L3.14018 10.65C1.02761 9.55986 0.120288 6.97332 1.17657 4.83367C2.25317 2.66693 4.90065 1.79346 7.04708 2.90392L19.1402 9.11297C20.0136 9.55986 20.5621 10.4604 20.5621 11.4422V25.0656C20.5553 27.4828 18.5782 29.4464 16.1474 29.4058Z" />
  <path d="M32.468 5.73402C32.468 8.61849 30.1253 10.968 27.234 10.968C24.3428 10.968 22 8.62526 22 5.73402C22 2.84956 24.3428 0.5 27.234 0.5C30.132 0.5 32.468 2.84278 32.468 5.73402Z" />
  <g clipPath="url(#clip0_8541_265783)">
        <path d="M55.5625 42.1082C55.5625 41.8983 55.6302 41.729 55.7724 41.58C55.9146 41.4378 56.0906 41.3701 56.2938 41.3701C56.5037 41.3701 56.673 41.4378 56.8219 41.58C56.9641 41.7222 57.0318 41.8983 57.0318 42.1082C57.0318 42.3181 56.9641 42.4873 56.8219 42.6295C56.6797 42.7717 56.5037 42.8394 56.2938 42.8394C56.0906 42.8394 55.9214 42.7717 55.7724 42.6295C55.637 42.4806 55.5625 42.3181 55.5625 42.1082ZM55.7318 43.7671H56.849V48.5H55.7318V43.7671Z" />
        <path d="M59.0459 48.4998H57.9219V43.7668H59.0188V44.4033C59.1745 44.1325 59.3777 43.9361 59.635 43.8142C59.8923 43.6924 60.1563 43.6382 60.4204 43.6382C60.7116 43.6382 60.9621 43.6924 61.1788 43.7871C61.3887 43.8819 61.5647 44.0174 61.7069 44.1934C61.8491 44.3695 61.9507 44.5658 62.0251 44.7893C62.0928 45.0195 62.1335 45.2565 62.1335 45.5205V48.5066H60.9959V45.7101C60.9959 45.419 60.9282 45.1752 60.7793 44.9653C60.6303 44.7622 60.3865 44.6606 60.0209 44.6606C59.6959 44.6606 59.4521 44.769 59.2896 44.9856C59.1204 45.2023 59.0459 45.4664 59.0459 45.7778V48.4998Z" />
        <path d="M65.5303 48.5001H64.4063L62.4766 43.7671H63.7224L64.9683 47.1526L66.1939 43.7671H67.3788L65.5303 48.5001Z" />
        <path d="M71.8705 47.1527C71.8095 47.3626 71.7147 47.559 71.5928 47.735C71.471 47.9178 71.322 48.0804 71.1324 48.209C70.9496 48.3377 70.7465 48.4528 70.5095 48.5272C70.2725 48.6085 70.0152 48.6423 69.7376 48.6423C69.4126 48.6423 69.1011 48.5882 68.8167 48.4731C68.5256 48.358 68.2683 48.1887 68.0516 47.9788C67.8349 47.7621 67.6589 47.498 67.5234 47.1798C67.388 46.8616 67.3203 46.5095 67.3203 46.11C67.3203 45.7308 67.3812 45.399 67.5167 45.0875C67.6385 44.7828 67.8146 44.5256 68.0245 44.3021C68.2344 44.0854 68.4849 43.9162 68.7625 43.801C69.0469 43.6792 69.3245 43.625 69.6225 43.625C69.9813 43.625 70.3063 43.6859 70.5975 43.801C70.8887 43.9162 71.1256 44.0854 71.3288 44.2953C71.5251 44.5052 71.6809 44.7693 71.7757 45.0672C71.8772 45.3652 71.9314 45.7105 71.9314 46.0761C71.9314 46.1641 71.9314 46.2454 71.9246 46.3131C71.9179 46.3808 71.9043 46.4214 71.9043 46.435H68.4511C68.4578 46.6178 68.4917 46.7803 68.5662 46.9293C68.6339 47.0782 68.7355 47.2137 68.8506 47.3152C68.9657 47.4303 69.1079 47.5116 69.2568 47.5725C69.4058 47.6335 69.5751 47.6605 69.7511 47.6605C70.0964 47.6605 70.3605 47.5793 70.5433 47.4236C70.7262 47.2678 70.8616 47.0715 70.9361 46.8345L71.8705 47.1527ZM70.7871 45.6157C70.7803 45.487 70.7532 45.3516 70.7058 45.223C70.6517 45.1011 70.584 44.986 70.4892 44.8912C70.3944 44.7964 70.2725 44.7151 70.1303 44.6542C69.9881 44.5933 69.8256 44.5662 69.6292 44.5662C69.4532 44.5662 69.2975 44.6 69.1553 44.661C69.0131 44.7219 68.898 44.8032 68.8032 44.9047C68.7084 44.9995 68.6271 45.1146 68.5662 45.2501C68.5052 45.3719 68.4782 45.5074 68.4714 45.6292H70.7939V45.6157H70.7871Z" />
        <path d="M73.174 46.9428C73.1943 47.1527 73.2823 47.349 73.4381 47.5048C73.5938 47.6605 73.824 47.7485 74.1355 47.7485C74.3725 47.7485 74.5485 47.6943 74.6636 47.5928C74.7855 47.4844 74.8397 47.3558 74.8397 47.2068C74.8397 47.0782 74.7923 46.9698 74.711 46.875C74.623 46.787 74.4808 46.7193 74.2912 46.6787L73.587 46.5229C73.1672 46.4349 72.849 46.2589 72.6391 46.0151C72.4292 45.7714 72.3141 45.4802 72.3141 45.1417C72.3141 44.9317 72.3615 44.7354 72.4495 44.5526C72.5375 44.3698 72.6594 44.2072 72.8151 44.0718C72.9709 43.9296 73.1469 43.8281 73.3636 43.74C73.5735 43.6588 73.8037 43.6182 74.0475 43.6182C74.3792 43.6182 74.6569 43.6656 74.8735 43.7604C75.0902 43.8552 75.2798 43.9703 75.422 44.1057C75.5642 44.2343 75.6657 44.3901 75.7402 44.539C75.8079 44.688 75.8553 44.8302 75.8756 44.9453L74.9277 45.2161C74.9074 45.1552 74.8938 45.0739 74.86 44.9995C74.8261 44.9114 74.7787 44.8437 74.711 44.7625C74.6433 44.6948 74.5553 44.6338 74.4469 44.5864C74.3386 44.5323 74.21 44.5187 74.0542 44.5187C73.8511 44.5187 73.6954 44.5729 73.5599 44.6745C73.4381 44.7828 73.3636 44.9114 73.3636 45.0604C73.3636 45.189 73.411 45.2974 73.4855 45.3786C73.5735 45.4667 73.6886 45.5208 73.8376 45.5547L74.5621 45.7036C75.0089 45.7984 75.3475 45.9745 75.5709 46.2318C75.8012 46.4891 75.9163 46.7938 75.9163 47.1391C75.9163 47.3219 75.8824 47.498 75.8012 47.674C75.7334 47.8501 75.6183 48.0193 75.4694 48.1548C75.3204 48.3037 75.1376 48.4188 74.9074 48.5069C74.6772 48.5949 74.4131 48.6355 74.1219 48.6355C73.7766 48.6355 73.4922 48.5813 73.2485 48.4866C73.0047 48.3918 72.8084 48.2699 72.6594 48.1277C72.5037 47.9787 72.3885 47.8298 72.3073 47.6605C72.226 47.4912 72.1854 47.3422 72.1719 47.2136L73.174 46.9428Z" />
        <path d="M78.1032 43.7668H79.085V44.7689H78.1032V46.9695C78.1032 47.1794 78.1574 47.3284 78.2522 47.4164C78.347 47.5112 78.4959 47.5586 78.7126 47.5586C78.7938 47.5586 78.8683 47.5518 78.9496 47.5383C79.0308 47.5315 79.0782 47.518 79.1053 47.5112V48.4456C79.0715 48.4524 78.997 48.4795 78.8954 48.5065C78.7803 48.5336 78.6246 48.5539 78.4214 48.5539C77.9813 48.5539 77.636 48.4321 77.3855 48.1815C77.1282 47.9378 77.0063 47.5925 77.0063 47.1456V44.7622H76.1328V43.76H76.3766C76.6339 43.76 76.8167 43.6923 76.9318 43.5501C77.0469 43.4079 77.1078 43.2319 77.1078 43.022V42.311H78.1303V43.7668H78.1032Z" />
        <path d="M79.8281 48.5001V43.7671H80.9115V44.363C81.0401 44.126 81.2433 43.9432 81.5209 43.8145C81.785 43.6926 82.049 43.6182 82.3199 43.6182C82.6246 43.6182 82.909 43.6859 83.1663 43.8281C83.4236 43.9703 83.6064 44.1802 83.735 44.451C83.9178 44.1463 84.1481 43.9229 84.4121 43.801C84.6762 43.6791 84.9606 43.6182 85.2721 43.6182C85.482 43.6182 85.6919 43.652 85.895 43.7265C86.0981 43.7942 86.2742 43.9025 86.4299 44.0515C86.5856 44.2005 86.7143 44.3833 86.8091 44.6135C86.9039 44.8437 86.9513 45.1078 86.9513 45.426V48.4933H85.8611V45.6089C85.8611 45.3245 85.7934 45.101 85.6445 44.9114C85.4955 44.7286 85.2653 44.6406 84.947 44.6406C84.6491 44.6406 84.4121 44.7489 84.2361 44.9453C84.06 45.1484 83.972 45.3922 83.972 45.6901V48.5069H82.8616V45.6224C82.8616 45.3516 82.7939 45.1213 82.6517 44.9385C82.5095 44.7557 82.2725 44.6541 81.9475 44.6541C81.6428 44.6541 81.4058 44.7489 81.2297 44.9521C81.0537 45.1484 80.9657 45.399 80.9657 45.7104V48.5136H79.8281V48.5001Z" />
        <path d="M92.1116 47.1527C92.0507 47.3626 91.9559 47.559 91.8272 47.735C91.7053 47.9178 91.5564 48.0804 91.3668 48.209C91.184 48.3377 90.9808 48.4528 90.7439 48.5272C90.5069 48.6085 90.2496 48.6423 89.972 48.6423C89.6469 48.6423 89.3355 48.5882 89.0511 48.4731C88.7599 48.358 88.5026 48.1887 88.286 47.9788C88.0693 47.7621 87.8932 47.498 87.7578 47.1798C87.6224 46.8616 87.5547 46.5095 87.5547 46.11C87.5547 45.7308 87.6156 45.399 87.751 45.0875C87.8729 44.7828 88.049 44.5256 88.2589 44.3021C88.4688 44.0854 88.7193 43.9162 88.9969 43.801C89.2813 43.6792 89.5589 43.625 89.8568 43.625C90.2157 43.625 90.5407 43.6859 90.8319 43.801C91.123 43.9162 91.36 44.0854 91.5632 44.2953C91.7595 44.5052 91.9152 44.7693 92.01 45.0672C92.1184 45.3652 92.1658 45.7105 92.1658 46.0761C92.1658 46.1641 92.1658 46.2454 92.159 46.3131C92.1522 46.3808 92.1387 46.4214 92.1387 46.435H88.6787C88.6855 46.6178 88.7261 46.7803 88.7938 46.9293C88.8615 47.0782 88.9631 47.2137 89.0782 47.3152C89.1933 47.4303 89.3355 47.5116 89.4844 47.5725C89.6334 47.6335 89.8027 47.6605 89.9787 47.6605C90.3241 47.6605 90.5881 47.5793 90.7709 47.4236C90.9538 47.2678 91.0892 47.0715 91.1637 46.8345L92.1116 47.1527ZM91.035 45.6157C91.0282 45.487 91.0012 45.3516 90.9538 45.223C90.8996 45.1011 90.8319 44.986 90.7371 44.8912C90.6423 44.7964 90.5204 44.7151 90.3782 44.6542C90.236 44.5933 90.0735 44.5662 89.8772 44.5662C89.7011 44.5662 89.5454 44.6 89.4032 44.661C89.261 44.7219 89.1459 44.8032 89.0511 44.9047C88.9563 44.9995 88.875 45.1146 88.8141 45.2501C88.7532 45.3719 88.7261 45.5074 88.7193 45.6292H91.0418V45.6157H91.035Z" />
        <path d="M93.9834 48.4998H92.8594V43.7668H93.9563V44.4033C94.112 44.1325 94.3152 43.9361 94.5725 43.8142C94.8298 43.6924 95.0938 43.6382 95.3579 43.6382C95.6491 43.6382 95.9063 43.6924 96.1163 43.7871C96.3262 43.8819 96.5022 44.0174 96.6444 44.1934C96.7866 44.3695 96.8882 44.5658 96.9626 44.7893C97.0303 45.0195 97.071 45.2565 97.071 45.5205V48.5066H95.9334V45.7101C95.9334 45.419 95.8657 45.1752 95.7168 44.9653C95.5678 44.7622 95.324 44.6606 94.9584 44.6606C94.6334 44.6606 94.3896 44.769 94.2271 44.9856C94.0579 45.2023 93.9834 45.4664 93.9834 45.7778V48.4998Z" />
        <path d="M99.4782 43.7668H100.46V44.7689H99.4782V46.9695C99.4782 47.1794 99.5324 47.3284 99.6272 47.4164C99.722 47.5112 99.8709 47.5586 100.088 47.5586C100.169 47.5586 100.243 47.5518 100.325 47.5383C100.406 47.5315 100.453 47.518 100.48 47.5112V48.4456C100.446 48.4524 100.372 48.4795 100.27 48.5065C100.155 48.5336 99.9996 48.5539 99.7964 48.5539C99.3563 48.5539 99.011 48.4321 98.7605 48.1815C98.5032 47.9378 98.3813 47.5925 98.3813 47.1456V44.7622H97.5078V43.76H97.7516C98.0089 43.76 98.1917 43.6923 98.3068 43.5501C98.4219 43.4079 98.4828 43.2319 98.4828 43.022V42.311H99.5053V43.7668H99.4782Z" />
        <path d="M101.767 46.9428C101.787 47.1527 101.875 47.349 102.031 47.5048C102.187 47.6605 102.417 47.7485 102.728 47.7485C102.965 47.7485 103.141 47.6943 103.256 47.5928C103.378 47.4844 103.432 47.3558 103.432 47.2068C103.432 47.0782 103.385 46.9698 103.304 46.875C103.216 46.787 103.074 46.7193 102.884 46.6787L102.18 46.5229C101.76 46.4349 101.442 46.2589 101.232 46.0151C101.022 45.7714 100.907 45.4802 100.907 45.1417C100.907 44.9317 100.954 44.7354 101.035 44.5526C101.123 44.3698 101.245 44.2072 101.408 44.0718C101.564 43.9296 101.74 43.8281 101.95 43.74C102.159 43.6588 102.39 43.6182 102.633 43.6182C102.965 43.6182 103.243 43.6656 103.459 43.7604C103.676 43.8552 103.866 43.9703 104.008 44.1057C104.15 44.2343 104.252 44.3901 104.326 44.539C104.394 44.688 104.441 44.8302 104.455 44.9453L103.507 45.2161C103.487 45.1552 103.473 45.0739 103.439 44.9995C103.405 44.9114 103.358 44.8437 103.29 44.7625C103.222 44.6948 103.134 44.6338 103.026 44.5864C102.918 44.5323 102.789 44.5187 102.633 44.5187C102.43 44.5187 102.275 44.5729 102.139 44.6745C102.017 44.7828 101.943 44.9114 101.943 45.0604C101.943 45.189 101.99 45.2974 102.065 45.3786C102.153 45.4667 102.268 45.5208 102.417 45.5547L103.141 45.7036C103.588 45.7984 103.927 45.9745 104.15 46.2318C104.38 46.4891 104.495 46.7938 104.495 47.1391C104.495 47.3219 104.462 47.498 104.38 47.674C104.313 47.8501 104.198 48.0193 104.049 48.1548C103.9 48.3037 103.717 48.4188 103.487 48.5069C103.256 48.5949 102.992 48.6355 102.701 48.6355C102.356 48.6355 102.071 48.5813 101.828 48.4866C101.584 48.3918 101.388 48.2699 101.239 48.1277C101.083 47.9787 100.968 47.8298 100.886 47.6605C100.805 47.4912 100.765 47.3422 100.758 47.2136L101.767 46.9428Z" />
        <path d="M39.659 42.6767L42.3065 36.901L33.8359 19.4385H39.1648L44.866 31.9717L50.1948 19.4385H55.1986L42.5841 47.2743C40.221 47.2743 38.6772 44.8435 39.659 42.6767Z" />
        <path d="M64.8493 18.8291C66.3525 18.8291 67.6999 19.1135 68.9593 19.6484C70.2187 20.1765 71.2818 20.9078 72.2162 21.849C73.1506 22.7834 73.8412 23.8803 74.3694 25.1465C74.8975 26.4059 75.1413 27.8278 75.1413 29.3445C75.1413 30.8477 74.8975 32.2764 74.3694 33.5426C73.8412 34.8426 73.1438 35.9463 72.2162 36.874C71.2818 37.8084 70.2187 38.5464 68.9593 39.0746C67.6999 39.6027 66.3525 39.8938 64.8493 39.8938C63.38 39.8938 62.0461 39.6095 60.7731 39.0746C59.5137 38.5464 58.4168 37.8151 57.5162 36.874C56.6225 35.9396 55.8912 34.8426 55.3969 33.5426C54.8688 32.2426 54.625 30.8613 54.625 29.3445C54.625 27.8414 54.8688 26.4127 55.3969 25.1465C55.925 23.8871 56.6225 22.7902 57.5162 21.849C58.41 20.9146 59.5137 20.1765 60.7731 19.6484C62.0461 19.0661 63.3867 18.8291 64.8493 18.8291ZM64.8493 35.6416C65.5806 35.6416 66.2712 35.5197 66.928 35.2354C67.578 34.951 68.1874 34.5379 68.7223 34.0098C69.2505 33.4817 69.6567 32.8316 69.9479 32.0123C70.2323 31.2404 70.3948 30.306 70.3948 29.2836C70.3948 28.2612 70.2255 27.3335 69.9479 26.5549C69.6635 25.783 69.2505 25.133 68.7223 24.6048C68.1942 24.0767 67.6254 23.6704 66.928 23.4266C66.278 23.1829 65.5806 23.0204 64.8493 23.0204C64.118 23.0204 63.4274 23.1423 62.7706 23.4266C62.1206 23.6704 61.5112 24.0767 61.0236 24.6048C60.5294 25.133 60.1299 25.783 59.7981 26.5549C59.4731 27.3268 59.3038 28.2273 59.3038 29.2836C59.3038 30.306 59.4731 31.2337 59.7981 32.0123C60.1231 32.7842 60.5294 33.4817 61.0236 34.0098C61.5179 34.5379 62.1206 34.9442 62.7706 35.2354C63.4274 35.4724 64.118 35.6416 64.8493 35.6416Z" />
        <path d="M78.0771 39.2644V13.6157C78.0771 11.4963 79.7834 9.79004 81.9027 9.79004H82.7965V35.5539C82.7965 37.5852 81.1241 39.2577 79.0927 39.2577H78.0703V39.2644H78.0771Z" />
        <path d="M95.991 18.8291C97.4941 18.8291 98.8416 19.1135 100.101 19.6484C101.36 20.1765 102.423 20.9078 103.358 21.849C104.292 22.7834 104.983 23.8803 105.511 25.1465C106.039 26.4059 106.283 27.8278 106.283 29.3445C106.283 30.8477 106.039 32.2764 105.511 33.5426C104.983 34.8426 104.285 35.9463 103.358 36.874C102.423 37.8084 101.36 38.5464 100.101 39.0746C98.8416 39.6027 97.5009 39.8938 95.991 39.8938C94.5216 39.8938 93.1877 39.6095 91.9215 39.0746C90.6621 38.5464 89.5652 37.8151 88.6647 36.874C87.7709 35.9396 87.0396 34.8426 86.5453 33.5426C86.0172 32.2426 85.7734 30.8613 85.7734 29.3445C85.7734 27.8414 86.0172 26.4127 86.5453 25.1465C87.0735 23.8871 87.7709 22.7902 88.6647 21.849C89.5585 20.9146 90.6621 20.1765 91.9215 19.6484C93.181 19.0661 94.5284 18.8291 95.991 18.8291ZM95.991 35.6416C96.7222 35.6416 97.4129 35.5197 98.0697 35.2354C98.7197 34.951 99.3291 34.5379 99.864 34.0098C100.392 33.4817 100.798 32.8316 101.09 32.0123C101.374 31.2404 101.536 30.306 101.536 29.2836C101.536 28.2612 101.367 27.3335 101.09 26.5549C100.805 25.783 100.392 25.133 99.864 24.6048C99.3359 24.0767 98.7671 23.6704 98.0697 23.4266C97.4196 23.1829 96.7222 23.0204 95.991 23.0204C95.2597 23.0204 94.569 23.1423 93.9122 23.4266C93.2622 23.6704 92.6528 24.0767 92.1653 24.6048C91.671 25.133 91.2715 25.783 90.9397 26.5549C90.6147 27.3268 90.4455 28.2273 90.4455 29.2836C90.4455 30.306 90.6147 31.2337 90.9397 32.0123C91.2648 32.7842 91.671 33.4817 92.1653 34.0098C92.6596 34.5379 93.2622 34.9442 93.9122 35.2354C94.5623 35.4724 95.2597 35.6416 95.991 35.6416Z" />
        <path d="M16.1474 29.4058C13.764 29.372 11.8816 27.3745 11.8816 24.9979V16.2023C11.8816 15.5522 11.5092 14.9564 10.9337 14.6517L3.14018 10.65C1.02761 9.55986 0.120288 6.97332 1.17657 4.83367C2.25317 2.66693 4.90065 1.79346 7.04708 2.90392L19.1402 9.11297C20.0136 9.55986 20.5621 10.4604 20.5621 11.4422V25.0656C20.5553 27.4828 18.5782 29.4464 16.1474 29.4058Z" />
        <path d="M32.468 5.73402C32.468 8.61849 30.1253 10.968 27.234 10.968C24.3428 10.968 22 8.62526 22 5.73402C22 2.84956 24.3428 0.5 27.234 0.5C30.132 0.5 32.468 2.84278 32.468 5.73402Z" />
      </g>
</svg>